<?xml version="1.0" encoding="UTF-8" standalone="no"?>
<!-- Created with Inkscape (http://www.inkscape.org/) -->

<svg
   xmlns:dc="http://purl.org/dc/elements/1.1/"
   xmlns:cc="http://creativecommons.org/ns#"
   xmlns:rdf="http://www.w3.org/1999/02/22-rdf-syntax-ns#"
   xmlns:svg="http://www.w3.org/2000/svg"
   xmlns="http://www.w3.org/2000/svg"
   xmlns:sodipodi="http://sodipodi.sourceforge.net/DTD/sodipodi-0.dtd"
   xmlns:inkscape="http://www.inkscape.org/namespaces/inkscape"
   width="281.52985"
   height="216.88277"
   id="svg2"
   version="1.1"
   inkscape:version="0.48.5 r10040">
  <defs
     id="defs4" />
  <sodipodi:namedview
     id="base"
     pagecolor="#ffffff"
     bordercolor="#666666"
     borderopacity="1.0"
     inkscape:pageopacity="0.0"
     inkscape:pageshadow="2"
     inkscape:zoom="1.7080745"
     inkscape:cx="122.90649"
     inkscape:cy="106.55854"
     inkscape:document-units="px"
     inkscape:current-layer="layer1"
     showgrid="false"
     inkscape:window-width="1366"
     inkscape:window-height="718"
     inkscape:window-x="0"
     inkscape:window-y="0"
     inkscape:window-maximized="1"
     fit-margin-top="0"
     fit-margin-left="0"
     fit-margin-right="0"
     fit-margin-bottom="0" />
  <metadata
     id="metadata7">
    <rdf:RDF>
      <cc:Work
         rdf:about="">
        <dc:format>image/svg+xml</dc:format>
        <dc:type
           rdf:resource="http://purl.org/dc/dcmitype/StillImage" />
        <dc:title></dc:title>
      </cc:Work>
    </rdf:RDF>
  </metadata>
  <g
     inkscape:label="Layer 1"
     inkscape:groupmode="layer"
     id="layer1"
     transform="translate(-757.27997,-1542.3845)">
    <g
       id="g3569"
       transform="translate(56.203636,-1.1709091)">
      <path
         style="fill:#eca5a5"
         d="m 883.23616,1759.4137 c -19.88471,-2.8104 -36.5791,-17.3502 -41.37498,-36.035 -0.6329,-2.4658 -1.34141,-5.0511 -1.57448,-5.745 -0.28203,-0.8398 -2.57571,0.2115 -6.85859,3.1437 -8.30958,5.6889 -16.00032,8.5139 -26.59522,9.769 -15.53674,1.8405 -41.09421,-0.5498 -55.27526,-5.1698 -20.07449,-6.54 -38.69004,-23.6587 -47.04586,-43.2629 -3.02267,-7.0917 -3.07633,-7.5076 -3.0604,-23.7183 0.0158,-16.037 0.10367,-16.7293 3.13272,-24.6709 11.54622,-30.2723 34.44097,-57.6047 54.99705,-65.657 9.79502,-3.837 22.75598,-4.9069 32.63175,-2.6937 2.67394,0.5993 5.06778,0.8835 5.31966,0.6316 0.86115,-0.8612 -8.10139,-9.7472 -12.33132,-12.2261 -2.99098,-1.7529 -5.43439,-2.4034 -8.3752,-2.2299 -2.75464,0.1625 -4.46085,-0.2429 -5.0692,-1.2045 -1.3321,-2.1056 -1.19281,-2.64 1.30237,-4.9965 2.40084,-2.2674 5.86697,-2.2452 14.06551,0.09 13.98369,3.9834 56.74867,60.2581 66.72431,87.803 1.2641,3.4904 2.85765,6.5609 3.54121,6.8232 0.68356,0.2623 3.19497,-1.678 5.58091,-4.3117 13.08799,-14.4471 25.55288,-22.1149 39.96901,-24.587 6.2028,-1.0636 7.55543,-0.9947 11.69167,0.596 2.57256,0.9894 6.85109,2.1902 9.50784,2.6685 9.98721,1.798 25.40445,12.2337 35.73027,24.1852 11.76266,13.6146 19.74368,27.8902 21.12134,37.7795 1.91904,13.7755 2.04018,17.789 0.82558,27.3526 -1.02558,8.0753 -2.08381,11.8025 -5.18232,18.2524 -7.9715,16.5937 -22.0133,29.1794 -38.84935,34.8207 -8.00539,2.6824 -9.58639,2.8571 -28.47598,3.1455 -11,0.168 -22.73287,-0.081 -26.07304,-0.5529 z m 37.26572,-8.6215 c 16.84354,-3.9749 25.44574,-8.5747 34.74509,-18.579 17.7744,-19.122 21.40696,-44.0388 9.81404,-67.3178 -9.05141,-18.1755 -27.88423,-36.9457 -40.45327,-40.3187 -5.83556,-1.566 -10.66873,0.2879 -20.79651,7.9771 -5.03997,3.8264 -9.91474,6.8148 -10.83281,6.6408 -3.28736,-0.6229 -2.49981,-5.1814 1.79259,-10.3758 2.23407,-2.7035 3.61733,-5.0637 3.07391,-5.2448 -3.76473,-1.2549 -22.69694,13.7773 -30.63549,24.3246 l -5.63182,7.4825 -0.25635,12.7572 c -0.28022,13.9446 -1.52281,18.8687 -7.67352,30.4086 -2.86518,5.3757 -3.23411,6.9479 -3.10325,13.2247 0.0827,3.9674 1.05312,10.0039 2.19011,13.6238 5.28454,16.8249 18.4456,24.7691 44.5746,26.9061 9.59609,0.7848 14.94713,0.4366 23.19268,-1.5093 z m -100.91573,-33.5166 c 3.63927,-1.7579 8.96517,-5.6265 12.67415,-9.2061 6.01603,-5.8062 6.43785,-6.5126 7.07958,-11.8545 0.37531,-3.1242 0.49327,-6.2478 0.26213,-6.9412 -0.23113,-0.6934 -3.39847,2.9878 -7.03852,8.1805 -9.49913,13.5507 -12.39741,16.4913 -20.25429,20.5503 -6.51523,3.3659 -6.72299,3.5708 -3,2.9597 2.2,-0.3611 6.82463,-2.021 10.27695,-3.6887 z m -74.79226,-6.6302 c -0.0308,-1.5098 -1.66987,-2.9909 -10.84209,-9.7969 -6.90008,-5.1201 -9.97233,-8.1265 -11.69902,-11.4483 -3.35206,-6.4487 -6.43088,-10.762 -6.42761,-9.0048 0.009,5.0203 15.39568,23.7562 23.28362,28.3524 4.57565,2.6662 5.70851,3.0443 5.6851,1.8976 z m 33.01531,-3.25 c -1.22698,-2.2926 -4.23259,-2.6296 -5.86888,-0.658 -1.52468,1.8371 -0.42194,2.658 3.57073,2.658 3.05864,0 3.27005,-0.184 2.29815,-2 z m 23,0 c 1.29269,-0.8354 1.26629,-0.9715 -0.19098,-0.9847 -0.93004,-0.01 -1.9691,0.4347 -2.30902,0.9847 -0.78218,1.2656 0.54163,1.2656 2.5,0 z m -46.80472,-12.6871 c 3.67459,-3.5205 3.53849,-4.3129 -0.74073,-4.3129 -4.12732,0 -8.45455,-3.6391 -8.45455,-7.1101 0,-1.2106 1.18762,-3.7582 2.63915,-5.6612 l 2.63916,-3.4601 -3.13916,-2.4568 c -1.72653,-1.3512 -3.13915,-3.0726 -3.13915,-3.8253 0,-2.5904 -1.93936,-2.555 -5.96497,0.109 -2.21927,1.4687 -4.03503,3.0059 -4.03503,3.4161 0,0.4102 -1.35,1.305 -3,1.9884 -1.65,0.6835 -2.98892,1.5256 -2.97538,1.8713 0.0135,0.3458 1.92604,3.7339 4.25,7.5292 3.55281,5.802 5.26002,7.4994 10.72538,10.6635 3.575,2.0697 6.92538,3.802 7.44528,3.8496 0.51991,0.048 2.20741,-1.1228 3.75,-2.6007 z m 74.37592,-19.1061 c 2.40824,-4.8164 2.8593,-6.9549 2.89111,-13.7068 0.0208,-4.4267 -0.77078,-11.35 -1.77231,-15.5 -0.99549,-4.125 -2.17096,-9.75 -2.61215,-12.5 -1.35912,-8.4716 -10.93814,-25.8602 -16.33528,-29.6532 -1.78341,-1.2533 -6.6396,-5.4975 -10.79152,-9.4316 -7.46421,-7.0725 -11.37735,-9.4143 -12.97479,-7.7645 -1.48092,1.5294 0.14319,6.2538 2.38413,6.9352 3.36715,1.0239 5.63961,3.5076 5.63961,6.1637 0,1.7467 -2.13017,4.429 -7.5,9.4438 -4.24741,3.9666 -7.5,7.8287 -7.5,8.9054 0,2.6372 0.89574,2.3946 4.67196,-1.2655 3.77502,-3.6589 8.17977,-4.1824 11.31513,-1.345 3.32152,3.006 2.4801,5.8285 -3.47251,11.6485 -6.10198,5.966 -7.68258,9.312 -1.76458,3.7354 10.41781,-9.8167 16.29869,-11.9144 20.79545,-7.4177 4.3181,4.3181 3.79988,5.2255 -8.58471,15.0312 -4.10341,3.2489 -7.78382,6.3812 -8.17869,6.9607 -1.61136,2.3647 1.44894,1.4673 6.91025,-2.0263 7.80771,-4.9945 12.45568,-4.7491 15.43337,0.8147 1.30264,2.434 -0.0631,4.5545 -7.69412,11.9463 -6.63394,6.426 -6.53369,7.3531 1.16325,10.7578 4.54977,2.0126 6.19469,4.9983 4.93697,8.961 -0.42386,1.3355 0.30313,3.6686 2.09683,6.7293 l 2.74564,4.6851 2.67177,-3.2003 c 1.46947,-1.7602 3.95581,-5.7684 5.52519,-8.9072 z m -32.58102,-0.695 c 1.00286,-1.2083 0.91924,-1.6093 -0.44477,-2.1327 -1.97026,-0.7561 -4.07104,0.9614 -3.09926,2.5338 0.92279,1.4931 2.08078,1.362 3.54403,-0.4011 z m -82.38689,-8.0717 c -1.43349,-5.927 -1.43685,-5.9309 -1.51998,-1.7552 -0.084,4.2214 1.81301,10.7198 2.55587,8.7552 0.22043,-0.583 -0.24572,-3.733 -1.03589,-7 z m 16.22604,-9.7924 c 0.25442,-1.3211 -0.15595,-1.7314 -1.47703,-1.477 -1.00613,0.1937 -1.98787,1.1755 -2.18163,2.1816 -0.25442,1.3211 0.15595,1.7315 1.47703,1.477 1.00613,-0.1937 1.98787,-1.1755 2.18163,-2.1816 z m 118.56368,-0.2295 c 0.33385,-0.87 0.60699,-2.6464 0.60699,-3.9477 0,-2.5722 -5.73202,-19.376 -7.13626,-20.9205 -1.37016,-1.507 -1.03852,0.2907 1.65113,8.95 1.36667,4.4 2.48492,10.1375 2.48499,12.75 1.4e-4,4.675 1.20358,6.2682 2.39315,3.1682 z m -135.68575,-6.6565 c -0.23919,-1.2439 -0.44398,-0.4617 -0.45508,1.7383 -0.0111,2.2 0.18461,3.2178 0.4349,2.2617 0.25029,-0.9561 0.25937,-2.7561 0.0202,-4 z m 3.26211,-10.7617 c 0,-1.3333 -0.1077,-1.3333 -0.96937,0 -0.53316,0.825 -0.96937,2.175 -0.96937,3 0,1.3333 0.1077,1.3333 0.96937,0 0.53316,-0.825 0.96937,-2.175 0.96937,-3 z m 11.51495,-21.1143 c 1.87139,-2.0714 4.16194,-5.2556 5.09009,-7.076 2.70759,-5.3102 20.52236,-25.9148 25.2926,-29.2534 7.44426,-5.21 7.91152,-5.7298 3.63299,-4.0419 -12.8765,5.0801 -31.19687,25.4795 -39.49721,43.9794 -3.65621,8.149 -3.89832,10.615 -0.44986,4.5821 1.39087,-2.4332 4.05999,-6.1188 5.93139,-8.1902 z m 92.51568,-23.3745 c 0,-0.2689 -2.01751,-3.1417 -4.48336,-6.3841 -3.3881,-4.4551 -5.23105,-6.005 -7.54402,-6.3444 -1.68337,-0.2471 -3.24508,-0.1509 -3.47046,0.2138 -0.48582,0.7861 9.11764,10.2686 11.99784,11.8468 2.16713,1.1875 3.5,1.4418 3.5,0.6679 z m -46.18376,-7.4599 c 0.52623,-1.5787 -0.94489,-1.2702 -4.61574,0.9678 -1.81472,1.1065 -3.0135,2.4745 -2.66396,3.04 0.6905,1.1173 6.66838,-2.1739 7.2797,-4.0078 z m 19.91293,-12.6555 c -0.33229,-0.3323 -1.1948,-0.3678 -1.91667,-0.079 -0.79773,0.3192 -0.56078,0.5562 0.60417,0.6042 1.05416,0.043 1.64479,-0.193 1.3125,-0.5253 z"
         id="path3583"
         inkscape:connector-curvature="0" />
      <path
         style="fill:#a29e9e"
         d="m 883.89215,1759.2936 c -3.52937,-0.5387 -9.82937,-2.3858 -14,-4.1047 -13.28177,-5.4742 -25.15096,-19.6865 -28.16058,-33.7198 -0.59845,-2.7906 -1.54855,-5.0737 -2.11133,-5.0737 -0.56278,0 -2.66299,1.2912 -4.66714,2.8694 -5.20987,4.1024 -12.7877,7.723 -20.2153,9.6585 -5.34302,1.3923 -9.80595,1.5924 -26.4286,1.1848 -17.48985,-0.4289 -21.24282,-0.8221 -29.90238,-3.1332 -12.27165,-3.275 -25.33318,-9.9171 -33.08016,-16.8218 -8.0218,-7.1497 -16.57768,-18.9717 -20.56695,-28.4182 -3.24349,-7.6804 -3.31143,-8.1439 -3.34778,-22.8395 -0.0346,-14.0011 0.15259,-15.5328 2.81157,-23 11.73957,-32.9685 35.77726,-61.0747 58.63597,-68.5604 6.1651,-2.0189 9.34657,-2.4259 18.44973,-2.3599 6.05,0.044 12.2375,0.5952 13.75,1.2252 4.52499,1.885 3.39686,-0.737 -3,-6.9725 -7.00258,-6.826 -9.41777,-8.1328 -15.23851,-8.2452 -3.84585,-0.074 -4.55742,-0.4098 -4.82276,-2.274 -0.20975,-1.4736 0.55057,-2.7515 2.33123,-3.9182 2.35105,-1.5405 3.21256,-1.588 7.81127,-0.4309 8.01972,2.0179 10.52821,3.6829 19.85103,13.1757 20.78404,21.1631 44.54826,56.287 51.8538,76.6409 1.23988,3.4544 2.69782,6.5548 3.23988,6.8898 0.54206,0.335 3.89883,-2.6147 7.45949,-6.5549 7.56382,-8.37 16.32667,-14.8938 25.91824,-19.2957 8.30784,-3.8127 20.9781,-5.0714 25.92126,-2.5752 1.60879,0.8124 4.92227,1.7836 7.3633,2.1581 9.37179,1.438 21.89254,9.4791 32.95163,21.1623 13.37059,14.1251 22.25113,29.1066 24.2648,40.9349 1.95216,11.4669 2.04576,18.1566 0.39866,28.4928 -2.27711,14.2896 -7.06505,23.4598 -18.05332,34.5768 -8.9322,9.0368 -15.21517,12.9945 -27,17.0074 -7.42988,2.53 -9.35404,2.7446 -27,3.0124 -10.45,0.1585 -21.88767,-0.1525 -25.41705,-0.6912 z m 37.91705,-8.3417 c 16.47595,-4.1513 25.68972,-9.4396 35.14746,-20.1733 10.28071,-11.6677 14.85254,-23.5911 14.85254,-38.7357 0,-18.2702 -5.78408,-30.9474 -23.13515,-50.706 -7.36035,-8.3816 -16.92777,-15.1827 -24.00467,-17.064 -6.04939,-1.6081 -11.14382,0.2456 -20.40486,7.4245 -10.09178,7.8229 -10.043,7.7935 -11.80895,7.1158 -2.79396,-1.0721 -1.83371,-4.9234 2.43742,-9.7756 2.24608,-2.5517 3.92778,-5.1075 3.73711,-5.6795 -0.63336,-1.9001 -12.18551,4.849 -19.25201,11.2475 -3.8121,3.4517 -9.60292,9.6381 -12.86848,13.7475 l -5.93738,7.4715 0.63831,7.044 c 0.97051,10.7099 -1.38206,22.0952 -6.86172,33.2075 -5.27772,10.7027 -5.65704,14.6303 -2.57631,26.6758 3.08311,12.0549 9.26576,19.6193 19.88839,24.3333 13.20988,5.8622 35.42888,7.5753 50.1483,3.8667 z M 821.45624,1716.837 c 6.15983,-3.5726 14.61271,-11.0592 16.60296,-14.7048 1.05719,-1.9365 1.75,-5.3516 1.75,-8.6262 l 0,-5.4206 -2.09961,1.9002 c -1.15479,1.045 -4.53848,5.5655 -7.51931,10.0454 -6.73332,10.1195 -12.27036,15.2983 -19.60846,18.3398 -3.12703,1.2961 -5.47998,2.6891 -5.22877,3.0956 0.70922,1.1475 11.48327,-1.9498 16.10319,-4.6294 z m -75.24013,-5.6916 c -1.56,-2.7421 -4.13672,-5.1415 -8.90691,-8.2936 -2.75,-1.8173 -6.69889,-4.8009 -8.7753,-6.6303 -4.84118,-4.2652 -13.71957,-19.336 -13.74032,-23.3238 -0.009,-1.6513 -0.61448,-5.5466 -1.34641,-8.6563 -2.82672,-12.0097 3.58828,-32.893 14.04889,-45.7345 2.43766,-2.9925 5.12789,-6.7864 5.97828,-8.4309 1.73256,-3.3504 9.87895,-13.2871 17.91803,-21.8558 5.2942,-5.643 15.78854,-12.367 21.78026,-13.9552 2.55615,-0.6775 2.30385,-0.7395 -1.36343,-0.335 -8.25157,0.9102 -18.54791,6.9116 -28.09731,16.3769 -14.57671,14.4484 -25.38662,33.4916 -30.98727,54.5885 -4.30345,16.2106 -0.63394,34.0575 9.92483,48.2701 6.02164,8.1055 8.94665,10.9415 16.13695,15.6462 5.55865,3.637 8.73957,4.6362 7.42971,2.3337 z m 35.59309,-1.2905 c 0,-1.4838 -4.57625,-6.459 -5.93806,-6.4558 -2.44353,0.01 -8.44014,4.0215 -7.44545,4.9859 1.38067,1.3385 13.38351,2.6568 13.38351,1.4699 z m 17.46607,-1.1447 c 3.90477,-1.8621 4.36649,-2.7813 1.87681,-3.7367 -1.46788,-0.5633 -9.34288,3.5973 -9.34288,4.9361 0,1.0577 4.1212,0.3957 7.46607,-1.1994 z m -40.6089,-16.7992 c 3.37856,-4.1165 6.14283,-7.7165 6.14283,-8 0,-1.338 -3.14358,-0.2657 -5.81763,1.9844 -3.42425,2.8813 -7.71645,3.2316 -10.35363,0.845 -2.50766,-2.2694 -2.29229,-5.0054 0.67126,-8.5274 3.23844,-3.8486 3.15324,-5.4284 -0.39158,-7.2615 -1.59037,-0.8224 -3.36696,-2.859 -3.94798,-4.5257 -0.58102,-1.6667 -1.7088,-3.0304 -2.50618,-3.0304 -0.79739,0 -4.64194,2.4977 -8.54346,5.5504 l -7.09367,5.5504 2.95673,5.1996 c 4.82129,8.4786 7.52105,11.2332 15.22029,15.5298 4.01821,2.2424 7.35408,4.0979 7.41302,4.1234 0.0589,0.025 2.87144,-3.3216 6.25,-7.438 z m 24.33732,-7.7211 c -1.26705,-1.2671 -3.19449,-0.1812 -3.19449,1.7997 0,1.1914 0.40659,1.2586 2.10736,0.3483 1.43276,-0.7667 1.78077,-1.4544 1.08713,-2.148 z m 41.03616,-0.5669 c 8.58666,-12.9753 9.57488,-18.5169 6.1635,-34.5626 -1.42247,-6.6907 -2.9003,-14.19 -3.28406,-16.665 -0.38376,-2.475 -2.41528,-7.65 -4.51449,-11.5 -2.09921,-3.85 -4.47794,-8.2435 -5.28607,-9.7633 -0.80813,-1.5199 -3.75322,-4.6699 -6.54466,-7 -2.79143,-2.3302 -6.01798,-5.1766 -7.1701,-6.3254 -8.3777,-8.3533 -12.87153,-11.5155 -15.94137,-11.2175 -1.73437,0.1684 -3.0409,0.6437 -2.9034,1.0562 0.1375,0.4125 0.25,2.2456 0.25,4.0736 0,3.0093 0.35467,3.4113 3.75,4.25 2.90116,0.7167 3.8287,1.4843 4.09766,3.3909 0.27621,1.958 -1.00828,3.7303 -6.25,8.6234 -6.06939,5.6657 -6.59766,6.4892 -6.59766,10.2854 0,2.2697 0.28296,4.1267 0.6288,4.1267 0.34584,0 2.37214,-1.575 4.50288,-3.5 4.08297,-3.6887 5.77495,-4.1555 8.93406,-2.4648 3.45004,1.8464 2.31212,5.3173 -3.56574,10.8764 -5.63728,5.3315 -6.69587,7.6923 -3.92586,8.7552 1.00736,0.3866 3.07772,-0.8211 5.75,-3.354 7.44023,-7.0523 10.76101,-9.3128 13.68116,-9.3128 2.99667,0 5.9947,2.2298 5.9947,4.4586 0,0.7237 -4.52196,5.0132 -10.0488,9.5322 -5.52685,4.519 -9.88756,8.7001 -9.69048,9.2914 1.06069,3.182 3.50234,2.8984 9.91561,-1.1519 7.34658,-4.6398 8.6562,-4.8962 11.83992,-2.3182 3.17421,2.5703 2.04864,5.0564 -5.30007,11.7066 -6.0583,5.4825 -6.14283,5.6305 -4.69182,8.2156 0.81269,1.4479 3.27718,3.5634 5.47663,4.7011 3.38394,1.7504 4.03919,2.6065 4.26027,5.5666 0.29969,4.0127 5.18715,13.9893 6.85585,13.9945 0.61442,0 2.24051,-1.6941 3.61354,-3.7689 z m -26.56032,-7.8109 c 0.35378,-0.9219 -0.26311,-2.4539 -1.47686,-3.6677 -1.74027,-1.7402 -2.34108,-1.8714 -3.63894,-0.7942 -1.86219,1.5454 -1.98438,3.2154 -0.35453,4.8452 1.70105,1.7011 4.75254,1.4873 5.47033,-0.3833 z m -63.70679,-20.4686 c 2.77006,-3.3286 5.03646,-6.4944 5.03646,-7.0352 0,-1.3319 -3.00373,0.3288 -5.41618,2.9945 -1.04159,1.1509 -2.89395,2.0926 -4.11636,2.0926 -3.03441,0 -4.82864,2.4248 -4.06008,5.487 0.97912,3.9011 3.09165,3.0274 8.55616,-3.5389 z m 114.42947,2.4701 c 1.27773,-3.3297 0.49463,-8.629 -2.52927,-17.1159 -5.24357,-14.7167 -6.6266,-12.4595 -1.94924,3.1814 1.29088,4.3166 1.85909,8.2063 1.48786,10.1851 -0.8585,4.5762 1.52614,7.5659 2.99065,3.7494 z m -78.09486,-25.0497 c 0.34731,-0.3473 0.15563,-1.5206 -0.42597,-2.6073 -1.24764,-2.3313 -3.50219,-0.8454 -2.53635,1.6716 0.62508,1.6289 1.87447,2.0236 2.96232,0.9357 z m 50.70185,-36.9112 c 0,-0.8291 -7.50636,-10.8068 -9.09773,-12.093 -0.77125,-0.6234 -2.86477,-1.4461 -4.65227,-1.8283 -5.03468,-1.0765 -4.14047,1.5011 2.5,7.2063 7.07728,6.0806 11.25,8.5712 11.25,6.715 z m -48.32566,-5.0225 c 5.55097,-4.2339 1.78283,-6.2302 -4.51382,-2.3913 -2.7478,1.6752 -3.12476,2.2947 -2.12756,3.4962 1.68268,2.0275 2.77225,1.8463 6.64138,-1.1049 z m 24.32566,-14.2743 c 0,-1.2364 -4.69616,-3.1605 -7.71372,-3.1605 -3.51375,0 -2.08327,1.2292 3.03976,2.6121 2.29568,0.6197 4.28646,1.1855 4.42396,1.2573 0.1375,0.072 0.25,-0.2472 0.25,-0.7089 z"
         id="path3581"
         inkscape:connector-curvature="0" />
      <path
         style="fill:#605c5c"
         d="m 883.23859,1758.4024 c -12.61718,-2.8522 -20.66696,-6.985 -27.7818,-14.2633 -6.56446,-6.7153 -10.92168,-14.4463 -12.8498,-22.7994 -0.65481,-2.8368 -1.71881,-5.3605 -2.36444,-5.6082 -0.64563,-0.2478 -4.07025,1.5742 -7.61028,4.0489 -3.60018,2.5167 -9.93667,5.6755 -14.37974,7.1685 -7.41259,2.4908 -9.07921,2.6647 -24.94333,2.6037 -30.45939,-0.1171 -50.3444,-5.7819 -66.36801,-18.9067 -11.22899,-9.1976 -21.80371,-26.5057 -24.80112,-40.5933 -3.87041,-18.1904 2.90478,-41.6529 18.95737,-65.6493 20.50793,-30.6564 44.52303,-43.3011 71.50231,-37.6482 3.45981,0.725 6.52811,0.9337 6.81846,0.4639 0.68852,-1.114 -11.30958,-13.6102 -14.80935,-15.4241 -1.48519,-0.7697 -4.74769,-1.3995 -7.25,-1.3995 -4.64506,0 -5.33948,-0.7782 -3.94267,-4.4182 1.05024,-2.7369 9.07934,-2.0306 14.89301,1.3101 17.56151,10.0913 53.28124,57.8188 64.06988,85.6081 4.40128,11.3368 4.22019,11.3179 13.71162,1.4285 9.11198,-9.494 14.79199,-13.727 24.05527,-17.9272 10.68551,-4.845 20.87909,-5.6562 27.34749,-2.1764 1.20134,0.6463 3.32973,1.1751 4.72976,1.1751 7.43292,0 24.26522,10.5896 34.60445,21.7705 19.14524,20.7038 27.56874,41.5647 25.04438,62.0227 -1.74887,14.1733 -4.5202,21.3628 -12.66667,32.8608 -9.32933,13.1674 -21.96887,21.386 -39.7744,25.8625 -12.5921,3.1658 -33.38112,3.3865 -46.19239,0.4905 z m 43.53898,-7.9502 c 12.68487,-3.6507 19.56058,-7.6284 27.99536,-16.1959 12.22382,-12.4161 18.03627,-26.1856 18.03627,-42.7274 0,-18.1944 -7.63995,-34.0538 -25.55149,-53.0409 -7.37128,-7.814 -15.57931,-13.3329 -22.63667,-15.2204 -6.92262,-1.8516 -11.95978,0.4618 -27.13894,12.4635 -3.59584,2.8432 -5.6729,2.857 -5.6729,0.038 0,-0.8296 2.04688,-4.0212 4.54863,-7.0923 5.47726,-6.7239 4.79831,-8.413 -2.14683,-5.3408 -8.97873,3.9717 -20.48809,14.0057 -29.57371,25.7825 l -4.32809,5.6102 -0.0556,11.5834 c -0.0645,13.4259 -1.55568,19.5257 -7.68318,31.4286 -3.9158,7.6065 -4.02007,8.064 -3.4297,15.0481 0.33489,3.9617 1.56708,10.3053 2.73822,14.097 1.80815,5.8541 3.05707,7.8193 8.27982,13.0283 8.30771,8.2857 15.59477,11.0136 37.15048,13.9068 6.87607,0.9229 19.61805,-0.5336 29.46837,-3.3685 z m -112.31375,-29.5428 c 6.05096,-1.8017 18.37506,-10.3815 22.74884,-15.8374 2.69009,-3.3556 3.11172,-4.7469 3.44626,-11.3718 0.29657,-5.8729 0.0927,-7.4523 -0.91841,-7.1152 -0.71478,0.2382 -4.10905,4.4555 -7.54284,9.3718 -10.18423,14.581 -12.81674,17.1234 -22.6056,21.8315 -4.84899,2.3321 -8.47132,4.5867 -8.04961,5.01 0.92277,0.9263 5.91927,0.1959 12.92136,-1.8889 z m -67.65462,-9.3976 c 0,-1.7585 -7.07908,-9.1164 -8.77093,-9.1164 -0.42084,0 -3.37739,-2.1537 -6.5701,-4.786 -11.88999,-9.803 -19.89068,-30.2479 -17.39314,-44.4463 2.73129,-15.5272 6.68989,-25.0584 14.27556,-34.3716 2.43549,-2.9901 5.12789,-6.7897 5.9831,-8.4435 2.40751,-4.6556 19.11227,-23.6745 23.79071,-27.0865 5.41198,-3.9469 13.11488,-7.8661 15.46043,-7.8661 1.01316,0 2.71562,-0.6999 3.78324,-1.5554 1.80355,-1.4451 1.54385,-1.5287 -3.66421,-1.1797 -3.81458,0.2556 -8.10666,1.5635 -13.43482,4.0939 -6.4479,3.0621 -9.52301,5.4319 -17.42673,13.4297 -11.57212,11.7099 -17.72113,20.7715 -24.14646,35.584 -6.89239,15.8891 -9.26101,26.0124 -8.49477,36.306 0.70028,9.4075 4.79093,22.0714 9.20705,28.5033 5.29414,7.7107 14.23536,16.4361 20.10641,19.6212 6.82473,3.7025 7.29466,3.7871 7.29466,1.3134 z m 34.63454,-1.6164 c 0.15883,-0.55 -0.77173,-2.2981 -2.0679,-3.8848 -1.84794,-2.262 -2.89171,-2.7504 -4.83521,-2.2626 -3.16479,0.7943 -7.46009,4.2457 -6.49247,5.2169 1.99503,2.0025 12.86792,2.7577 13.39558,0.9305 z m 18.47073,-0.5537 c 4.05416,-2.0683 4.70664,-4.1598 1.49215,-4.783 -1.92949,-0.3741 -9.59742,4.3005 -9.59742,5.8509 0,1.6231 3.81607,1.1203 8.10527,-1.0679 z m -41.2481,-17.4307 c 3.37856,-4.1165 6.14283,-7.7165 6.14283,-8 0,-1.338 -3.14358,-0.2657 -5.81763,1.9844 -3.42425,2.8813 -7.71645,3.2316 -10.35363,0.845 -2.50766,-2.2694 -2.29229,-5.0054 0.67126,-8.5274 3.23844,-3.8486 3.15324,-5.4284 -0.39158,-7.2615 -1.59037,-0.8224 -3.36696,-2.859 -3.94798,-4.5257 -1.38386,-3.9697 -2.97764,-3.8234 -8.84172,0.8119 -2.67348,2.1133 -5.86389,4.3791 -7.0898,5.0352 -1.2259,0.6561 -2.22892,1.8967 -2.22892,2.757 0,2.0563 6.50817,12.5548 9.56049,15.4223 2.64991,2.4895 13.30372,8.7756 15.04668,8.8781 0.60894,0.036 3.87144,-3.3029 7.25,-7.4193 z m 65.95794,-7.7656 c 4.38669,-6.404 6.81845,-11.6836 8.04299,-17.4621 1.13135,-5.3386 0.95829,-6.9098 -2.39986,-21.7879 -0.86899,-3.85 -1.92275,-9.25 -2.34169,-12 -0.41894,-2.75 -1.79458,-7.025 -3.05698,-9.5 -3.55493,-6.9696 -11.17847,-19 -12.04013,-19 -0.42546,0 -5.13334,-4.0488 -10.46196,-8.9974 -5.32863,-4.9485 -10.8536,-9.2898 -12.27772,-9.6472 -2.53939,-0.6374 -5.50952,0.4131 -5.35698,1.8946 0.0425,0.4125 0.0772,2.2456 0.0772,4.0736 0,3.0093 0.35467,3.4113 3.75,4.25 2.87983,0.7114 3.82948,1.4892 4.09254,3.3518 0.27025,1.9136 -1.1543,3.8527 -6.75,9.1885 -5.71364,5.4481 -7.09254,7.3467 -7.09254,9.7655 0,4.4907 1.63712,4.6812 6.04057,0.7029 4.17164,-3.7688 5.8548,-4.2438 9.02517,-2.5471 3.45004,1.8464 2.31212,5.3173 -3.56574,10.8764 -5.6041,5.3001 -7.11404,9.0884 -3.62244,9.0884 1.03265,0 2.49515,-0.7489 3.25,-1.6643 3.88046,-4.7056 13.15262,-11.3357 15.85293,-11.3357 3.01799,0 6.01951,2.2232 6.01951,4.4586 0,0.7237 -4.52374,5.0146 -10.05275,9.5354 -6.48868,5.3055 -9.94135,8.7981 -9.73852,9.8513 0.55648,2.8896 3.50319,2.3676 10.07915,-1.7855 7.23243,-4.5677 8.55121,-4.8204 11.72837,-2.2477 3.15423,2.5541 2.05163,5.0537 -5.07343,11.5015 -3.63149,3.2863 -5.94282,6.1876 -5.94282,7.4596 0,2.034 4.24617,6.2268 6.30612,6.2268 2.40129,0 4.69388,3.4331 4.69388,7.029 0,4.2032 4.41904,12.971 6.53745,12.971 0.75156,0 2.67651,-1.9125 4.27766,-4.25 z m -40.81511,0.1415 c 0,-1.7806 -3.45786,-0.4681 -3.82782,1.453 -0.30042,1.5599 -0.0508,1.6609 1.73852,0.7033 1.14911,-0.615 2.0893,-1.5853 2.0893,-2.1563 z m 13.69053,-8.5274 c 0.82725,-2.1558 -0.94923,-4.8641 -3.19053,-4.8641 -0.98011,0 -2.24019,0.7263 -2.80016,1.6141 -1.52773,2.4219 -0.1156,4.8859 2.80016,4.8859 1.45016,0 2.83531,-0.7102 3.19053,-1.6359 z m -63.72699,-20.416 c 2.77006,-3.3286 5.03646,-6.4944 5.03646,-7.0352 0,-1.3319 -3.00373,0.3288 -5.41618,2.9945 -1.04159,1.1509 -2.91691,2.0926 -4.16738,2.0926 -2.00731,0 -5.41644,2.2893 -5.41644,3.6372 0,1.5254 2.27544,4.3628 3.49873,4.3628 0.7856,0 3.69476,-2.7234 6.46481,-6.0519 z m 116.03646,-2.0066 c 0,-4.5136 -5.37586,-19.9791 -8.06523,-23.2024 l -1.86823,-2.2391 -0.0333,2.8554 c -0.0183,1.5704 1.13649,6.6904 2.56619,11.3777 1.58498,5.1963 2.37524,9.6434 2.02492,11.395 -0.31601,1.58 -0.10081,4.1101 0.47821,5.6223 l 1.05277,2.7496 1.92232,-2.3608 c 1.15227,-1.415 1.92235,-3.8978 1.92235,-6.1977 z m -79.3229,-21.5424 c 0.63132,-1.6452 -1.45445,-3.6547 -2.87935,-2.7741 -0.43876,0.2712 -0.79775,1.3665 -0.79775,2.434 0,2.3398 2.81001,2.5997 3.6771,0.3401 z m 51.3229,-35.5077 c 0,-0.6098 -2.11438,-3.9883 -4.69862,-7.5079 -4.48075,-6.1024 -7.99038,-8.3553 -13.05138,-8.3779 -2.84388,-0.013 -0.91448,4.1122 4,8.5516 8.01094,7.2365 13.75,10.2977 13.75,7.3342 z m -48.96223,-5.8092 c 2.67387,-2.2533 3.19427,-3.193 2.28545,-4.1267 -2.36954,-2.4345 -11.84486,2.5216 -10.67073,5.5813 0.90031,2.3462 4.6464,1.6964 8.38528,-1.4546 z m 25.28723,-13.6072 c 0.26883,-1.4978 -6.42897,-4.4717 -10.075,-4.4734 -3.18868,0 -4.27481,1.247 -2.20018,2.5292 1.37251,0.8482 10.21037,3.2494 11.27518,3.0634 0.45375,-0.079 0.90375,-0.5829 1,-1.1192 z"
         id="path3579"
         inkscape:connector-curvature="0" />
      <path
         style="fill:#f80505"
         d="m 892.34528,1759.5982 c -0.34636,-0.3464 -4.45332,-1.4201 -9.12656,-2.386 -20.84547,-4.3087 -34.23903,-16.2802 -39.45161,-35.263 -2.30292,-8.3866 -3.29584,-8.6784 -11.17465,-3.2843 -12.70265,8.6965 -15.07876,9.2332 -40.78326,9.2115 -21.3515,-0.018 -23.03093,-0.1599 -32.9014,-2.7781 -18.59333,-4.9322 -32.25547,-13.9616 -43.77372,-28.9305 -8.12241,-10.5557 -13.70427,-26.56 -13.3467,-38.2678 0.687,-22.4938 16.18202,-52.9943 36.95833,-72.7491 13.36706,-12.7099 22.93774,-17.4044 37.56349,-18.4254 7.07861,-0.4941 11.14606,-0.065 21.75,2.2917 4.48594,0.9973 3.45703,-2.4997 -2.75539,-9.3646 -6.39808,-7.0701 -14.14178,-11.4778 -18.59892,-10.5863 -1.71386,0.3427 -2.89569,0.1533 -2.89569,-0.4641 0,-7.8436 12.07885,-4.234 23.85226,7.128 5.3209,5.1349 18.83544,20.4794 24.84691,28.2112 8.89213,11.4369 25.4749,39.77 29.237,49.954 2.14118,5.7961 4.5388,9.5 6.14965,9.5 0.42672,0 5.19447,-4.4348 10.59502,-9.8551 10.07169,-10.1086 17.81146,-15.2935 27.7882,-18.6154 6.32519,-2.1061 16.42728,-2.1516 20.4101,-0.092 1.66185,0.8594 4.36967,1.5625 6.01739,1.5625 3.67691,0 15.65521,6.0868 23.22399,11.8012 10.37211,7.8311 22.02179,22.4992 28.35261,35.6988 9.83153,20.4985 9.81026,37.8839 -0.071,58.0675 -11.96276,24.4351 -35.34619,37.4031 -68.56919,38.0271 -6.96689,0.1308 -12.95047,-0.045 -13.29684,-0.3919 z m 29.46392,-6.6428 c 16.66484,-4.1881 25.72133,-9.221 35.39568,-19.6702 11.04523,-11.9299 16.60432,-25.8928 16.60432,-41.7055 0,-10.3013 -1.9465,-18.1334 -7.00907,-28.2023 -6.59459,-13.116 -22.72377,-31.3127 -32.99093,-37.2198 -11.63861,-6.6962 -17.19618,-5.9928 -30.28906,3.8336 -11.95119,8.9695 -14.01103,8.6426 -6.09903,-0.9681 4.45149,-5.4072 5.2276,-8.6277 2.0792,-8.6277 -3.10952,0 -13.89095,6.4309 -21.11455,12.5944 -4.24518,3.6222 -10.43872,10.2546 -13.76345,14.7386 l -6.04495,8.1529 0.63574,7.0156 c 0.97995,10.814 -1.37529,22.1622 -6.85285,33.0187 -5.31806,10.5405 -5.70589,14.6445 -2.54999,26.9839 3.49561,13.6678 9.93879,21.1664 22.78404,26.5162 5.83379,2.4297 10.46709,3.4413 24.7149,5.3961 4.88103,0.6697 18.57836,-0.3682 24.5,-1.8564 z m -109.85552,-30.3905 c 3.63066,-1.0067 8.64019,-3.0253 11.1323,-4.4858 6.44396,-3.7764 15.78566,-12.5889 17.3736,-16.3894 1.83025,-4.3804 1.83404,-17.2943 0.005,-17.2943 -0.73951,0 -4.76087,4.8375 -8.93635,10.75 -10.52918,14.9093 -14.42619,18.4806 -24.9691,22.882 -4.8125,2.0091 -8.75,4.0013 -8.75,4.4271 0,2.3452 5.91874,2.3914 14.14448,0.1104 z m -54.38947,-5.4195 c -0.49432,-1.501 -4.75501,-2.31 -4.75501,-0.9029 0,1.052 1.65002,1.9447 3.83333,2.074 0.73334,0.043 1.14809,-0.4836 0.92168,-1.1711 z m -9.38451,-3.5405 c 1.15519,-1.8691 -3.08308,-7.6911 -7.81019,-10.7287 -2.78317,-1.7884 -7.11121,-5.0652 -9.61787,-7.2818 -5.42122,-4.7939 -13.93587,-18.709 -13.95806,-22.8111 -0.009,-1.5883 -0.61448,-5.4322 -1.34641,-8.5419 -2.78232,-11.8211 3.61773,-33.0873 13.33724,-44.3174 2.22941,-2.5758 4.78096,-6.111 5.67011,-7.856 2.61723,-5.1362 20.23739,-25.4969 24.72475,-28.5703 9.59901,-6.5744 21.43032,-10.3499 25.54039,-8.1502 1.22749,0.6569 4.75073,1.8505 7.82942,2.6524 6.21845,1.6197 8.6037,0.764 6.64007,-2.382 -1.9459,-3.1177 -8.15876,-4.3806 -19.87995,-4.0411 -10.22988,0.2963 -11.52508,0.5695 -18.5,3.9019 -21.50579,10.275 -40.86414,36.7721 -49.61354,67.9097 -5.40852,19.2479 -0.61225,39.2343 13.18806,54.9556 6.35793,7.2429 8.82142,9.3664 15.37268,13.251 4.62504,2.7425 7.54061,3.4382 8.4233,2.0099 z m 33.24155,-2.6409 c 0.70508,-1.8374 -3.50056,-7.5698 -5.55011,-7.5649 -2.45265,0.01 -8.06194,3.8066 -8.06194,5.4626 0,0.8226 1.0125,1.7117 2.25,1.9757 1.2375,0.2641 3.15,0.6705 4.25,0.9031 4.14051,0.8755 6.58032,0.6092 7.11205,-0.7765 z m 18.89316,-0.7834 c 4.6503,-2.2593 5.40731,-4.1814 2.39405,-6.0787 -1.21577,-0.7656 -2.71887,-0.2387 -6.25,2.1908 -7.91703,5.4471 -5.13239,8.2548 3.85595,3.8879 z m -42.09495,-17.7504 c 3.62436,-4.3808 6.58974,-8.2058 6.58974,-8.5 0,-1.3552 -3.12673,-0.299 -5.81763,1.9652 -3.42425,2.8813 -7.71645,3.2316 -10.35363,0.845 -2.50766,-2.2694 -2.29229,-5.0054 0.67126,-8.5274 3.23844,-3.8486 3.15324,-5.4284 -0.39158,-7.2615 -1.59037,-0.8224 -3.36696,-2.859 -3.94798,-4.5257 -0.58102,-1.6667 -1.7144,-3.0304 -2.51862,-3.0304 -0.80423,0 -3.75428,1.8118 -6.55567,4.0261 -2.8014,2.2144 -6.21681,4.4533 -7.5898,4.9753 -1.37299,0.522 -2.49635,1.6692 -2.49635,2.5494 0,3.2657 8.09063,15.4816 11.80839,17.8293 5.78843,3.6554 12.62684,7.538 13.35187,7.5809 0.36315,0.022 3.62565,-3.5453 7.25,-7.9262 z m 53.58974,5.9652 c 0,-1.3333 -0.66667,-2 -2,-2 -1.92719,0 -2.7099,1.9568 -1.33333,3.3333 1.37656,1.3766 3.33333,0.5939 3.33333,-1.3333 z m 11.46446,-10.7451 c 3.71927,-4.0111 9.15002,-14.9605 10.41332,-20.9953 0.90902,-4.3425 0.76218,-6.9129 -0.85692,-15 -1.07467,-5.3678 -2.41899,-11.3316 -2.9874,-13.253 -0.5684,-1.9214 -1.03346,-4.7267 -1.03346,-6.2341 0,-2.778 -4.17139,-12.2747 -7.66243,-17.4445 -1.0503,-1.5554 -2.56264,-4.1228 -3.36076,-5.7054 -0.79811,-1.5825 -3.48189,-4.489 -5.96396,-6.4587 -2.48207,-1.9698 -7.69871,-6.6096 -11.59254,-10.3108 -3.89383,-3.7012 -8.35098,-7.0486 -9.90477,-7.4386 -2.98617,-0.7494 -6.0833,0.5304 -5.91554,2.4445 0.055,0.6275 0.1675,2.6366 0.25,4.4646 0.13387,2.9663 0.55319,3.4233 3.9,4.25 3.00548,0.7425 3.81019,1.4451 4.05316,3.5389 0.24998,2.1543 -1.0218,3.7984 -7.25,9.3726 -6.57895,5.8881 -7.55316,7.1957 -7.55316,10.1375 0,4.4639 2.09484,4.4279 7.13168,-0.1226 4.08297,-3.6887 5.77495,-4.1555 8.93406,-2.4648 3.50924,1.8781 2.29733,5.2712 -4.06574,11.3831 -5.91764,5.6841 -7.05713,7.8103 -4.90017,9.1434 1.15679,0.7149 1.99489,0.1278 11.86441,-8.3117 4.31969,-3.6938 6.99229,-5.25 9.01625,-5.25 3.01799,0 6.01951,2.2232 6.01951,4.4586 0,0.7237 -4.5,4.9952 -10,9.4923 -9.50271,7.7699 -11.71439,10.8715 -8.96416,12.5713 0.56971,0.3521 4.34342,-1.4214 8.38602,-3.941 8.23453,-5.1324 9.37592,-5.3753 12.6814,-2.6987 2.01097,1.6284 2.17181,2.2184 1.19143,4.3701 -0.62337,1.3681 -3.86969,4.8961 -7.21404,7.8399 -3.34436,2.9438 -6.08065,6.0739 -6.08065,6.9556 0,2.0555 3.59952,5.2729 7.71675,6.8976 3.57933,1.4125 4.6823,3.6162 3.72299,7.4384 -0.62557,2.4924 1.62465,7.4553 5.38016,11.8659 1.87475,2.2018 1.63204,2.2538 4.64456,-0.9951 z m -39.72547,-2.5239 c 0.68144,-0.5267 0.99163,-1.3578 0.68931,-1.847 -0.80549,-1.3033 -4.4283,0.9139 -4.4283,2.7102 0,1.4939 0.98292,1.2669 3.73899,-0.8632 z m 13.76469,-8.7351 c 1.49857,-1.6559 1.61608,-2.4376 0.67642,-4.5 -1.43018,-3.1389 -3.20528,-3.1624 -6.10018,-0.081 -1.56543,1.6664 -2.06356,3.0613 -1.60692,4.5 0.8558,2.6964 4.6245,2.7399 7.03068,0.081 z m 51.97064,-16.9462 c 2.32097,-4.4883 1.8617,-9.0222 -1.99245,-19.6695 -3.74534,-10.3466 -4.91229,-12.3802 -7.10431,-12.3802 -2.16241,0 -1.68281,6.0077 1.17501,14.7191 1.74807,5.3286 2.35667,8.845 1.931,11.1572 -0.7079,3.8452 1.09259,9.1237 3.11207,9.1237 0.74415,0 2.03956,-1.3276 2.87868,-2.9503 z m -115.51078,-4.1016 c 2.77006,-3.3286 5.03646,-6.4944 5.03646,-7.0352 0,-1.3319 -3.00373,0.3288 -5.41618,2.9945 -1.20958,1.3366 -3.11396,2.0926 -5.27103,2.0926 -3.60606,0 -5.4962,2.5826 -4.54692,6.2127 0.97004,3.7095 4.94497,2.0472 10.19767,-4.2646 z m 36.93218,-22.8625 c 1.70975,-1.0826 0.7328,-4.0856 -1.32915,-4.0856 -1.65391,0 -3.86359,3.3696 -2.86472,4.3685 0.87613,0.8761 2.54076,0.7639 4.19387,-0.2829 z m 62.10428,-20.0266 c 0,-0.5175 -0.45,-1.2191 -1,-1.559 -0.55,-0.3399 -1,0.083 -1,0.941 0,0.8574 0.45,1.559 1,1.559 0.55,0 1,-0.4234 1,-0.941 z m -77.00836,-8.0327 c 1.12751,-0.7128 1.20981,-1.2248 0.33713,-2.0975 -1.36893,-1.369 -3.32877,-0.4091 -3.32877,1.6302 0,1.6637 0.88149,1.8014 2.99164,0.4673 z m 67.00836,-7.8537 c 0,-1.0051 -2.37729,-4.9255 -5.28286,-8.7121 -4.42189,-5.7626 -5.92243,-7.0175 -9.20729,-7.7 -8.21756,-1.7074 -8.6949,1.676 -1.25985,8.9298 8.46426,8.258 15.75,11.7192 15.75,7.4823 z m -51.15004,-5.1789 c 6.79007,-4.9187 4.63758,-8.8701 -2.9645,-5.4421 -4.70739,2.1228 -6.60503,4.8764 -4.83241,7.0123 1.72933,2.0837 3.14695,1.7982 7.79691,-1.5702 z"
         id="path3577"
         inkscape:connector-curvature="0" />
      <path
         style="fill:#a10606"
         d="m 892.34528,1759.5982 c -0.34636,-0.3464 -4.45332,-1.4201 -9.12656,-2.386 -20.84547,-4.3087 -34.23903,-16.2802 -39.45161,-35.263 -2.30292,-8.3866 -3.29584,-8.6784 -11.17465,-3.2843 -12.70265,8.6965 -15.07876,9.2332 -40.78326,9.2115 -21.3515,-0.018 -23.03093,-0.1599 -32.9014,-2.7781 -18.59333,-4.9322 -32.25547,-13.9616 -43.77372,-28.9305 -8.12241,-10.5557 -13.70427,-26.56 -13.3467,-38.2678 0.687,-22.4938 16.18202,-52.9943 36.95833,-72.7491 13.36706,-12.7099 22.93774,-17.4044 37.56349,-18.4254 7.07861,-0.4941 11.14606,-0.065 21.75,2.2917 4.48594,0.9973 3.45703,-2.4997 -2.75539,-9.3646 -6.39808,-7.0701 -14.14178,-11.4778 -18.59892,-10.5863 -1.71386,0.3427 -2.89569,0.1533 -2.89569,-0.4641 0,-7.8436 12.07885,-4.234 23.85226,7.128 5.3209,5.1349 18.83544,20.4794 24.84691,28.2112 8.89213,11.4369 25.4749,39.77 29.237,49.954 2.14118,5.7961 4.5388,9.5 6.14965,9.5 0.42672,0 5.19447,-4.4348 10.59502,-9.8551 10.07169,-10.1086 17.81146,-15.2935 27.7882,-18.6154 6.32519,-2.1061 16.42728,-2.1516 20.4101,-0.092 1.66185,0.8594 4.36967,1.5625 6.01739,1.5625 3.67691,0 15.65521,6.0868 23.22399,11.8012 10.37211,7.8311 22.02179,22.4992 28.35261,35.6988 9.83153,20.4985 9.81026,37.8839 -0.071,58.0675 -11.96276,24.4351 -35.34619,37.4031 -68.56919,38.0271 -6.96689,0.1308 -12.95047,-0.045 -13.29684,-0.3919 z m 29.46392,-6.6428 c 16.66484,-4.1881 25.72133,-9.221 35.39568,-19.6702 11.04523,-11.9299 16.60432,-25.8928 16.60432,-41.7055 0,-10.3013 -1.9465,-18.1334 -7.00907,-28.2023 -6.59459,-13.116 -22.72377,-31.3127 -32.99093,-37.2198 -11.63861,-6.6962 -17.19618,-5.9928 -30.28906,3.8336 -11.95119,8.9695 -14.01103,8.6426 -6.09903,-0.9681 4.45149,-5.4072 5.2276,-8.6277 2.0792,-8.6277 -3.10952,0 -13.89095,6.4309 -21.11455,12.5944 -4.24518,3.6222 -10.43872,10.2546 -13.76345,14.7386 l -6.04495,8.1529 0.63574,7.0156 c 0.97995,10.814 -1.37529,22.1622 -6.85285,33.0187 -5.31806,10.5405 -5.70589,14.6445 -2.54999,26.9839 3.49561,13.6678 9.93879,21.1664 22.78404,26.5162 5.83379,2.4297 10.46709,3.4413 24.7149,5.3961 4.88103,0.6697 18.57836,-0.3682 24.5,-1.8564 z m -109.85552,-30.3905 c 3.63066,-1.0067 8.64019,-3.0253 11.1323,-4.4858 6.44396,-3.7764 15.78566,-12.5889 17.3736,-16.3894 1.83025,-4.3804 1.83404,-17.2943 0.005,-17.2943 -0.73951,0 -4.76087,4.8375 -8.93635,10.75 -10.52918,14.9093 -14.42619,18.4806 -24.9691,22.882 -4.8125,2.0091 -8.75,4.0013 -8.75,4.4271 0,2.3452 5.91874,2.3914 14.14448,0.1104 z m -54.38947,-5.4195 c -0.49432,-1.501 -4.75501,-2.31 -4.75501,-0.9029 0,1.052 1.65002,1.9447 3.83333,2.074 0.73334,0.043 1.14809,-0.4836 0.92168,-1.1711 z m -9.38451,-3.5405 c 1.15519,-1.8691 -3.08308,-7.6911 -7.81019,-10.7287 -2.78317,-1.7884 -7.11121,-5.0652 -9.61787,-7.2818 -5.42122,-4.7939 -13.93587,-18.709 -13.95806,-22.8111 -0.009,-1.5883 -0.61448,-5.4322 -1.34641,-8.5419 -2.78232,-11.8211 3.61773,-33.0873 13.33724,-44.3174 2.22941,-2.5758 4.78096,-6.111 5.67011,-7.856 2.61723,-5.1362 20.23739,-25.4969 24.72475,-28.5703 9.59901,-6.5744 21.43032,-10.3499 25.54039,-8.1502 1.22749,0.6569 4.75073,1.8505 7.82942,2.6524 6.21845,1.6197 8.6037,0.764 6.64007,-2.382 -1.9459,-3.1177 -8.15876,-4.3806 -19.87995,-4.0411 -10.22988,0.2963 -11.52508,0.5695 -18.5,3.9019 -21.50579,10.275 -40.86414,36.7721 -49.61354,67.9097 -5.40852,19.2479 -0.61225,39.2343 13.18806,54.9556 6.35793,7.2429 8.82142,9.3664 15.37268,13.251 4.62504,2.7425 7.54061,3.4382 8.4233,2.0099 z m 33.1295,-2.2095 c 0.33992,-0.55 2.84148,-1 5.55902,-1 2.71754,0 4.94098,0.45 4.94098,1 0,0.55 0.88796,1 1.97325,1 2.79258,0 11.02675,-4.1645 11.02675,-5.5768 0,-1.6786 -2.69669,-3.6964 -4.21638,-3.1549 -1.45666,0.5189 -6.36617,-1.7042 -9.14003,-4.1389 -1.02102,-0.8962 -2.76897,-3.4294 -3.88433,-5.6294 -1.11536,-2.2 -2.47909,-4.2896 -3.03051,-4.6436 -0.55141,-0.354 -0.77158,-1.852 -0.48927,-3.3288 0.33739,-1.7649 0.0297,-2.8708 -0.89789,-3.2268 -0.77616,-0.2978 -2.23778,-2.1748 -3.24805,-4.1711 -2.26114,-4.4681 -9.71891,-17.8917 -13.6835,-24.6297 -1.61809,-2.75 -3.78851,-6.8 -4.82315,-9 -3.09783,-6.587 -3.24232,-6.872 -8.16613,-16.1042 -2.60939,-4.8927 -5.23405,-9.9048 -5.83256,-11.138 -0.59851,-1.2332 -1.39064,-2.2457 -1.76028,-2.25 -1.71115,-0.02 -7.91059,8.8194 -12.38955,17.6652 -3.92807,7.7578 -4.93837,10.7602 -4.93837,14.6755 0,4.1914 -0.33412,5.046 -2.25,5.7547 -3.02004,1.1172 -3.45812,6.6007 -0.65482,8.1965 0.77265,0.4398 1.40482,2.0722 1.40482,3.6276 0,1.5553 0.675,3.388 1.5,4.0727 2.03391,1.688 1.88527,2.666 -0.5,3.2898 -1.1,0.2876 -2,1.2741 -2,2.1921 0,2.7248 7.79152,15.239 10.75743,17.2778 5.89583,4.0531 14.22438,8.1845 15.50686,7.6924 0.74169,-0.2846 2.65822,0.6079 4.25897,1.9834 1.60075,1.3755 4.15738,2.7747 5.68141,3.1095 1.52403,0.3347 3.6856,1.7713 4.80349,3.1925 2.57816,3.2776 13.02849,5.6303 14.49184,3.2625 z m 30.5,-13 c 0,-1.3333 -0.66667,-2 -2,-2 -1.92719,0 -2.7099,1.9568 -1.33333,3.3333 1.37656,1.3766 3.33333,0.5939 3.33333,-1.3333 z m -4,-8.5918 c 0,-0.5891 -2.49227,-3.9963 -6.7184,-9.1847 -2.08206,-2.5561 -2.22034,-2.5927 -2.25,-0.5959 -0.0174,1.1701 0.67307,2.7123 1.53434,3.4271 0.86126,0.7148 2.22282,2.5699 3.02568,4.1225 1.24883,2.415 4.40838,4.0139 4.40838,2.231 z m 15.46446,-2.1533 c 3.71927,-4.0111 9.15002,-14.9605 10.41332,-20.9953 0.90902,-4.3425 0.76218,-6.9129 -0.85692,-15 -1.07467,-5.3678 -2.41899,-11.3316 -2.9874,-13.253 -0.5684,-1.9214 -1.03346,-4.7267 -1.03346,-6.2341 0,-2.778 -4.17139,-12.2747 -7.66243,-17.4445 -1.0503,-1.5554 -2.56843,-4.1354 -3.37361,-5.7334 -0.80518,-1.598 -4.38896,-5.2616 -7.96396,-8.1414 -3.575,-2.8798 -8.3,-7.1219 -10.5,-9.427 -6.64984,-6.9674 -12.3131,-8.8996 -14.73207,-5.0262 -1.76603,2.8279 -8.31818,2.8279 -9.05768,0 -0.28765,-1.1 -1.25807,-2 -2.15647,-2 -2.57424,0 -9.24093,3.7424 -9.9477,5.5842 -0.83968,2.1881 1.28405,4.6778 3.49671,4.0992 3.71717,-0.9721 7.44038,2.8003 10.72617,10.8678 2.84271,6.9797 3.01654,7.962 1.67181,9.4479 -1.92492,2.1271 -2.01251,8.0009 -0.11931,8.0009 1.39681,0 4.56211,7.5773 4.92273,11.7843 0.11168,1.3028 1.25651,2.8126 2.6645,3.5139 1.73428,0.8638 2.95363,2.8385 4.09875,6.6377 1.12368,3.7281 2.29834,5.6553 3.78131,6.2039 1.18319,0.4376 2.15125,1.5057 2.15125,2.3734 0,0.8678 1.125,2.7027 2.5,4.0777 1.375,1.375 2.5,3.5261 2.5,4.7802 0,2.6673 3.17257,5.7814 7.71675,7.5746 3.57933,1.4125 4.6823,3.6162 3.72299,7.4384 -0.62557,2.4924 1.62465,7.4553 5.38016,11.8659 1.87475,2.2018 1.63204,2.2538 4.64456,-0.9951 z m -26.03589,-10.8263 c 0.86429,-0.8643 1.57143,-2.0189 1.57143,-2.5658 0,-2.1783 -2.17394,-4.8628 -3.93795,-4.8628 -1.1771,0 -3.23815,-2.1259 -5.57465,-5.75 -2.0389,-3.1625 -4.54192,-6.875 -5.56227,-8.25 -1.02035,-1.375 -3.90802,-5.9875 -6.41703,-10.25 -2.50902,-4.2625 -4.99976,-7.75 -5.53497,-7.75 -1.77645,0 -1.00746,3.1705 1.48844,6.1367 1.35386,1.609 2.87035,4.4059 3.36997,6.2154 0.49961,1.8094 2.54191,5.4299 4.53843,8.0455 1.99652,2.6156 3.63003,5.3343 3.63003,6.0415 0,0.7072 1.34343,2.9764 2.98539,5.0425 1.64197,2.0662 2.73792,4.1571 2.43546,4.6465 -0.30247,0.4894 -0.26557,1.7858 0.082,2.8809 0.77014,2.4265 4.68185,2.6635 6.92573,0.4196 z m 52.04575,-17.3789 c 2.32097,-4.4883 1.8617,-9.0222 -1.99245,-19.6695 -3.74534,-10.3466 -4.91229,-12.3802 -7.10431,-12.3802 -2.16241,0 -1.68281,6.0077 1.17501,14.7191 1.74807,5.3286 2.35667,8.845 1.931,11.1572 -0.7079,3.8452 1.09259,9.1237 3.11207,9.1237 0.74415,0 2.03956,-1.3276 2.87868,-2.9503 z m -78.08131,-26.6315 c 1.0062,-2.6221 0.72406,-3.2519 -2.0667,-4.6136 -1.83091,-0.8934 -3.17056,-2.7921 -4.25,-6.0235 -0.86697,-2.5954 -2.4277,-5.5204 -3.46828,-6.5 -1.81617,-1.7097 -1.86625,-1.7077 -1.25,0.051 0.35308,1.0075 0.64197,2.6322 0.64197,3.6104 0,0.9783 1.125,3.4365 2.5,5.4627 1.375,2.0261 2.5,4.4739 2.5,5.4395 0,3.5737 4.23394,5.5943 5.39301,2.5738 z m 61.60699,-20.3592 c 0,-0.5175 -0.45,-1.2191 -1,-1.559 -0.55,-0.3399 -1,0.083 -1,0.941 0,0.8574 0.45,1.559 1,1.559 0.55,0 1,-0.4234 1,-0.941 z m -77.00836,-8.0327 c 1.12751,-0.7128 1.20981,-1.2248 0.33713,-2.0975 -1.36893,-1.369 -3.32877,-0.4091 -3.32877,1.6302 0,1.6637 0.88149,1.8014 2.99164,0.4673 z m 67.00836,-7.8537 c 0,-1.0051 -2.37729,-4.9255 -5.28286,-8.7121 -4.42189,-5.7626 -5.92243,-7.0175 -9.20729,-7.7 -8.21756,-1.7074 -8.6949,1.676 -1.25985,8.9298 8.46426,8.258 15.75,11.7192 15.75,7.4823 z"
         id="path3575"
         inkscape:connector-curvature="0" />
      <path
         style="fill:#5a0f0f"
         d="m 892.34528,1759.5982 c -0.34636,-0.3464 -4.45332,-1.4201 -9.12656,-2.386 -20.84547,-4.3087 -34.23903,-16.2802 -39.45161,-35.263 -2.30292,-8.3866 -3.29584,-8.6784 -11.17465,-3.2843 -12.70265,8.6965 -15.07876,9.2332 -40.78326,9.2115 -21.3515,-0.018 -23.03093,-0.1599 -32.9014,-2.7781 -18.59333,-4.9322 -32.25547,-13.9616 -43.77372,-28.9305 -8.12241,-10.5557 -13.70427,-26.56 -13.3467,-38.2678 0.687,-22.4938 16.18202,-52.9943 36.95833,-72.7491 13.36706,-12.7099 22.93774,-17.4044 37.56349,-18.4254 7.07861,-0.4941 11.14606,-0.065 21.75,2.2917 4.48594,0.9973 3.45703,-2.4997 -2.75539,-9.3646 -6.39808,-7.0701 -14.14178,-11.4778 -18.59892,-10.5863 -1.71386,0.3427 -2.89569,0.1533 -2.89569,-0.4641 0,-7.8436 12.07885,-4.234 23.85226,7.128 5.3209,5.1349 18.83544,20.4794 24.84691,28.2112 8.89213,11.4369 25.4749,39.77 29.237,49.954 2.14118,5.7961 4.5388,9.5 6.14965,9.5 0.42672,0 5.19447,-4.4348 10.59502,-9.8551 10.07169,-10.1086 17.81146,-15.2935 27.7882,-18.6154 6.32519,-2.1061 16.42728,-2.1516 20.4101,-0.092 1.66185,0.8594 4.36967,1.5625 6.01739,1.5625 3.67691,0 15.65521,6.0868 23.22399,11.8012 10.37211,7.8311 22.02179,22.4992 28.35261,35.6988 9.83153,20.4985 9.81026,37.8839 -0.071,58.0675 -11.96276,24.4351 -35.34619,37.4031 -68.56919,38.0271 -6.96689,0.1308 -12.95047,-0.045 -13.29684,-0.3919 z m 29.46392,-6.6428 c 16.66484,-4.1881 25.72133,-9.221 35.39568,-19.6702 11.04523,-11.9299 16.60432,-25.8928 16.60432,-41.7055 0,-10.3013 -1.9465,-18.1334 -7.00907,-28.2023 -6.59459,-13.116 -22.72377,-31.3127 -32.99093,-37.2198 -11.63861,-6.6962 -17.19618,-5.9928 -30.28906,3.8336 -11.95119,8.9695 -14.01103,8.6426 -6.09903,-0.9681 4.45149,-5.4072 5.2276,-8.6277 2.0792,-8.6277 -3.10952,0 -13.89095,6.4309 -21.11455,12.5944 -4.24518,3.6222 -10.43872,10.2546 -13.76345,14.7386 l -6.04495,8.1529 0.63574,7.0156 c 0.97995,10.814 -1.37529,22.1622 -6.85285,33.0187 -5.31806,10.5405 -5.70589,14.6445 -2.54999,26.9839 3.49561,13.6678 9.93879,21.1664 22.78404,26.5162 5.83379,2.4297 10.46709,3.4413 24.7149,5.3961 4.88103,0.6697 18.57836,-0.3682 24.5,-1.8564 z m -109.85552,-30.3905 c 3.63066,-1.0067 8.64019,-3.0253 11.1323,-4.4858 6.44396,-3.7764 15.78566,-12.5889 17.3736,-16.3894 1.83025,-4.3804 1.83404,-17.2943 0.005,-17.2943 -0.73951,0 -4.76087,4.8375 -8.93635,10.75 -10.52918,14.9093 -14.42619,18.4806 -24.9691,22.882 -4.8125,2.0091 -8.75,4.0013 -8.75,4.4271 0,2.3452 5.91874,2.3914 14.14448,0.1104 z m -54.38947,-5.4195 c -0.49432,-1.501 -4.75501,-2.31 -4.75501,-0.9029 0,1.052 1.65002,1.9447 3.83333,2.074 0.73334,0.043 1.14809,-0.4836 0.92168,-1.1711 z m -9.38451,-3.5405 c 1.15519,-1.8691 -3.08308,-7.6911 -7.81019,-10.7287 -2.78317,-1.7884 -7.11121,-5.0652 -9.61787,-7.2818 -5.42122,-4.7939 -13.93587,-18.709 -13.95806,-22.8111 -0.009,-1.5883 -0.61448,-5.4322 -1.34641,-8.5419 -2.78232,-11.8211 3.61773,-33.0873 13.33724,-44.3174 2.22941,-2.5758 4.78096,-6.111 5.67011,-7.856 2.61723,-5.1362 20.23739,-25.4969 24.72475,-28.5703 9.59901,-6.5744 21.43032,-10.3499 25.54039,-8.1502 1.22749,0.6569 4.75073,1.8505 7.82942,2.6524 6.21845,1.6197 8.6037,0.764 6.64007,-2.382 -1.9459,-3.1177 -8.15876,-4.3806 -19.87995,-4.0411 -10.22988,0.2963 -11.52508,0.5695 -18.5,3.9019 -21.50579,10.275 -40.86414,36.7721 -49.61354,67.9097 -5.40852,19.2479 -0.61225,39.2343 13.18806,54.9556 6.35793,7.2429 8.82142,9.3664 15.37268,13.251 4.62504,2.7425 7.54061,3.4382 8.4233,2.0099 z m 52.91399,-3.7528 c 3.83743,-1.886 4.52817,-4.0939 1.71551,-5.4833 -10.25162,-5.0644 -11.60637,-6.0558 -13.57145,-9.9312 -1.1393,-2.2468 -2.6018,-4.6154 -3.25,-5.2636 -0.6482,-0.6482 -1.17855,-1.9454 -1.17855,-2.8825 0,-0.9372 -1.64742,-4.5597 -3.66095,-8.05 -2.01352,-3.4904 -5.17281,-9.2362 -7.02065,-12.7685 -1.84784,-3.5323 -3.7628,-6.9081 -4.25547,-7.5018 -0.49267,-0.5936 -5.05426,-9.1785 -10.13687,-19.0776 -5.08261,-9.899 -10.35485,-19.7712 -11.71609,-21.9382 l -2.47499,-3.9401 -3.86992,4.4401 c -2.12846,2.442 -6.56183,9.8045 -9.85194,16.3611 -5.18738,10.3376 -5.90069,12.4298 -5.36976,15.75 0.41414,2.59 0.23689,3.8289 -0.54778,3.8289 -2.13558,0 -2.95043,4.3004 -1.48862,7.8562 0.75887,1.846 1.11896,3.7783 0.8002,4.294 -0.31875,0.5158 0.14125,2.0378 1.02223,3.3824 1.32442,2.0213 1.38314,2.7947 0.33912,4.4665 -1.08293,1.734 -0.85158,2.7676 1.62531,7.2614 1.58838,2.8817 3.89172,6.5895 5.11851,8.2395 2.20594,2.9669 16.20428,11.5 18.86548,11.5 0.75752,0 1.9949,0.7481 2.74975,1.6625 0.75484,0.9144 3.39744,2.5449 5.87244,3.6232 2.475,1.0784 5.28897,2.6514 6.25327,3.4955 2.4543,2.1483 7.58194,2.8438 19.74673,2.6783 7.99605,-0.1087 11.40249,-0.5864 14.28449,-2.0028 z m 10.71551,-11.4567 c 0,-1.1 -0.1882,-2 -0.41821,-2 -0.23002,0 -1.13002,-0.2731 -2,-0.607 -1.10746,-0.425 -1.58179,-0.025 -1.58179,1.3333 0,2.2735 0.81478,3.2737 2.66667,3.2737 0.73333,0 1.33333,-0.9 1.33333,-2 z m -3.18271,-8.2898 c 0.18713,-0.9717 -0.9327,-3.3125 -2.48852,-5.2017 -5.46024,-6.6303 -7.02364,-9.0334 -7.71869,-11.864 -0.38564,-1.5706 -1.48282,-3.06 -2.43819,-3.3098 -0.95537,-0.2498 -3.97238,-3.8484 -6.70446,-7.9969 -13.53211,-20.5476 -17.40418,-27.3288 -17.44547,-30.5526 -0.0121,-0.9432 -0.85422,-2.1602 -1.87142,-2.7046 -1.01721,-0.5444 -2.80718,-3.6165 -3.97772,-6.8268 -2.30746,-6.3284 -8.18218,-13.3036 -8.162,-9.6909 0.0183,3.2689 2.81117,11.3784 4.95618,14.3908 1.11815,1.5703 2.033,3.2606 2.033,3.7564 0,0.4957 1.125,2.4262 2.5,4.2899 1.375,1.8637 2.5,4.1404 2.5,5.0594 0,0.919 0.91605,2.8354 2.03566,4.2588 1.11961,1.4234 2.54813,4.058 3.1745,5.8548 0.62637,1.7968 2.60214,5.1839 4.39061,7.527 1.78847,2.343 3.56217,5.2815 3.94156,6.53 0.37939,1.2485 1.78641,3.7337 3.12671,5.5227 1.34029,1.789 2.90708,4.6015 3.48175,6.25 0.75908,2.1775 1.68454,2.9973 3.3836,2.9973 1.78297,0 3.46154,1.6735 7.06357,7.0422 4.68596,6.9844 7.46887,8.5648 8.21933,4.668 z m 14.64717,-2.4553 c 3.71927,-4.0111 9.15002,-14.9605 10.41332,-20.9953 0.90902,-4.3425 0.76218,-6.9129 -0.85692,-15 -1.07467,-5.3678 -2.41899,-11.3316 -2.9874,-13.253 -0.5684,-1.9214 -1.03346,-4.7267 -1.03346,-6.2341 0,-2.778 -4.17139,-12.2747 -7.66243,-17.4445 -1.0503,-1.5554 -2.56843,-4.1354 -3.37361,-5.7334 -0.80518,-1.598 -4.38896,-5.2616 -7.96396,-8.1414 -3.575,-2.8798 -8.3,-7.1219 -10.5,-9.427 -6.34341,-6.6464 -11.83375,-8.7388 -14.5,-5.5262 -1.65933,1.9994 -8.5944,1.9994 -9.36163,0 -0.31658,-0.825 -1.28265,-1.5 -2.14682,-1.5 -2.52358,0 -9.18705,3.7641 -9.88547,5.5842 -0.7478,1.9487 0.99084,4.4158 3.11199,4.4158 2.7925,0 6.92953,3.893 8.7044,8.191 0.97868,2.37 2.43312,5.8374 3.2321,7.7054 1.01774,2.3795 1.13722,3.7118 0.39905,4.45 -1.48525,1.4852 -1.30825,5.984 0.36678,9.3226 0.78123,1.557 2.21349,4.856 3.18281,7.331 0.96932,2.475 2.77304,5.625 4.00827,7 1.23523,1.375 2.54253,3.7008 2.90512,5.1684 0.36258,1.4676 1.96968,4.1361 3.57132,5.9301 1.60164,1.7939 2.91208,3.7715 2.91208,4.3945 0,0.6231 1.35,2.4262 3,4.007 1.65,1.5808 3,3.6203 3,4.5321 0,2.0074 2.71022,4.5778 7.18095,6.8104 2.94665,1.4715 3.37836,2.2185 3.84763,6.6575 0.4916,4.6501 2.24373,8.4926 5.8139,12.75 1.847,2.2026 1.60954,2.2537 4.62198,-0.9951 z m 26.00986,-28.2052 c 2.32097,-4.4883 1.8617,-9.0222 -1.99245,-19.6695 -3.74534,-10.3466 -4.91229,-12.3802 -7.10431,-12.3802 -2.16241,0 -1.68281,6.0077 1.17501,14.7191 1.74807,5.3286 2.35667,8.845 1.931,11.1572 -0.7079,3.8452 1.09259,9.1237 3.11207,9.1237 0.74415,0 2.03956,-1.3276 2.87868,-2.9503 z m -16.47432,-46.9907 c 0,-0.5175 -0.45,-1.2191 -1,-1.559 -0.55,-0.3399 -1,0.083 -1,0.941 0,0.8574 0.45,1.559 1,1.559 0.55,0 1,-0.4234 1,-0.941 z m -76.33583,-7.6262 c 0.83346,-2.172 -1.28244,-4.2145 -2.79695,-2.7 -1.28004,1.28 -0.48705,4.2672 1.13278,4.2672 0.58452,0 1.3334,-0.7052 1.66417,-1.5672 z m 66.33583,-8.2602 c 0,-1.0051 -2.37729,-4.9255 -5.28286,-8.7121 -4.42189,-5.7626 -5.92243,-7.0175 -9.20729,-7.7 -8.21756,-1.7074 -8.6949,1.676 -1.25985,8.9298 8.46426,8.258 15.75,11.7192 15.75,7.4823 z"
         id="path3573"
         inkscape:connector-curvature="0" />
      <path
         style="fill:#0a0808"
         d="m 886.33558,1757.8027 c -13.46278,-2.9788 -21.91981,-6.8244 -28.4586,-12.9407 -6.80038,-6.3609 -11.03923,-13.3047 -13.64655,-22.3547 -1.46957,-5.1009 -2.73788,-7.7209 -3.84484,-7.9425 -0.90852,-0.1818 -4.67238,1.7236 -8.36413,4.2342 -12.14138,8.257 -15.55672,9.0365 -39.71226,9.063 -22.01013,0.024 -28.55885,-0.824 -41.89966,-5.4265 -29.01218,-10.0091 -49.8226,-39.5312 -47.96216,-68.0401 1.334,-20.4419 16.22678,-49.1984 35.28288,-68.1278 8.05315,-7.9997 11.15316,-10.335 18.33085,-13.8092 11.84695,-5.7343 22.63663,-7.1834 35.16162,-4.7224 4.78358,0.9399 9.1208,1.4472 9.63828,1.1274 1.61026,-0.9952 -1.54279,-5.6794 -7.91171,-11.7536 -6.8939,-6.5749 -11.9638,-9.1317 -16.24369,-8.1916 -2.94072,0.6458 -3.42641,0.022 -2.28942,-2.941 0.67996,-1.772 8.39301,-2.3066 8.39301,-0.5818 0,0.55 0.6255,1 1.38999,1 2.97064,0 13.6791,9.2234 23.34382,20.1066 13.05976,14.7061 18.11922,21.4677 28.10993,37.567 7.20054,11.6032 10.92542,18.7714 18.22705,35.0764 1.08137,2.4148 2.58841,4.25 3.48998,4.25 0.87272,0 5.71607,-4.2129 10.763,-9.362 9.72225,-9.9192 17.6722,-15.2679 27.72804,-18.6555 6.85752,-2.3101 16.45941,-2.5815 21.16426,-0.5982 1.80616,0.7614 5.53393,1.9091 8.28393,2.5505 8.19873,1.9121 18.13401,8.5108 28.56538,18.9723 14.15645,14.1972 23.93987,30.5563 25.62455,42.8473 0.32417,2.3651 0.97655,4.5395 1.44974,4.8319 1.09595,0.6774 1.1344,17.6952 0.0428,18.9637 -0.44961,0.5225 -1.40422,3.425 -2.12134,6.45 -3.22878,13.6198 -15.08905,30.1356 -27.35954,38.099 -17.35761,11.2649 -42.72117,15.2765 -65.17525,10.3083 z m 39.77021,-5.841 c 13.67799,-4.0187 20.14745,-7.7676 29.25029,-16.9495 13.04724,-13.1606 18.69159,-26.5621 18.58704,-44.1315 -0.0865,-14.5296 -4.62364,-26.4352 -15.61933,-40.9853 -8.89959,-11.7764 -18.72598,-20.9671 -26.66249,-24.9376 -11.24346,-5.6249 -16.13954,-4.6665 -29.6172,5.7972 -10.46441,8.1243 -12.40835,7.5215 -4.7349,-1.4682 2.475,-2.8995 4.5,-5.8754 4.5,-6.613 0,-2.8971 -3.5008,-2.5461 -10.48989,1.0517 -8.50416,4.3778 -20.28168,14.9193 -27.40672,24.5304 l -5.10339,6.8841 0,9.9441 c 0,13.623 -1.42043,20.1973 -6.58605,30.4826 -3.78173,7.5299 -4.41395,9.6661 -4.41395,14.9144 0,15.4354 6.41762,28.4354 17.46516,35.3788 8.00897,5.0337 12.74538,6.4427 30.03484,8.935 7.33102,1.0567 22.21846,-0.3129 30.79659,-2.8332 z M 815.96099,1721.46 c 6.88167,-2.5993 12.18701,-6.0833 18.87293,-12.3935 6.07947,-5.7379 6.62495,-7.0164 7.10366,-16.6487 0.54112,-10.8881 -1.17121,-10.6195 -9.78104,1.5342 -10.94685,15.4526 -13.84197,18.299 -22.99469,22.6078 -4.48105,2.1096 -8.61699,3.8356 -9.19099,3.8356 -1.49016,0 -2.4025,1.8013 -1.58351,3.1265 1.01431,1.6411 10.81372,0.4914 17.57364,-2.0619 z m -57.15179,-3.8646 c 0,-1.5486 -2.42543,-3.2 -4.7,-3.2 -2.17278,0 -3.09157,1.8751 -1.63333,3.3333 0.94427,0.9443 6.33333,0.8309 6.33333,-0.1333 z m -9.46433,-3.2577 c 1.18357,-1.9151 -4.51127,-8.9515 -10.17918,-12.5772 -7.55973,-4.8359 -14.18878,-11.7234 -18.18442,-18.8933 -3.98332,-7.1478 -6.60745,-20.8947 -5.62324,-29.4581 1.45592,-12.6676 7.51436,-27.1422 14.44593,-34.5137 1.55153,-1.65 3.78494,-4.7413 4.96314,-6.8695 1.17819,-2.1282 5.38215,-7.6898 9.34213,-12.3591 3.95998,-4.6693 7.84215,-9.3779 8.62704,-10.4635 1.70111,-2.3529 11.83676,-9.3709 15.78107,-10.927 6.07454,-2.3964 14.5232,-3.9338 15.79902,-2.875 1.3297,1.1036 11.54198,3.9941 14.11118,3.9941 1.0051,0 1.41241,-0.7629 1.20121,-2.25 -0.57859,-4.0739 -6.63306,-6.043 -18.70905,-6.0846 -9.60498,-0.033 -11.27806,0.2479 -17.65478,2.9655 -8.88639,3.7871 -16.40601,9.3256 -24.17956,17.809 -12.7166,13.878 -23.57275,33.8396 -28.25852,51.9602 -4.65611,18.0059 -0.8893,36.2959 10.55128,51.2326 6.72688,8.7825 11.40794,12.9766 19.20527,17.2073 6.19429,3.3609 7.75254,3.7348 8.76148,2.1023 z m 51.67517,-4.0499 c 5.43739,-2.7739 4.84253,-5.2685 -2.13392,-8.949 -7.4083,-3.9083 -6.82152,-3.1143 -15.42831,-20.878 -1.18174,-2.439 -3.83611,-7.2683 -5.89861,-10.7319 -2.0625,-3.4635 -3.75,-6.651 -3.75,-7.0833 0,-0.4323 -1.19017,-2.5374 -2.64483,-4.6781 -1.45465,-2.1408 -5.71233,-9.885 -9.46151,-17.2095 -12.56638,-24.55 -14.08078,-27.3602 -15.07592,-27.9752 -4.13379,-2.5549 -23.03536,29.6251 -21.34855,36.3459 0.3281,1.3072 -0.11552,3.3235 -1.04249,4.7382 -1.22104,1.8636 -1.42849,3.5047 -0.85269,6.7456 1.32322,7.4479 1.43179,8.196 1.78236,12.2829 0.34062,3.9708 5.50899,13.5989 9.68759,18.0468 1.13455,1.2077 3.72629,3.0412 5.75943,4.0745 2.03314,1.0333 6.39661,3.63 9.69661,5.7706 3.3,2.1405 7.575,4.623 9.5,5.5167 1.925,0.8937 4.625,2.3784 6,3.2992 5.67743,3.8022 28.23999,4.2409 35.21084,0.6846 z m 11.07592,-10.1424 c 0.24939,-0.6875 -0.16311,-2.7675 -0.91666,-4.6221 -0.75356,-1.8547 -1.3701,-4.2301 -1.3701,-5.2787 0,-1.0486 -2.25,-4.8057 -5,-8.3492 -2.75,-3.5435 -5,-7.0464 -5,-7.7842 0,-0.7379 -1.38998,-2.6633 -3.08885,-4.2787 -1.69887,-1.6154 -4.8925,-5.8621 -7.09697,-9.4371 -2.20446,-3.575 -5.56101,-8.75 -7.459,-11.5 -1.89799,-2.75 -5.06683,-8.375 -7.04186,-12.5 -1.97503,-4.125 -4.3497,-8.4 -5.27705,-9.5 -0.92734,-1.1 -2.29914,-3.9496 -3.04843,-6.3324 -1.74357,-5.5447 -8.3225,-13.1505 -9.98177,-11.5397 -2.02592,1.9667 4.47701,19.0852 10.53628,27.736 0.80171,1.1446 1.45765,2.8112 1.45765,3.7036 0,0.8924 0.88141,2.4202 1.9587,3.3951 1.07728,0.975 2.67087,3.9168 3.5413,6.5374 0.87043,2.6206 2.43483,5.536 3.47643,6.4787 1.04161,0.9426 2.87799,3.808 4.08085,6.3676 1.20286,2.5595 3.14455,5.8345 4.31487,7.2777 1.17032,1.4432 2.89442,4.0307 3.83134,5.75 1.02722,1.885 2.49428,3.126 3.69543,3.126 1.09557,0 2.579,1.0623 3.29651,2.3607 2.40746,4.3563 6.51793,10.1565 8.16856,11.5264 0.89981,0.7468 1.63601,2.0548 1.63601,2.9066 0,1.6415 2.78794,5.2063 4.07165,5.2063 0.41893,0 0.96573,-0.5625 1.21511,-1.25 z m 11.91309,-13 c 5.0164,-6.6893 8.69584,-14.4508 9.83672,-20.75 1.09308,-6.0352 0.9551,-7.4615 -1.92966,-19.947 -1.7088,-7.3959 -3.10691,-14.5057 -3.10691,-15.7997 0,-4.9787 -11.0989,-23.4384 -16.91948,-28.1404 -2.4598,-1.9871 -8.0034,-6.9208 -12.31911,-10.9639 -8.58885,-8.0461 -7.19545,-7.6337 -18.8933,-5.5918 -2.22233,0.388 -3.89468,0.2088 -4.30902,-0.4616 -2.00719,-3.2477 -12.74212,1.2799 -13.37224,5.6399 -0.24887,1.722 0.70959,2.6851 4.66912,4.6915 4.41509,2.2373 5.23651,3.182 7.21563,8.2989 1.22835,3.1757 2.35842,8.486 2.51125,11.8005 0.29231,6.3392 3.04205,14.9276 6.39492,19.9736 2.82972,4.2587 3.56678,5.5484 5.42882,9.5 0.90709,1.925 3.45009,5.975 5.65112,9 2.20102,3.025 4.95398,6.9982 6.11768,8.8294 1.1637,1.8311 3.81023,4.399 5.88117,5.7063 2.64163,1.6676 3.97791,3.3599 4.4776,5.6706 1.35547,6.2681 7.0361,15.7937 9.41858,15.7937 0.44544,0 1.90663,-1.4625 3.24711,-3.25 z m 25.82511,-28.7989 c 1.96278,-3.8474 1.99058,-4.3418 0.55842,-9.9321 -2.56253,-10.0025 -7.62272,-21.019 -9.65464,-21.019 -3.03398,0 -3.06087,3.2343 -0.10865,13.0673 1.66235,5.5369 2.66853,10.8896 2.43208,12.9383 -0.49581,4.2961 1.17719,8.9944 3.20276,8.9944 0.82743,0 2.43395,-1.822 3.57003,-4.0489 z m -16.64595,-46.4058 c -0.52149,-1.359 -3.37901,-3.0065 -3.37901,-1.9482 0,0.2939 0.47258,1.4174 1.05017,2.4967 1.15504,2.1582 3.18411,1.6803 2.32884,-0.5485 z m -75.986,-5.1271 c 1.3269,-3.4578 0.66637,-5.4182 -1.82562,-5.4182 -3.24451,0 -4.57873,3.7873 -1.99881,5.6738 2.35349,1.7209 3.08473,1.6721 3.82443,-0.2556 z m 65.4409,-9.806 c 0.35241,-1.8175 -5.54667,-11.0543 -9.32944,-14.608 -1.46032,-1.3719 -3.7526,-2.1689 -6.61921,-2.3014 -3.83683,-0.1774 -4.42456,0.074 -4.69952,2.0068 -0.35829,2.5192 7.76036,10.8523 14.39217,14.7722 4.40793,2.6055 5.77058,2.6339 6.256,0.1304 z"
         id="path3571"
         inkscape:connector-curvature="0" />
    </g>
  </g>
</svg>
