<?xml version="1.0" encoding="UTF-8" standalone="no"?>
<!-- Created with Inkscape (http://www.inkscape.org/) -->

<svg
   xmlns:dc="http://purl.org/dc/elements/1.1/"
   xmlns:cc="http://creativecommons.org/ns#"
   xmlns:rdf="http://www.w3.org/1999/02/22-rdf-syntax-ns#"
   xmlns:svg="http://www.w3.org/2000/svg"
   xmlns="http://www.w3.org/2000/svg"
   xmlns:sodipodi="http://sodipodi.sourceforge.net/DTD/sodipodi-0.dtd"
   xmlns:inkscape="http://www.inkscape.org/namespaces/inkscape"
   width="140.53247"
   height="190.68272"
   id="svg2"
   version="1.1"
   inkscape:version="0.48.5 r10040">
  <defs
     id="defs4" />
  <sodipodi:namedview
     id="base"
     pagecolor="#ffffff"
     bordercolor="#666666"
     borderopacity="1.0"
     inkscape:pageopacity="0.0"
     inkscape:pageshadow="2"
     inkscape:zoom="2.2223356"
     inkscape:cx="170.45074"
     inkscape:cy="85.5536"
     inkscape:document-units="px"
     inkscape:current-layer="layer1"
     showgrid="false"
     inkscape:window-width="1366"
     inkscape:window-height="718"
     inkscape:window-x="0"
     inkscape:window-y="0"
     inkscape:window-maximized="1"
     fit-margin-top="0"
     fit-margin-left="0"
     fit-margin-right="0"
     fit-margin-bottom="0" />
  <metadata
     id="metadata7">
    <rdf:RDF>
      <cc:Work
         rdf:about="">
        <dc:format>image/svg+xml</dc:format>
        <dc:type
           rdf:resource="http://purl.org/dc/dcmitype/StillImage" />
        <dc:title></dc:title>
      </cc:Work>
    </rdf:RDF>
  </metadata>
  <g
     inkscape:label="Layer 1"
     inkscape:groupmode="layer"
     id="layer1"
     transform="translate(-646.83819,-1427.233)">
    <g
       id="g3385"
       transform="translate(-100.34488,-9.8994949)">
      <path
         style="fill:#f6a3a2"
         d="m 750.78061,1626.9798 c -1.56837,-1.1468 -1.72586,-2.338 -1.21035,-9.1543 0.32595,-4.3098 0.20077,-14.3896 -0.27818,-22.3996 -0.47895,-8.01 -1.14517,-28.9897 -1.4805,-46.6214 l -0.60968,-32.0578 3.03158,-3.9422 c 5.25866,-6.8384 5.04645,-6.7034 9.7125,-6.1775 4.07126,0.4589 4.40392,0.3147 4.92977,-2.1363 0.86071,-4.012 13.33428,-35.8396 16.70652,-42.6285 3.92943,-7.9106 9.63641,-16.1691 14.16627,-20.5 l 3.66082,-3.5 10.68979,0.04 c 10.27634,0.038 10.96053,0.1793 17.68979,3.6422 8.62839,4.4403 17.907,11.5459 22.35163,17.1169 6.57247,8.2381 15.12962,28.4843 15.16368,35.8773 0.021,4.5645 0.86168,5.393 5.43434,5.3558 3.20706,-0.026 4.22088,0.4471 5.39233,2.5168 1.28353,2.2678 1.24331,2.9691 -0.36455,6.3574 -1.67982,3.54 -1.72315,5.0524 -0.61461,21.4511 0.65595,9.7034 1.84888,28.6676 2.65097,42.1426 2.03742,34.2287 2.63273,38 5.99834,38 2.41362,0 4.80366,4.5414 3.58672,6.8153 -1.48825,2.7808 -2.66331,3.0548 -17.91068,4.1756 -7.52849,0.5535 -18.86317,1.4382 -25.18817,1.9661 -10.74436,0.8968 -53.57722,2.5289 -62.5,2.3815 -2.2,-0.036 -8.05,-0.546 -13,-1.1327 -8.02181,-0.9506 -9.27172,-0.8769 -11.5,0.678 -4.28082,2.9872 -4.65713,3.0874 -6.50833,1.7338 z m 105.9891,-12.6927 c 7.13943,-0.5426 13.38732,-1.393 13.8842,-1.8899 0.91133,-0.9113 -0.9684,-37.2231 -2.27926,-44.0297 -0.45588,-2.3671 -1.30425,-3.6118 -2.62937,-3.8576 -2.8248,-0.524 -4.09902,-1.771 -10.09602,-9.8801 -2.95604,-3.9972 -5.62673,-7.2676 -5.93486,-7.2676 -0.84139,0 0.46846,3.6916 4.1541,11.7078 4.74301,10.3159 5.23253,13.7989 2.36791,16.8481 -4.18781,4.4577 -7.43518,3.4248 -16.19747,-5.1524 -4.2625,-4.1724 -7.75,-7.2886 -7.75,-6.925 0,0.9177 4.94951,8.0506 14.70632,21.1937 10.12049,13.6331 10.65747,16.9435 3.05779,18.8509 -2.34737,0.5891 -3.24673,0.089 -6.4944,-3.61 -10.25715,-11.6832 -33.78327,-35.8724 -34.06553,-35.0256 -0.52903,1.587 3.66806,9.0321 10.77453,19.1125 12.6691,17.9709 14.428,22.5824 9.47424,24.8395 -3.94292,1.7965 -5.40666,1.4351 -9.62623,-2.3771 l -3.91569,-3.5376 -2.59037,2.0376 c -5.09835,4.0104 -7.32054,2.9634 -15.93629,-7.508 -4.31969,-5.2501 -8.01211,-9.0712 -8.20537,-8.4914 -0.19327,0.5798 2.49409,6.9665 5.9719,14.1927 l 6.3233,13.1386 21.0129,-0.6915 c 11.5571,-0.3804 26.85425,-1.1354 33.99367,-1.6779 z m -69.48077,-0.9249 c -0.5887,-1.1 -1.52037,-2 -2.07037,-2 -0.64321,0 -0.6181,0.7136 0.0704,2 0.5887,1.1 1.52037,2 2.07037,2 0.64321,0 0.6181,-0.7136 -0.0704,-2 z m -21,0.4414 c 0,-1.0057 -6.31351,-8.4414 -7.16737,-8.4414 -1.88118,0 -0.77437,5.9274 1.38988,7.4433 2.15275,1.5079 5.77749,2.134 5.77749,0.9981 z m -1.71621,-23.1914 c -1.2186,-3.2636 -6.45027,-11.25 -7.36956,-11.25 -1.05035,0 -1.10081,3.6744 -0.0856,6.2364 0.3784,0.9549 2.25927,2.8454 4.17971,4.2009 4.24242,2.9945 4.07463,2.9529 3.2755,0.8127 z m 4.35446,-22.3216 c -2.78837,-6.282 -11.09422,-17.9284 -12.78599,-17.9284 -0.83518,0 -0.99085,3.0526 -0.56617,11.1026 0.54662,10.3616 1.37075,14.126 2.43797,11.1359 0.24763,-0.6938 1.30696,-1.7199 2.35406,-2.2803 2.1172,-1.1331 6.49691,0.6199 8.95816,3.5855 2.33518,2.8137 2.14359,0.1108 -0.39803,-5.6153 z m 19.46096,-26.7311 c -2.20715,-4.3898 -5.1574,-9.6678 -6.55611,-11.7289 -1.60871,-2.3706 -2.5431,-5.1289 -2.5431,-7.5073 l 0,-3.7597 -4.75,-0.4088 c -5.34363,-0.4599 -8.25,0.01 -8.25,1.3337 0,1.5964 15.49031,22.0654 22.46679,29.6877 4.51349,4.9314 4.36188,1.7898 -0.36758,-7.6167 z m -18.23715,3.5527 c -1.25077,-1.7875 -4.65641,-6.4401 -7.56809,-10.339 -2.91168,-3.899 -5.29397,-7.8099 -5.29397,-8.691 0,-0.8811 -0.45,-1.8801 -1,-2.22 -0.63671,-0.3935 -1,2.4699 -1,7.882 0,7.844 0.94757,11.1299 2.48992,8.6343 1.40181,-2.2682 5.24768,-0.8594 9.51008,3.4837 2.42903,2.475 4.57836,4.5 4.7763,4.5 0.19794,0 -0.66347,-1.4625 -1.91424,-3.25 z m 65.13794,0.2179 c 0,-0.5677 -0.69062,-2.685 -1.53471,-4.7052 -1.73241,-4.1462 -4.70105,-16.4959 -4.86025,-20.2189 -0.0867,-2.0261 -0.8054,-2.6071 -4.10504,-3.3184 -4.55544,-0.9821 -34.9723,-0.5873 -36.02668,0.4676 -0.70461,0.705 13.58137,19.7708 17.35973,23.1681 2.06025,1.8524 2.06909,1.8422 1.90833,-2.1892 -0.17178,-4.3076 1.88653,-7.6016 5.45841,-8.7353 2.64363,-0.8391 8.6721,3.4896 14.94638,10.7321 4.85391,5.603 6.85383,7.0033 6.85383,4.7992 z m 30.98469,-6.7179 c -0.0112,-2.0014 -0.25818,-2.3664 -0.90748,-1.3407 -0.49069,0.7751 -0.66066,2.0126 -0.3777,2.75 0.81146,2.1146 1.30181,1.5769 1.28518,-1.4093 z m -0.75649,-21.5853 -0.52518,-3.9155 -6.10151,0.6836 c -3.35583,0.376 -8.47232,0.9389 -11.36997,1.2508 -2.89765,0.3119 -5.53574,0.9996 -5.86242,1.5282 -0.67185,1.0871 5.44126,7.7882 7.10481,7.7882 0.59487,0 1.85219,-0.9 2.79404,-2 2.73689,-3.1965 6.18481,-2.5189 9.92557,1.9505 l 3.30646,3.9505 0.62669,-3.6603 c 0.34469,-2.0133 0.39037,-5.4224 0.10151,-7.576 z m -82.43966,-9.5128 c 0.70869,-0.4497 2.63364,-5.037 4.27766,-10.1941 1.64401,-5.157 4.18007,-11.4198 5.63568,-13.9171 4.222,-7.2436 15.15423,-21.7715 16.88196,-22.4345 5.30161,-2.0344 12.12722,2.3921 21.54516,13.9724 7.54826,9.2813 10.64003,15.7106 11.47523,23.8627 l 0.68258,6.6623 3.59949,-0.3018 c 4.2182,-0.3537 6.19396,-3.4585 6.86792,-10.7925 0.87033,-9.4709 -9.23379,-29.3896 -18.7068,-36.8776 -11.27172,-8.9098 -25.8027,-13.4877 -31.32551,-9.8691 -6.21338,4.0712 -12.44608,15.4765 -22.68299,41.508 -3.69702,9.4012 -5.05558,16.8794 -3.37225,18.5627 0.90738,0.9074 3.55343,0.8137 5.12187,-0.1814 z m 48.26721,-1.6864 c 1.74071,-1.0758 1.0526,-11.6119 -1.03842,-15.8998 -2.56978,-5.2696 -10.2834,-15.0387 -13.58012,-17.1988 -2.50866,-1.6437 -2.65215,-1.6113 -5.40439,1.2223 -4.48493,4.6174 -11.93691,18.4501 -13.21049,24.5219 -1.98408,9.4592 -2.28758,9.2993 16.26172,8.569 8.81509,-0.347 16.45236,-0.8936 16.9717,-1.2146 z"
         id="path3399"
         inkscape:connector-curvature="0" />
      <path
         style="fill:#a49d9d"
         d="m 750.28289,1625.8549 c -0.89553,-1.079 -1.05528,-3.4928 -0.56229,-8.496 0.37876,-3.8437 0.23121,-14.078 -0.32788,-22.7427 -0.55909,-8.6647 -1.28498,-29.7251 -1.61309,-46.8009 l -0.59656,-31.0468 2.30294,-2.6328 c 1.26661,-1.4481 3.13602,-3.8221 4.15424,-5.2756 1.6132,-2.3028 2.43278,-2.6013 6.37245,-2.3203 l 4.52114,0.3224 1.29377,-5 c 1.34834,-5.2109 8.09633,-22.2956 14.19277,-35.9336 4.34187,-9.713 10.86195,-19.8898 15.73919,-24.5664 l 3.65015,-3.5 10.30983,0 c 10.22487,0 10.38235,0.037 19.11049,4.4626 11.065,5.6108 22.73204,16.5591 27.21393,25.5374 4.34208,8.6982 8.27201,20.1614 9.08285,26.4937 0.65061,5.081 0.89652,5.491 3.1836,5.3077 7.2574,-0.5816 9.76354,2.6044 7.17756,9.1247 -1.6713,4.214 -1.69463,3.5485 2.35161,67.0739 2.02264,31.7552 2.21559,32.8106 6.39311,34.9709 4.6806,2.4205 4.43209,7.3396 -0.4476,8.8601 -3.93957,1.2275 -46.82454,4.1219 -79.99616,5.399 -22.37646,0.8615 -21.31811,0.8801 -34.86156,-0.6127 -9.23565,-1.018 -10.02171,-0.961 -12.38486,0.8979 -3.02115,2.3764 -4.58469,2.4957 -6.25963,0.4775 z m 39.00605,-10.0424 c 0,-1.7698 -3.28395,-6.4503 -4.52568,-6.4503 -1.71755,0 -1.91726,2.3038 -0.43914,5.0657 0.91049,1.7013 4.96482,2.832 4.96482,1.3846 z m 68.97406,-1.4502 c 6.31074,-0.5765 11.8839,-1.4581 12.38481,-1.959 0.54767,-0.5476 0.35867,-10.3805 -0.47406,-24.6643 l -1.38481,-23.7537 -3.17277,-0.8201 c -2.42594,-0.6271 -4.44997,-2.6429 -8.59874,-8.5636 -10.30203,-14.7021 -12.16585,-13.222 -4.75451,3.7757 2.75422,6.3167 5.0118,12.2724 5.01685,13.2349 0.005,0.9625 -0.89083,2.65 -1.99083,3.75 -3.67803,3.678 -6.26237,2.604 -15.97569,-6.6395 -14.30736,-13.6153 -13.33485,-10.3455 3.908,13.1395 6.0572,8.25 11.02537,15.7771 11.04039,16.727 0.0362,2.2876 -4.42042,5.1896 -6.30065,4.1028 -0.78952,-0.4564 -9.18979,-9.1548 -18.66728,-19.3298 -9.47748,-10.175 -18.07571,-19.3825 -19.10717,-20.4611 -1.1938,-1.2484 -2.21869,-1.6118 -2.82002,-1 -1.31138,1.3342 4.72565,12.9866 11.87198,22.9147 12.00099,16.6724 14.03998,21.4113 10.11618,23.5112 -3.15911,1.6907 -4.85109,1.2239 -8.93406,-2.4648 -4.49516,-4.0611 -5.19027,-4.1977 -7.63168,-1.5 -3.46854,3.8327 -5.95391,2.6214 -13.73648,-6.695 -9.69206,-11.6021 -12.04036,-13.9745 -12.4919,-12.6199 -0.36324,1.0898 0.67041,3.5165 9.67223,22.7076 l 4.17122,8.8927 23.19247,-0.6185 c 12.75585,-0.3402 28.35579,-1.0902 34.66652,-1.6668 z m -90.57407,-0.2501 c -2.69496,-4.6915 -7.82157,-10.75 -9.09645,-10.75 -1.22143,0 -1.38621,0.7487 -0.82534,3.75 0.38542,2.0625 1.20738,4.3628 1.82657,5.1119 2.21814,2.6832 9.53188,4.3891 8.09522,1.8881 z m 2.42512,-15.5 c -2.15439,-4.7306 -8.37437,-16.1214 -9.50237,-17.4019 -0.88819,-1.0083 -1.33196,-3.1512 -1.13895,-5.5 0.47081,-5.7294 3.74577,-5.8151 9.41988,-0.2463 2.39492,2.3504 4.66119,3.9667 5.03616,3.5917 1.31406,-1.3141 -7.08279,-18.0552 -12.58429,-25.0898 l -5.55554,-7.1037 -0.28516,6.5 c -0.15684,3.575 0.10049,12.9983 0.57184,20.9406 0.65796,11.0866 1.18872,14.5443 2.28517,14.8871 0.78548,0.2455 3.43121,2.6347 5.8794,5.3094 3.89227,4.2522 6.89475,6.3546 5.87386,4.1129 z m 24.17489,-44.9556 c 0,-2.4008 -6.73718,-16.7687 -10.82472,-23.0851 -2.73257,-4.2226 -3.31397,-5.9673 -2.8799,-8.6421 l 0.54386,-3.3514 -6.35047,-0.6801 c -6.81607,-0.7299 -11.39313,0.5805 -9.72371,2.784 0.49181,0.6492 3.08136,4.1053 5.75456,7.6803 8.4396,11.2867 21.55537,27 22.53671,27 0.51902,0 0.94367,-0.7675 0.94367,-1.7056 z m -18.4856,-2.2666 c -0.84533,-1.6346 -4.98915,-7.5549 -9.20849,-13.1561 -4.91797,-6.5287 -7.8764,-11.4445 -8.24233,-13.6958 -0.31394,-1.9314 -1.07774,-3.6806 -1.69733,-3.8871 -1.64846,-0.5495 -2.2086,4.9317 -1.595,15.6076 l 0.54006,9.3964 1.92775,-2.6464 c 1.06027,-1.4555 2.62676,-2.6464 3.48109,-2.6464 0.85434,0 4.47927,3.15 8.0554,7 6.94353,7.4753 9.22754,8.8404 6.73885,4.0278 z m 61.4856,-3.4903 c 0,-0.2544 -0.87386,-2.8419 -1.94191,-5.75 -2.7963,-7.6138 -5.05809,-17.0297 -5.05809,-21.0568 0,-3.0984 -0.34326,-3.5494 -3.125,-4.1057 -3.98967,-0.7979 -34.64386,-0.7936 -37.625,0.01 -1.2375,0.3316 -2.25,0.9324 -2.25,1.335 0,1.3502 18.47203,24.3064 20.77502,25.8183 l 2.27503,1.4936 -0.64325,-5.473 c -0.60213,-5.1232 -0.46944,-5.6098 2.07604,-7.612 2.45384,-1.9302 2.98148,-2.0035 5.40516,-0.7501 1.47723,0.7639 5.87601,4.8019 9.77506,8.9734 3.89905,4.1715 7.81993,7.5845 8.71306,7.5845 0.89314,0 1.62388,-0.2081 1.62388,-0.4625 z m 29.51161,-14.7875 c -0.32771,-6.1875 -0.83719,-13.214 -1.13217,-15.6145 l -0.53633,-4.3645 -5.67156,0.5598 c -16.7812,1.6565 -19.17155,2.0322 -19.17155,3.0139 0,1.4492 7.1168,8.6553 8.54796,8.6553 0.62814,0 1.95655,-0.9 2.95204,-2 2.72278,-3.0086 5.88176,-2.4993 8.88008,1.4317 3.94212,5.1684 4.92387,8.4203 3.5462,11.7463 -0.95502,2.3056 -0.86921,3.2602 0.4779,5.3161 0.90306,1.3782 1.88073,2.5059 2.17259,2.5059 0.29187,0 0.26254,-5.0625 -0.0652,-11.25 z m -82.7966,-26 c 0.52794,-0.6875 2.3863,-5.8213 4.12969,-11.4085 2.76501,-8.8613 4.26808,-11.6984 11.77034,-22.2168 8.66579,-12.1498 10.58723,-13.7927 14.87308,-12.717 5.91452,1.4844 20.89047,17.7263 25.10746,27.2297 1.2538,2.8256 2.59343,7.911 2.97695,11.3009 l 0.69732,6.1635 3.96389,-0.3009 c 3.63325,-0.2758 4.07952,-0.6346 5.35002,-4.3009 2.26036,-6.5228 1.72773,-11.5466 -2.24239,-21.15 -6.30637,-15.2547 -12.87119,-22.4843 -26.70717,-29.4117 -6.34112,-3.1749 -8.94802,-3.9383 -13.44904,-3.9383 -5.44139,0 -5.70874,0.1334 -10.52304,5.25 -6.50303,6.9114 -12.99771,20.5956 -21.84871,46.0349 -2.55783,7.3516 -1.90391,10.7151 2.0832,10.7151 1.57217,0 3.29045,-0.5625 3.8184,-1.25 z m 45.28499,-0.641 c 2.27493,-0.6294 2.52668,-1.2461 2.79639,-6.8492 0.22374,-4.6483 -0.20129,-7.1331 -1.73408,-10.1377 -2.56408,-5.026 -11.3939,-15.694 -14.25889,-17.2273 -1.90616,-1.0202 -2.55574,-0.7416 -5.33029,2.286 -7.0988,7.7461 -13.47313,21.3974 -13.47313,28.8541 l 0,3.9651 14.75,-0.1 c 8.1125,-0.055 15.875,-0.4109 17.25,-0.7913 z"
         id="path3397"
         inkscape:connector-curvature="0" />
      <path
         style="fill:#fc5e5e"
         d="m 750.75222,1625.2465 c -0.36932,-1.1636 -0.35922,-5.0317 0.0225,-8.5957 0.38167,-3.564 0.17796,-14.4244 -0.45269,-24.1343 -0.63065,-9.7098 -1.49771,-30.2543 -1.9268,-45.6543 -0.63561,-22.8121 -0.53047,-28.3706 0.56746,-30 0.74119,-1.1 2.49229,-3.7173 3.89133,-5.8163 2.46376,-3.6963 2.70558,-3.8063 7.6938,-3.5 l 5.1501,0.3163 0.73199,-4 c 0.66991,-3.6608 10.52386,-29.0433 15.90797,-40.9769 3.37131,-7.4723 9.45769,-15.8941 15.25063,-21.1025 l 5.17223,-4.6503 7.51412,0.4463 c 6.38257,0.379 8.84745,1.1116 16.36803,4.8648 10.73723,5.3585 19.87231,12.6945 24.88863,19.987 4.56204,6.632 10.48945,20.8962 11.91793,28.6801 0.58052,3.1633 1.24224,6.771 1.47048,8.0171 0.3611,1.9714 0.94389,2.231 4.4892,2 3.15981,-0.206 4.38298,0.189 5.44989,1.7598 1.17365,1.728 1.15938,2.4423 -0.0972,4.8643 -0.81005,1.5614 -1.47283,5.2414 -1.47283,8.1777 0,10.7234 5.12156,86.0433 6.10275,89.7497 0.72154,2.7257 1.99513,4.3981 4.45387,5.8488 4.16658,2.4584 4.45243,5.2016 0.69338,6.6541 -3.61681,1.3975 -37.22972,3.9185 -69.7511,5.2314 -35.46897,1.4318 -34.7535,1.4307 -45.80488,0.071 l -9.80598,-1.2063 -3.02074,2.5418 c -3.67454,3.0919 -4.53635,3.1599 -5.40402,0.4261 z m 38.01857,-8.8549 c 0.88891,-1.4383 -2.29864,-7.0294 -4.00753,-7.0294 -1.92602,0 -1.88366,2.9706 0.0824,5.7775 1.67356,2.3893 2.96716,2.8019 3.92515,1.2519 z m 64.46468,-0.6095 c 9.5956,-0.7771 17.8887,-1.8551 18.42911,-2.3955 0.93865,-0.9387 -0.87333,-44.106 -2.02635,-48.2744 -0.26624,-0.9625 -1.31694,-1.75 -2.33489,-1.75 -3.5569,0 -5.03033,-1.2603 -10.35182,-8.8547 -10.23503,-14.6064 -12.08049,-13.0833 -4.6886,3.8698 2.75422,6.3167 5.0118,12.2724 5.01685,13.2349 0.005,0.9625 -0.89083,2.65 -1.99083,3.75 -3.67803,3.678 -6.26237,2.604 -15.97569,-6.6395 -14.30736,-13.6153 -13.33485,-10.3455 3.908,13.1395 6.0572,8.25 11.02537,15.7771 11.04039,16.727 0.0362,2.2876 -4.42042,5.1896 -6.30065,4.1028 -0.78952,-0.4564 -9.18979,-9.1548 -18.66728,-19.3298 -9.47748,-10.175 -18.07571,-19.3825 -19.10717,-20.4611 -1.1938,-1.2484 -2.21869,-1.6118 -2.82002,-1 -1.31138,1.3342 4.72565,12.9866 11.87198,22.9147 12.00099,16.6724 14.03998,21.4113 10.11618,23.5112 -3.15911,1.6907 -4.85109,1.2239 -8.93406,-2.4648 -4.49516,-4.0611 -5.19027,-4.1977 -7.63168,-1.5 -3.46854,3.8327 -5.95391,2.6214 -13.73648,-6.695 -15.03327,-17.996 -15.7301,-17.4751 -5.58224,4.173 l 7.30954,15.5932 17.50459,-0.1191 c 9.62752,-0.066 25.35553,-0.7551 34.95112,-1.5322 z m -85.52787,-0.2883 c 0.7628,-1.2342 -7.24491,-12.1316 -8.91468,-12.1316 -2.24652,0 -2.6637,1.6931 -1.49061,6.0496 0.84759,3.1478 1.8417,4.4171 4.29475,5.484 3.75303,1.6322 5.37339,1.7908 6.11054,0.598 z m 2.40645,-16.8816 c -2.15439,-4.7306 -8.37437,-16.1214 -9.50237,-17.4019 -0.88819,-1.0083 -1.33196,-3.1512 -1.13895,-5.5 0.47081,-5.7294 3.74577,-5.8151 9.41988,-0.2463 2.39492,2.3504 4.66119,3.9667 5.03616,3.5917 1.29338,-1.2934 -7.04279,-18.004 -12.3914,-24.8398 -2.94947,-3.7695 -5.84888,-6.8537 -6.44314,-6.8537 -1.31715,0 -0.11251,37.5574 1.2886,40.1754 0.49719,0.9291 1.76479,1.9624 2.81687,2.2963 1.05209,0.3339 3.5577,2.6144 5.56801,5.0677 2.01032,2.4533 4.1125,4.4606 4.67151,4.4606 0.55901,0 0.86268,-0.3375 0.67483,-0.75 z m 24.17489,-44.9556 c 0,-2.4008 -6.73718,-16.7687 -10.82472,-23.0851 -2.76864,-4.2783 -3.31691,-5.9491 -2.86536,-8.7317 0.30711,-1.8925 0.23488,-3.6409 -0.16052,-3.8853 -0.39541,-0.2443 -3.40328,-0.7376 -6.68416,-1.0962 -4.48528,-0.4901 -6.45052,-0.2884 -7.92127,0.8133 -1.8879,1.414 -1.75133,1.739 3.9204,9.3278 9.2058,12.3176 22.55214,28.3628 23.59196,28.3628 0.51902,0 0.94367,-0.7675 0.94367,-1.7056 z m -18.4472,-2.1923 c -0.8242,-1.5938 -5.11076,-7.7261 -9.52568,-13.6273 -5.22165,-6.9796 -8.03247,-11.6461 -8.04243,-13.3521 -0.0227,-3.8852 -1.55313,-5.9543 -3.192,-4.3154 -1.50787,1.5079 -1.54155,21.0321 -0.0409,23.7136 0.7981,1.4262 1.13206,1.3053 2.6049,-0.9425 0.92918,-1.4181 2.41559,-2.5784 3.30312,-2.5784 0.88753,0 4.53962,3.15 8.11575,7 6.90911,7.4382 9.22834,8.842 6.77725,4.1021 z m 61.4472,-3.5646 c 0,-0.2544 -0.87072,-2.8419 -1.93494,-5.75 -2.74509,-7.5014 -4.23635,-13.4521 -4.94794,-19.7444 -0.77694,-6.8702 -0.60923,-6.8176 -22.11712,-6.9298 -17.3113,-0.09 -21,0.3229 -21,2.352 0,1.707 17.97825,24.4822 20.77502,26.3183 l 2.27503,1.4936 -0.64325,-5.473 c -0.60213,-5.1232 -0.46944,-5.6098 2.07604,-7.612 2.45384,-1.9302 2.98148,-2.0035 5.40516,-0.7501 1.47723,0.7639 5.87601,4.8019 9.77506,8.9734 3.89905,4.1715 7.81993,7.5845 8.71306,7.5845 0.89314,0 1.62388,-0.2081 1.62388,-0.4625 z m 30.53162,-14.2875 c -0.33119,-5.9125 -0.85074,-13.1691 -1.15457,-16.1259 l -0.55242,-5.3759 -7.16231,0.6161 c -16.46486,1.4162 -18.66232,1.8244 -18.66232,3.4674 0,1.8273 6.8443,9.1683 8.54796,9.1683 0.62814,0 1.95655,-0.9 2.95204,-2 2.72278,-3.0086 5.88176,-2.4993 8.88008,1.4317 3.94212,5.1684 4.92387,8.4203 3.5462,11.7463 -0.95502,2.3056 -0.86921,3.2602 0.4779,5.3161 3.11084,4.7478 3.7594,3.0381 3.12744,-8.2441 z m -84.12467,-24.8527 c 0.93419,-0.3584 2.77728,-4.5132 4.54887,-10.2541 1.63808,-5.3083 4.46906,-12.1271 6.29104,-15.1528 4.818,-8.0011 14.60143,-20.995 16.29777,-21.6459 2.82707,-1.0848 6.72855,0.8006 12.0284,5.813 11.72297,11.0871 17.78949,21.3763 18.94049,32.1241 l 0.71947,6.7184 4.32449,0 c 4.60475,0 5.22186,-0.5165 7.16937,-6 2.17094,-6.1127 1.53914,-11.6579 -2.38039,-20.8923 -6.50852,-15.334 -13.45194,-23.1141 -26.48662,-29.6783 -14.40807,-7.2558 -19.89648,-6.6935 -27.51483,2.819 -4.45017,5.5567 -12.71486,22.0972 -14.86574,29.7516 -0.38638,1.375 -1.96468,5.425 -3.50734,9 -3.54,8.2037 -4.48627,13.1704 -3.02828,15.8947 1.11666,2.0865 4.28133,2.7237 7.4633,1.5026 z m 46.59305,-1.2992 c 2.39803,-0.6739 2.5,-1.0267 2.5,-8.6503 0,-7.4302 -0.22485,-8.2734 -3.45245,-12.9478 -4.89468,-7.0887 -13.03764,-15.5 -15.00552,-15.5 -0.91731,0 -2.81631,1.2375 -4.21998,2.75 -3.73415,4.0237 -10.76598,16.4133 -12.40339,21.854 -1.49053,4.9527 -1.88312,11.5982 -0.75199,12.7293 0.87742,0.8775 30.10803,0.6712 33.33333,-0.2352 z"
         id="path3395"
         inkscape:connector-curvature="0" />
      <path
         style="fill:#615c5b"
         d="m 750.75222,1625.2465 c -0.36932,-1.1636 -0.35922,-5.0317 0.0225,-8.5957 0.38167,-3.564 0.17796,-14.4244 -0.45269,-24.1343 -0.63065,-9.7098 -1.49771,-30.2543 -1.9268,-45.6543 -0.63561,-22.8121 -0.53047,-28.3706 0.56746,-30 0.74119,-1.1 2.49229,-3.7173 3.89133,-5.8163 2.46376,-3.6963 2.70558,-3.8063 7.6938,-3.5 l 5.1501,0.3163 0.73199,-4 c 0.66991,-3.6608 10.52386,-29.0433 15.90797,-40.9769 3.37131,-7.4723 9.45769,-15.8941 15.25063,-21.1025 l 5.17223,-4.6503 7.51412,0.4463 c 6.38257,0.379 8.84745,1.1116 16.36803,4.8648 10.73723,5.3585 19.87231,12.6945 24.88863,19.987 4.56204,6.632 10.48945,20.8962 11.91793,28.6801 0.58052,3.1633 1.24224,6.771 1.47048,8.0171 0.3611,1.9714 0.94389,2.231 4.4892,2 3.15981,-0.206 4.38298,0.189 5.44989,1.7598 1.17365,1.728 1.15938,2.4423 -0.0972,4.8643 -0.81005,1.5614 -1.47283,5.2414 -1.47283,8.1777 0,10.7234 5.12156,86.0433 6.10275,89.7497 0.72154,2.7257 1.99513,4.3981 4.45387,5.8488 4.16658,2.4584 4.45243,5.2016 0.69338,6.6541 -3.61681,1.3975 -37.22972,3.9185 -69.7511,5.2314 -35.46897,1.4318 -34.7535,1.4307 -45.80488,0.071 l -9.80598,-1.2063 -3.02074,2.5418 c -3.67454,3.0919 -4.53635,3.1599 -5.40402,0.4261 z m 39.53672,-9.8076 c 0,-2.3855 -4.66488,-8.0767 -6.62028,-8.0767 -2.25079,0 -2.67392,2.5304 -0.97311,5.8194 1.60243,3.0988 2.83804,3.9661 5.84339,4.1017 1.08743,0.049 1.75,-0.6493 1.75,-1.8444 z m 62.94653,0.3432 c 9.5956,-0.7771 17.88592,-1.8523 18.42294,-2.3894 1.15386,-1.1538 -1.15681,-46.5884 -2.50272,-49.2107 -0.4743,-0.924 -1.86796,-1.824 -3.09701,-2 -1.40157,-0.2006 -3.99752,-2.743 -6.96335,-6.8198 -6.27799,-8.6296 -10.24384,-13 -11.79676,-13 -2.10952,0 -0.58598,6.7252 3.51141,15.5 5.23103,11.2026 5.76824,13.4096 3.94237,16.1962 -2.62025,3.999 -5.12399,2.8216 -15.61452,-7.3426 -7.57362,-7.3381 -10.23467,-9.3678 -11.12029,-8.4822 -1.51771,1.5177 0.22754,4.7446 9.26402,17.1286 15.20244,20.8342 16.41393,22.8052 15.03703,24.4643 -0.701,0.8446 -2.00694,1.5292 -2.90209,1.5213 -0.89516,-0.01 -10.53986,-9.4578 -21.43268,-21 -10.89281,-11.5421 -20.45531,-20.9856 -21.25,-20.9856 -4.02932,0 1.19105,11.3611 12.72798,27.7 3.57288,5.06 7.58312,11.275 8.91165,13.8111 2.37517,4.5341 2.38308,4.6351 0.47436,6.05 -2.69024,1.9942 -3.04851,1.8948 -7.42719,-2.0611 -3.67931,-3.324 -8.13168,-4.6811 -8.13168,-2.4786 0,1.6041 -4.58536,3.3132 -6.27616,2.3394 -0.82196,-0.4734 -5.03359,-5.1358 -9.35916,-10.3608 -8.55439,-10.3331 -11.40341,-13.0941 -12.69071,-12.2985 -1.33913,0.8276 0.0299,4.7007 6.41645,18.1524 9.15067,19.2737 5.97539,17.2407 26.70687,17.0995 9.73649,-0.066 25.55365,-0.7564 35.14924,-1.5335 z m -85.52832,-0.027 c 0.86999,-0.3338 1.58179,-0.9855 1.58179,-1.4481 0,-1.5821 -10.16353,-13.0571 -11.24546,-12.6964 -1.56476,0.5216 -1.8223,3.6922 -0.65585,8.0742 0.76443,2.8718 1.81155,4.168 4.20943,5.2109 3.7269,1.6208 4.01892,1.6619 6.11009,0.8594 z m 4.0554,-14.3503 c 0.60643,-0.9812 -5.74388,-14.1647 -9.41344,-19.5427 -2.45377,-3.5962 -2.7013,-8.3167 -0.48079,-9.1688 1.04861,-0.4024 3.32758,1.1204 6.78144,4.5313 8.57887,8.4724 9.75843,6.6397 4.01411,-6.2366 -1.99378,-4.4693 -6.04378,-11.4975 -9,-15.6184 -5.60108,-7.8077 -6.47601,-10.8488 -3.76791,-13.0963 1.40512,-1.1662 2.61049,-0.2393 9.59393,7.3775 7.46797,8.1453 10.79905,10.4427 10.79905,7.448 0,-1.5918 -5.30786,-9.6051 -14.14359,-21.3527 -4.95746,-6.5912 -6.85641,-9.9544 -6.85641,-12.143 0,-1.9031 -0.61902,-3.2646 -1.66722,-3.6668 -3.93759,-1.511 -4.13248,0.9891 -3.09297,39.6778 0.38056,14.1635 1.12455,26.5603 1.65333,27.5483 1.21762,2.2752 13.37235,15.1948 14.29784,15.1976 0.38004,0 0.95723,-0.4287 1.28263,-0.9552 z m 24.14472,-47.2927 c -0.77017,-3.9627 -8.30374,-19.7703 -12.01706,-25.2154 -2.18505,-3.2041 -2.5859,-4.6661 -2.08778,-7.6144 l 0.61648,-3.649 -7.13723,-0.7033 c -5.73877,-0.5654 -7.61917,-0.3875 -9.59685,0.9084 -2.84647,1.865 -3.15632,1.1664 5.77634,13.0237 13.95913,18.5294 21.0403,26.5 23.54291,26.5 1.19454,0 1.3948,-0.7206 0.90319,-3.25 z m 42.38167,-5.7393 c 0,-1.0941 -0.90823,-4.3566 -2.01829,-7.25 -2.5795,-6.7235 -4.98171,-16.9399 -4.98171,-21.1868 0,-3.1702 -0.18525,-3.3274 -4.63957,-3.938 -12.60203,-1.7273 -41.36043,-0.3244 -41.36043,2.0176 0,0.2519 3.43546,4.8203 7.63435,10.1522 13.48391,17.1222 20.61456,23.3193 18.92163,16.4443 -1.58548,-6.4386 -1.68873,-8.1334 -0.61744,-10.1352 2.24179,-4.1888 5.4682,-2.6859 14.78068,6.8852 8.65589,8.8962 12.28078,10.9656 12.28078,7.0107 z m 29.57225,-13.7607 c -0.34378,-6.4625 -0.87824,-14.1741 -1.1877,-17.1368 l -0.56264,-5.3868 -7.66096,0.68 c -20.65905,1.8336 -21.82562,2.4891 -16.07844,9.0348 4.92604,5.6104 6.24831,5.9928 9.95099,2.8772 3.66922,-3.0875 5.09812,-2.6406 8.76162,2.7403 1.93426,2.841 2.19606,4.1638 1.66511,8.4134 -0.52975,4.2399 -0.28668,5.4788 1.52746,7.7851 3.77007,4.7929 4.25398,3.5769 3.58456,-9.0072 z m -84.1653,-25.8527 c 0.93419,-0.3584 2.77728,-4.5132 4.54887,-10.2541 1.63808,-5.3083 4.46906,-12.1271 6.29104,-15.1528 4.818,-8.0011 14.60143,-20.995 16.29777,-21.6459 2.82707,-1.0848 6.72855,0.8006 12.0284,5.813 11.72297,11.0871 17.78949,21.3763 18.94049,32.1241 l 0.71947,6.7184 4.32449,0 c 4.60475,0 5.22186,-0.5165 7.16937,-6 2.17094,-6.1127 1.53914,-11.6579 -2.38039,-20.8923 -6.50852,-15.334 -13.45194,-23.1141 -26.48662,-29.6783 -14.40807,-7.2558 -19.89648,-6.6935 -27.51483,2.819 -4.45017,5.5567 -12.71486,22.0972 -14.86574,29.7516 -0.38638,1.375 -1.96468,5.425 -3.50734,9 -3.54,8.2037 -4.48627,13.1704 -3.02828,15.8947 1.11666,2.0865 4.28133,2.7237 7.4633,1.5026 z m 46.59305,-1.2992 c 2.39803,-0.6739 2.5,-1.0267 2.5,-8.6503 0,-7.4302 -0.22485,-8.2734 -3.45245,-12.9478 -4.89468,-7.0887 -13.03764,-15.5 -15.00552,-15.5 -0.91731,0 -2.81631,1.2375 -4.21998,2.75 -3.73415,4.0237 -10.76598,16.4133 -12.40339,21.854 -1.49053,4.9527 -1.88312,11.5982 -0.75199,12.7293 0.87742,0.8775 30.10803,0.6712 33.33333,-0.2352 z"
         id="path3393"
         inkscape:connector-curvature="0" />
      <path
         style="fill:#fd0707"
         d="m 751.54081,1614.6122 c 0.12843,-5.9125 -0.36086,-24.025 -1.08731,-40.25 -0.72644,-16.225 -1.45606,-35.6672 -1.62136,-43.2048 -0.27644,-12.6048 -0.14155,-13.8487 1.6805,-15.4976 1.08958,-0.9861 2.64886,-3.0843 3.46506,-4.6626 1.4086,-2.724 1.72985,-2.8371 6.3234,-2.2278 5.51876,0.7321 5.5467,0.7066 7.516,-6.854 1.32499,-5.087 8.91164,-24.3386 14.93847,-37.9073 5.27279,-11.8711 16.08253,-24.7417 22.03467,-26.2356 3.80391,-0.9547 9.22608,0 16.32212,2.8624 24.55099,9.9166 36.41584,25.7501 42.88321,57.2273 0.81022,3.9434 0.88003,3.9964 4.93185,3.746 5.86111,-0.3622 7.20967,1.5467 4.82638,6.8319 -1.75323,3.888 -1.75551,5.0211 -0.0637,31.7271 4.53368,71.5649 4.32623,70.1582 10.67286,72.3707 3.49614,1.2187 3.76194,3.0507 0.67595,4.6588 -3.03332,1.5806 -35.34804,4.0449 -67.75,5.1664 -14.575,0.5046 -28.8694,1.1655 -31.76533,1.4688 -2.89593,0.3032 -7.17093,0.1232 -9.5,-0.4001 -2.32907,-0.5233 -7.28765,-1.1876 -11.01908,-1.4761 -5.83753,-0.4514 -7.05875,-0.2503 -8.75,1.4409 -1.08105,1.0811 -2.63643,1.9656 -3.45638,1.9656 -1.24312,0 -1.45202,-1.7861 -1.25731,-10.75 z m 38.74813,1.3267 c 0,-1.3328 -1.165,-3.8078 -2.58889,-5.5 -4.21696,-5.0115 -7.63478,-3.5854 -5.35306,2.2337 2.25537,5.7518 7.94195,8.0906 7.94195,3.2663 z m 48.5,1.4336 c 24.38775,-1.2889 31.08018,-1.9828 33.05597,-3.4276 1.54626,-1.1306 1.58173,-2.9005 0.45394,-22.6546 -1.55658,-27.2646 -1.75027,-28.2769 -5.53627,-28.9327 -2.19349,-0.3799 -4.13581,-2.1538 -7.66684,-7.0021 -6.28762,-8.6332 -10.24632,-12.9933 -11.79717,-12.9933 -2.10952,0 -0.58598,6.7252 3.51141,15.5 5.23103,11.2026 5.76824,13.4096 3.94237,16.1962 -2.62025,3.999 -5.12399,2.8216 -15.61452,-7.3426 -7.57362,-7.3381 -10.23467,-9.3678 -11.12029,-8.4822 -1.51771,1.5177 0.22754,4.7446 9.26402,17.1286 15.20244,20.8342 16.41393,22.8052 15.03703,24.4643 -0.701,0.8446 -2.00694,1.5292 -2.90209,1.5213 -0.89516,-0.01 -10.53986,-9.4578 -21.43268,-21 -10.89281,-11.5421 -20.45531,-20.9856 -21.25,-20.9856 -4.02932,0 1.19105,11.3611 12.72798,27.7 3.57288,5.06 7.58312,11.275 8.91165,13.8111 2.37517,4.5341 2.38308,4.6351 0.47436,6.05 -2.69024,1.9942 -3.04851,1.8948 -7.42719,-2.0611 -3.67931,-3.324 -8.13168,-4.6811 -8.13168,-2.4786 0,1.6041 -4.58536,3.3132 -6.27616,2.3394 -0.82196,-0.4734 -5.03359,-5.1358 -9.35916,-10.3608 -8.55439,-10.3331 -11.40341,-13.0941 -12.69071,-12.2985 -0.45981,0.2842 -0.55124,1.6514 -0.20316,3.0382 0.68266,2.72 13.30878,29.948 14.84371,32.0103 1.13673,1.5273 13.64149,1.6103 39.18548,0.2603 z m -70.64299,-0.9008 c 1.99089,-1.2614 0.75988,-3.9039 -4.67452,-10.034 -5.37447,-6.0625 -7.18249,-6.0872 -7.18249,-0.098 0,5.629 0.83928,7.0456 5.40184,9.1177 4.74468,2.1548 4.67344,2.1436 6.45517,1.0146 z m 3.6166,-15.0668 c 0.60643,-0.9812 -5.74388,-14.1647 -9.41344,-19.5427 -2.45377,-3.5962 -2.7013,-8.3167 -0.48079,-9.1688 1.04861,-0.4024 3.32758,1.1204 6.78144,4.5314 8.57887,8.4723 9.75843,6.6396 4.01411,-6.2367 -1.99378,-4.4693 -6.04378,-11.4975 -9,-15.6184 -5.60108,-7.8077 -6.47601,-10.8488 -3.76791,-13.0963 1.40512,-1.1662 2.61049,-0.2392 9.59393,7.3775 7.46797,8.1453 10.79905,10.4427 10.79905,7.448 0,-1.5918 -5.30786,-9.6051 -14.14359,-21.3527 -4.93941,-6.5672 -6.85641,-9.958 -6.85641,-12.1276 0,-3.8908 -2.49165,-6.1971 -4.5058,-4.1705 -1.81842,1.8296 -1.95208,6.0167 -1.21033,37.9141 0.63152,27.1571 1.37454,32.4394 4.71204,33.4987 1.0058,0.3192 3.92799,3.0376 6.49374,6.0409 4.69209,5.4921 5.89383,6.267 6.98396,4.5031 z m 24.14,-47.2927 c -0.7945,-4.0574 -7.82415,-18.9341 -11.42086,-24.1697 -1.95963,-2.8525 -2.69275,-5.1647 -2.69275,-8.4925 l 0,-4.5727 -5.91809,-0.7426 c -6.66261,-0.836 -11.94339,0.1433 -12.35275,2.2907 -0.39649,2.0798 19.50382,28.4874 27.26979,36.1868 3.89749,3.8641 5.93029,3.6654 5.11466,-0.5 z m 42.38639,-5.7272 c 0,-1.0874 -1.05056,-4.7999 -2.33457,-8.25 -2.28516,-6.14 -4.40236,-15.307 -4.91044,-21.261 -0.22523,-2.6394 -0.72178,-3.0703 -4.25499,-3.6923 -5.12175,-0.9017 -29.76346,-1.0193 -35.94861,-0.1715 -2.60026,0.3564 -4.95205,1.2325 -5.22619,1.9469 -0.27413,0.7144 2.97601,5.7103 7.22254,11.102 13.57238,17.2325 20.70506,23.4439 19.00824,16.5531 -1.58548,-6.4386 -1.68873,-8.1334 -0.61744,-10.1352 2.24179,-4.1888 5.4682,-2.6859 14.78068,6.8852 8.64599,8.8861 12.28078,10.9646 12.28078,7.0228 z m 30.37342,-14.7728 c -0.36204,-7.0125 -0.9394,-14.775 -1.28302,-17.25 l -0.62477,-4.5 -5.98282,0.08 c -3.29054,0.044 -9.35781,0.4943 -13.48281,1 -6.5686,0.8054 -7.53807,1.1867 -7.80655,3.0704 -0.18667,1.3097 0.94237,3.5732 2.88714,5.7882 4.92808,5.6128 6.24995,5.9952 9.95291,2.8794 3.66922,-3.0875 5.09812,-2.6406 8.76162,2.7403 1.93426,2.8409 2.19606,4.1638 1.66511,8.4133 -0.52975,4.24 -0.28668,5.4789 1.52746,7.7852 1.18661,1.5085 2.80694,2.7428 3.60073,2.7428 1.21664,0 1.3399,-2.002 0.785,-12.75 z m -85.18852,-24.1323 c 1.85974,-0.7088 3.05009,-3.1182 6.05192,-12.25 3.21027,-9.7659 4.8307,-12.9049 11.5,-22.2772 4.26975,-6.0002 8.48103,-11.354 9.3584,-11.8973 3.25934,-2.0181 7.33588,0.3261 15.67025,9.011 9.93772,10.3558 13.88562,17.6821 14.97827,27.7958 l 0.75626,7 3.70766,0.3078 c 5.21979,0.4334 7.3518,-1.0666 9.19204,-6.4674 2.35761,-6.9193 1.99821,-10.5917 -2.02742,-20.7164 -6.41561,-16.1358 -13.64614,-24.1333 -28.57368,-31.6048 -6.73279,-3.3698 -9.01159,-4.0192 -14.10449,-4.0192 l -6.07431,0 -5.29677,5.737 c -5.79292,6.2743 -9.23607,12.7625 -16.05998,30.263 -7.22909,18.5396 -7.48248,19.3236 -7.50975,23.2332 -0.042,6.0269 2.81892,8.0236 8.4316,5.8845 z m 49.5651,-2.7995 c 1.73134,-2.3552 1.56596,-11.6263 -0.28649,-16.0598 -2.46183,-5.892 -11.82476,-17.5995 -15.77727,-19.728 l -3.63237,-1.9562 -3.06035,2.932 c -3.9275,3.7628 -11.7851,17.1509 -13.59437,23.1626 -1.73495,5.7648 -1.79963,11.5098 -0.14915,13.2465 0.98322,1.0345 4.87823,1.1859 18.25,0.7093 14.39041,-0.513 17.19188,-0.8671 18.25,-2.3064 z"
         id="path3391"
         inkscape:connector-curvature="0" />
      <path
         style="fill:#2f2d2d"
         d="m 751.54081,1614.6122 c 0.12843,-5.9125 -0.36086,-24.025 -1.08731,-40.25 -0.72644,-16.225 -1.45606,-35.6672 -1.62136,-43.2048 -0.27644,-12.6048 -0.14155,-13.8487 1.6805,-15.4976 1.08958,-0.9861 2.64886,-3.0843 3.46506,-4.6626 1.4086,-2.724 1.72985,-2.8371 6.3234,-2.2278 5.51876,0.7321 5.5467,0.7066 7.516,-6.854 1.32499,-5.087 8.91164,-24.3386 14.93847,-37.9073 5.27279,-11.8711 16.08253,-24.7417 22.03467,-26.2356 3.80391,-0.9547 9.22608,0 16.32212,2.8624 24.55099,9.9166 36.41584,25.7501 42.88321,57.2273 0.81022,3.9434 0.88003,3.9964 4.93185,3.746 5.86111,-0.3622 7.20967,1.5467 4.82638,6.8319 -1.75323,3.888 -1.75551,5.0211 -0.0637,31.7271 4.53368,71.5649 4.32623,70.1582 10.67286,72.3707 3.49614,1.2187 3.76194,3.0507 0.67595,4.6588 -3.03332,1.5806 -35.34804,4.0449 -67.75,5.1664 -14.575,0.5046 -28.8694,1.1655 -31.76533,1.4688 -2.89593,0.3032 -7.17093,0.1232 -9.5,-0.4001 -2.32907,-0.5233 -7.28765,-1.1876 -11.01908,-1.4761 -5.83753,-0.4514 -7.05875,-0.2503 -8.75,1.4409 -1.08105,1.0811 -2.63643,1.9656 -3.45638,1.9656 -1.24312,0 -1.45202,-1.7861 -1.25731,-10.75 z m 41.24036,1.6221 3.60655,-2.1279 2.26506,2.1279 c 2.00015,1.879 3.42707,2.1257 12.20061,2.1087 10.65001,-0.021 41.63452,-1.52 52.62489,-2.5467 10.90841,-1.019 10.34752,0.7653 8.58426,-27.3084 -1.18972,-18.942 -1.8576,-24.561 -3.07987,-25.9116 -1.32012,-1.4587 -1.41172,-2.9248 -0.59415,-9.5101 0.96835,-7.7998 -0.32473,-38.6413 -1.71438,-40.8898 -0.63373,-1.0253 -3.1443,-0.9245 -19.8852,0.7988 -3.9554,0.4071 -6.74932,1.3029 -8.19893,2.6286 -1.62512,1.4863 -2.92988,1.8357 -5,1.339 -9.89874,-2.3752 -14.41658,-2.7452 -29.42326,-2.4095 -11.28753,0.2525 -17.10299,0.7709 -18.12028,1.6152 -1.14258,0.9482 -3.17517,1.0054 -8.56524,0.241 -8.27899,-1.1742 -12.87077,-0.4966 -14.26299,2.1048 -1.13742,2.1253 -3.94815,2.4491 -5.73644,0.6608 -2.03186,-2.0319 -4.08075,1.1531 -4.31466,6.7071 -0.11581,2.75 0.0619,16.9866 0.3949,31.6368 0.48267,21.2346 0.93306,27.4203 2.22074,30.5 1.27778,3.056 1.475,5.6589 0.94391,12.4575 -0.80307,10.2804 -0.24838,12.4352 3.73073,14.4928 3.26658,1.6892 16.93616,2.6034 20.36678,1.3621 1.24214,-0.4494 2.77796,-0.1933 3.94113,0.6572 2.56558,1.876 3.78029,1.7647 8.01584,-0.7343 z m -9.30733,-106.7544 c 1.85974,-0.7088 3.05009,-3.1182 6.05192,-12.25 3.21027,-9.7659 4.8307,-12.9049 11.5,-22.2772 4.26975,-6.0002 8.48103,-11.354 9.3584,-11.8973 3.25934,-2.0181 7.33588,0.3261 15.67025,9.011 9.93772,10.3558 13.88562,17.6821 14.97827,27.7958 l 0.75626,7 3.70766,0.3078 c 5.21979,0.4334 7.3518,-1.0666 9.19204,-6.4674 2.35761,-6.9193 1.99821,-10.5917 -2.02742,-20.7164 -6.41561,-16.1358 -13.64614,-24.1333 -28.57368,-31.6048 -6.73279,-3.3698 -9.01159,-4.0192 -14.10449,-4.0192 l -6.07431,0 -5.29677,5.737 c -5.79292,6.2743 -9.23607,12.7625 -16.05998,30.263 -7.22909,18.5396 -7.48248,19.3236 -7.50975,23.2332 -0.042,6.0269 2.81892,8.0236 8.4316,5.8845 z m 49.5651,-2.7995 c 1.73134,-2.3552 1.56596,-11.6263 -0.28649,-16.0598 -2.46183,-5.892 -11.82476,-17.5995 -15.77727,-19.728 l -3.63237,-1.9562 -3.06035,2.932 c -3.9275,3.7628 -11.7851,17.1509 -13.59437,23.1626 -1.73495,5.7648 -1.79963,11.5098 -0.14915,13.2465 0.98322,1.0345 4.87823,1.1859 18.25,0.7093 14.39041,-0.513 17.19188,-0.8671 18.25,-2.3064 z"
         id="path3389"
         inkscape:connector-curvature="0" />
      <path
         style="fill:#070606"
         d="m 752.51641,1618.1122 c 0.22282,-3.4375 -0.15718,-16.825 -0.84443,-29.75 -0.68725,-12.925 -1.56524,-33.9465 -1.9511,-46.7144 l -0.70156,-23.2145 3.13481,-3.5703 c 1.72415,-1.9637 3.13481,-3.9566 3.13481,-4.4286 0,-1.5152 2.9389,-2.0459 5.64077,-1.0187 4.05269,1.5408 6.2083,0.3335 6.89172,-3.8599 0.65531,-4.0209 10.83871,-30.79 15.6419,-41.1178 3.98706,-8.573 9.67467,-16.8033 14.8319,-21.4625 l 4.22238,-3.8147 7.71117,0.3507 c 6.6805,0.3038 8.8372,0.9142 16.13567,4.5664 15.96602,7.9896 24.16861,16.7106 30.87969,32.8313 1.75937,4.2262 3.67961,10.2195 4.2672,13.3185 0.58759,3.099 1.47674,7.346 1.97588,9.4378 l 0.90753,3.8034 4.32886,-0.6492 c 5.43502,-0.815 6.20692,0.2957 4.0786,5.8686 -1.44029,3.7713 -1.50649,6.1697 -0.55829,20.2263 0.59167,8.7712 1.51975,24.0476 2.0624,33.9476 2.3954,43.7014 3.04104,47.3642 8.81106,49.9871 2.20451,1.0021 2.86714,2.965 1.32308,3.9193 -1.63526,1.0106 -50.88828,4.4695 -75.15152,5.2776 -28.35841,0.9445 -28.46573,0.9433 -41,-0.4744 -8.77563,-0.9926 -9.7066,-0.9271 -12.20951,0.858 -1.49023,1.0628 -2.9927,1.9324 -3.33882,1.9324 -0.34612,0 -0.44701,-2.8125 -0.2242,-6.25 z m 39.81675,-0.4352 c 2.69714,-1.5932 3.04249,-1.583 6.32868,0.1867 3.33044,1.7936 4.70278,1.8183 32.80148,0.5927 16.12909,-0.7036 31.70619,-1.6093 34.61578,-2.0126 8.87323,-1.23 8.62437,-0.1817 6.69454,-28.1994 -1.02371,-14.8625 -2.16547,-25.1631 -2.92431,-26.3822 -0.86759,-1.3938 -1.0246,-3.8185 -0.51806,-8 0.91066,-7.5176 -0.97671,-40.5208 -2.42339,-42.376 -0.82084,-1.0527 -2.60582,-1.214 -7.59596,-0.6864 -3.58764,0.3793 -9.54781,1.0076 -13.24481,1.3963 -4.88669,0.5138 -7.10089,1.2252 -8.11023,2.6055 -1.29543,1.7716 -1.71583,1.8038 -6.27817,0.4797 -6.31992,-1.8342 -43.64521,-1.7819 -45.86963,0.064 -0.8313,0.6899 -2.63258,0.9313 -4.26849,0.572 -1.55665,-0.3419 -5.86268,-0.6733 -9.56896,-0.7365 -5.65312,-0.096 -7.11431,0.2381 -9.07037,2.0757 -2.06292,1.938 -2.64866,2.0461 -5.08155,0.9376 -2.41847,-1.102 -2.92408,-1.0167 -4.1955,0.7075 -2.11758,2.8716 -1.17337,61.6101 1.10853,68.9604 1.15755,3.7287 1.39253,7.1798 0.92413,13.5727 -1.00853,13.7647 1.29409,15.8191 18.03044,16.087 5.78288,0.093 11.09647,0.5376 11.80798,0.989 1.9509,1.2376 3.69012,1.0255 6.83787,-0.8339 z m -6.40719,-108.6652 c 0.62537,-0.6323 2.51996,-5.6623 4.2102,-11.1778 2.50751,-8.1824 4.39062,-11.9556 10.23083,-20.5 9.24065,-13.5193 9.67015,-13.9718 13.26018,-13.9718 2.4911,0 4.4991,1.5213 11.32001,8.5765 9.68384,10.0164 14.15272,18.0447 15.03294,27.0064 0.31965,3.2544 0.98573,6.7046 1.48018,7.6671 1.14881,2.2363 7.51483,2.3585 10.59175,0.2034 3.03303,-2.1244 5.60895,-11.2916 4.69423,-16.7059 -0.98617,-5.837 -6.80433,-19.2699 -10.9671,-25.3207 -7.40252,-10.7598 -23.57167,-20.5188 -35.22602,-21.2609 l -6.50104,-0.414 -6.16161,6.6009 c -6.93967,7.4344 -9.16957,12.0275 -22.16128,45.6472 -0.74388,1.925 -1.37227,5.877 -1.39641,8.7822 -0.0379,4.5613 0.26319,5.4072 2.20611,6.1978 2.61117,1.0626 7.73898,0.3358 9.38703,-1.3304 z m 47.25259,-1.1184 c 1.90938,-1.8987 2.55531,-10.1651 1.19038,-15.2341 -2.17964,-8.0946 -16.01514,-24.2784 -20.76828,-24.2934 -2.35957,-0.01 -7.10623,5.6717 -12.11614,14.4963 -6.98978,12.312 -9.11751,22.4352 -5.48004,26.0727 1.54338,1.5434 3.42498,1.6465 18.75,1.0279 12.40723,-0.5008 17.41194,-1.0629 18.42408,-2.0694 z"
         id="path3387"
         inkscape:connector-curvature="0" />
    </g>
  </g>
</svg>
