<?xml version="1.0" encoding="UTF-8" standalone="no"?>
<!-- Created with Inkscape (http://www.inkscape.org/) -->

<svg
   xmlns:dc="http://purl.org/dc/elements/1.1/"
   xmlns:cc="http://creativecommons.org/ns#"
   xmlns:rdf="http://www.w3.org/1999/02/22-rdf-syntax-ns#"
   xmlns:svg="http://www.w3.org/2000/svg"
   xmlns="http://www.w3.org/2000/svg"
   xmlns:sodipodi="http://sodipodi.sourceforge.net/DTD/sodipodi-0.dtd"
   xmlns:inkscape="http://www.inkscape.org/namespaces/inkscape"
   width="349.95267"
   height="325.15884"
   id="svg2"
   version="1.1"
   inkscape:version="0.48.5 r10040">
  <defs
     id="defs4">
    <clipPath
       clipPathUnits="userSpaceOnUse"
       id="clipPath4470">
      <rect
         style="fill:#000000;fill-opacity:1;stroke:#000000;stroke-width:1.50743604;stroke-miterlimit:4;stroke-opacity:1;stroke-dasharray:none"
         id="rect4472"
         width="513.16364"
         height="322.06415"
         x="482.71091"
         y="1466.4425" />
    </clipPath>
  </defs>
  <sodipodi:namedview
     id="base"
     pagecolor="#ffffff"
     bordercolor="#666666"
     borderopacity="1.0"
     inkscape:pageopacity="0.0"
     inkscape:pageshadow="2"
     inkscape:zoom="1.2276786"
     inkscape:cx="244.62955"
     inkscape:cy="164.33592"
     inkscape:document-units="px"
     inkscape:current-layer="layer1"
     showgrid="false"
     inkscape:window-width="1366"
     inkscape:window-height="718"
     inkscape:window-x="0"
     inkscape:window-y="0"
     inkscape:window-maximized="1"
     fit-margin-top="0"
     fit-margin-left="0"
     fit-margin-right="0"
     fit-margin-bottom="0" />
  <metadata
     id="metadata7">
    <rdf:RDF>
      <cc:Work
         rdf:about="">
        <dc:format>image/svg+xml</dc:format>
        <dc:type
           rdf:resource="http://purl.org/dc/dcmitype/StillImage" />
        <dc:title></dc:title>
      </cc:Work>
    </rdf:RDF>
  </metadata>
  <g
     inkscape:label="Layer 1"
     inkscape:groupmode="layer"
     id="layer1"
     transform="translate(-501.39224,-1536.9765)">
    <g
       id="g4563"
       transform="translate(-131.14182,-6.5163636)">
      <path
         style="fill:#a8a197"
         d="m 648.03406,1867.5374 c -1.1,-0.6075 -3.82898,-2.9563 -6.06439,-5.2196 -2.23542,-2.2632 -5.29889,-4.9431 -6.80772,-5.9552 -2.04173,-1.3696 -2.66463,-2.5183 -2.43561,-4.4915 0.46297,-3.9888 3.0979,-3.7959 10.30301,0.7546 3.55063,2.2424 6.8701,4.0771 7.37661,4.0771 0.5065,0 2.38133,-1.6875 4.16627,-3.75 5.70882,-6.5965 9.3825,-8.2383 18.46183,-8.2506 4.4,-0.01 12.86405,0.7332 18.809,1.6427 10.58199,1.6188 10.89702,1.6107 15,-0.383 2.30505,-1.1201 5.766,-2.3195 7.691,-2.6654 1.925,-0.346 5.48022,-1.971 7.90048,-3.6113 5.06995,-3.4361 7.35755,-3.6337 14.82327,-1.2804 3.97438,1.2529 5.84897,1.4214 7.10236,0.6387 0.93656,-0.5849 5.66144,-1.6524 10.49973,-2.3722 l 8.79691,-1.3088 -0.6426,-6.5798 c -0.35343,-3.619 -1.25648,-9.2799 -2.00677,-12.5799 -0.7503,-3.3 -1.62667,-10.275 -1.9475,-15.5 -0.96509,-15.7176 -2.75724,-30 -3.76439,-30 -0.52114,0 -8.21817,1.9778 -17.10451,4.3952 -19.8138,5.3899 -30.44144,7.3361 -46.65698,8.5438 -12.23624,0.9114 -20.15871,0.3023 -22.1651,-1.7041 -1.82065,-1.8206 -0.50774,-5.6124 2.15985,-6.2377 1.40177,-0.3287 2.65449,-1.4419 2.85936,-2.541 0.20054,-1.0759 5.44179,-12.3062 11.64721,-24.9562 20.87943,-42.5635 28.41117,-62.6771 43.99735,-117.4953 12.02141,-42.2806 12.38004,-43.584 17.06033,-62.0047 1.88652,-7.425 3.43251,-14.7082 3.43552,-16.1849 0.01,-4.7689 1.62083,-7.3615 5.27063,-8.4816 4.54044,-1.3935 6.40384,-0.2715 8.78859,5.2919 1.04731,2.4433 6.26117,12.1896 11.58635,21.6584 9.3211,16.5742 31.67299,61.3023 47.83205,95.7162 10.29336,21.9217 35.99226,73.6484 38.6424,77.7793 1.79974,2.8054 1.93383,3.6897 0.9277,6.1187 -0.64687,1.5617 -2.61538,4.2344 -4.37447,5.9394 -2.88287,2.7942 -4.27439,3.251 -14.10713,4.6313 -6.80574,0.9553 -18.34042,1.5313 -30.66732,1.5313 -19.28614,0 -19.77472,0.051 -20.435,2.1313 -0.9016,2.8407 0.47652,20.6522 1.84482,23.8434 0.59555,1.3889 1.16666,9.0865 1.26914,17.1058 0.13928,10.8993 0.74247,17.0218 2.38911,24.25 1.21153,5.3182 2.39248,9.6695 2.62432,9.6695 0.23185,0 2.04919,-0.8724 4.03854,-1.9386 4.43938,-2.3794 12.74633,-1.822 15.9402,1.0696 1.13545,1.0279 2.54381,1.869 3.12968,1.869 0.58588,0 3.70687,-2.0636 6.93555,-4.5858 5.58658,-4.3642 6.112,-4.5601 10.87032,-4.0518 2.75,0.2938 7.025,1.0486 9.5,1.6775 2.475,0.6289 13.275,1.4811 24,1.8938 14.05714,0.5409 22.20146,1.3544 29.17846,2.9143 9.02197,2.0171 10.06473,2.0632 15.37318,0.6806 6.48336,-1.6887 9.61765,-1.226 19.16823,2.83 7.15967,3.0405 10.52115,3.2127 22.28013,1.1414 8.94866,-1.5763 15.77508,-1.9073 18.41821,-0.893 2.20089,0.8446 1.99238,5.5752 -0.35687,8.0968 -1.47038,1.5783 -3.70472,2.2426 -9.25,2.7504 -4.02124,0.3682 -9.75649,1.0917 -12.745,1.6076 -8.40473,1.4512 -12.29867,1.1481 -21.14217,-1.6456 -7.29373,-2.3041 -9.16656,-2.5117 -17.30162,-1.9179 -7.35536,0.5368 -10.95379,0.2625 -18.57573,-1.4162 -7.30126,-1.6081 -12.99225,-2.086 -25,-2.0995 -9.85931,-0.011 -18.1075,-0.5597 -22.54645,-1.5 -9.62328,-2.0383 -12.24544,-1.8749 -15.63159,0.9744 -5.45487,4.5899 -12.0799,5.9082 -23.90776,4.7573 -9.69663,-0.9436 -10.61187,-0.879 -12.52547,0.8839 -2.56723,2.365 -4.61343,2.4076 -7.29183,0.1518 -2.71506,-2.2867 -7.82272,-22.1968 -9.17112,-35.75 -2.97039,-29.8562 -3.9726,-41.9381 -3.9726,-47.8907 0,-3.6351 -0.30798,-6.6093 -0.6844,-6.6093 -2.64682,0 -12.59885,3.5746 -13.02198,4.6772 -0.7445,1.9402 2.5141,20.108 4.40293,24.5479 1.18784,2.7922 1.41947,5.3383 0.92483,10.1662 -0.79335,7.7436 0.63475,21.5989 3.58683,34.7991 1.74058,7.7829 1.94042,10.188 1.01528,12.2184 -1.10037,2.4151 -1.45532,2.5082 -7.93768,2.082 -3.7322,-0.2453 -8.63476,-0.7227 -10.89459,-1.0608 -3.09163,-0.4625 -5.12411,-0.097 -8.21017,1.4776 -5.11635,2.6102 -7.16932,2.5682 -14.65874,-0.3001 l -5.97768,-2.2893 -6.52232,2.9499 c -3.58727,1.6224 -8.93213,4.082 -11.87747,5.4659 -6.37493,2.9951 -6.94963,3.005 -19.14484,0.3299 -5.225,-1.1462 -12.90489,-2.3648 -17.06642,-2.708 l -7.56642,-0.624 -3.75729,5.1184 c -6.13873,8.3627 -11.03292,10.7883 -16.10987,7.9843 z m 58,-96.5669 c 10.05062,-2.0054 11.70885,-3.2665 3.36566,-2.5598 -10.64996,0.9022 -19.16968,2.7014 -19.65213,4.1502 -0.50333,1.5114 1.93238,1.2736 16.28647,-1.5904 z m 11.49539,-13.9296 12.00461,-0.6454 0,-4.1552 c 0,-6.4594 1.25297,-7.3854 11.5,-8.4989 4.95,-0.5378 10.8,-1.6468 13,-2.4644 2.2,-0.8175 4.7875,-1.5062 5.75,-1.5303 0.9625,-0.024 1.75,-0.4338 1.75,-0.9104 0,-0.4765 -3.0375,-0.7106 -6.75,-0.5201 -23.19005,1.1899 -24.75469,1.177 -27.47078,-0.2276 -3.15709,-1.6326 -4.47664,-5.5005 -3.15681,-9.2534 1.62312,-4.6153 7.00448,-6.7819 46.62759,-18.7727 20.38375,-6.1686 20.87676,-7.1298 2.75,-5.3617 -13.08843,1.2766 -22.31263,2.7156 -30.13335,4.701 -6.23503,1.5828 -6.78953,1.5816 -9.23413,-0.02 -4.82933,-3.1643 -4.76629,-10.6514 0.10476,-12.4402 1.5195,-0.558 6.36272,-1.8006 10.76272,-2.7612 10.71351,-2.3391 25.76365,-7.1888 28.10607,-9.0568 1.72787,-1.378 1.41168,-1.4524 -3.60607,-0.849 -3.025,0.3638 -8.425,1.2762 -12,2.0275 -3.575,0.7514 -9.91776,1.374 -14.09501,1.3835 -8.6012,0.02 -10.58168,-1.2008 -11.53485,-7.1086 -0.7621,-4.7235 2.35367,-7.3319 13.00571,-10.8881 11.33865,-3.7855 13.64105,-5.2004 7.62415,-4.6853 -13.50176,1.1557 -16.71259,-12.5604 -3.90903,-16.6988 4.73776,-1.5313 4.25553,-3.0423 -1.09097,-3.4183 -2.77196,-0.195 -5.3191,-1.0838 -6.63303,-2.3145 l -2.13303,-1.9979 -2.14133,7.3145 c -9.14658,31.2432 -22.32878,66.6415 -34.56381,92.8144 -3.47095,7.425 -6.6368,14.5806 -7.0352,15.9012 -0.71953,2.3852 -0.68678,2.3969 4.8864,1.7419 3.08593,-0.3627 11.01286,-0.95 17.61539,-1.305 z m 119.21877,-6.4675 c 5.65721,-0.6212 10.6496,-1.4574 11.09419,-1.8583 1.29137,-1.1646 -2.57036,-11.2573 -11.10081,-29.0123 -4.36012,-9.075 -10.6402,-22.35 -13.95574,-29.5 -3.31554,-7.15 -7.94209,-17.05 -10.28122,-22 -2.33913,-4.95 -6.59149,-13.95 -9.4497,-20 -14.54457,-30.7867 -31.85788,-64.5 -33.12365,-64.5 -1.76591,0 -1.72762,0.9791 0.13457,3.4411 2.41677,3.1953 1.81453,7.0897 -1.5318,9.9054 -1.65,1.3884 -3,2.7784 -3,3.0889 0,0.3105 2.025,0.5646 4.5,0.5646 8.27195,0 11.29209,6.5894 5.5,12 -3.42585,3.2002 -3.69152,4 -1.32874,4 2.52638,0 5.32874,3.0085 5.32874,5.7207 0,3.9585 -1.87525,6.2928 -6.82034,8.4897 l -4.67966,2.079 3.29096,0.7374 c 4.44334,0.9956 7.20904,3.7029 7.20904,7.0568 0,3.103 -1.3219,4.7162 -6.47348,7.9 -4.99133,3.0848 -4.53929,4.4277 1.22348,3.6344 13.90077,-1.9134 14.64407,-1.8989 17,0.3306 2.702,2.5571 2.95041,7.1444 0.5,9.2331 -0.9625,0.8205 -5.4625,3.2432 -10,5.384 -11.98496,5.6543 -11.39491,6.1194 5.66951,4.4692 11.1175,-1.0751 14.49098,0.01 15.5856,4.9884 0.91763,4.1779 -1.18579,7.0751 -7.94393,10.9417 -3.03541,1.7367 -5.77998,3.58 -6.09907,4.0963 -0.35125,0.5684 5.10631,0.9387 13.83285,0.9387 13.91301,0 14.50478,0.085 17.05902,2.4523 3.44852,3.1959 3.58991,7.8831 0.30275,10.037 -4.23276,2.7734 -30.99705,12.2002 -50.09503,17.6443 -7.51755,2.1429 -11.2313,3.7979 -8.5617,3.8154 3.05031,0.02 33.58615,-2.9395 36,-3.4891 1.375,-0.313 4.16408,-1.0589 6.19795,-1.6574 4.82677,-1.4204 9.1882,0.3013 10.83514,4.2774 2.00033,4.8292 -0.24226,6.8409 -13.1427,11.7893 -12.9538,4.9688 -15.70884,6.7371 -8.89039,5.7061 13.01503,-1.9681 12.68183,-1.9844 15.42044,0.7542 1.42155,1.4216 2.57956,3.7223 2.57956,5.1251 0,2.5267 0.0621,2.5454 8.46416,2.5454 4.65528,0 13.09278,-0.5082 18.75,-1.1294 z m -88.98315,-121.1206 c 1.44715,-1.1213 1.32154,-1.5306 -1.21975,-3.975 l -2.83302,-2.725 -1.08912,3.1242 c -0.59902,1.7183 -1.08912,3.5071 -1.08912,3.975 0,1.2964 4.40704,1.0141 6.23101,-0.3992 z m 5.26899,-16.8915 c 0.66667,-0.6667 0,-0.7667 -2,-0.3002 -1.65,0.385 -3.45,1.1499 -4,1.6999 -0.66667,0.6667 0,0.7667 2,0.3001 1.65,-0.3849 3.45,-1.1498 4,-1.6998 z m 7.89345,-37.9281 3.50778,-2.0697 -1.63583,-3.4303 c -0.8997,-1.8867 -1.98505,-3.4304 -2.41187,-3.4304 -0.59451,0 -3.85353,9.0336 -3.85353,10.6815 0,0.6537 0.97862,0.2637 4.39345,-1.7511 z"
         id="path4577"
         inkscape:connector-curvature="0" />
      <path
         style="fill:#71b88b"
         d="m 649.81636,1868.0013 c -1.21974,-0.236 -3.62771,-2.2094 -5.35104,-4.3853 -1.72334,-2.1759 -5.13833,-5.3356 -7.58887,-7.0216 -2.78467,-1.9159 -4.33627,-3.6849 -4.13748,-4.7171 0.56713,-2.9449 3.70267,-2.4121 10.29038,1.7484 3.55063,2.2424 7.0664,4.0771 7.81283,4.0771 0.74643,0 2.83433,-1.8382 4.63978,-4.0848 5.2368,-6.5165 8.31787,-7.9063 17.5521,-7.9172 4.4,-0.01 12.8608,0.7341 18.80179,1.6429 10.6298,1.6262 10.87659,1.619 15.5,-0.4469 2.58401,-1.1546 6.06256,-2.3598 7.7301,-2.6782 1.66754,-0.3184 5.04254,-1.9128 7.5,-3.5431 5.14921,-3.416 7.16729,-3.6023 14.17802,-1.3092 4.13321,1.3519 5.6667,1.4441 8.18789,0.4925 1.70621,-0.6441 6.85853,-1.7141 11.4496,-2.3779 l 8.34739,-1.2069 -0.69991,-7.4691 c -0.38495,-4.108 -1.28264,-9.749 -1.99487,-12.5356 -0.71224,-2.7866 -1.58014,-9.7915 -1.92867,-15.5665 -0.97121,-16.0923 -2.84267,-31 -3.89163,-31 -0.51893,0 -7.29665,1.7912 -15.06161,3.9804 -17.637,4.9725 -26.05426,6.7519 -40.58009,8.5784 -20.47991,2.5751 -31.03801,1.5519 -31.03801,-3.008 0,-1.6935 0.80545,-2.6359 2.86689,-3.3545 1.86162,-0.649 3.10433,-1.9455 3.54405,-3.6975 0.37244,-1.4839 5.55508,-12.6657 11.51697,-24.8484 21.64489,-44.2298 28.33366,-62.2894 45.0558,-121.6504 14.67347,-52.0885 19.01629,-68.8943 19.01629,-73.5889 0,-4.4007 3.50523,-8.6064 6.84789,-8.2163 2.19243,0.2558 3.35036,1.762 7.15354,9.3052 2.49573,4.95 8.03904,15.2435 12.31846,22.8744 10.05491,17.9294 34.61552,67.8143 55.68074,113.0927 7.1522,15.3732 26.04519,52.6759 28.05818,55.3986 2.06074,2.7873 2.07995,3.0396 0.48694,6.3966 -4.0962,8.6322 -8.84485,9.7592 -44.04535,10.4535 -15.24119,0.3006 -23.46729,0.8418 -24.38605,1.6043 -1.10258,0.915 -1.25286,3.3501 -0.73398,11.8933 0.35886,5.9085 1.18054,11.9901 1.82597,13.5147 0.68625,1.621 1.25871,9.0327 1.37872,17.8504 0.15833,11.6332 0.71383,17.1776 2.43123,24.2658 1.22431,5.0531 2.59184,9.4135 3.03897,9.6899 0.44713,0.2763 2.5358,-0.3956 4.64151,-1.4932 3.18871,-1.662 4.70509,-1.857 9.07344,-1.1664 2.8847,0.456 6.14333,1.6422 7.24141,2.6359 2.41902,2.1892 4.44559,1.4638 10.83299,-3.8774 4.9373,-4.1287 6.61504,-4.3325 16.65576,-2.0233 4.17677,0.9606 14.86372,1.9135 26.49963,2.3628 14.24073,0.5498 22.19706,1.3536 29.5,2.9804 8.61088,1.9181 10.48619,2.0521 13.5,0.9651 5.6014,-2.0204 11.83207,-1.3911 19.69519,1.9889 8.18551,3.5187 11.31206,3.7183 24.02764,1.5341 4.9914,-0.8574 11.25819,-1.4199 13.92622,-1.25 4.42925,0.282 4.87793,0.5425 5.16133,2.9963 0.45589,3.9472 -2.66893,5.3819 -14.81038,6.7997 -20.88102,2.4385 -20.36539,2.4468 -29.73487,-0.4792 -7.8842,-2.4621 -9.67511,-2.6708 -17.81936,-2.0766 -7.25544,0.5294 -10.87902,0.2542 -18.23941,-1.3853 -7.06262,-1.5732 -12.82723,-2.0541 -24.94577,-2.0811 -9.83805,-0.022 -18.20317,-0.5724 -22.26059,-1.4649 -9.93751,-2.1859 -13.18223,-1.9313 -17.32231,1.3588 -5.70997,4.5377 -10.83358,5.5123 -22.83715,4.344 -9.74976,-0.949 -10.46592,-0.8909 -12.53518,1.0176 -2.88349,2.6596 -6.67412,1.7499 -8.15768,-1.9577 -2.47406,-6.1828 -6.23772,-23.3722 -7.17348,-32.7627 -2.95083,-29.6119 -3.9742,-41.9288 -3.9742,-47.8317 0,-3.6027 -0.3712,-6.7797 -0.82489,-7.0601 -1.25149,-0.7734 -12.47769,2.3505 -14.09441,3.9221 -1.22516,1.191 -1.17121,2.8564 0.39438,12.1747 0.99753,5.9373 2.30493,11.695 2.90533,12.795 0.60449,1.1075 1.17742,8.0245 1.28386,15.5 0.19311,13.5615 0.50709,16.1398 3.92635,32.2409 2.5165,11.85 2.33798,12.019 -11.25483,10.6526 -9.43684,-0.9486 -10.45374,-0.874 -14.21016,1.0424 -5.05879,2.5808 -7.12854,2.5343 -14.60332,-0.3284 l -5.97768,-2.2893 -6.52232,2.9499 c -3.58727,1.6224 -8.87242,4.0528 -11.74477,5.4009 -2.87235,1.3482 -6.02235,2.4802 -7,2.5157 -0.97765,0.035 -7.55139,-1.1165 -14.60831,-2.56 -12.70283,-2.5985 -21.20499,-3.2799 -23.20223,-1.8594 -0.56815,0.4041 -2.74598,3.0999 -4.83962,5.9908 -3.87187,5.3461 -7.24703,8.3533 -9.09989,8.1077 -0.56512,-0.075 -2.02546,-0.3293 -3.24519,-0.5653 z m 56.7177,-96.434 c 13.32697,-2.7583 14,-2.956 14,-4.1108 0,-1.1399 -10.54348,-0.4874 -22.82842,1.4126 -7.07612,1.0944 -10.80489,3 -9.62042,4.9165 0.66078,1.0691 5.20645,0.5226 18.44884,-2.2183 z m 11.2872,-13.5365 c 6.56262,-0.356 12.07934,-1.112 12.4463,-1.7058 0.36251,-0.5866 0.54206,-2.6876 0.399,-4.6689 -0.14958,-2.0716 0.2982,-4.0414 1.0537,-4.6353 0.72259,-0.5681 4.9138,-1.5835 9.3138,-2.2565 9.02577,-1.3806 21.21442,-4.7904 22.06953,-6.174 0.34117,-0.552 -6.2321,-0.6495 -16.51982,-0.2451 -16.95557,0.6666 -17.10546,0.6539 -19.56808,-1.6597 -3.10953,-2.9212 -3.23932,-7.1989 -0.30146,-9.9359 2.58346,-2.4069 16.71196,-7.9844 29.31983,-11.5747 17.83705,-5.0794 31.41808,-9.5305 32.01224,-10.4919 1.44197,-2.3331 -29.38412,0.2389 -42.84301,3.5746 -7.6833,1.9044 -9.2863,1.8281 -11.66923,-0.5548 -4.07595,-4.076 -1.31602,-11 4.38461,-11 4.35554,0 35.0805,-9.6506 36.61621,-11.501 0.68424,-0.8244 0.85147,-1.5426 0.37162,-1.5959 -2.76104,-0.3066 -9.74696,0.4404 -15.68782,1.6776 -3.74845,0.7806 -10.58544,1.4193 -15.19329,1.4193 -7.52389,0 -8.53661,-0.2266 -9.93463,-2.2225 -2.11747,-3.0231 -1.95793,-7.1044 0.35971,-9.2018 1.05402,-0.9539 6.11652,-3.2205 11.25,-5.0369 12.37775,-4.3796 12.83359,-4.5852 12.83359,-5.7882 0,-0.6666 -2.10113,-0.8159 -5.89816,-0.419 -7.29369,0.7623 -11.10184,-1.4981 -11.10184,-6.5897 0,-3.2134 3.29161,-7.7419 5.62726,-7.7419 2.35674,0 6.37274,-2.3068 6.37274,-3.6605 0,-0.9251 -1.42257,-1.3395 -4.59879,-1.3395 -3.829,0 -5.0719,-0.5065 -7.42515,-3.0256 -1.55449,-1.6641 -3.02419,-2.6766 -3.266,-2.25 -0.24181,0.4266 -1.6547,4.8256 -3.13977,9.7756 -4.5183,15.0603 -5.31697,17.5948 -9.13834,29 -7.46461,22.2787 -14.58339,39.9731 -26.05899,64.7721 -3.50513,7.5747 -6.37296,14.5013 -6.37296,15.3925 0,1.3912 0.88373,1.5272 6.25,0.9615 3.4375,-0.3624 11.55424,-0.9465 18.0372,-1.2981 z m 118.92696,-6.4526 c 5.65721,-0.6185 10.87622,-1.675 11.59779,-2.3477 1.83719,-1.7127 -0.79549,-9.1199 -10.13944,-28.5277 -4.10438,-8.525 -11.51237,-24.275 -16.4622,-35 -11.56741,-25.0636 -27.55888,-58.2939 -39.9393,-82.9941 -6.86241,-13.6912 -10.3323,-19.6 -11.6566,-19.8495 -1.61266,-0.3038 -1.78326,0.057 -1.17865,2.4942 1.98852,8.0151 1.88098,8.9051 -1.41067,11.6748 -3.86801,3.2548 -3.19821,4.6746 2.20519,4.6746 4.54945,0 7.76972,2.178 7.76972,5.255 0,1.0697 -1.575,3.52 -3.5,5.445 -1.925,1.925 -3.5,3.6442 -3.5,3.8205 0,0.1763 1.31891,0.6103 2.9309,0.9643 3.91983,0.861 5.27012,2.712 4.88733,6.6999 -0.27413,2.8559 -1.04778,3.7063 -5.5831,6.1367 -5.28494,2.8322 -6.03422,4.6786 -1.89862,4.6786 6.64757,0 8.95437,7.0872 3.637,11.1739 -1.66457,1.2794 -4.25207,3.372 -5.75,4.6504 l -2.72351,2.3243 11.12279,-0.5436 c 9.85787,-0.4818 11.30784,-0.3391 12.75,1.2544 2.13522,2.3594 2.07424,6.4642 -0.12279,8.2651 -0.9625,0.7889 -5.4625,3.1988 -10,5.3552 -12.20448,5.8001 -11.45666,6.6771 4.67515,5.4831 12.04752,-0.8918 14.19691,-0.4717 16.13696,3.1533 2.05369,3.8373 0.25573,6.7186 -7.20358,11.544 -5.17852,3.35 -6.71737,4.8148 -5.72121,5.4459 0.74947,0.4749 7.40868,0.8703 14.79823,0.8787 12.40691,0.014 13.61274,0.1818 15.75,2.1896 2.31581,2.1756 2.94792,5.2813 1.52907,7.5127 -1.45877,2.2941 -23.175,10.5869 -45.21462,17.2661 -17.40917,5.2759 -16.52369,4.9232 -15.33773,6.1092 0.9736,0.9736 3.60856,0.7862 30.33773,-2.1571 5.225,-0.5754 11.18883,-1.5361 13.25295,-2.1348 4.66377,-1.353 8.35875,0.078 9.76727,3.7828 1.60103,4.211 -0.24896,5.8586 -11.71958,10.4375 -5.94035,2.3712 -12.37564,5.1235 -14.30064,6.1161 l -3.5,1.8048 3.41809,0.044 c 1.87994,0.024 6.30879,-0.4592 9.84187,-1.0744 7.69829,-1.3406 10.88755,-0.3039 11.79598,3.8346 0.33611,1.5312 0.7844,3.3465 0.9962,4.034 0.495,1.6068 13.57103,1.666 27.66202,0.1254 z m -90.8923,-120.4694 c 2.57298,-0.8767 4.67814,-1.8376 4.67814,-2.1353 0,-0.2978 -1.125,-1.584 -2.5,-2.8583 -1.375,-1.2743 -2.5,-3.2759 -2.5,-4.448 0,-3.5397 -2.22183,-1.6551 -3.63968,3.0872 -1.25815,4.2082 -1.7468,7.9484 -1.03846,7.9484 0.17702,0 2.42702,-0.7173 5,-1.594 z m 2.44171,-15.333 c 0.95504,-0.5099 2.52393,-1.1707 3.48643,-1.4686 2.94996,-0.913 1.94333,-2.6044 -1.55,-2.6044 -3.43455,0 -5.7,1.4706 -5.7,3.7 0,1.5297 1.34683,1.6632 3.76357,0.373 z m 13.30674,-40.6174 4.03057,-2.5444 -2.30044,-4.1702 c -1.26524,-2.2937 -2.70516,-4.1862 -3.19981,-4.2056 -0.94361,-0.037 -2.85647,4.8 -4.05359,10.2504 -0.86866,3.955 0.12777,4.0758 5.52327,0.6698 z"
         id="path4575"
         inkscape:connector-curvature="0" />
      <path
         style="fill:#89746e"
         d="m 649.81636,1868.0013 c -1.21974,-0.236 -3.62771,-2.2094 -5.35104,-4.3853 -1.72334,-2.1759 -5.13833,-5.3356 -7.58887,-7.0216 -2.78467,-1.9159 -4.33627,-3.6849 -4.13748,-4.7171 0.56713,-2.9449 3.70267,-2.4121 10.29038,1.7484 3.55063,2.2424 7.0664,4.0771 7.81283,4.0771 0.74643,0 2.83433,-1.8382 4.63978,-4.0848 5.2368,-6.5165 8.31787,-7.9063 17.5521,-7.9172 4.4,-0.01 12.8608,0.7341 18.80179,1.6429 10.6298,1.6262 10.87659,1.619 15.5,-0.4469 2.58401,-1.1546 6.06256,-2.3598 7.7301,-2.6782 1.66754,-0.3184 5.04254,-1.9128 7.5,-3.5431 5.14921,-3.416 7.16729,-3.6023 14.17802,-1.3092 4.13321,1.3519 5.6667,1.4441 8.18789,0.4925 1.70621,-0.6441 6.85853,-1.7141 11.4496,-2.3779 l 8.34739,-1.2069 -0.69991,-7.4691 c -0.38495,-4.108 -1.28264,-9.749 -1.99487,-12.5356 -0.71224,-2.7866 -1.57647,-9.7915 -1.92053,-15.5665 -0.80213,-13.4638 -2.68777,-30.2903 -3.49912,-31.2244 -0.34609,-0.3985 -7.80059,1.2967 -16.56557,3.7671 -8.76497,2.4704 -21.12897,5.4012 -27.47555,6.5128 -14.08449,2.467 -36.38564,3.6174 -40.28924,2.0783 -3.68644,-1.4535 -3.75349,-4.8809 -0.10403,-5.3174 2.11822,-0.2533 2.88416,-1.1142 3.84011,-4.3164 0.65678,-2.2 5.93894,-13.675 11.73815,-25.5 21.25375,-43.338 28.08131,-61.7951 44.75948,-121 14.67347,-52.0885 19.01629,-68.8943 19.01629,-73.5889 0,-4.4007 3.50523,-8.6064 6.84789,-8.2163 2.19243,0.2558 3.35036,1.762 7.15354,9.3052 2.49573,4.95 8.03904,15.2435 12.31846,22.8744 10.05491,17.9294 34.61552,67.8143 55.68074,113.0927 7.1522,15.3732 26.04519,52.6759 28.05818,55.3986 2.06074,2.7873 2.07995,3.0396 0.48694,6.3966 -4.0962,8.6322 -8.84485,9.7592 -44.04535,10.4535 -15.24119,0.3006 -23.46729,0.8418 -24.38605,1.6043 -1.10258,0.915 -1.25286,3.3501 -0.73398,11.8933 0.35886,5.9085 1.18054,11.9901 1.82597,13.5147 0.68625,1.621 1.25871,9.0327 1.37872,17.8504 0.15833,11.6332 0.71383,17.1776 2.43123,24.2658 1.22431,5.0531 2.59184,9.4135 3.03897,9.6899 0.44713,0.2763 2.5358,-0.3956 4.64151,-1.4932 3.18871,-1.662 4.70509,-1.857 9.07344,-1.1664 2.8847,0.456 6.14333,1.6422 7.24141,2.6359 2.41902,2.1892 4.44559,1.4638 10.83299,-3.8774 4.9373,-4.1287 6.61504,-4.3325 16.65576,-2.0233 4.17677,0.9606 14.86372,1.9135 26.49963,2.3628 14.24073,0.5498 22.19706,1.3536 29.5,2.9804 8.61088,1.9181 10.48619,2.0521 13.5,0.9651 5.6014,-2.0204 11.83207,-1.3911 19.69519,1.9889 8.18551,3.5187 11.31206,3.7183 24.02764,1.5341 4.9914,-0.8574 11.25819,-1.4199 13.92622,-1.25 4.42925,0.282 4.87793,0.5425 5.16133,2.9963 0.45589,3.9472 -2.66893,5.3819 -14.81038,6.7997 -20.88102,2.4385 -20.36539,2.4468 -29.73487,-0.4792 -7.8842,-2.4621 -9.67511,-2.6708 -17.81936,-2.0766 -7.25544,0.5294 -10.87902,0.2542 -18.23941,-1.3853 -7.06262,-1.5732 -12.82723,-2.0541 -24.94577,-2.0811 -9.83805,-0.022 -18.20317,-0.5724 -22.26059,-1.4649 -9.93751,-2.1859 -13.18223,-1.9313 -17.32231,1.3588 -5.70997,4.5377 -10.83358,5.5123 -22.83715,4.344 -9.74976,-0.949 -10.46592,-0.8909 -12.53518,1.0176 -2.88349,2.6596 -6.67412,1.7499 -8.15768,-1.9577 -2.47406,-6.1828 -6.23772,-23.3722 -7.17348,-32.7627 -2.95752,-29.6792 -3.9742,-41.9385 -3.9742,-47.9221 0,-7.9206 -0.64973,-8.4031 -8.31575,-6.1745 -8.13813,2.3658 -8.31014,2.793 -6.19475,15.3857 0.9896,5.891 2.29051,11.6109 2.89091,12.7109 0.60449,1.1075 1.17742,8.0245 1.28386,15.5 0.19311,13.5615 0.50709,16.1398 3.92635,32.2409 2.5165,11.85 2.33798,12.019 -11.25483,10.6526 -9.43684,-0.9486 -10.45374,-0.874 -14.21016,1.0424 -5.05879,2.5808 -7.12854,2.5343 -14.60332,-0.3284 l -5.97768,-2.2893 -6.52232,2.9499 c -3.58727,1.6224 -8.87242,4.0528 -11.74477,5.4009 -2.87235,1.3482 -6.02235,2.4802 -7,2.5157 -0.97765,0.035 -7.55139,-1.1165 -14.60831,-2.56 -12.70283,-2.5985 -21.20499,-3.2799 -23.20223,-1.8594 -0.56815,0.4041 -2.74598,3.0999 -4.83962,5.9908 -3.87187,5.3461 -7.24703,8.3533 -9.09989,8.1077 -0.56512,-0.075 -2.02546,-0.3293 -3.24519,-0.5653 z m 54.35897,-95.2301 c 13.69851,-2.6103 18.35873,-3.9393 18.35873,-5.2358 0,-2.4657 -32.38974,1.5619 -34.0405,4.2329 -2.16028,3.4954 1.40434,3.7234 15.68177,1.0029 z m 13.64593,-14.7404 c 6.56262,-0.356 12.07934,-1.112 12.4463,-1.7058 0.36251,-0.5866 0.54206,-2.6876 0.399,-4.6689 -0.14942,-2.0695 0.29898,-4.0447 1.0537,-4.6416 0.72259,-0.5716 4.65932,-1.3364 8.74829,-1.6996 8.25849,-0.7335 23.74935,-5.034 26.04787,-7.2312 1.28032,-1.2239 -1.25305,-1.3257 -18.58649,-0.7465 l -20.06886,0.6706 -1.6635,-2.375 c -2.35666,-3.3646 -2.06374,-6.47 0.82458,-8.742 3.19177,-2.5106 16.67067,-7.3189 42.9369,-15.3166 25.38962,-7.7308 27.45771,-9.5024 9.96175,-8.5336 -13.74099,0.7609 -23.53074,2.11 -35.09915,4.8369 -10.45171,2.4638 -13.28759,1.2613 -13.28759,-5.634 0,-2.7889 1.53255,-4.1256 5.5,-4.7973 9.9069,-1.6773 30.60379,-7.817 36.75,-10.9018 2.0625,-1.0353 3.75,-2.5481 3.75,-3.3619 0,-1.8761 0.78272,-1.9242 -16.59861,1.0203 -14.97367,2.5366 -22.93961,3.0809 -25.08883,1.7143 -1.76558,-1.1226 -3.44935,-6.2079 -2.76716,-8.3574 0.74683,-2.353 3.50866,-3.7621 15.4546,-7.8848 9.86605,-3.405 12,-4.5143 12,-6.2381 0,-0.6601 -2.4877,-0.79 -7.0352,-0.3673 -6.5811,0.6116 -7.1943,0.4947 -9.5,-1.811 -4.61728,-4.6173 -2.76053,-8.5739 5.58472,-11.9006 7.30832,-2.9134 7.28894,-5.0521 -0.0495,-5.4631 -4.25484,-0.2383 -6.09774,-0.8794 -8.14031,-2.832 -1.45216,-1.3882 -2.85382,-2.1496 -3.11479,-1.692 -0.26097,0.4576 -1.68954,4.882 -3.17461,9.832 -4.5183,15.0603 -5.31697,17.5948 -9.13834,29 -7.46461,22.2787 -14.58339,39.9731 -26.05899,64.7721 -3.50515,7.5747 -6.37298,14.5013 -6.37298,15.3925 0,1.3912 0.88373,1.5272 6.25,0.9615 3.4375,-0.3624 11.55424,-0.9465 18.0372,-1.2981 z m 118.92696,-6.4526 c 5.65721,-0.6185 10.87622,-1.675 11.59779,-2.3477 1.83719,-1.7127 -0.79549,-9.1199 -10.13944,-28.5277 -4.10438,-8.525 -11.51237,-24.275 -16.4622,-35 -11.54511,-25.0152 -27.53545,-58.2456 -39.9393,-83 -7.93854,-15.8429 -10.19298,-19.5599 -12.02101,-19.8196 -1.67237,-0.2375 -2.25,0.1804 -2.25,1.6276 0,1.0709 0.675,2.5073 1.5,3.192 3.20046,2.6561 1.5325,6.9669 -4.13172,10.6783 -3.32205,2.1767 -2.0498,3.3217 3.69074,3.3217 3.60765,0 5.48068,0.5397 6.94098,2 3.28154,3.2815 2.15694,6.5038 -3.48735,9.9922 -4.43304,2.7398 -4.45964,4.0078 -0.0841,4.0078 3.59358,0 6.57143,2.1013 6.57143,4.6372 0,3.1335 -2.29825,5.5199 -7.55493,7.8447 -7.26294,3.212 -7.36726,5.0172 -0.26328,4.5559 3.0433,-0.1977 6.81821,2.9975 6.81821,5.7711 0,2.5539 -1.73133,4.3688 -7.75,8.124 -2.8875,1.8016 -5.25,3.6787 -5.25,4.1714 0,1.2495 9.85843,1.1194 16.06666,-0.212 6.1549,-1.32 9.57032,-0.1869 10.49078,3.4806 0.83607,3.3311 -0.9797,6.3335 -4.29912,7.1087 -4.07884,0.9524 -18.6033,8.8579 -18.40668,10.0184 0.20306,1.1985 16.6422,0.772 22.93912,-0.5951 5.08928,-1.105 7.85103,0.023 9.28368,3.7909 1.39479,3.6686 -0.64893,6.2812 -8.51135,10.8805 -9.35744,5.4739 -8.78255,6.383 4.18691,6.621 5.9125,0.1084 12.66062,0.086 14.99581,-0.05 3.39493,-0.1975 4.74767,0.2549 6.75,2.2573 1.37731,1.3773 2.50419,3.2767 2.50419,4.2209 0,1.8203 -2.74086,5.3742 -4.14482,5.3742 -0.45916,0 -6.80192,2.1773 -14.09501,4.8384 -13.36555,4.8769 -22.73576,7.9188 -39.26017,12.7451 -4.95,1.4458 -9.4275,3.0309 -9.95,3.5226 -3.01353,2.8355 41.11997,-0.901 51.02511,-4.32 2.47505,-0.8543 3.57668,-0.7328 5.64554,0.6228 5.16747,3.3858 3.74839,8.4709 -2.97375,10.6559 -6.19012,2.0121 -25.6768,10.066 -26.6969,11.0338 -1.3755,1.3051 1.89392,1.1351 13.48658,-0.701 l 10.11668,-1.6023 2.42337,2.2766 c 1.33285,1.2522 2.42337,3.2482 2.42337,4.4357 0,1.1875 0.3,2.459 0.66667,2.8257 1.0372,1.0372 16.17412,0.7856 27.54749,-0.4579 z m -87.46416,-120.9781 c 2.9635,-1.1167 2.86033,-3.2982 -0.22241,-4.7028 -1.35983,-0.6196 -2.76353,-2.2864 -3.11934,-3.704 -0.91281,-3.637 -2.49396,-2.6366 -4.04793,2.5611 -2.16325,7.2355 -1.91011,8.2269 1.88968,7.4005 1.7875,-0.3888 4.2625,-1.0884 5.5,-1.5548 z m -2.2,-13.819 c 0.5225,-0.507 2.52431,-1.3229 4.44847,-1.8132 2.1475,-0.5472 3.63462,-1.5984 3.85105,-2.7222 0.3133,-1.6269 -0.12666,-1.7542 -3.94886,-1.143 -5.00068,0.7996 -6.90066,2.0999 -6.90066,4.7225 0,2.0325 1.03899,2.4219 2.55,0.9559 z m 16.2351,-48.3651 c -1.2568,-2.2784 -2.71663,-4.1584 -3.24406,-4.1778 -1.22191,-0.045 -4.76159,11.4475 -4.07604,13.234 0.38117,0.9933 1.6925,0.5303 5.05986,-1.7865 l 4.54534,-3.1273 -2.2851,-4.1424 z"
         id="path4573"
         inkscape:connector-curvature="0" />
      <path
         style="fill:#3e955d"
         d="m 650.77466,1867.9138 c -1.24266,-0.1939 -3.94266,-2.368 -6,-4.8312 -2.05733,-2.4633 -5.6531,-5.6004 -7.9906,-6.9714 -2.3375,-1.371 -4.25,-3.1006 -4.25,-3.8436 0,-3.1062 3.44553,-2.4292 10.72402,2.1073 l 7.5206,4.6874 4.93336,-5.254 c 8.22968,-8.7647 12.36842,-9.4967 34.79941,-6.1555 11.97989,1.7845 12.61785,1.7878 16,0.081 1.93744,-0.9776 6.05124,-2.505 9.14179,-3.3942 3.09054,-0.8892 6.17675,-2.2885 6.85823,-3.1097 2.49589,-3.0073 7.67174,-3.5404 13.81572,-1.423 5.18186,1.7859 6.02886,1.8324 9.20687,0.5056 3.74272,-1.5627 11.76449,-2.9422 16.21744,-2.7889 1.49459,0.051 2.95066,-0.2838 3.2357,-0.7451 0.28504,-0.4612 -0.14701,-5.2794 -0.96011,-10.7071 -0.81311,-5.4278 -2.16601,-16.1687 -3.00645,-23.8687 -3.25894,-29.8578 -3.73188,-33.4997 -4.34908,-33.491 -0.35062,0 -7.81984,2.0377 -16.59826,4.5172 -8.77842,2.4795 -21.15342,5.4177 -27.5,6.5293 -14.23263,2.493 -36.3823,3.6183 -40.362,2.0506 -3.4383,-1.3544 -3.27102,-4.2577 0.2938,-5.0992 1.78573,-0.4216 2.90954,-1.8049 4.09769,-5.0439 0.90043,-2.4546 6.43487,-14.2501 12.29876,-26.212 18.92243,-38.6008 27.0856,-60.0921 39.978,-105.251 15.96784,-55.9314 21.64238,-77.4879 23.10484,-87.7711 0.4132,-2.9053 1.50917,-5.5449 2.80266,-6.75 3.7745,-3.5165 5.41418,-2.5631 9.06549,5.2711 1.85848,3.9875 6.62334,12.875 10.58858,19.75 9.16425,15.8891 44.52413,87.3869 59.0998,119.5 5.40882,11.9167 25.23052,50.9863 27.02489,53.2675 2.9421,3.7403 2.45581,6.8019 -1.78175,11.2177 -3.54829,3.6977 -4.23411,3.9716 -12.75,5.0927 -4.95,0.6517 -18.9,1.4633 -31,1.8035 l -22,0.6186 0.0995,12.5345 c 0.0656,8.2623 0.54717,13.371 1.41294,14.9887 0.89029,1.6636 1.3845,7.4514 1.53401,17.9655 0.19832,13.9463 1.19541,21.6095 4.06757,31.2613 0.63505,2.1341 3.3272,2.2617 5.94485,0.2818 2.96021,-2.239 11.62279,-1.9633 14.714,0.4682 3.72877,2.933 5.83775,2.5038 12.2816,-2.5 3.18731,-2.475 6.30003,-4.5 6.91714,-4.5 0.61712,0 5.37596,0.9622 10.57521,2.1383 7.30218,1.6517 13.43518,2.1989 26.95318,2.4052 12.90414,0.1968 19.20703,0.7299 24,2.03 6.93717,1.8816 15.53849,2.2363 23.22735,0.9576 4.13348,-0.6873 5.98081,-0.3114 14.70523,2.9926 l 9.97787,3.7787 12.87408,-2.2273 c 16.08643,-2.783 19.59836,-2.5888 20.0254,1.1076 0.43931,3.8027 -1.98134,4.7753 -16.19335,6.5063 -15.87415,1.9334 -21.23785,1.7391 -29.91884,-1.084 -6.21227,-2.0203 -8.57451,-2.2734 -17.25346,-1.8485 -7.51384,0.3678 -11.93749,0.048 -17.5,-1.2661 -5.30242,-1.2524 -12.47937,-1.8295 -24.94428,-2.0056 -11.59517,-0.1639 -19.96835,-0.7935 -24.81538,-1.8661 -9.41066,-2.0823 -9.48645,-2.077 -13.03746,0.9109 -1.65346,1.3913 -5.60172,3.4226 -8.7739,4.514 -5.23599,1.8015 -6.72964,1.8865 -16.20517,0.9226 -10.03131,-1.0203 -10.52595,-0.9786 -12.70848,1.0717 -3.53757,3.3234 -5.97898,1.3305 -8.33378,-6.8028 -4.12118,-14.2342 -6.07973,-25.2903 -7.12756,-40.2351 -0.59772,-8.525 -1.51685,-19.0882 -2.04251,-23.4738 -0.52567,-4.3855 -0.95576,-10.6305 -0.95576,-13.8778 l 0,-5.904 -3.91655,0.6263 c -8.42412,1.347 -11.56021,2.926 -11.91123,5.997 -0.44697,3.9105 2.59288,21.2774 4.30328,24.5849 1.03394,1.9994 1.23999,5.1295 0.811,12.3199 -0.59693,10.0054 0.41804,18.9496 3.74998,33.0462 2.34626,9.9263 1.27262,13.5097 -3.50362,11.6938 -1.17375,-0.4463 -3.3616,-0.5767 -4.86188,-0.2899 -1.50029,0.2868 -4.67757,-0.024 -7.06063,-0.6917 -3.88724,-1.0884 -4.77249,-0.9888 -8.60788,0.9678 -4.94273,2.5216 -9.85145,2.37 -17.19042,-0.531 l -4.68795,-1.8531 -4.81205,2.5725 c -2.64663,1.4148 -6.57541,3.1365 -8.73062,3.8259 -2.15522,0.6893 -5.42671,2.1432 -7.26999,3.2307 -2.08231,1.2287 -4.3852,1.7878 -6.08142,1.4766 -1.50151,-0.2754 -8.4178,-1.639 -15.36953,-3.0302 -17.69751,-3.5416 -19.32845,-3.2052 -26.03123,5.3698 -5.44435,6.9651 -6.63344,7.7681 -10.58866,7.1511 z m 53.40067,-95.1426 c 13.35867,-2.5455 18.35873,-3.9364 18.35873,-5.1069 0,-2.1383 -26.70779,-0.1693 -31.98004,2.3577 -1.37253,0.6578 -2.6465,1.9801 -2.83106,2.9384 -0.45086,2.3412 3.40544,2.2968 16.45237,-0.1892 z m 10.24718,-14.1342 c 8.03635,-0.5833 15.18119,-1.2457 15.87741,-1.472 0.87958,-0.286 1.07783,-1.5875 0.64966,-4.2651 -0.86478,-5.4081 0.85128,-6.7488 9.68941,-7.5702 8.16292,-0.7587 23.61816,-5.0864 25.87743,-7.246 1.28032,-1.2239 -1.25305,-1.3257 -18.58649,-0.7465 l -20.06886,0.6706 -1.6635,-2.375 c -5.42151,-7.7403 0.0527,-10.7498 43.76148,-24.0586 25.38962,-7.7308 27.45771,-9.5024 9.96175,-8.5336 -13.21654,0.7318 -22.94192,2.0448 -34.86496,4.7069 -8.72762,1.9487 -10.98485,1.4977 -12.50409,-2.4982 -1.33397,-3.5086 -0.14502,-6.4879 2.8518,-7.1462 1.44678,-0.3178 4.65551,-1.1812 7.13051,-1.9186 2.475,-0.7375 6.075,-1.6289 8,-1.981 5.11115,-0.9347 18.90773,-5.4797 23.25,-7.6591 2.0625,-1.0353 3.75,-2.5481 3.75,-3.3619 0,-1.8761 0.78272,-1.9242 -16.59861,1.0203 -22.56459,3.8226 -27.40139,3.1338 -27.40139,-3.9017 0,-4.5794 2.11981,-6.1151 14.11788,-10.2284 5.71016,-1.9576 10.94462,-4.0217 11.63212,-4.587 2.8142,-2.3139 1.17242,-3.0649 -5.36583,-2.4543 -7.09485,0.6625 -9.66129,-0.1094 -11.44499,-3.4422 -2.02796,-3.7893 0.44993,-7.2954 7.22064,-10.2168 7.41943,-3.2013 7.33784,-5.0625 -0.23842,-5.4389 -4.63688,-0.2304 -5.80353,-0.7125 -8.06212,-3.3314 -1.4524,-1.6841 -2.85498,-2.6879 -3.11685,-2.2306 -0.50664,0.8846 -1.22158,3.1212 -7.77736,24.3313 -9.31797,30.1466 -16.87482,49.686 -30.97762,80.0972 -3.88845,8.3851 -6.81943,15.8983 -6.51328,16.6961 0.3994,1.0408 1.43878,1.2741 3.67968,0.8259 1.71768,-0.3435 9.69825,-1.1018 17.7346,-1.685 z m 119.31242,-6.3656 c 7.53548,-0.7644 14.22145,-1.7116 14.85772,-2.1048 2.23679,-1.3824 -0.13925,-8.871 -8.22736,-25.9303 -4.44175,-9.3684 -14.28019,-30.3447 -21.86321,-46.614 -14.67812,-31.4917 -43.95063,-91.2152 -46.18235,-94.2239 -0.84546,-1.1398 -1.97327,-1.5608 -3.06205,-1.143 -2.16444,0.8305 -2.19123,2.8041 -0.0818,6.0235 2.03865,3.1114 0.86863,6.2473 -3.54968,9.5139 -3.71691,2.748 -3.15175,3.91 1.90178,3.91 10.53801,0 13.09991,6.6887 4.57897,11.955 -4.50472,2.784 -4.53463,4.045 -0.0959,4.045 2.6202,0 3.88719,0.6261 5.14185,2.541 2.51931,3.8449 0.61487,6.9386 -6.09915,9.9079 -7.06195,3.1231 -7.44764,5.1186 -0.89024,4.606 1.17117,-0.092 3.37681,0.9065 4.90142,2.218 4.13091,3.5532 2.91707,6.5491 -4.51116,11.1341 -3.31082,2.0436 -6.01967,4.2014 -6.01967,4.7952 0,0.7456 2.70757,0.8566 8.75,0.3586 14.85188,-1.2239 14.34676,-1.2684 16.36239,1.4392 3.1989,4.297 1.6931,6.0408 -10.36266,12 -10.29176,5.0873 -13.16115,7.6581 -8.24973,7.3914 26.37813,-1.4326 26.31552,-1.433 27.91716,0.1686 2.10336,2.1034 2.01325,6.7594 -0.16716,8.6368 -0.9625,0.8288 -4.3375,3.0287 -7.5,4.8887 -9.83619,5.785 -9.27627,5.9761 18.75,6.3982 2.2,0.033 5.01298,0.4183 6.25106,0.856 4.45091,1.5734 5.29883,7.4929 1.37419,9.5933 -5.24954,2.8094 -34.01717,12.6315 -54.62525,18.6506 -13.58279,3.9671 -13.08561,4.7682 2.5,4.0281 16.86016,-0.8006 28.88646,-2.1548 36,-4.0536 5.09039,-1.3589 5.68618,-1.3332 8,0.3448 1.6591,1.2031 2.5,2.7728 2.5,4.6667 0,3.3887 -0.19769,3.504 -18,10.4923 -7.15,2.8068 -13.4275,5.516 -13.95,6.0206 -1.39942,1.3515 5.64584,1.0801 14.93932,-0.5756 9.37354,-1.6699 11.85998,-0.7726 13.04941,4.7092 0.3919,1.8062 1.2185,3.6145 1.8369,4.0186 1.65772,1.0832 8.4543,0.8932 23.82524,-0.6661 z m -82.41188,-123.7348 c 0.15895,-0.8125 -0.84114,-1.9922 -2.22241,-2.6215 -2.82558,-1.2874 -4.37884,-5.7011 -2.85597,-8.1153 0.55282,-0.8764 2.75658,-2.0845 4.89726,-2.6848 4.41927,-1.2391 6.0974,-4.4916 2.21545,-4.2939 -6.07879,0.3096 -8.23674,1.3638 -8.97466,4.3845 -0.4027,1.6485 -1.64694,6.0962 -2.76499,9.8838 -1.11804,3.7877 -1.8113,7.2451 -1.54057,7.6831 0.76883,1.244 10.92201,-2.5803 11.24589,-4.2359 z m 9.78294,-52.4288 c 2.43544,-1.4273 4.42807,-3.0202 4.42807,-3.5399 0,-2.1545 -4.14934,-8.8651 -5.48158,-8.8651 -1.50563,0 -4.51842,8.4558 -4.51842,12.6815 0,2.897 0.1713,2.8885 5.57193,-0.2765 z"
         id="path4571"
         inkscape:connector-curvature="0" />
      <path
         style="fill:#6a5b52"
         d="m 650.77466,1867.9138 c -1.24266,-0.1939 -3.94266,-2.368 -6,-4.8312 -2.05733,-2.4633 -5.6531,-5.6004 -7.9906,-6.9714 -2.3375,-1.371 -4.25,-3.1006 -4.25,-3.8436 0,-3.1062 3.44553,-2.4292 10.72402,2.1073 l 7.5206,4.6874 4.93336,-5.254 c 8.22968,-8.7647 12.36842,-9.4967 34.79941,-6.1555 11.97989,1.7845 12.61785,1.7878 16,0.081 1.93744,-0.9776 6.05124,-2.505 9.14179,-3.3942 3.09054,-0.8892 6.17675,-2.2885 6.85823,-3.1097 2.49589,-3.0073 7.67174,-3.5404 13.81572,-1.423 5.18186,1.7859 6.02886,1.8324 9.20687,0.5056 3.74272,-1.5627 11.76449,-2.9422 16.21744,-2.7889 1.49459,0.051 2.95066,-0.2838 3.2357,-0.7451 0.28504,-0.4612 -0.14701,-5.2794 -0.96011,-10.7071 -0.81311,-5.4278 -2.16601,-16.1687 -3.00645,-23.8687 -3.2408,-29.6916 -3.73406,-33.5349 -4.35304,-33.9174 -0.35127,-0.2171 -7.83752,1.597 -16.63611,4.0313 -8.79859,2.4343 -21.17243,5.3286 -27.49743,6.4316 -14.61456,2.5488 -37.70504,3.7179 -40.79271,2.0655 -2.96374,-1.5862 -2.78429,-2.9093 0.4468,-3.2946 2.19834,-0.262 2.94257,-1.1749 4.33413,-5.3164 0.92402,-2.75 6.48623,-14.7871 12.36046,-26.749 18.89869,-38.4844 27.08781,-60.034 39.99681,-105.251 15.96784,-55.9314 21.64238,-77.4879 23.10484,-87.7711 0.4132,-2.9053 1.50917,-5.5449 2.80266,-6.75 3.7745,-3.5165 5.41418,-2.5631 9.06549,5.2711 1.85848,3.9875 6.62334,12.875 10.58858,19.75 9.16425,15.8891 44.52413,87.3869 59.0998,119.5 5.40882,11.9167 25.23052,50.9863 27.02489,53.2675 2.9421,3.7403 2.45581,6.8019 -1.78175,11.2177 -3.54829,3.6977 -4.23411,3.9716 -12.75,5.0927 -4.95,0.6517 -18.9,1.4633 -31,1.8035 l -22,0.6186 0.0995,12.5345 c 0.0656,8.2623 0.54717,13.371 1.41294,14.9887 0.89029,1.6636 1.3845,7.4514 1.53401,17.9655 0.19832,13.9463 1.19541,21.6095 4.06757,31.2613 0.63505,2.1341 3.3272,2.2617 5.94485,0.2818 2.96021,-2.239 11.62279,-1.9633 14.714,0.4682 3.72877,2.933 5.83775,2.5038 12.2816,-2.5 3.18731,-2.475 6.30003,-4.5 6.91714,-4.5 0.61712,0 5.37596,0.9622 10.57521,2.1383 7.30218,1.6517 13.43518,2.1989 26.95318,2.4052 12.90414,0.1968 19.20703,0.7299 24,2.03 6.93717,1.8816 15.53849,2.2363 23.22735,0.9576 4.13348,-0.6873 5.98081,-0.3114 14.70523,2.9926 l 9.97787,3.7787 12.87408,-2.2273 c 16.08643,-2.783 19.59836,-2.5888 20.0254,1.1076 0.43931,3.8027 -1.98134,4.7753 -16.19335,6.5063 -15.87415,1.9334 -21.23785,1.7391 -29.91884,-1.084 -6.21227,-2.0203 -8.57451,-2.2734 -17.25346,-1.8485 -7.51384,0.3678 -11.93749,0.048 -17.5,-1.2661 -5.30242,-1.2524 -12.47937,-1.8295 -24.94428,-2.0056 -11.59517,-0.1639 -19.96835,-0.7935 -24.81538,-1.8661 -9.41066,-2.0823 -9.48645,-2.077 -13.03746,0.9109 -1.65346,1.3913 -5.60172,3.4226 -8.7739,4.514 -5.23599,1.8015 -6.72964,1.8865 -16.20517,0.9226 -10.03131,-1.0203 -10.52595,-0.9786 -12.70848,1.0717 -3.53757,3.3234 -5.97898,1.3305 -8.33378,-6.8028 -4.12118,-14.2342 -6.07973,-25.2903 -7.12756,-40.2351 -0.59772,-8.525 -1.51685,-19.0882 -2.04251,-23.4738 -0.52567,-4.3855 -0.95576,-10.573 -0.95576,-13.75 l 0,-5.7762 -3.41709,0 c -1.87941,0 -5.47941,0.884 -8,1.9645 -4.11683,1.7646 -4.58259,2.2986 -4.57972,5.25 0.005,5.1244 2.97417,20.841 4.49167,23.7756 1.01164,1.9563 1.21732,5.1474 0.79164,12.2824 -0.59693,10.0054 0.41804,18.9496 3.74998,33.0462 2.34626,9.9263 1.27262,13.5097 -3.50362,11.6938 -1.17375,-0.4463 -3.3616,-0.5767 -4.86188,-0.2899 -1.50029,0.2868 -4.67757,-0.024 -7.06063,-0.6917 -3.88724,-1.0884 -4.77249,-0.9888 -8.60788,0.9678 -4.94273,2.5216 -9.85145,2.37 -17.19042,-0.531 l -4.68795,-1.8531 -4.81205,2.5725 c -2.64663,1.4148 -6.57541,3.1365 -8.73062,3.8259 -2.15522,0.6893 -5.42671,2.1432 -7.26999,3.2308 -2.08231,1.2286 -4.3852,1.7877 -6.08142,1.4765 -1.50151,-0.2754 -8.4178,-1.639 -15.36953,-3.0302 -17.69751,-3.5416 -19.32845,-3.2052 -26.03123,5.3698 -5.44435,6.9651 -6.63344,7.7681 -10.58866,7.1511 z m 50.2594,-93.6425 c 15.95829,-2.8501 23.5,-4.8471 23.5,-6.2227 0,-1.689 -10.75622,-1.8218 -23.01851,-0.2842 -9.99144,1.2528 -13.36579,2.6459 -13.80104,5.6978 -0.39331,2.7578 1.69734,2.8848 13.31955,0.8091 z m 13.38845,-15.6343 c 8.03635,-0.5833 15.18119,-1.2457 15.87741,-1.472 0.87958,-0.286 1.07783,-1.5875 0.64966,-4.2651 -0.90538,-5.662 0.91779,-7.0206 9.4209,-7.0206 6.71995,0 25.82256,-4.8925 28.91358,-7.4052 3.22782,-2.624 0.71923,-2.9351 -17.5,-2.17 -10.3125,0.433 -19.81837,0.744 -21.12417,0.691 -3.6299,-0.1471 -6.52607,-3.5615 -5.72573,-6.7503 0.96287,-3.8364 6.44346,-5.95 48.0999,-18.5501 9.35,-2.8281 18.02684,-5.803 19.28187,-6.6109 4.57111,-2.9425 1.50291,-3.7034 -12.14653,-3.0126 -14.34312,0.7259 -21.42718,1.7058 -35.4079,4.8979 -8.60349,1.9644 -9.39119,1.9985 -10.91667,0.473 -2.01656,-2.0165 -2.16038,-7.5885 -0.22744,-8.812 0.77917,-0.4932 2.54167,-0.8998 3.91667,-0.9036 6.64163,-0.018 30.92761,-7.1693 37.9295,-11.1683 5.42825,-3.1002 6.68312,-5.8554 2.66685,-5.8554 -1.322,0 -9.0845,1.0891 -17.25,2.4202 -22.53961,3.6743 -23.21228,3.7139 -25.43025,1.4959 -1.05386,-1.0539 -1.9161,-3.2545 -1.9161,-4.8904 0,-3.4667 1.39402,-4.3475 13.5,-8.5298 12.92352,-4.4648 17.5,-6.6272 17.5,-8.2688 0,-1.3051 -1.33029,-1.4322 -9.16998,-0.8757 -7.74551,0.5498 -9.45425,0.3937 -11,-1.0052 -3.73108,-3.3766 -1.38155,-10.3416 3.49141,-10.3499 2.88284,-0.01 8.67857,-3.5942 8.67857,-5.3746 0,-1.8882 -2.21237,-2.6217 -7.90747,-2.6217 -3.77386,0 -5.2267,-0.5139 -7.10497,-2.5132 -2.77657,-2.9556 -3.23865,-2.6054 -5.29576,4.0132 -0.85472,2.75 -3.43175,11.075 -5.72673,18.5 -9.31797,30.1466 -16.87482,49.686 -30.97762,80.0972 -3.88845,8.3851 -6.81943,15.8983 -6.51328,16.6961 0.3994,1.0408 1.43878,1.2741 3.67968,0.8259 1.71768,-0.3435 9.69825,-1.1018 17.7346,-1.685 z m 119.31242,-6.3656 c 7.53548,-0.7644 14.22145,-1.7116 14.85772,-2.1048 2.38868,-1.4763 -0.38839,-9.354 -11.94906,-33.8956 -6.49478,-13.7875 -17.51303,-37.2182 -24.485,-52.0682 -6.97197,-14.85 -18.85215,-39.375 -26.40042,-54.5 -14.22674,-28.5071 -15.78151,-30.6481 -19.23509,-26.4868 -1.14668,1.3817 -0.95717,1.961 1.33751,4.0888 3.96232,3.674 3.33974,5.7488 -3.07653,10.2528 -5.2125,3.659 -4.30909,5.1452 3.12756,5.1452 7.16802,0 8.9595,1.2051 8.4447,5.6807 -0.25685,2.233 -1.28646,3.2583 -5.07226,5.0508 -6.11202,2.894 -6.33618,5.2628 -0.5,5.2838 5.5305,0.02 6.98614,1.036 6.58008,4.5932 -0.27814,2.4365 -1.27416,3.3406 -6.33008,5.7457 -9.05849,4.3092 -9.63545,6.6458 -1.64098,6.6458 5.39907,0 7.14098,1.2412 7.14098,5.0883 0,2.224 -1.12259,3.3922 -6.5,6.7638 -3.79629,2.3803 -6.5,4.7731 -6.5,5.7527 0,1.4831 0.95433,1.6068 8.25,1.0691 4.5375,-0.3344 10.11728,-0.901 12.39951,-1.2591 3.70311,-0.5811 4.32932,-0.3767 5.82107,1.9 1.99522,3.0451 0.83315,6.1438 -2.71952,7.2518 -1.23808,0.3861 -6.30585,2.6032 -11.2617,4.9268 -9.07621,4.2556 -12.46052,6.7884 -10.60391,7.9358 1.00474,0.621 24.52327,-1.0206 29.20672,-2.0386 5.2744,-1.1464 8.10304,5.926 3.65783,9.1457 -1.2375,0.8964 -5.0625,3.3809 -8.5,5.5213 -10.15767,6.3247 -9.07524,7.0879 9.73818,6.8663 16.61499,-0.1958 17.86748,0.069 20.10869,4.2571 1.56361,2.9216 -0.28343,4.8556 -6.69474,7.0098 -3.24617,1.0907 -9.95213,3.4518 -14.90213,5.2468 -14.42814,5.2321 -41.86326,13.5624 -44.66668,13.5624 -0.79808,0 -2.32457,0.6447 -3.39219,1.4327 -4.31781,3.1868 -0.45368,3.5728 20.08975,2.007 20.69229,-1.5772 32.53905,-3.4229 34.9817,-5.4501 1.11471,-0.9252 2.06431,-0.715 4.45217,0.9853 1.66939,1.1887 3.03525,2.9609 3.03525,3.9382 0,2.1566 -2.61659,4.5914 -6,5.5832 -4.87207,1.4282 -31.51424,11.8035 -32.43333,12.6305 -1.86916,1.6819 0.32454,1.9276 7.05617,0.7903 20.73869,-3.504 21.42756,-3.5764 23.6226,-2.4821 1.20284,0.5997 2.62453,2.6597 3.1593,4.5777 0.53478,1.918 1.44998,3.8179 2.03379,4.222 1.56633,1.0841 8.39647,0.8927 23.76234,-0.6661 z M 750.4796,1630.841 c 4.51268,-2.1456 4.89473,-3.7947 1.07355,-4.634 -3.40797,-0.7485 -6.37543,-4.4094 -5.84025,-7.205 0.23353,-1.2199 1.92236,-2.1895 5.24509,-3.0115 5.61925,-1.39 7.09102,-2.5034 6.24024,-4.7205 -1.43663,-3.7438 -12.09617,-0.3357 -12.96927,4.1466 -0.2985,1.5324 -1.46552,5.8852 -2.59338,9.6728 -1.12786,3.7877 -1.81965,7.2605 -1.53731,7.7173 0.6802,1.1006 6.08459,0.077 10.38133,-1.9657 z m 2.55446,-34.1382 c 1.07686,-1.7424 -0.51929,-3.2289 -2.07802,-1.9353 -0.76998,0.6391 -1.15336,1.5609 -0.85195,2.0486 0.72948,1.1803 2.16477,1.1248 2.92997,-0.1133 z m 11.11604,-22.6167 c 1.8292,-1.0842 1.81893,-1.2514 -0.35304,-5.75 -2.94352,-6.0966 -4.7958,-5.9456 -6.72426,0.5482 -2.73201,9.1997 -1.89605,12.0948 2.46608,8.5406 1.49999,-1.2221 3.57504,-2.7246 4.61122,-3.3388 z"
         id="path4569"
         inkscape:connector-curvature="0" />
      <path
         style="fill:#046027"
         d="m 645.57613,1863.0532 c -3.2422,-4.3016 -10.62115,-10.0436 -12.29207,-9.5651 -0.4125,0.1181 -0.75,-0.3853 -0.75,-1.1186 0,-2.427 3.4105,-1.4571 10.71416,3.0469 4.45406,2.7467 7.70612,4.1511 8.5,3.6707 0.70721,-0.4279 3.21302,-2.9094 5.56846,-5.5144 2.41408,-2.6698 5.85276,-5.2545 7.8813,-5.924 3.95422,-1.305 12.96562,-0.9431 28.54601,1.1464 9.24321,1.2396 9.91614,1.202 14,-0.7837 2.35954,-1.1473 5.93192,-2.3729 7.93862,-2.7236 2.00671,-0.3506 4.79808,-1.5418 6.20306,-2.6469 4.95833,-3.9003 8.01402,-4.3191 14.31353,-1.9622 5.24755,1.9634 6.03981,2.0233 9.28594,0.702 4.66198,-1.8976 15.41737,-3.8575 17.26912,-3.1469 3.28853,1.2619 3.83454,-1.8126 2.2289,-12.5511 -0.84901,-5.6781 -1.73112,-10.6272 -1.96025,-10.9979 -0.22913,-0.3708 -0.65244,-3.5559 -0.94069,-7.0781 -2.11956,-25.8994 -3.75576,-38.7696 -4.98899,-39.2428 -0.6394,-0.2454 -8.33929,1.5395 -17.11086,3.9664 -8.77157,2.4268 -21.07869,5.3051 -27.34916,6.3962 -12.42371,2.1617 -35.21517,3.666 -39.44792,2.6036 -3.01524,-0.7568 -3.6275,-3.6273 -0.77368,-3.6273 2.18684,0 3.57798,-1.5027 4.62891,-5 0.41318,-1.375 5.47403,-12.153 11.24632,-23.9512 21.05804,-43.0411 29.23448,-65.0956 45.24816,-122.0488 14.59437,-51.9054 17.85683,-64.3606 19.10774,-72.948 1.43382,-9.8431 6.33572,-13.3535 8.80012,-6.302 0.72081,2.0625 6.16979,12.525 12.10883,23.25 10.44402,18.8603 32.5059,63.0237 48.45647,97 13.36789,28.4749 35.55146,73.217 37.58094,75.7971 2.79912,3.5585 2.40911,6.7432 -1.30504,10.6568 -3.14485,3.3137 -3.65579,3.475 -15.79258,4.9853 -7.18838,0.8945 -20.26272,1.5608 -30.62755,1.5608 -15.03657,0 -18.29965,0.2587 -19.35855,1.5346 -1.5655,1.8863 -0.71322,22.4795 1.11857,27.0273 0.68298,1.6957 1.29901,9.4926 1.4568,18.4381 0.20036,11.3588 0.80945,17.6936 2.27972,23.7102 1.10347,4.5156 2.29551,8.6781 2.64897,9.25 0.91924,1.4873 3.8208,1.283 6.08349,-0.4284 2.96021,-2.239 11.62279,-1.9633 14.714,0.4682 3.7384,2.9406 5.84044,2.5031 12.35681,-2.5718 6.52527,-5.0818 5.73845,-5.0102 20.37032,-1.8524 6.34684,1.3698 12.17305,1.7918 23,1.6661 11.81983,-0.1372 16.07113,0.2226 23,1.9465 8.62105,2.1449 16.25259,2.5301 25.74339,1.2994 4.47034,-0.5797 6.31327,-0.242 12.5,2.2906 10.63807,4.3548 11.59497,4.439 24.60973,2.1662 13.61522,-2.3776 19.46728,-2.305 19.95075,0.2476 0.51167,2.7014 -4.31514,4.3871 -16.80387,5.8683 -15.00198,1.7794 -20.47387,1.5086 -29.93876,-1.4813 -6.95235,-2.1963 -8.70879,-2.3783 -15.92595,-1.6508 -7.75911,0.7822 -12.77272,0.3234 -21.16766,-1.9371 -2.10654,-0.5672 -12.29852,-1.2104 -22.64885,-1.4292 -12.52374,-0.2648 -20.82583,-0.9152 -24.81878,-1.9444 -8.14302,-2.0988 -8.69001,-2.0428 -12.92499,1.3227 -6.51893,5.1806 -11.70635,6.2772 -24.12726,5.1003 -10.50691,-0.9956 -10.90489,-0.9599 -13.18577,1.1829 -4.02907,3.7851 -5.35864,1.7254 -9.45314,-14.6448 -2.844,-11.3705 -3.94174,-18.3518 -4.78293,-30.4182 -0.60047,-8.6133 -1.52695,-18.9557 -2.05884,-22.983 -0.53189,-4.0273 -0.96707,-10.4539 -0.96707,-14.2813 0,-4.985 -0.39037,-7.1089 -1.37616,-7.4871 -1.63933,-0.6291 -13.58731,2.3262 -15.37384,3.8027 -0.6875,0.5681 -1.25,2.2486 -1.25,3.7343 0,4.7703 3.17809,21.4637 4.62061,24.2704 1.04188,2.0272 1.23258,4.8452 0.75146,11.1044 -0.70868,9.2196 0.52973,20.18 3.82992,33.8962 2.6044,10.8243 2.17596,11.6204 -5.93631,11.031 -3.17113,-0.2304 -7.28841,-0.8108 -9.14952,-1.2899 -2.68815,-0.6919 -4.57266,-0.3706 -9.16617,1.5627 -5.35031,2.252 -6.10612,2.3335 -10.11616,1.0912 -2.38361,-0.7384 -5.5652,-1.9226 -7.07022,-2.6317 -2.87677,-1.3553 -4.49154,-0.8021 -22.64428,7.7574 l -5.38068,2.5371 -13.61932,-2.6419 c -7.49063,-1.453 -16.1616,-2.6399 -19.26883,-2.6375 l -5.64949,0 -5.85051,7.471 c -4.96208,6.3365 -6.30606,7.4706 -8.8505,7.4691 -2.39388,-10e-4 -3.69864,-0.9288 -6.45793,-4.5897 z m 55.45793,-88.7819 c 17.58746,-3.1411 23.59901,-4.8147 23.28248,-6.4819 -0.40109,-2.1127 -8.39635,-2.5709 -20.28248,-1.1625 -11.9811,1.4197 -16.24525,2.6979 -17.00704,5.0981 -1.38835,4.3743 1.16884,4.8392 14.00704,2.5463 z m 13.5,-14.688 c 9.35181,-0.6832 16.80689,-1.673 17.20839,-2.2847 0.38962,-0.5935 0.45333,-2.0954 0.14159,-3.3375 -0.31174,-1.2421 -0.30018,-3.3206 0.0257,-4.6189 0.53857,-2.1459 1.29908,-2.4234 8.35841,-3.0499 7.55539,-0.6706 26.50397,-5.7762 29.01593,-7.8182 3.22782,-2.624 0.71923,-2.9351 -17.5,-2.17 -10.3125,0.433 -19.85022,0.742 -21.19494,0.6866 -3.02636,-0.1245 -5.23526,-2.978 -4.84745,-6.2619 0.51701,-4.3778 5.42631,-6.3532 47.29239,-19.029 9.35,-2.831 18.02684,-5.8081 19.28187,-6.616 4.57111,-2.9425 1.50291,-3.7034 -12.14653,-3.0126 -14.37803,0.7277 -21.70207,1.7358 -34.93496,4.8085 -8.41799,1.9547 -8.8842,1.9667 -10.75,0.2782 -1.97549,-1.7878 -2.52757,-5.0639 -1.18507,-7.0323 0.40408,-0.5925 5.23469,-2.1158 10.73469,-3.3853 21.36251,-4.9306 36.5,-10.968 36.5,-14.5577 0,-2.0241 -2.34978,-1.9018 -19.59861,1.0202 -19.41256,3.2886 -23.83777,3.2898 -25.98857,0.01 -0.98333,-1.5007 -1.39493,-3.4424 -1.0343,-4.8793 0.62227,-2.4793 2.96078,-3.636 18.12148,-8.9634 10.07911,-3.5418 12.5,-4.7958 12.5,-6.4748 0,-1.2581 -1.42365,-1.3882 -9.16998,-0.8384 -10.12552,0.7191 -12.83004,-0.3363 -12.83004,-5.0061 0,-2.7552 3.24982,-6.3434 5.75,-6.3487 2.53896,-0.01 8.25,-3.726 8.25,-5.3746 0,-1.905 -2.21852,-2.6217 -8.11551,-2.6217 -4.61853,0 -5.09386,-0.2405 -7.05985,-3.5726 -2.74795,-4.6575 -3.74702,-3.5437 -6.79288,7.5726 -7.19735,26.2678 -21.74,65.5652 -34.23114,92.5 -3.31584,7.15 -6.70201,14.4589 -7.52481,16.2419 -2.02032,4.3781 -1.06281,6.6559 2.48663,5.9153 1.50566,-0.3141 10.16256,-1.1136 19.23756,-1.7767 z m 123,-6.9329 c 12.83964,-1.3278 13.91422,-2.0803 12.18791,-8.5348 -0.67639,-2.529 -3.3015,-8.9439 -5.83358,-14.2555 -6.75828,-14.1768 -12.78771,-27.0003 -19.58672,-41.6573 -13.96072,-30.0959 -26.33188,-55.8325 -40.61769,-84.5 -9.43869,-18.9407 -11.01801,-21.5358 -13.26758,-21.8006 -1.42723,-0.1679 -3.13186,0.3963 -3.86471,1.2794 -1.105,1.3314 -0.97361,1.9392 0.8356,3.865 2.16566,2.3052 2.73484,5.2735 1.38146,7.2044 -0.40408,0.5765 -2.19719,2.0696 -3.98469,3.3181 -5.08126,3.5489 -4.29132,5.1337 2.55887,5.1337 3.40606,0 6.60239,0.5802 7.72724,1.4027 2.94124,2.1507 0.94296,6.5182 -4.30748,9.4145 -5.64176,3.1122 -5.58226,5.1828 0.14893,5.1828 4.89781,0 6.95117,1.654 6.4492,5.195 -0.24168,1.7048 -1.88898,3.0482 -6.32676,5.1592 -8.78613,4.1796 -9.62841,6.6458 -2.26972,6.6458 4.69267,0 7.76972,2.1953 7.76972,5.5433 0,1.664 -1.65689,3.2722 -6.5,6.3088 -8.18431,5.1315 -8.51821,7.1479 -1.18366,7.1479 2.92399,0 7.88896,-0.4756 11.03326,-1.0568 3.14431,-0.5813 6.57894,-0.7833 7.63251,-0.4489 3.92001,1.2442 3.71436,7.8427 -0.28326,9.0889 -1.20937,0.377 -6.25364,2.5866 -11.20949,4.9102 -9.07621,4.2556 -12.46052,6.7884 -10.60391,7.9358 0.54042,0.334 6.97477,0.095 14.29856,-0.5316 17.09687,-1.4622 17.95242,-1.4315 19.51093,0.6999 2.77652,3.7971 0.80756,6.404 -9.52353,12.6093 -10.00645,6.0103 -8.8993,6.7932 9.60608,6.7932 17.16427,0 20.22251,0.8218 20.22251,5.4343 0,2.7951 -1.11813,3.7267 -7,5.832 -2.475,0.8859 -8.775,3.1462 -14,5.0229 -15.26019,5.481 -42.37104,13.7108 -45.16668,13.7108 -0.79808,0 -2.32457,0.6447 -3.39219,1.4327 -4.29939,3.1732 -0.46906,3.5784 19.59212,2.0726 19.52155,-1.4653 29.04961,-2.7827 34.26181,-4.7372 4.1386,-1.5519 7.70494,0.3403 7.70494,4.088 0,3.1736 -1.18755,4.5122 -5,5.6361 -4.92432,1.4516 -31.51879,11.8117 -32.43333,12.6346 -0.51334,0.4619 -0.7037,1.0695 -0.42303,1.3502 0.58055,0.5805 14.24684,-0.9201 23.64454,-2.5963 5.5441,-0.9888 6.51375,-0.9174 8.19445,0.6036 1.04845,0.9488 2.04377,3.1405 2.21182,4.8704 0.2943,3.0295 0.50799,3.1659 5.80555,3.7043 6.01988,0.6118 8.40752,0.5012 24,-1.1114 z m -90.20354,-120.4583 c 7.25509,-2.2316 9.16203,-4.7809 4.45913,-5.9613 -3.96318,-0.9947 -5.25559,-2.3895 -5.25559,-5.6719 0,-3.0142 1.43495,-4.0603 7.29282,-5.3167 3.09297,-0.6634 4.5637,-3.0829 2.89085,-4.7557 -0.73656,-0.7366 -2.77394,-0.7949 -6.38279,-0.1828 l -5.30088,0.8991 -2.67999,8 c -1.47399,4.4 -2.71149,9.7356 -2.75,11.857 -0.0597,3.2871 0.18857,3.7533 1.67999,3.1554 0.9625,-0.3858 3.68341,-1.2962 6.04646,-2.0231 z m 5.70354,-35.4893 c 1.07686,-1.7424 -0.51929,-3.2289 -2.07802,-1.9353 -0.76998,0.6391 -1.15336,1.5609 -0.85195,2.0486 0.72948,1.1803 2.16477,1.1248 2.92997,-0.1133 z m 13.5,-24.1893 c 0,-1.8907 -4.16644,-8.9373 -5.6124,-9.4922 -2.25841,-0.8666 -3.13447,0.5064 -5.09686,7.9885 -2.28516,8.7127 -1.15208,9.7675 5.83,5.4272 2.68359,-1.6682 4.87926,-3.4338 4.87926,-3.9235 z"
         id="path4567"
         inkscape:connector-curvature="0" />
      <path
         style="fill:#1a0e05"
         d="m 645.57613,1863.0532 c -3.2422,-4.3016 -10.62115,-10.0436 -12.29207,-9.5651 -0.4125,0.1181 -0.75,-0.3853 -0.75,-1.1186 0,-2.427 3.4105,-1.4571 10.71416,3.0469 4.45406,2.7467 7.70612,4.1511 8.5,3.6707 0.70721,-0.4279 3.21302,-2.9094 5.56846,-5.5144 2.41408,-2.6698 5.85276,-5.2545 7.8813,-5.924 3.95422,-1.305 12.96562,-0.9431 28.54601,1.1464 9.24321,1.2396 9.91614,1.202 14,-0.7837 2.35954,-1.1473 5.93192,-2.3729 7.93862,-2.7236 2.00671,-0.3506 4.79808,-1.5418 6.20306,-2.6469 4.95833,-3.9003 8.01402,-4.3191 14.31353,-1.9622 5.24755,1.9634 6.03981,2.0233 9.28594,0.702 4.66198,-1.8976 15.41737,-3.8575 17.26912,-3.1469 3.28853,1.2619 3.83454,-1.8126 2.2289,-12.5511 -0.84901,-5.6781 -1.73112,-10.6272 -1.96025,-10.9979 -0.22913,-0.3708 -0.65244,-3.5559 -0.94069,-7.0781 -2.28143,-27.8774 -3.73813,-38.8166 -5.34676,-40.152 -1.12271,-0.932 -8.17624,-1.2519 -27.60472,-1.2519 -34.38272,0 -42.59668,1.5496 -42.59668,8.0362 0,2.3882 -2.49369,4.4638 -5.36283,4.4638 -2.63129,0 -4.83688,-3.0682 -4.15593,-5.7813 0.34425,-1.3716 5.38256,-12.1974 11.19626,-24.0574 21.08364,-43.0109 29.28055,-65.1042 45.32344,-122.1613 14.59437,-51.9054 17.85683,-64.3606 19.10774,-72.948 1.43382,-9.8431 6.33572,-13.3535 8.80012,-6.302 0.72081,2.0625 6.16979,12.525 12.10883,23.25 10.44402,18.8603 32.5059,63.0237 48.45647,97 13.36789,28.4749 35.55146,73.217 37.58094,75.7971 2.79912,3.5585 2.40911,6.7432 -1.30504,10.6568 -3.14485,3.3137 -3.65579,3.475 -15.79258,4.9853 -7.18838,0.8945 -20.26272,1.5608 -30.62755,1.5608 -15.03657,0 -18.29965,0.2587 -19.35855,1.5346 -1.5655,1.8863 -0.71322,22.4795 1.11857,27.0273 0.68298,1.6957 1.29901,9.4926 1.4568,18.4381 0.20036,11.3588 0.80945,17.6936 2.27972,23.7102 1.10347,4.5156 2.29551,8.6781 2.64897,9.25 0.91924,1.4873 3.8208,1.283 6.08349,-0.4284 2.96021,-2.239 11.62279,-1.9633 14.714,0.4682 3.7384,2.9406 5.84044,2.5031 12.35681,-2.5718 6.52527,-5.0818 5.73845,-5.0102 20.37032,-1.8524 6.34684,1.3698 12.17305,1.7918 23,1.6661 11.81983,-0.1372 16.07113,0.2226 23,1.9465 8.62105,2.1449 16.25259,2.5301 25.74339,1.2994 4.47034,-0.5797 6.31327,-0.242 12.5,2.2906 10.63807,4.3548 11.59497,4.439 24.60973,2.1662 13.61522,-2.3776 19.46728,-2.305 19.95075,0.2476 0.51167,2.7014 -4.31514,4.3871 -16.80387,5.8683 -15.00198,1.7794 -20.47387,1.5086 -29.93876,-1.4813 -6.95235,-2.1963 -8.70879,-2.3783 -15.92595,-1.6508 -7.75911,0.7822 -12.77272,0.3234 -21.16766,-1.9371 -2.10654,-0.5672 -12.29852,-1.2104 -22.64885,-1.4292 -12.52374,-0.2648 -20.82583,-0.9152 -24.81878,-1.9444 -8.14302,-2.0988 -8.69001,-2.0428 -12.92499,1.3227 -6.51893,5.1806 -11.70635,6.2772 -24.12726,5.1003 -10.50691,-0.9956 -10.90489,-0.9599 -13.18577,1.1829 -4.02799,3.7841 -5.35888,1.7244 -9.44742,-14.6213 -2.79269,-11.165 -3.94512,-18.4122 -4.75749,-29.9182 -0.58963,-8.3513 -1.52623,-19.2341 -2.08133,-24.1841 -0.5551,-4.95 -1.11423,-11.7 -1.24251,-15 l -0.23323,-6 -4,-0.2834 c -5.38392,-0.3816 -12.86975,3.3622 -13.33749,6.6703 -0.48749,3.4478 2.79392,22.1282 4.44941,25.3295 1.0522,2.0348 1.24303,4.8225 0.76015,11.1046 -0.70868,9.2196 0.52973,20.18 3.82992,33.8962 2.6044,10.8243 2.17596,11.6204 -5.93631,11.031 -3.17113,-0.2304 -7.28841,-0.8108 -9.14952,-1.2899 -2.68815,-0.6919 -4.57266,-0.3706 -9.16617,1.5628 -5.35031,2.2519 -6.10612,2.3334 -10.11616,1.0911 -2.38361,-0.7384 -5.5652,-1.9226 -7.07022,-2.6317 -2.87677,-1.3553 -4.49154,-0.8021 -22.64428,7.7574 l -5.38068,2.5371 -13.61932,-2.6419 c -7.49063,-1.453 -16.1616,-2.6399 -19.26883,-2.6375 l -5.64949,0 -5.85051,7.471 c -4.96208,6.3365 -6.30606,7.4707 -8.8505,7.4691 -2.39388,-10e-4 -3.69864,-0.9288 -6.45793,-4.5897 z m 71.45793,-103.7555 15,-1.0949 0.5,-5.5 c 0.43282,-4.761 0.80232,-5.5429 2.75,-5.8195 2.55409,-0.3628 2.73143,0.076 1.09218,2.7006 -1.51355,2.4236 -0.48571,4.9237 2.48916,6.0548 2.55943,0.9731 16.07976,-0.2859 21.06788,-1.9618 1.59458,-0.5358 4.74458,-0.9848 7,-0.9978 2.25543,-0.013 6.80078,-1.1588 10.10078,-2.5461 7.07872,-2.9759 19.70116,-5.6631 22.22469,-4.7315 0.97642,0.3605 2.11281,1.1382 2.52531,1.7284 0.51087,0.7308 1.03319,0.6335 1.6382,-0.3052 1.10897,-1.7207 3.1118,-0.5969 3.1118,1.746 0,4.3379 2.08636,5.2572 12.03311,5.3019 12.54334,0.056 29.07708,-1.9436 30.92575,-3.7407 1.98911,-1.9337 0.40363,-7.6685 -5.60453,-20.2718 -6.75828,-14.1768 -12.78771,-27.0003 -19.58672,-41.6573 -24.80271,-53.4685 -50.56249,-105.4619 -52.76761,-106.5058 -0.825,-0.3905 -2.85,-1.3894 -4.5,-2.2196 -1.65,-0.8302 -3.675,-1.3167 -4.5,-1.0811 -0.825,0.2356 -0.20186,-0.6768 1.38476,-2.0276 2.20578,-1.8779 2.74023,-3.0102 2.27073,-4.8109 -1.08637,-4.1666 -4.62168,-9.0085 -6.33275,-8.6732 -2.2295,0.4369 -4.46506,7.018 -5.03365,14.8182 -0.2606,3.575 -0.58984,7.9609 -0.73164,9.7465 -0.1577,1.9857 -1.28185,4.1955 -2.89461,5.6902 -1.97071,1.8264 -2.52614,3.1534 -2.19883,5.2535 1.58366,10.1606 1.59682,10.0764 -1.89735,12.138 -1.80913,1.0674 -3.5217,3.0052 -3.80571,4.3063 -7.19034,32.9394 -26.54483,88.9685 -42.96033,124.3655 -3.31584,7.15 -6.70201,14.4589 -7.52481,16.2419 -2.34502,5.0818 -1.20988,6.5215 4.46675,5.6654 2.61659,-0.3947 11.50744,-1.2102 19.75744,-1.8124 z m 9.88404,-26.0365 c -0.75804,-1.9754 -0.11309,-4.8164 1.19204,-5.2509 0.64094,-0.2134 1.04532,1.0662 1,3.1642 -0.0778,3.6015 -1.2006,4.6704 -2.19204,2.0867 z m 7.81596,-26.7584 c -1.40702,-1.407 -1.60825,-6.4296 -0.29024,-7.2442 0.50036,-0.3093 1.61712,-0.2908 2.48168,0.041 1.21801,0.4674 1.33843,1.0395 0.53485,2.541 -0.5704,1.0658 -0.75683,2.8208 -0.4143,3.9 0.69725,2.1969 -0.48697,2.5873 -2.31199,0.7623 z m 81.42162,-5.55 c 0.85493,-3.5637 1.1949,-3.8917 1.96183,-1.8931 0.76585,1.9957 -0.12995,4.6431 -1.57112,4.6431 -0.6392,0 -0.79216,-1.0766 -0.39071,-2.75 z m -80.24733,-17.717 c -1.06171,-2.7668 0.12583,-3.3477 1.92239,-0.9404 1.56764,2.1005 1.59551,2.4074 0.21862,2.4074 -0.86794,0 -1.83139,-0.6601 -2.14101,-1.467 z m 61.64102,-4.1302 c -0.009,-1.1764 -1.00316,-2.5736 -2.26531,-3.1823 l -2.25,-1.0851 2.21482,-0.068 c 2.63508,-0.081 4.55833,2.8877 3.23072,4.9862 -0.72295,1.1427 -0.91813,1.0061 -0.93023,-0.6511 z m -9.62024,-21.3351 c 0.0577,-1.5791 0.44243,-2.6638 0.85493,-2.4104 1.02572,0.6301 0.94908,4.1016 -0.10493,4.753 -0.47021,0.2907 -0.80771,-0.7636 -0.75,-2.3426 z M 772.514,1639.1786 c -0.69572,-0.8383 -0.98669,-1.8024 -0.64661,-2.1425 0.72629,-0.7263 3.66667,1.5104 3.66667,2.7891 0,1.3775 -1.62985,1.0285 -3.02006,-0.6466 z m -30.42031,-1.3793 c -0.43195,-0.6989 -0.29207,-1.7641 0.31084,-2.367 1.47541,-1.4754 2.036,-0.6634 1.17651,1.7041 -0.51854,1.4284 -0.9072,1.6016 -1.48735,0.6629 z m 5.44037,-17.5375 c 0,-1.5011 1.79534,-3.097 2.59007,-2.3023 0.69748,0.6975 -0.68337,3.7433 -1.69706,3.7433 -0.49115,0 -0.89301,-0.6484 -0.89301,-1.441 z m 23.52161,-10.309 c 0.40457,-0.9625 0.95708,-2.7725 1.2278,-4.0222 0.39012,-1.8008 0.77831,-2.0347 1.87141,-1.1275 2.62378,2.1775 0.96219,6.8997 -2.42781,6.8997 -0.95354,0 -1.16992,-0.564 -0.6714,-1.75 z m -4.52161,-19.25 c 0,-1.1 0.45,-2 1,-2 0.55,0 1,0.9 1,2 0,1.1 -0.45,2 -1,2 -0.55,0 -1,-0.9 -1,-2 z"
         id="path4565"
         inkscape:connector-curvature="0" />
    </g>
  </g>
</svg>
