<?xml version="1.0" encoding="UTF-8" standalone="no"?>
<!-- Created with Inkscape (http://www.inkscape.org/) -->

<svg
   xmlns:dc="http://purl.org/dc/elements/1.1/"
   xmlns:cc="http://creativecommons.org/ns#"
   xmlns:rdf="http://www.w3.org/1999/02/22-rdf-syntax-ns#"
   xmlns:svg="http://www.w3.org/2000/svg"
   xmlns="http://www.w3.org/2000/svg"
   xmlns:sodipodi="http://sodipodi.sourceforge.net/DTD/sodipodi-0.dtd"
   xmlns:inkscape="http://www.inkscape.org/namespaces/inkscape"
   width="341.50388"
   height="320.83688"
   id="svg2"
   version="1.1"
   inkscape:version="0.48.5 r10040">
  <defs
     id="defs4" />
  <sodipodi:namedview
     id="base"
     pagecolor="#ffffff"
     bordercolor="#666666"
     borderopacity="1.0"
     inkscape:pageopacity="0.0"
     inkscape:pageshadow="2"
     inkscape:zoom="1.7080745"
     inkscape:cx="178.3711"
     inkscape:cy="160.88687"
     inkscape:document-units="px"
     inkscape:current-layer="layer1"
     showgrid="false"
     inkscape:window-width="1366"
     inkscape:window-height="718"
     inkscape:window-x="0"
     inkscape:window-y="0"
     inkscape:window-maximized="1"
     fit-margin-top="0"
     fit-margin-left="0"
     fit-margin-right="0"
     fit-margin-bottom="0" />
  <metadata
     id="metadata7">
    <rdf:RDF>
      <cc:Work
         rdf:about="">
        <dc:format>image/svg+xml</dc:format>
        <dc:type
           rdf:resource="http://purl.org/dc/dcmitype/StillImage" />
        <dc:title></dc:title>
      </cc:Work>
    </rdf:RDF>
  </metadata>
  <g
     inkscape:label="Layer 1"
     inkscape:groupmode="layer"
     id="layer1"
     transform="translate(-701.81536,-1492.7587)">
    <g
       id="g3477"
       transform="translate(-7.6109091,0)">
      <path
         style="fill:#f4a5a4"
         d="m 944.54826,1812.3004 c -1.89859,-1.375 -2.21297,-2.8676 -2.80545,-13.3201 -0.70282,-12.3992 1.09225,-33.5626 3.92472,-46.2716 0.79677,-3.575 1.46448,-8.571 1.4838,-11.1021 0.0236,-3.0897 0.78436,-5.7139 2.31492,-7.9851 l 2.27979,-3.383 26.47021,0.3195 c 15.69254,0.1894 31.65725,-0.1732 39.20965,-0.8906 14.2336,-1.3521 18.1832,-0.6074 19.8361,3.74 0.7298,1.9194 0.049,4.0899 -3.4777,11.0938 -2.4118,4.7891 -4.6553,9.6162 -4.9856,10.7268 -1.1312,3.8033 -3.6122,24.8493 -3.6122,30.6414 0,5.4134 0.1932,5.8878 2.9855,7.3318 5.6357,2.9144 4.9572,8.5256 -1.5145,12.5254 -2.8218,1.744 -4.4267,2.0659 -7.7872,1.5619 -2.4893,-0.3732 -9.9893,0.2105 -18.2083,1.4172 -7.68655,1.1286 -20.05054,2.487 -27.47554,3.0187 -7.425,0.5316 -16.425,1.2271 -20,1.5456 -4.98335,0.4438 -6.99891,0.2176 -8.6382,-0.9696 z m 25.17288,-11.0752 c 6.57726,-0.8159 14.21016,-1.9247 16.96199,-2.4641 2.75183,-0.5393 9.26457,-1.6986 14.47277,-2.5762 5.2082,-0.8775 10.0457,-2.0738 10.75,-2.6583 0.745,-0.6183 1.2806,-3.272 1.2806,-6.3452 0,-7.5621 2.8018,-30.9371 4.5313,-37.8035 0.8078,-3.2069 1.4682,-6.3569 1.4677,-7 0,-1.7504 -55.09326,-1.6562 -57.21352,0.098 -4.26073,3.525 -11.63559,48.7256 -9.40198,57.625 0.78229,3.1169 0.98364,3.1301 17.15114,1.1245 z m -70.17968,-51.556 c -8.03606,-1.5905 -33.8143,-10.282 -36.105,-12.1733 -0.6875,-0.5676 -1.25,-2.512 -1.25,-4.3207 0,-2.4447 0.78961,-3.9531 3.07673,-5.8776 3.60808,-3.036 4.53972,-3.1263 9.94452,-0.9637 2.23395,0.8938 4.33584,1.351 4.67087,1.016 0.33504,-0.335 -2.27113,-3.1917 -5.79148,-6.3482 -10.57087,-9.4784 -26.91602,-26.4955 -30.00521,-31.2388 -3.40195,-5.2235 -3.65104,-8.2986 -0.89543,-11.0542 3.61053,-3.6105 5.73749,-2.554 15.38077,7.6402 10.45581,11.0531 29.61923,28.0783 29.61923,26.3144 0,-0.6524 -0.77111,-3.3573 -1.71359,-6.0109 -1.58865,-4.4729 -1.59537,-5.0726 -0.0922,-8.2247 0.97119,-2.0366 2.88683,-3.9241 4.77727,-4.7072 2.79767,-1.1588 3.45197,-1.0862 5.76354,0.6397 1.4598,1.0899 3.35008,4.1312 4.29441,6.9093 2.48157,7.3007 5.10836,12.0742 13.54671,24.6177 8.79934,13.0802 9.00983,14.8794 2.465,21.0715 -3.50435,3.3155 -4.51855,3.7373 -8.75237,3.6404 -2.63379,-0.06 -6.65397,-0.4787 -8.93372,-0.9299 z m 0.645,-15.9605 c 0,-0.55 -0.45,-1 -1,-1 -0.55,0 -1,0.45 -1,1 0,0.55 0.45,1 1,1 0.55,0 1,-0.45 1,-1 z m 120.55934,-42.1127 c -8.6297,-3.4998 -38.92776,-8.825 -50.43814,-8.8651 -5.89975,-0.021 -6.66974,0.2407 -10.25288,3.4778 -2.13074,1.925 -4.35237,3.5 -4.93694,3.5 -2.35485,0 -5.00837,-2.2485 -6.2991,-5.3376 -1.04565,-2.5027 -2.32177,-3.5524 -5.46217,-4.4933 -6.71903,-2.0131 -9.2964,-7.9349 -5.10459,-11.7284 1.48636,-1.3451 3.5961,-1.8693 7.52406,-1.8693 5.39926,0 5.46907,-0.038 6.42859,-3.5357 0.53352,-1.9446 2.12753,-10.2673 3.54224,-18.4947 2.75781,-16.0385 5.86743,-24.6278 9.65033,-26.656 1.6062,-0.8611 9.3011,-1.2568 25.78926,-1.3263 21.35834,-0.09 24.27464,-0.3119 32.00004,-2.4362 11.0952,-3.051 18.0599,-3.2754 20.9386,-0.6747 3.3127,2.9928 2.3441,6.4664 -2.7556,9.8825 -5.1274,3.4348 -5.5874,4.4977 -8.1821,18.9072 -2.2942,12.7409 -2.6568,31.4724 -0.8039,41.5284 1.1571,6.2801 1.1201,6.5589 -1.1108,8.3653 -2.8594,2.3155 -4.298,2.2822 -10.5269,-0.2439 z m -0.3613,-31.9684 c 0.3839,-10.1304 1.2215,-21.2265 1.8612,-24.658 0.6397,-3.4315 0.9392,-6.8225 0.6656,-7.5356 -0.3926,-1.0231 -2.6837,-1.1184 -10.8612,-0.452 -5.7,0.4645 -15.08864,0.609 -20.86364,0.3212 -5.775,-0.2878 -12.075,-0.1921 -14,0.2127 -3.33544,0.7014 -3.62897,1.1195 -6.24295,8.8926 -2.80249,8.3336 -6.74858,26.6973 -6.75402,31.4308 -0.003,2.6257 0.0189,2.6328 11.74697,3.7964 6.4625,0.6411 18.5,2.4476 26.75004,4.0145 8.25,1.5668 15.45,2.747 16,2.6225 0.5906,-0.1336 1.2857,-7.766 1.698,-18.6451 z M 730.63208,1679.23 c -10.46446,-3.3064 -19.989,-10.5704 -21.01237,-16.0254 -1.39437,-7.4326 4.86226,-23.6027 15.1271,-39.0954 8.42325,-12.7133 16.67347,-18.2497 24.87838,-16.6949 3.92211,0.7432 8.45924,2.9781 11.28003,5.5563 2.03736,1.8622 2.77322,1.9434 9,0.9929 15.72014,-2.3996 38.35341,-9.8516 51.06566,-16.8132 3.45644,-1.8929 7.58627,-3.4416 9.17742,-3.4416 3.55475,0 6.53392,3.4703 7.50424,8.7413 0.38056,2.0673 2.48016,7.3458 4.66577,11.7301 2.673,5.3619 3.78408,8.7274 3.39416,10.281 -0.67206,2.6777 -5.98466,6.2384 -9.31585,6.2439 -3.7036,0.01 -9.68054,3.5957 -13.83837,8.3111 -2.12949,2.4151 -5.29881,5.1271 -7.04295,6.0267 -1.74414,0.8997 -4.17642,3.105 -5.40506,4.9008 -4.38493,6.4091 -6.88037,7.1028 -13.46234,3.7428 l -3.96144,-2.0222 -4,4.4495 c -5.61262,6.2433 -7.78065,6.6375 -11.98547,2.1791 -1.85912,-1.9713 -3.55523,-3.5841 -3.76912,-3.5841 -0.21389,0 -1.36361,2.1375 -2.55493,4.75 -4.69367,10.293 -12.4568,18.1184 -20.07285,20.234 -4.84783,1.3466 -14.67732,1.1154 -19.67201,-0.4627 z m 17.52287,-10.7999 c 3.68683,-1.8655 10.02056,-10.7328 10.02647,-14.0371 0.008,-4.1894 1.43339,-6.1649 7.67712,-10.6359 6.44652,-4.6163 8.89289,-4.965 12.87196,-1.8351 1.54757,1.2173 2.96004,1.7798 3.13883,1.25 0.17878,-0.5298 1.21667,-2.4258 2.3064,-4.2133 2.45727,-4.0307 5.8048,-4.2716 10.42184,-0.75 1.80272,1.375 3.84282,2.5 4.53356,2.5 0.69074,0 3.22923,-1.9455 5.64109,-4.3232 2.41185,-2.3778 5.62922,-4.9647 7.14971,-5.7487 12.94423,-6.674 17.26453,-10.3526 17.26453,-14.7003 0,-3.2302 -2.88476,-8.4972 -4.31759,-7.883 -6.80142,2.9156 -12.62122,4.99 -20.18241,7.1938 -4.95,1.4428 -10.00045,3.0217 -11.22322,3.5087 -1.22277,0.487 -6.57124,2.0423 -11.88548,3.4563 -5.31424,1.414 -11.55332,3.6791 -13.86463,5.0336 -6.8701,4.0262 -10.06886,2.9655 -11.43972,-3.7934 -0.54771,-2.7004 -1.37136,-3.4925 -4.91648,-4.7281 -3.95592,-1.3789 -4.52061,-1.3434 -7.94653,0.5 -2.0284,1.0914 -5.87426,4.9093 -8.54636,8.4843 -5.51756,7.3819 -15.67758,27.2927 -15.67758,30.7237 0,5.285 10.88551,11.2598 20.5,11.2518 3.3,0 7.11082,-0.5671 8.46849,-1.2541 z m 147.53132,-4.4714 c -2.10317,-2.2408 -2.52731,-3.5621 -2.29047,-7.1359 l 0.29066,-4.3859 -14.16331,-3.6951 c -22.69541,-5.9212 -26.33669,-7.716 -26.33669,-12.9821 0,-6.0195 5.38552,-6.7359 18,-2.3944 15.45631,5.3196 43,9.3875 43,6.3507 0,-0.546 -3.38458,-4.6684 -7.5213,-9.1608 -4.13671,-4.4924 -7.78696,-9.2265 -8.11166,-10.5202 -1.32592,-5.2829 4.97535,-7.1297 10.18868,-2.9862 1.61935,1.2871 8.05088,7.3716 14.29227,13.5212 9.62507,9.4834 11.42405,11.748 11.84888,14.9154 0.65438,4.8788 -0.4462,5.7885 -14.19467,11.7329 -6.04878,2.6153 -12.56574,5.8205 -14.48213,7.1227 -4.5501,3.0919 -7.35508,2.99 -10.52026,-0.3823 z m 142.00023,-78.1935 c -1.65,-1.0505 -8.625,-3.5444 -15.5,-5.5422 -6.875,-1.9977 -16.775,-4.8953 -22,-6.439 -5.22504,-1.5437 -12.20004,-3.5082 -15.50004,-4.3656 -3.3,-0.8574 -7.85221,-2.0428 -10.11602,-2.6343 -2.26381,-0.5915 -6.53881,-1.0897 -9.5,-1.1072 -5.66577,-0.034 -7.80616,-1.0579 -9.72064,-4.6525 -1.70384,-3.199 -1.50456,-3.9292 2.20039,-8.0628 4.98107,-5.5574 6.29179,-8.8874 7.00489,-17.797 0.79234,-9.8995 3.69519,-20.6984 6.6316,-24.6701 1.60577,-2.1719 1.90497,-3.2806 1.10201,-4.0836 -1.5531,-1.5531 -1.37101,-6.2342 0.29631,-7.618 0.93332,-0.7746 3.51137,-0.9461 7.75,-0.5157 7.53647,0.7654 33.5621,-1.1157 43.0555,-3.112 3.6873,-0.7753 10.8956,-1.7043 16.0186,-2.0644 10.9775,-0.7717 12.6679,0.1262 10.9377,5.8095 -3.4217,11.2395 -4.4846,16.2129 -5.186,24.2651 -0.7976,9.1583 0.2928,31.6645 2.1093,43.5333 2.0093,13.1288 2.2377,17.9079 0.9312,19.4821 -1.7304,2.0851 -6.8997,1.8758 -10.5148,-0.4256 z m -2.2259,-14.9968 c 0.2791,-1.0671 0.1305,-5.2296 -0.3301,-9.25 -1.8332,-16.0009 -2.1604,-40.9942 -0.6455,-49.3097 0.8015,-4.4 1.2824,-8.1924 1.0685,-8.4276 -0.2139,-0.2352 -3.6465,0.076 -7.628,0.6912 -3.9815,0.6154 -15.114,1.8521 -24.739,2.7482 -23.41231,2.1799 -21.63285,1.6498 -21.18822,6.3121 0.24493,2.5684 -0.32833,5.2682 -1.68208,7.9218 -2.84772,5.582 -4.85971,21.5218 -3.12557,24.7621 0.70432,1.316 1.32901,4.3226 1.38821,6.6813 l 0.10762,4.2886 15,4.2895 c 8.25004,2.3593 17.25004,4.9537 20.00004,5.7655 4.0691,1.2011 18.0933,4.8308 20.6333,5.3403 0.3484,0.07 0.8617,-0.7461 1.1408,-1.8133 z m -169.83646,13.548 c -1.4905,-5.9386 4.44077,-11.4408 25.74688,-23.8844 7.32349,-4.2772 14.44044,-8.6974 15.81544,-9.8226 l 2.5,-2.0459 -4,0.6363 c -2.2,0.35 -6.98693,1.3441 -10.63763,2.2092 -7.52579,1.7834 -11.43212,1.2306 -12.37865,-1.7516 -1.72794,-5.4442 5.06258,-8.9718 27.51628,-14.2942 25.81509,-6.1192 27.59024,-6.3495 30.76247,-3.9915 5.51692,4.1007 4.02783,8.4915 -10.19354,30.0572 -15.6082,23.6687 -16.11543,24.2798 -20.1543,24.2798 -2.89021,0 -8.41463,-5.2155 -8.41463,-7.9441 0,-1.1778 2.09307,-4.3792 4.65126,-7.1142 2.55819,-2.7349 4.38072,-5.2431 4.05007,-5.5737 -0.33064,-0.3306 -2.88047,0.8013 -5.66627,2.5154 -2.78581,1.7141 -5.29229,3.1166 -5.56995,3.1166 -0.27767,0 -2.30893,1.1389 -4.51391,2.5308 -6.12627,3.8673 -25.64236,13.4692 -27.37659,13.4692 -0.84508,0 -1.8067,-1.0765 -2.13693,-2.3923 z"
         id="path3491"
         inkscape:connector-curvature="0" />
      <path
         style="fill:#a29d9c"
         d="m 944.30966,1811.8319 c -1.74236,-1.7424 -2.14649,-3.4236 -2.25304,-9.3732 -0.3489,-19.4811 0.80089,-34.4319 3.78756,-49.25 0.88685,-4.4 1.5638,-9.5042 1.50433,-11.3427 -0.14997,-4.6365 3.26805,-10.9762 6.33246,-11.7453 1.3586,-0.341 3.71563,-0.2154 5.23784,0.2791 2.22088,0.7214 38.74743,0.2078 69.93939,-0.9835 4.6924,-0.1792 8.3283,2.2729 8.3283,5.6167 0,1.1079 -2.0251,6.1007 -4.5002,11.095 -4.6053,9.2929 -5.7956,14.8667 -8.0512,37.7015 l -0.654,6.6208 3.5158,2.6816 c 1.9337,1.4749 3.7678,3.3384 4.0759,4.1411 1.6401,4.2742 -6.4034,11.0924 -11.7663,9.9738 -4.7137,-0.9832 -5.7319,-0.9104 -25.12004,1.7956 -9.9,1.3818 -22.5,2.7851 -28,3.1186 -5.5,0.3334 -12.30706,0.8735 -15.1268,1.2001 -4.36533,0.5058 -5.44215,0.2786 -7.25,-1.5292 z m 35.3768,-11.689 c 4.95,-0.8325 13.05,-2.1608 18,-2.9518 13.89744,-2.2207 14.95844,-2.6413 15.25774,-6.0485 1.8936,-21.5573 3.6518,-35.6751 5.1865,-41.647 1.03,-4.0078 1.552,-7.6262 1.1602,-8.0409 -1.0307,-1.0908 -53.35078,-0.983 -56.24114,0.1159 -2.91069,1.1066 -4.75873,6.4359 -7.83814,22.6031 -2.18795,11.4869 -3.80274,34.0663 -2.65095,37.0678 0.59725,1.5564 1.64034,1.6766 9.3988,1.0828 4.79984,-0.3673 12.77699,-1.349 17.72699,-2.1814 z m -78.5,-51.4351 c -4.73818,-0.8062 -14.82998,-3.8673 -29,-8.7964 -7.82629,-2.7225 -8.52343,-3.1855 -8.79564,-5.8422 -0.37771,-3.6863 2.90953,-7.3607 6.5846,-7.36 1.49107,3e-4 5.12922,0.9196 8.08477,2.0429 2.95555,1.1234 5.61758,1.7986 5.91563,1.5006 0.29804,-0.2981 -7.78844,-8.7549 -17.96997,-18.793 -18.11881,-17.8635 -23.81939,-24.726 -23.81939,-28.6744 0,-1.8872 3.40269,-5.0766 5.41603,-5.0766 0.53406,0 5.72144,4.8596 11.5275,10.7991 11.82744,12.0993 28.50968,27.2009 30.04795,27.2009 1.45376,0 1.24253,-2.5131 -0.57006,-6.7821 -3.50441,-8.2536 -1.03267,-14.571 5.48405,-14.0164 3.35853,0.2858 3.62339,0.6023 6.22806,7.4429 2.57306,6.7575 8.89359,17.7071 16.25632,28.1622 4.45024,6.3194 4.83048,7.7303 3.16039,11.7274 -2.65878,6.3634 -8.06815,8.2486 -18.55024,6.4651 z m 0.40895,-13.8518 c 0.28984,-0.469 -0.1061,-1.7065 -0.87986,-2.75 -1.3094,-1.7659 -1.52319,-1.7827 -3.0863,-0.2433 -0.92369,0.9098 -1.37464,2.1473 -1.0021,2.75 0.80141,1.2967 4.21394,1.4638 4.96826,0.2433 z m 118.59109,-43.87 c -6.2273,-2.7749 -29.01211,-6.8396 -49.26362,-8.7885 l -6.76358,-0.6509 -3.17042,3.5811 c -4.81261,5.4359 -10.22056,4.4998 -12.23529,-2.1178 -0.36819,-1.2094 -1.65892,-2.4771 -2.86828,-2.8171 -5.54916,-1.5601 -7.61175,-2.8596 -8.6968,-5.4792 -2.28932,-5.5269 1.66317,-8.6284 9.98456,-7.8348 4.81743,0.4594 4.79937,0.5005 7.98192,-18.1701 1.17189,-6.875 2.53998,-14.3137 3.04021,-16.5305 1.16992,-5.1845 4.69614,-13.1586 6.26973,-14.1781 0.67184,-0.4353 12.92153,-1.0833 27.22153,-1.4401 22.07644,-0.5508 27.12164,-0.9657 33.43234,-2.75 4.0878,-1.1557 9.6003,-2.1013 12.25,-2.1013 9.7173,0 11.9554,7.8265 3.2752,11.4533 -4.1958,1.7531 -5.042,3.7095 -7.5545,17.4661 -2.1777,11.9235 -2.6125,36.3773 -0.7764,43.6691 0.9789,3.8878 0.8931,4.7323 -0.655,6.4429 -2.1331,2.357 -6.5228,2.4511 -11.4716,0.2459 z m -0.5443,-13.2057 c 0.3156,-0.5106 0.8223,-9.0925 1.1261,-19.0709 0.3037,-9.9783 1.1774,-21.1302 1.9414,-24.782 0.7641,-3.6517 1.1544,-6.8744 0.8674,-7.1614 -0.6583,-0.6583 -45.1181,-0.092 -48.09006,0.6127 -1.76356,0.4181 -2.78412,2.3356 -5.14987,9.6757 -3.4872,10.8197 -7.51308,31.6919 -6.33921,32.8658 0.45243,0.4524 8.21742,1.7332 17.25555,2.8462 9.03812,1.113 20.48299,2.8546 25.43299,3.8702 10.83,2.2221 12.2137,2.3443 12.9557,1.1437 z m -288.45574,1.2466 c -3.025,-0.9024 -8.56377,-3.601 -12.30838,-5.997 -8.68189,-5.5552 -10.4729,-9.0987 -8.74317,-17.2983 3.30215,-15.6536 19.59564,-41.6331 29.23826,-46.6194 1.49268,-0.7719 4.90223,-1.4035 7.57677,-1.4035 3.90703,0 6.17568,0.7918 11.54257,4.0288 l 6.67978,4.0287 12.75708,-3.135 c 19.10774,-4.6958 29.81958,-8.3539 40.73375,-13.9106 5.4142,-2.7565 10.67185,-5.0119 11.68367,-5.0119 2.94504,0 5.5131,3.3648 7.32504,9.5977 0.927,3.1888 2.99702,8.3959 4.60004,11.5715 1.60303,3.1756 2.91459,6.9116 2.91459,8.3023 0,3.4525 -3.12399,6.2981 -7.69422,7.0085 -6.091,0.9469 -12.08119,4.4742 -16.44069,9.6811 -2.22823,2.6614 -4.66203,4.8389 -5.40844,4.8389 -0.74641,0 -3.067,2.0682 -5.15688,4.5961 -5.1092,6.1799 -7.45046,6.9935 -12.74735,4.4293 -5.36003,-2.5948 -5.97667,-2.553 -8.00427,0.5415 -2.99064,4.5642 -5.4837,6.4331 -8.58188,6.4331 -2.4071,0 -3.46026,-0.7229 -5.09877,-3.5 -1.13578,-1.925 -2.40947,-3.5 -2.83042,-3.5 -0.42095,0 -1.50556,1.9125 -2.41026,4.25 -2.93756,7.5899 -10.80943,17.1437 -16.24553,19.7166 -6.34436,3.0027 -15.97888,3.5596 -23.38129,1.3516 z m 18,-11.261 c 3.80455,-2.6526 9,-9.9192 9,-12.5879 0,-4.3241 2.28391,-7.4934 8.29048,-11.5044 3.26558,-2.1807 6.52662,-3.9649 7.24675,-3.9649 0.72012,0 2.71285,1.181 4.42828,2.6244 1.71543,1.4435 3.27766,2.456 3.47163,2.25 0.19397,-0.2059 1.04531,-2.0459 1.89187,-4.0888 1.85306,-4.4718 5.52156,-5.8639 8.93581,-3.3908 7.34486,5.3202 6.15464,5.3365 12.1761,-0.1668 3.00279,-2.7444 8.51949,-6.6597 12.25935,-8.7007 11.8856,-6.4864 14.46478,-10.6814 11.10322,-18.0593 -1.35657,-2.9773 -1.52789,-2.9649 -12.30349,0.887 -11.30805,4.0422 -28.39534,9.378 -36.92781,11.5312 -4.3603,1.1003 -9.094,2.8628 -10.51934,3.9166 -6.18073,4.5696 -10.41217,3.6052 -11.4043,-2.5992 -1.15321,-7.2118 -10.00484,-8.5868 -16.64708,-2.586 -7.80163,7.0483 -21.00147,30.5233 -21.00147,37.3496 0,4.4804 7.46876,9.6389 15.87168,10.9624 6.04151,0.9515 11.02528,0.291 14.12832,-1.8724 z m 147.40499,-4.1665 c -1.3487,-1.4934 -1.90499,-3.5991 -1.90499,-7.2107 l 0,-5.1013 -13,-3.2752 c -24.08229,-6.0672 -28.46612,-8.3181 -27.06598,-13.8966 0.80918,-3.2241 4.89688,-3.1948 15.01286,0.1073 14.28699,4.6638 38.58486,9.1966 43.15241,8.0502 3.99912,-1.0037 2.82995,-4.1042 -4.45396,-11.8114 -3.77008,-3.9891 -7.36846,-8.2329 -7.99642,-9.4306 -2.32286,-4.4302 1.16539,-6.795 6.16683,-4.1806 1.20134,0.6279 7.9482,6.9557 14.99301,14.0617 11.48679,11.5865 12.77689,13.2386 12.5,16.0074 -0.35142,3.5141 0.4135,3.0059 -14.74959,9.7991 -6.29246,2.8191 -12.66193,5.9951 -14.15437,7.0578 -3.51203,2.5008 -6.1306,2.4462 -8.4998,-0.1771 z m 141.83075,-77.8884 c -1.7953,-1.0946 -8.7703,-3.5945 -15.5,-5.5552 -6.7297,-1.9608 -16.5107,-4.8281 -21.7357,-6.3718 -22.14755,-6.5434 -32.5514,-8.8884 -37.0115,-8.3422 -2.54654,0.3119 -4.26398,-0.1619 -6.25,-1.7241 -3.80405,-2.9923 -3.59677,-6.6812 0.63503,-11.3012 4.44182,-4.8494 5.32431,-7.3851 6.51066,-18.7078 1.13311,-10.8146 3.91009,-20.0877 7.00079,-23.3776 1.89364,-2.0157 1.95983,-2.4455 0.64449,-4.1844 -1.91856,-2.5364 -1.91618,-5.8722 0.005,-7.4669 1.2365,-1.0262 2.54855,-1.0311 6.75,-0.025 4.32447,1.0353 8.11856,0.9632 22.21513,-0.4218 9.35,-0.9187 20.0033,-2.2991 23.6741,-3.0675 3.6707,-0.7684 10.3753,-1.7057 14.8991,-2.083 11.9447,-0.9961 12.0134,-0.8111 6.5331,17.5949 -0.8955,3.0076 -1.9015,9.0826 -2.2356,13.5 -0.7138,9.4385 1.1565,37.7998 3.2005,48.5316 1.8148,9.5283 1.7939,11.492 -0.1426,13.4286 -2.1179,2.1179 -5.2589,1.9722 -9.1928,-0.4263 z m -2.8302,-18.5222 c -0.052,-2.7391 -0.6121,-13.1125 -1.2449,-23.0521 -1.0969,-17.23 -0.9619,-20.7546 1.4051,-36.678 0.39,-2.6238 0.3095,-4.7494 -0.1798,-4.7486 -0.4873,7e-4 -4.4859,0.6304 -8.8859,1.3992 -4.4,0.7689 -14.75,1.9334 -23,2.5878 -8.25004,0.6544 -16.57504,1.5092 -18.50004,1.8994 -3.30512,0.6701 -3.48232,0.9105 -3.18245,4.3175 0.19119,2.1723 -0.54,5.4903 -1.83768,8.3389 -2.70156,5.9303 -4.37817,16.3775 -3.50057,21.8127 0.36795,2.2787 0.76802,6.3931 0.88906,9.1431 l 0.22007,5 13.95579,4.0883 c 7.67568,2.2486 15.98082,4.6256 18.45582,5.2822 18.613,4.9379 22.6789,5.914 24,5.7621 1.124,-0.1292 1.4763,-1.4208 1.4055,-5.1525 z m -168.79497,16.9475 c -1.6469,-4.2918 4.26072,-10.0462 19.88943,-19.3735 16.84216,-10.0515 24.21635,-14.7861 24.99719,-16.0495 1.34862,-2.1822 -2.70468,-2.0283 -12.62419,0.4793 -12.027,3.0404 -15.15178,2.7704 -14.68606,-1.2688 0.54914,-4.7626 11.245,-8.5555 43.02549,-15.2572 8.96217,-1.8899 9.94707,-1.9268 12.75,-0.4773 5.54691,2.8684 4.15946,6.7051 -10.41367,28.7971 -15.22709,23.0834 -16.49063,24.5103 -20.56045,23.2186 -1.95646,-0.621 -5.98831,-5.0632 -5.98831,-6.5978 0,-0.4574 2.025,-3.1118 4.5,-5.8985 4.52148,-5.0909 5.66455,-8 3.1435,-8 -0.74608,0 -5.35858,2.3087 -10.25,5.1305 -11.73986,6.7724 -31.02991,16.8695 -32.22853,16.8695 -0.52304,0 -1.22252,-0.7076 -1.5544,-1.5724 z"
         id="path3489"
         inkscape:connector-curvature="0" />
      <path
         style="fill:#fa5e5e"
         d="m 945.16563,1811.6879 c -1.60907,-1.6091 -1.99852,-3.4284 -2.08264,-9.7292 -0.27479,-20.5826 0.74389,-33.7832 3.76196,-48.75 0.88727,-4.4 1.55761,-9.6291 1.48964,-11.6203 -0.0781,-2.2891 0.71969,-4.8631 2.16969,-7 1.93822,-2.8565 2.82652,-3.3454 5.73772,-3.1582 10.17826,0.6545 57.6724,0.051 65.119,-0.8275 7.3621,-0.8685 9.14,-0.7827 11.75,0.567 3.9319,2.0332 3.9957,4.8888 0.2514,11.245 -5.3531,9.0873 -7.6125,18.5731 -9.7168,40.794 l -0.6628,7 4.1018,3.6768 c 2.256,2.0223 4.1019,4.0991 4.1019,4.6152 0,1.8363 -3.9795,5.9568 -6.9353,7.1812 -2.2215,0.9202 -3.7993,0.9664 -6.0621,0.1776 -1.6825,-0.5865 -3.6088,-0.8722 -4.2808,-0.6347 -2.456,0.8677 -36.56908,5.3774 -48.72184,6.441 -6.875,0.6017 -13.74688,1.2981 -15.27083,1.5476 -1.87797,0.3075 -3.4086,-0.1841 -4.75,-1.5255 z m 43.08968,-11.9556 c 22.51459,-3.7869 23.72359,-4.0505 24.74429,-5.3941 0.4718,-0.6212 1.5958,-9.2295 2.4977,-19.1295 0.9018,-9.9 2.5545,-21.5738 3.6726,-25.9418 1.1181,-4.3681 1.6677,-8.307 1.2215,-8.7533 -0.4463,-0.4462 -13.0716,-0.824 -28.05639,-0.8396 -30.75257,-0.032 -31.62757,0.1369 -33.88171,6.5347 -4.97764,14.1276 -9.20931,52.4545 -6.19281,56.0892 1.81629,2.1885 12.0789,1.457 35.99482,-2.5656 z m -87.06885,-51.0245 c -4.73818,-0.8062 -14.82998,-3.8673 -29,-8.7964 -7.82629,-2.7225 -8.52343,-3.1855 -8.79564,-5.8422 -0.37771,-3.6863 2.90953,-7.3607 6.5846,-7.36 1.49107,3e-4 5.12922,0.9196 8.08477,2.0429 2.95555,1.1234 5.61758,1.7986 5.91563,1.5006 0.29804,-0.2981 -7.78844,-8.7549 -17.96997,-18.793 -18.11881,-17.8635 -23.81939,-24.726 -23.81939,-28.6744 0,-1.8872 3.40269,-5.0766 5.41603,-5.0766 0.53406,0 5.72144,4.8596 11.5275,10.7991 11.82744,12.0993 28.50968,27.2009 30.04795,27.2009 1.45376,0 1.24253,-2.5131 -0.57006,-6.7821 -3.50441,-8.2536 -1.03267,-14.571 5.48405,-14.0164 3.35853,0.2858 3.62339,0.6023 6.22806,7.4429 2.57306,6.7575 8.89359,17.7071 16.25632,28.1622 4.45024,6.3194 4.83048,7.7303 3.16039,11.7274 -2.65878,6.3634 -8.06815,8.2486 -18.55024,6.4651 z m 0.40895,-13.8518 c 0.28984,-0.469 -0.1061,-1.7065 -0.87986,-2.75 -1.3094,-1.7659 -1.52319,-1.7827 -3.0863,-0.2433 -0.92369,0.9098 -1.37464,2.1473 -1.0021,2.75 0.80141,1.2967 4.21394,1.4638 4.96826,0.2433 z m 118.59109,-44.8861 c -5.9134,-2.6621 -30.50395,-7.0625 -48.73844,-8.7215 l -7.23839,-0.6585 -3.71335,3.6064 c -4.79059,4.6525 -8.10684,4.4977 -10.44377,-0.4876 -1.23871,-2.6425 -2.70333,-3.8732 -5.9781,-5.0233 -2.65625,-0.9328 -4.91577,-2.5536 -5.82954,-4.1816 -1.36367,-2.4296 -1.3261,-2.8419 0.43644,-4.7894 1.59091,-1.758 2.88953,-2.0866 7.41741,-1.8768 5.24357,0.2429 5.53997,0.1228 6.63277,-2.6873 0.62915,-1.6179 2.16163,-9.0166 3.4055,-16.4416 2.84697,-16.9944 4.39816,-22.7369 7.31033,-27.0628 l 2.31385,-3.4372 25.96263,-0.6355 c 22.14776,-0.5422 27.05476,-0.9463 33.39496,-2.75 8.929,-2.5403 16.2831,-2.7562 18.4962,-0.5431 2.9512,2.9512 2.0425,4.7861 -4.2035,8.4884 -3.9967,2.3689 -4.8913,4.5512 -7.322,17.8596 -2.1742,11.9041 -2.6135,36.3736 -0.7835,43.6412 0.8639,3.4306 0.8359,4.7881 -0.1224,5.9428 -1.576,1.899 -6.4808,1.791 -10.9971,-0.2422 z m 0.5028,-11.2658 c 0.3415,-0.5525 0.8433,-9.215 1.1151,-19.25 0.2719,-10.035 1.112,-21.3296 1.867,-25.0991 0.755,-3.7696 1.1656,-7.3935 0.9124,-8.0532 -0.3465,-0.9029 -6.3255,-1.0935 -24.1788,-0.7708 -13.0452,0.2358 -24.68012,0.7917 -25.85539,1.2354 -1.53748,0.5805 -2.88039,2.9996 -4.7877,8.6245 -3.13948,9.2589 -7.98783,34.3054 -6.8591,35.4342 0.43355,0.4335 8.43723,1.7177 17.78596,2.8537 9.34873,1.136 21.04773,2.9047 25.99773,3.9305 10.7726,2.2325 13.1832,2.421 14.0028,1.0948 z m -288.50284,-0.4231 c -9.00284,-2.4985 -19.06158,-9.0749 -21.39212,-13.9862 -1.83387,-3.8646 -0.91837,-8.765 3.53166,-18.904 6.57315,-14.9764 15.82387,-28.4699 23.16259,-33.786 5.28074,-3.8253 12.33648,-3.9936 18.19787,-0.434 10.10985,6.1397 8.1513,5.9234 22.25174,2.4582 18.98378,-4.6653 29.62429,-8.2896 40.74826,-13.8797 5.5,-2.7638 10.75484,-5.0286 11.67742,-5.0329 2.36391,-0.011 5.46999,4.2961 6.29852,8.7336 0.38598,2.0673 2.23679,6.8209 4.11292,10.5637 4.34945,8.6769 4.37835,11.1347 0.16114,13.706 -1.7875,1.0898 -4.3994,1.9832 -5.80422,1.9853 -3.26964,0.01 -10.71684,4.7191 -14.50519,9.1823 -1.61733,1.9055 -4.639,4.4882 -6.71483,5.7395 -2.07584,1.2512 -4.45989,3.6009 -5.2979,5.2214 -2.28826,4.425 -5.7813,5.3519 -10.87544,2.8859 -2.30112,-1.114 -4.6215,-2.0254 -5.15638,-2.0254 -0.53488,0 -2.66521,2.025 -4.73405,4.5 -4.71728,5.6434 -7.49916,5.8911 -11.22979,1 -1.46827,-1.925 -3.04318,-3.5 -3.49981,-3.5 -0.45662,0 -2.2151,2.9017 -3.90772,6.4483 -1.69263,3.5466 -5.30345,8.8839 -8.02406,11.8607 -4.09323,4.4786 -5.95448,5.6951 -10.78919,7.0516 -6.78047,1.9026 -11.90428,1.9621 -18.21142,0.2117 z m 17.74551,-9.4208 c 3.15604,-1.7106 9.25449,-11.1031 9.25449,-14.2533 0,-1.4457 0.89144,-3.7618 1.98098,-5.1469 2.11325,-2.6865 10.96982,-8.7513 12.77984,-8.7513 0.59715,0 2.52553,1.2115 4.28529,2.6923 3.08588,2.5965 3.24849,2.6253 4.57673,0.8088 0.75744,-1.0358 1.37716,-2.3244 1.37716,-2.8635 0,-1.6326 3.20268,-4.6376 4.94276,-4.6376 0.89803,0 3.19079,1.3317 5.09501,2.9594 1.90423,1.6276 3.91656,2.9776 4.47185,3 0.5553,0.022 3.42696,-2.2052 6.38148,-4.9501 2.95451,-2.7449 9.08119,-7.0126 13.61484,-9.4839 4.53365,-2.4713 8.97449,-5.6097 9.86853,-6.9742 2.04029,-3.1138 2.08037,-7.7709 0.0999,-11.6009 -1.69872,-3.2849 -3.27954,-3.6195 -7.29374,-1.5437 -3.11551,1.6111 -24.91723,8.5139 -39.68058,12.5636 -5.5,1.5087 -12.30757,4.0333 -15.12794,5.6102 -5.93771,3.3198 -7.72378,2.6888 -8.8123,-3.1135 -0.45982,-2.4511 -1.49781,-3.9006 -3.55495,-4.9644 -7.3835,-3.8182 -14.01294,-0.469 -22.03134,11.13 -6.15945,8.9099 -13.97352,25.2186 -13.97352,29.1641 0,9.1031 21.26038,16.0379 31.74551,10.3549 z m 146.65948,-5.2608 c -1.3487,-1.4934 -1.90499,-3.5991 -1.90499,-7.2107 l 0,-5.1013 -13,-3.2752 c -24.08229,-6.0672 -28.46612,-8.3181 -27.06598,-13.8966 0.80918,-3.2241 4.89688,-3.1948 15.01286,0.1073 14.28699,4.6638 38.58486,9.1966 43.15241,8.0502 3.99912,-1.0037 2.82995,-4.1042 -4.45396,-11.8114 -8.40326,-8.8916 -9.53909,-10.8322 -7.76217,-13.2623 2.51005,-3.4327 6.36805,-0.9469 20.33914,13.1052 12.08908,12.1592 13.36863,13.7811 13.08835,16.5896 -0.35347,3.5419 0.41652,3.0291 -14.75149,9.8245 -6.29246,2.8191 -12.66193,5.9951 -14.15437,7.0578 -3.51203,2.5008 -6.1306,2.4462 -8.4998,-0.1771 z m 142.09505,-78.8455 c -1.65,-1.0565 -13.125,-4.8804 -25.5,-8.4974 -37.19151,-10.8703 -44.05105,-12.5228 -49.15207,-11.8404 -6.98456,0.9343 -10.36548,-6.0089 -5.25065,-10.7831 4.27744,-3.9925 6.08315,-8.859 7.20734,-19.4243 1.23816,-11.6364 4.17768,-21.2575 7.25649,-23.7506 2.04443,-1.6555 2.07542,-1.892 0.5524,-4.2165 -3.54018,-5.4029 -0.90296,-8.4338 5.724,-6.5784 3.49608,0.9789 7.63751,0.8979 21.62939,-0.4226 9.5179,-0.8983 21.4066,-2.4571 26.4192,-3.464 14.5363,-2.92 18.9506,-3.2734 21.1156,-1.6903 1.8527,1.3548 1.8102,1.6917 -1.5483,12.2577 -3.3851,10.6496 -3.4516,11.1914 -3.3594,27.3647 0.1008,17.7005 1.6101,34.5294 3.8704,43.1554 1.2137,4.6324 1.2064,5.6444 -0.055,7.5946 -1.7765,2.7462 -4.9192,2.8504 -8.9094,0.2952 z m -1.9897,-13.0779 c 0.3549,-1.118 0.142,-6.8555 -0.473,-12.75 -1.6839,-16.1383 -1.7332,-39.4898 -0.1014,-48.0011 1.7575,-9.1671 1.3057,-9.7363 -6.5599,-8.2651 -7.3691,1.3784 -32.20507,4.047 -37.73285,4.0545 -2.27875,0 -5.87453,0.4863 -7.99062,1.0739 -3.71635,1.0319 -3.82527,1.1864 -3.19724,4.5341 0.47844,2.5503 -0.0495,5.2146 -1.99855,10.0865 -2.16497,5.4116 -2.64127,8.1896 -2.60785,15.2104 0.0592,12.4299 0.61283,18.9541 1.69873,20.0171 0.89938,0.8805 20.06537,6.8377 30.95238,9.6207 2.75,0.7029 9.275,2.3935 14.5,3.7568 11.92,3.1101 12.721,3.1493 13.5103,0.6622 z m -169.89977,12.4603 c -1.6469,-4.2918 4.26072,-10.0462 19.88943,-19.3735 16.84216,-10.0515 24.21635,-14.7861 24.99719,-16.0495 1.34862,-2.1822 -2.70468,-2.0283 -12.62419,0.4793 -12.027,3.0404 -15.15178,2.7704 -14.68606,-1.2688 0.54914,-4.7626 11.245,-8.5555 43.02549,-15.2572 8.96217,-1.8899 9.94707,-1.9268 12.75,-0.4773 5.54691,2.8684 4.15946,6.7051 -10.41367,28.7971 -15.22709,23.0834 -16.49063,24.5103 -20.56045,23.2186 -1.95646,-0.621 -5.98831,-5.0632 -5.98831,-6.5978 0,-0.4574 2.025,-3.1118 4.5,-5.8985 4.52148,-5.0909 5.66455,-8 3.1435,-8 -0.74608,0 -5.35858,2.3087 -10.25,5.1305 -11.73986,6.7724 -31.02991,16.8695 -32.22853,16.8695 -0.52304,0 -1.22252,-0.7076 -1.5544,-1.5724 z"
         id="path3487"
         inkscape:connector-curvature="0" />
      <path
         style="fill:#605c5b"
         d="m 945.16563,1811.6879 c -1.60907,-1.6091 -1.99852,-3.4284 -2.08264,-9.7292 -0.27479,-20.5826 0.74389,-33.7832 3.76196,-48.75 0.88727,-4.4 1.55761,-9.6291 1.48964,-11.6203 -0.0781,-2.2891 0.71969,-4.8631 2.16969,-7 1.93822,-2.8565 2.82652,-3.3454 5.73772,-3.1582 10.17826,0.6545 57.6724,0.051 65.119,-0.8275 7.3621,-0.8685 9.14,-0.7827 11.75,0.567 3.9319,2.0332 3.9957,4.8888 0.2514,11.245 -5.3531,9.0873 -7.6125,18.5731 -9.7168,40.794 l -0.6628,7 4.1018,3.6768 c 2.256,2.0223 4.1019,4.0991 4.1019,4.6152 0,1.8363 -3.9795,5.9568 -6.9353,7.1812 -2.2215,0.9202 -3.7993,0.9664 -6.0621,0.1776 -1.6825,-0.5865 -3.6088,-0.8722 -4.2808,-0.6347 -2.456,0.8677 -36.56908,5.3774 -48.72184,6.441 -6.875,0.6017 -13.74688,1.2981 -15.27083,1.5476 -1.87797,0.3075 -3.4086,-0.1841 -4.75,-1.5255 z m 43.08968,-11.9556 c 22.51459,-3.7869 23.72359,-4.0505 24.74429,-5.3941 0.4718,-0.6212 1.5958,-9.2295 2.4977,-19.1295 0.9018,-9.9 2.5545,-21.5738 3.6726,-25.9418 1.1181,-4.3681 1.6677,-8.307 1.2215,-8.7533 -0.4463,-0.4462 -13.0716,-0.824 -28.05639,-0.8396 -30.75257,-0.032 -31.62757,0.1369 -33.88171,6.5347 -4.97764,14.1276 -9.20931,52.4545 -6.19281,56.0892 1.81629,2.1885 12.0789,1.457 35.99482,-2.5656 z m -86.77246,-52.0821 c -4.90438,-0.8593 -13.69612,-3.5819 -29.79639,-9.2274 -7.65648,-2.6847 -9.278,-5.092 -5.92537,-8.7966 2.30881,-2.5512 4.84673,-2.4188 12.38943,0.646 6.31183,2.5647 8.95795,2.2816 7.76364,-0.8307 -0.29583,-0.7709 -5.86808,-6.3137 -12.38279,-12.3173 -12.34597,-11.3772 -25.2604,-25.0749 -28.57106,-30.3037 -2.11201,-3.3357 -1.70616,-6.5401 0.95782,-7.5623 1.20262,-0.4615 5.22736,2.885 14.71193,12.2327 18.63957,18.3707 27.52234,26.2178 29.67813,26.2178 2.35647,0 2.34512,-0.7217 -0.12173,-7.7403 -3.27892,-9.3291 -2.08637,-14.2597 3.44898,-14.2597 2.80437,0 3.90709,1.2898 5.55722,6.5 2.00694,6.3368 5.55403,12.828 13.03654,23.8568 7.97686,11.7575 8.61081,14.6848 4.11336,18.9936 -3.29668,3.1585 -7.46886,3.8859 -14.85971,2.5911 z m 1.36645,-11.5053 c 0.88078,-2.2952 -1.33336,-6.4362 -3.4414,-6.4362 -4.25723,0 -5.79401,5.4324 -1.97144,6.9688 3.34675,1.3453 4.74505,1.2077 5.41284,-0.5326 z m 117.3372,-46.175 c -5.9134,-2.6621 -30.50395,-7.0625 -48.73844,-8.7215 l -7.23839,-0.6585 -3.71335,3.6064 c -4.79059,4.6525 -8.10684,4.4977 -10.44377,-0.4876 -1.23871,-2.6425 -2.70333,-3.8732 -5.9781,-5.0233 -2.65625,-0.9328 -4.91577,-2.5536 -5.82954,-4.1816 -1.36367,-2.4296 -1.3261,-2.8419 0.43644,-4.7894 1.59091,-1.758 2.88953,-2.0866 7.41741,-1.8768 5.24357,0.2429 5.53997,0.1228 6.63277,-2.6873 0.62915,-1.6179 2.16163,-9.0166 3.4055,-16.4416 2.84697,-16.9944 4.39816,-22.7369 7.31033,-27.0628 l 2.31385,-3.4372 25.96263,-0.6355 c 22.14776,-0.5422 27.05476,-0.9463 33.39496,-2.75 8.929,-2.5403 16.2831,-2.7562 18.4962,-0.5431 2.9512,2.9512 2.0425,4.7861 -4.2035,8.4884 -3.9967,2.3689 -4.8913,4.5512 -7.322,17.8596 -2.1742,11.9041 -2.6135,36.3736 -0.7835,43.6412 0.8639,3.4306 0.8359,4.7881 -0.1224,5.9428 -1.576,1.899 -6.4808,1.791 -10.9971,-0.2422 z m 0.5028,-11.2658 c 0.3415,-0.5525 0.8433,-9.215 1.1151,-19.25 0.2719,-10.035 1.112,-21.3296 1.867,-25.0991 0.755,-3.7696 1.1656,-7.3935 0.9124,-8.0532 -0.3465,-0.9029 -6.3255,-1.0935 -24.1788,-0.7708 -13.0452,0.2358 -24.68012,0.7917 -25.85539,1.2354 -1.53748,0.5805 -2.88039,2.9996 -4.7877,8.6245 -3.13948,9.2589 -7.98783,34.3054 -6.8591,35.4342 0.43355,0.4335 8.43723,1.7177 17.78596,2.8537 9.34873,1.136 21.04773,2.9047 25.99773,3.9305 10.7726,2.2325 13.1832,2.421 14.0028,1.0948 z m -288.50284,-0.4231 c -9.00284,-2.4985 -19.06158,-9.0749 -21.39212,-13.9862 -1.83387,-3.8646 -0.91837,-8.765 3.53166,-18.904 6.57315,-14.9764 15.82387,-28.4699 23.16259,-33.786 5.28074,-3.8253 12.33648,-3.9936 18.19787,-0.434 10.10985,6.1397 8.1513,5.9234 22.25174,2.4582 18.98378,-4.6653 29.62429,-8.2896 40.74826,-13.8797 5.5,-2.7638 10.75484,-5.0286 11.67742,-5.0329 2.36391,-0.011 5.46999,4.2961 6.29852,8.7336 0.38598,2.0673 2.23679,6.8209 4.11292,10.5637 4.34945,8.6769 4.37835,11.1347 0.16114,13.706 -1.7875,1.0898 -4.3994,1.9832 -5.80422,1.9853 -3.26964,0.01 -10.71684,4.7191 -14.50519,9.1823 -1.61733,1.9055 -4.639,4.4882 -6.71483,5.7395 -2.07584,1.2512 -4.45989,3.6009 -5.2979,5.2214 -2.28826,4.425 -5.7813,5.3519 -10.87544,2.8859 -2.30112,-1.114 -4.6215,-2.0254 -5.15638,-2.0254 -0.53488,0 -2.66521,2.025 -4.73405,4.5 -4.71728,5.6434 -7.49916,5.8911 -11.22979,1 -1.46827,-1.925 -3.04318,-3.5 -3.49981,-3.5 -0.45662,0 -2.2151,2.9017 -3.90772,6.4483 -1.69263,3.5466 -5.30345,8.8839 -8.02406,11.8607 -4.09323,4.4786 -5.95448,5.6951 -10.78919,7.0516 -6.78047,1.9026 -11.90428,1.9621 -18.21142,0.2117 z m 17.74551,-9.4208 c 3.15604,-1.7106 9.25449,-11.1031 9.25449,-14.2533 0,-1.4457 0.89144,-3.7618 1.98098,-5.1469 2.11325,-2.6865 10.96982,-8.7513 12.77984,-8.7513 0.59715,0 2.52553,1.2115 4.28529,2.6923 3.08588,2.5965 3.24849,2.6253 4.57673,0.8088 0.75744,-1.0358 1.37716,-2.3244 1.37716,-2.8635 0,-1.6326 3.20268,-4.6376 4.94276,-4.6376 0.89803,0 3.19079,1.3317 5.09501,2.9594 1.90423,1.6276 3.91656,2.9776 4.47185,3 0.5553,0.022 3.42696,-2.2052 6.38148,-4.9501 2.95451,-2.7449 9.08119,-7.0126 13.61484,-9.4839 4.53365,-2.4713 8.97449,-5.6097 9.86853,-6.9742 2.04029,-3.1138 2.08037,-7.7709 0.0999,-11.6009 -1.69872,-3.2849 -3.27954,-3.6195 -7.29374,-1.5437 -3.11551,1.6111 -24.91723,8.5139 -39.68058,12.5636 -5.5,1.5087 -12.30757,4.0333 -15.12794,5.6102 -5.93771,3.3198 -7.72378,2.6888 -8.8123,-3.1135 -0.45982,-2.4511 -1.49781,-3.9006 -3.55495,-4.9644 -7.3835,-3.8182 -14.01294,-0.469 -22.03134,11.13 -6.15945,8.9099 -13.97352,25.2186 -13.97352,29.1641 0,9.1031 21.26038,16.0379 31.74551,10.3549 z m 147.70773,-6.2032 c -1.27849,-1.4127 -1.87177,-3.6376 -1.90499,-7.1442 l -0.0482,-5.0926 -14.5,-3.7782 c -22.84682,-5.9531 -27.30599,-8.0876 -25.69053,-12.2974 0.9012,-2.3485 4.3917,-2.0417 14.92857,1.3121 11.26574,3.5857 27.797,7.0274 37.28403,7.7623 5.83383,0.4519 7.26125,0.2557 8.43551,-1.1592 1.80955,-2.1804 0.7563,-3.986 -7.45758,-12.7847 -7.42014,-7.9485 -9.5203,-11.5178 -7.50858,-12.7611 0.83748,-0.5176 2.29051,-0.3911 3.62023,0.315 3.99502,2.1217 27.34658,25.6651 27.98707,28.217 0.71061,2.8313 -0.75937,5.0812 -3.93903,6.029 -4.35789,1.299 -20.07233,8.642 -23.5464,11.0027 -4.35598,2.96 -5.28307,3.0059 -7.66005,0.3793 z m 141.0468,-77.9031 c -1.65,-1.0565 -13.125,-4.8804 -25.5,-8.4974 -37.19151,-10.8703 -44.05105,-12.5228 -49.15207,-11.8404 -6.98456,0.9343 -10.36548,-6.0089 -5.25065,-10.7831 4.27744,-3.9925 6.08315,-8.859 7.20734,-19.4243 1.23816,-11.6364 4.17768,-21.2575 7.25649,-23.7506 2.04443,-1.6555 2.07542,-1.892 0.5524,-4.2165 -3.54018,-5.4029 -0.90296,-8.4338 5.724,-6.5784 3.49608,0.9789 7.63751,0.8979 21.62939,-0.4226 9.5179,-0.8983 21.4066,-2.4571 26.4192,-3.464 14.5363,-2.92 18.9506,-3.2734 21.1156,-1.6903 1.8527,1.3548 1.8102,1.6917 -1.5483,12.2577 -3.3851,10.6496 -3.4516,11.1914 -3.3594,27.3647 0.1008,17.7005 1.6101,34.5294 3.8704,43.1554 1.2137,4.6324 1.2064,5.6444 -0.055,7.5946 -1.7765,2.7462 -4.9192,2.8504 -8.9094,0.2952 z m -1.9897,-13.0779 c 0.3549,-1.118 0.142,-6.8555 -0.473,-12.75 -1.6839,-16.1383 -1.7332,-39.4898 -0.1014,-48.0011 1.7575,-9.1671 1.3057,-9.7363 -6.5599,-8.2651 -7.3691,1.3784 -32.20507,4.047 -37.73285,4.0545 -2.27875,0 -5.87453,0.4863 -7.99062,1.0739 -3.71635,1.0319 -3.82527,1.1864 -3.19724,4.5341 0.47844,2.5503 -0.0495,5.2146 -1.99855,10.0865 -2.16497,5.4116 -2.64127,8.1896 -2.60785,15.2104 0.0592,12.4299 0.61283,18.9541 1.69873,20.0171 0.89938,0.8805 20.06537,6.8377 30.95238,9.6207 2.75,0.7029 9.275,2.3935 14.5,3.7568 11.92,3.1101 12.721,3.1493 13.5103,0.6622 z m -168.51034,9.9008 c 0,-3.2565 5.94414,-8.1756 19.33196,-15.9986 15.56567,-9.0955 25.36216,-15.63 26.02607,-17.3601 0.90377,-2.3552 -1.64988,-3.5292 -5.41799,-2.4909 -16.29274,4.4895 -22.94004,5.0956 -22.94004,2.0916 0,-3.3673 12.15791,-7.4984 38.5,-13.0818 3.3,-0.6995 7.5008,-1.6413 9.33511,-2.0929 3.8809,-0.9556 7.92926,0.287 8.863,2.7203 1.07235,2.7945 -5.5719,14.2064 -24.73344,42.4812 -3.63737,5.3673 -5.38432,6.2146 -8.97974,4.3553 -2.27849,-1.1782 -2.98493,-2.2341 -2.98493,-4.4612 0,-1.6234 0.78073,-3.4972 1.76006,-4.2243 3.15863,-2.345 7.23994,-7.9165 7.23994,-9.8834 0,-3.0271 -2.40423,-2.3439 -13.32681,3.7869 -15.52493,8.7142 -30.03143,16.2189 -31.42319,16.2563 -0.6875,0.018 -1.25,-0.9259 -1.25,-2.0984 z"
         id="path3485"
         inkscape:connector-curvature="0" />
      <path
         style="fill:#fc0808"
         d="m 945.38532,1811.0405 c -3.11097,-5.9418 -1.83706,-38.816 2.25326,-58.1472 0.85134,-4.0234 1.55025,-8.9734 1.55314,-11 0.003,-2.0265 0.80549,-5.0022 1.78354,-6.6126 l 1.77827,-2.9281 26.96647,0.2428 c 15.02204,0.1352 31.9956,-0.2653 38.3206,-0.9042 12.4967,-1.2624 15.5795,-0.9094 17.1152,1.9601 0.8125,1.5183 0.2763,3.3432 -2.5679,8.7382 -5.2148,9.892 -6.1807,13.1076 -7.8456,26.1203 -2.6152,20.44 -2.3587,23.8961 1.9442,26.1989 4.1249,2.2076 4.2541,5.0012 0.3831,8.2788 -3.0382,2.5724 -3.8807,2.8009 -8.2632,2.2411 -4.4633,-0.5701 -8.7602,-0.1546 -26.11994,2.5252 -8.47766,1.3088 -32.83472,4.1417 -40.17102,4.6723 -5.24196,0.3791 -6.31542,0.1705 -7.13012,-1.3856 z m 32.46992,-8.8247 c 20.76917,-3.2211 32.87736,-5.6349 34.89376,-6.9561 1.8709,-1.2259 2.2362,-2.6529 2.7479,-10.7324 1.0598,-16.7353 2.6436,-29.1962 4.6143,-36.3032 1.1568,-4.1718 1.5792,-7.4082 1.0499,-8.0459 -0.5917,-0.713 -10.5086,-1.0507 -29.90097,-1.0182 -33.28388,0.056 -31.60853,-0.4089 -34.42171,9.5487 -5.30026,18.7608 -8.16629,52.6928 -4.65196,55.0761 1.70696,1.1576 12.23869,0.5139 25.66878,-1.569 z m -76.37239,-54.5656 c -4.90438,-0.8593 -13.69612,-3.5819 -29.79639,-9.2274 -7.65648,-2.6847 -9.278,-5.092 -5.92537,-8.7966 2.30881,-2.5512 4.84673,-2.4188 12.38943,0.646 6.31183,2.5647 8.95795,2.2816 7.76364,-0.8307 -0.29583,-0.7709 -5.86808,-6.3137 -12.38279,-12.3173 -12.34597,-11.3772 -25.2604,-25.0749 -28.57106,-30.3037 -2.35364,-3.7173 -1.60411,-7.1118 1.57036,-7.1118 1.41808,0 4.70701,2.5461 9.18261,7.1087 13.28321,13.5413 32.70864,30.8913 34.58665,30.8913 2.36524,0 2.35471,-0.7179 -0.11347,-7.7403 -3.27892,-9.3291 -2.08637,-14.2597 3.44898,-14.2597 2.80437,0 3.90709,1.2898 5.55722,6.5 2.00694,6.3368 5.55403,12.828 13.03654,23.8568 7.97686,11.7575 8.61081,14.6848 4.11336,18.9936 -3.29668,3.1585 -7.46886,3.8859 -14.85971,2.5911 z m 1.36645,-11.5053 c 0.88078,-2.2952 -1.33336,-6.4362 -3.4414,-6.4362 -4.25723,0 -5.79401,5.4324 -1.97144,6.9688 3.34675,1.3453 4.74505,1.2077 5.41284,-0.5326 z m 118.8372,-46.5807 c -8.5413,-3.4772 -37.46807,-8.5619 -51.25785,-9.0102 -7.17576,-0.2333 -7.30169,-0.1931 -11.13902,3.554 -3.35832,3.2793 -4.16401,3.6385 -5.98038,2.6664 -1.15455,-0.6179 -2.37364,-2.217 -2.7091,-3.5535 -0.77965,-3.1064 -2.61128,-4.6007 -6.65253,-5.4272 -2.03662,-0.4166 -3.78257,-1.6506 -4.73432,-3.3463 -1.35304,-2.4106 -1.34496,-2.8491 0.0788,-4.2729 1.76652,-1.7665 7.19456,-2.3398 10.64363,-1.1242 3.01558,1.0628 3.44851,-0.2336 7.32158,-21.9238 3.05356,-17.1007 5.42476,-24.9243 8.26978,-27.2855 0.90542,-0.7514 9.56479,-1.2508 25.76164,-1.4858 21.31887,-0.3092 25.46757,-0.6354 32.87467,-2.5853 10.9287,-2.8769 16.4044,-3.1084 18.7213,-0.7916 2.1475,2.1475 1.0776,4.3605 -3.2742,6.7726 -4.4442,2.4631 -6.2168,6.547 -8.4099,19.3755 -2.2857,13.3697 -2.6799,32.9332 -0.8476,42.0572 1.0615,5.2856 0.9993,5.9307 -0.6911,7.1668 -2.2663,1.6571 -1.8799,1.6952 -7.9754,-0.7862 z m -0.5352,-10.7898 c 0.5693,-1.0638 1.0458,-6.1263 1.0588,-11.25 0.013,-5.1236 0.5245,-14.7157 1.1365,-21.3157 0.612,-6.6 1.1639,-14.25 1.2263,-17 l 0.1136,-5 -4,0.2093 c -2.2,0.1152 -13.5465,0.3402 -25.21442,0.5 -17.2677,0.2366 -21.48527,0.5698 -22.67044,1.7907 -3.96618,4.0859 -12.55045,41.4281 -10.21787,44.4485 0.75451,0.977 5.83906,1.9338 16.10269,3.0302 8.25,0.8812 20.175,2.6567 26.50004,3.9454 14.5214,2.9588 14.7204,2.9668 15.9648,0.6416 z m -290.39004,-1.7167 c -5.28216,-1.6212 -13.35781,-6.4516 -17.8248,-10.6617 -3.81002,-3.5909 -3.57803,-7.7354 1.03113,-18.4212 8.74591,-20.2763 22.08899,-37.7396 29.38039,-38.4527 5.34349,-0.5226 10.52597,0.9626 16.1232,4.6208 l 5.21528,3.4084 6,-1.3021 c 18.6794,-4.0538 35.69372,-9.6055 47.93644,-15.6415 5.46505,-2.6945 10.6828,-4.899 11.59502,-4.899 2.43671,0 4.70404,2.9866 5.49235,7.2347 0.38116,2.0541 2.44424,7.2206 4.58461,11.4811 2.14037,4.2605 3.89158,8.2477 3.89158,8.8603 0,2.0988 -3.65355,4.4196 -8.33421,5.294 -5.61716,1.0494 -11.51086,4.7632 -15.34945,9.6721 -1.54899,1.9809 -4.45849,4.4553 -6.46557,5.4986 -2.00707,1.0434 -4.63174,3.4868 -5.83259,5.4298 -2.823,4.5677 -5.96135,5.3505 -10.56389,2.6349 -1.96273,-1.158 -4.16368,-2.1055 -4.89099,-2.1055 -0.72731,0 -2.98171,2.025 -5.00979,4.5 -4.57252,5.5802 -6.99428,5.7617 -11.13108,0.8345 -1.78279,-2.1235 -3.55716,-3.3693 -4.2175,-2.9611 -0.62696,0.3874 -2.50404,3.5627 -4.17129,7.0561 -4.47365,9.3737 -10.99836,16.1856 -17.29405,18.0552 -6.34952,1.8856 -13.74133,1.8359 -20.16479,-0.1357 z m 18.40772,-7.1005 c 4.60362,-2.3114 11.01748,-11.5398 11.01748,-15.8523 0,-2.6325 0.82044,-3.9254 4.25,-6.6971 4.50135,-3.6379 7.97617,-5.6991 9.60753,-5.6991 0.54396,0 2.36433,1.1572 4.04527,2.5717 3.53491,2.9744 4.5132,2.6352 6.87686,-2.3847 2.23702,-4.7509 4.31115,-5.0287 9.43155,-1.2631 2.30054,1.6919 4.48959,3.0761 4.86457,3.0761 0.37497,0 3.01319,-2.2236 5.8627,-4.9413 2.84952,-2.7178 9.04964,-7.1053 13.77805,-9.75 11.73832,-6.5657 14.18405,-10.8242 10.82862,-18.8549 -1.80868,-4.3288 -4.06478,-5.266 -7.68063,-3.1908 -2.85864,1.6406 -33.13184,11.237 -44.86452,14.2218 -3.575,0.9094 -8.09919,2.7474 -10.05375,4.0844 -5.55,3.7963 -8.94625,2.7538 -8.94625,-2.7462 0,-3.3977 -3.26299,-5.7803 -8.96343,-6.5449 -5.44793,-0.7307 -10.44888,2.6386 -16.49744,11.1149 -5.53869,7.7617 -14.48513,25.4994 -15.25541,30.2461 -0.5989,3.6906 0.7484,5.8178 6.10135,9.6331 6.82293,4.8631 19.01563,6.2807 25.59745,2.9763 z m 148.47072,-7.3002 c -1.28256,-1.4172 -1.87166,-3.6385 -1.90499,-7.1832 l -0.0482,-5.1316 -7.5,-1.8447 c -13.41002,-3.2982 -28.44794,-7.8835 -30.75,-9.3761 -1.2375,-0.8023 -2.25,-2.3399 -2.25,-3.4167 0,-3.4356 4.296,-3.4856 14.79471,-0.1724 11.75984,3.7112 28.20618,7.1492 37.72736,7.8867 5.83383,0.4519 7.26125,0.2557 8.43551,-1.1592 1.81465,-2.1865 0.68727,-4.133 -7.244,-12.5072 -6.4486,-6.8088 -8.62168,-10.5358 -7.05597,-12.1015 0.56726,-0.5673 1.9074,-0.6641 3.08334,-0.2229 3.3068,1.2409 27.16742,25.0672 27.85777,27.8178 0.71061,2.8313 -0.75937,5.0812 -3.93903,6.029 -4.35789,1.299 -20.07233,8.642 -23.5464,11.0027 -4.35598,2.9599 -5.28307,3.0059 -7.66005,0.3793 z m 141.2354,-78.8152 c -1.5463,-1.0195 -5.5963,-2.6582 -9,-3.6416 -3.4038,-0.9834 -11.9612,-3.5218 -19.0165,-5.6408 -22.43014,-6.7366 -39.49657,-10.8507 -45.01216,-10.8507 -5.20813,0 -6.85896,-0.8574 -9.02989,-4.6901 -0.37077,-0.6546 0.63546,-2.6817 2.23605,-4.5047 4.914,-5.5967 6.87565,-10.6677 7.54904,-19.5147 0.77909,-10.2358 3.96494,-20.8115 7.16178,-23.7742 2.82268,-2.616 3.007,-3.7868 0.87478,-5.5564 -0.85154,-0.7067 -1.41404,-2.2243 -1.25,-3.3724 0.28524,-1.9963 0.7786,-2.0725 11.29826,-1.7449 12.96232,0.4038 27.00014,-1.006 45.17004,-4.5363 14.2737,-2.7733 20.33,-2.6127 20.33,0.539 0,0.9651 -0.3946,2.1822 -0.8768,2.7047 -2.0754,2.2489 -5.3772,14.6735 -6.2037,23.3443 -1.2841,13.4726 1.1777,46.0227 4.2585,56.3055 1.9027,6.3509 -2.4783,8.8968 -8.4894,4.9333 z m -1.662,-11.703 c 0.6301,-1.6574 0.6399,-5.6525 0.028,-11.25 -2.1101,-19.2932 -2.3599,-38.2161 -0.6353,-48.1129 2.071,-11.8844 1.6813,-12.5013 -6.9397,-10.986 -3.2887,0.578 -15.7974,2.0867 -27.7971,3.3526 -21.39976,2.2574 -25.38647,3.2621 -22.88234,5.7662 1.80843,1.8084 1.44575,6.398 -0.86327,10.924 -2.7357,5.3624 -4.70558,20.8931 -3.09765,24.4222 0.63851,1.4013 1.16092,4.7574 1.16092,7.4579 l 0,4.91 9.75,2.9646 c 5.3625,1.6305 12.675,3.697 16.25004,4.5923 3.575,0.8953 8.075,2.1327 10,2.7499 4.154,1.3318 20.9499,5.5131 22.7747,5.6697 0.7011,0.06 1.7145,-1.0471 2.2519,-2.4605 z m -169.02664,9.438 c 0,-3.2565 5.94414,-8.1756 19.33196,-15.9986 15.56567,-9.0955 25.36216,-15.63 26.02607,-17.3601 0.90377,-2.3552 -1.64988,-3.5292 -5.41799,-2.4909 -16.29274,4.4895 -22.94004,5.0956 -22.94004,2.0916 0,-3.3673 12.15791,-7.4984 38.5,-13.0818 3.3,-0.6995 7.5008,-1.6413 9.33511,-2.0929 3.8809,-0.9556 7.92926,0.287 8.863,2.7203 1.07235,2.7945 -5.5719,14.2064 -24.73344,42.4812 -3.63737,5.3673 -5.38432,6.2146 -8.97974,4.3553 -2.27849,-1.1782 -2.98493,-2.2341 -2.98493,-4.4612 0,-1.6234 0.78073,-3.4972 1.76006,-4.2243 3.15863,-2.345 7.23994,-7.9165 7.23994,-9.8834 0,-3.0271 -2.40423,-2.3439 -13.32681,3.7869 -15.52493,8.7142 -30.03143,16.2189 -31.42319,16.2563 -0.6875,0.018 -1.25,-0.9259 -1.25,-2.0984 z"
         id="path3483"
         inkscape:connector-curvature="0" />
      <path
         style="fill:#2f2d2d"
         d="m 945.38532,1811.0405 c -3.11097,-5.9418 -1.83706,-38.816 2.25326,-58.1472 0.85134,-4.0234 1.55025,-8.9734 1.55314,-11 0.003,-2.0265 0.80549,-5.0022 1.78354,-6.6126 l 1.77827,-2.9281 26.96647,0.2428 c 15.02204,0.1352 31.9956,-0.2653 38.3206,-0.9042 12.4967,-1.2624 15.5795,-0.9094 17.1152,1.9601 0.8125,1.5183 0.2763,3.3432 -2.5679,8.7382 -5.2148,9.892 -6.1807,13.1076 -7.8456,26.1203 -2.6152,20.44 -2.3587,23.8961 1.9442,26.1989 4.1249,2.2076 4.2541,5.0012 0.3831,8.2788 -3.0382,2.5724 -3.8807,2.8009 -8.2632,2.2411 -4.4633,-0.5701 -8.7602,-0.1546 -26.11994,2.5252 -8.47766,1.3088 -32.83472,4.1417 -40.17102,4.6723 -5.24196,0.3791 -6.31542,0.1705 -7.13012,-1.3856 z m 32.46992,-8.8247 c 20.76917,-3.2211 32.87736,-5.6349 34.89376,-6.9561 1.8709,-1.2259 2.2362,-2.6529 2.7479,-10.7324 1.0598,-16.7353 2.6436,-29.1962 4.6143,-36.3032 1.1568,-4.1718 1.5792,-7.4082 1.0499,-8.0459 -0.5917,-0.713 -10.5086,-1.0507 -29.90097,-1.0182 -33.28388,0.056 -31.60853,-0.4089 -34.42171,9.5487 -5.30026,18.7608 -8.16629,52.6928 -4.65196,55.0761 1.70696,1.1576 12.23869,0.5139 25.66878,-1.569 z m 43.83126,-112.6516 c -8.5413,-3.4772 -37.46807,-8.5619 -51.25785,-9.0102 -7.17576,-0.2333 -7.30169,-0.1931 -11.13902,3.554 -3.35832,3.2793 -4.16401,3.6385 -5.98038,2.6664 -1.15455,-0.6179 -2.37364,-2.217 -2.7091,-3.5535 -0.77965,-3.1064 -2.61128,-4.6007 -6.65253,-5.4272 -2.03662,-0.4166 -3.78257,-1.6506 -4.73432,-3.3463 -1.35304,-2.4106 -1.34496,-2.8491 0.0788,-4.2729 1.76652,-1.7665 7.19456,-2.3398 10.64363,-1.1242 3.01558,1.0628 3.44851,-0.2336 7.32158,-21.9238 3.05356,-17.1007 5.42476,-24.9243 8.26978,-27.2855 0.90542,-0.7514 9.56479,-1.2508 25.76164,-1.4858 21.31887,-0.3092 25.46757,-0.6354 32.87467,-2.5853 10.9287,-2.8769 16.4044,-3.1084 18.7213,-0.7916 2.1475,2.1475 1.0776,4.3605 -3.2742,6.7726 -4.4442,2.4631 -6.2168,6.547 -8.4099,19.3755 -2.2857,13.3697 -2.6799,32.9332 -0.8476,42.0572 1.0615,5.2856 0.9993,5.9307 -0.6911,7.1668 -2.2663,1.6571 -1.8799,1.6952 -7.9754,-0.7862 z m -0.5352,-10.7898 c 0.5693,-1.0638 1.0458,-6.1263 1.0588,-11.25 0.013,-5.1236 0.5245,-14.7157 1.1365,-21.3157 0.612,-6.6 1.1639,-14.25 1.2263,-17 l 0.1136,-5 -4,0.2093 c -2.2,0.1152 -13.5465,0.3402 -25.21442,0.5 -17.2677,0.2366 -21.48527,0.5698 -22.67044,1.7907 -3.96618,4.0859 -12.55045,41.4281 -10.21787,44.4485 0.75451,0.977 5.83906,1.9338 16.10269,3.0302 8.25,0.8812 20.175,2.6567 26.50004,3.9454 14.5214,2.9588 14.7204,2.9668 15.9648,0.6416 z m -290.39004,-1.7167 c -5.28216,-1.6212 -13.35781,-6.4516 -17.8248,-10.6617 -3.81002,-3.5909 -3.57803,-7.7354 1.03113,-18.4212 8.74591,-20.2763 22.08899,-37.7396 29.38039,-38.4527 5.34349,-0.5226 10.52597,0.9626 16.1232,4.6208 l 5.21528,3.4084 6,-1.3021 c 18.6794,-4.0538 35.69372,-9.6055 47.93644,-15.6415 5.46505,-2.6945 10.6828,-4.899 11.59502,-4.899 2.43671,0 4.70404,2.9866 5.49235,7.2347 0.38116,2.0541 2.44424,7.2206 4.58461,11.4811 2.14037,4.2605 3.89158,8.2477 3.89158,8.8603 0,2.0988 -3.65355,4.4196 -8.33421,5.294 -5.61716,1.0494 -11.51086,4.7632 -15.34945,9.6721 -1.54899,1.9809 -4.45849,4.4553 -6.46557,5.4986 -2.00707,1.0434 -4.63174,3.4868 -5.83259,5.4298 -2.823,4.5677 -5.96135,5.3505 -10.56389,2.6349 -1.96273,-1.158 -4.16368,-2.1055 -4.89099,-2.1055 -0.72731,0 -2.98171,2.025 -5.00979,4.5 -4.57252,5.5802 -6.99428,5.7617 -11.13108,0.8345 -1.78279,-2.1235 -3.55716,-3.3693 -4.2175,-2.9611 -0.62696,0.3874 -2.50404,3.5627 -4.17129,7.0561 -4.47365,9.3737 -10.99836,16.1856 -17.29405,18.0552 -6.34952,1.8856 -13.74133,1.8359 -20.16479,-0.1357 z m 18.40772,-7.1005 c 4.60362,-2.3114 11.01748,-11.5398 11.01748,-15.8523 0,-2.6325 0.82044,-3.9254 4.25,-6.6971 4.50135,-3.6379 7.97617,-5.6991 9.60753,-5.6991 0.54396,0 2.36433,1.1572 4.04527,2.5717 3.53491,2.9744 4.5132,2.6352 6.87686,-2.3847 2.23702,-4.7509 4.31115,-5.0287 9.43155,-1.2631 2.30054,1.6919 4.48959,3.0761 4.86457,3.0761 0.37497,0 3.01319,-2.2236 5.8627,-4.9413 2.84952,-2.7178 9.04964,-7.1053 13.77805,-9.75 11.73832,-6.5657 14.18405,-10.8242 10.82862,-18.8549 -1.80868,-4.3288 -4.06478,-5.266 -7.68063,-3.1908 -2.85864,1.6406 -33.13184,11.237 -44.86452,14.2218 -3.575,0.9094 -8.09919,2.7474 -10.05375,4.0844 -5.55,3.7963 -8.94625,2.7538 -8.94625,-2.7462 0,-3.3977 -3.26299,-5.7803 -8.96343,-6.5449 -5.44793,-0.7307 -10.44888,2.6386 -16.49744,11.1149 -5.53869,7.7617 -14.48513,25.4994 -15.25541,30.2461 -0.5989,3.6906 0.7484,5.8178 6.10135,9.6331 6.82293,4.8631 19.01563,6.2807 25.59745,2.9763 z m 152.23565,-51.403 c 0.51903,-1.5571 2.75625,-1.8298 2.83465,-0.3455 0.0291,0.55 -0.69777,1.1555 -1.61517,1.3455 -1.04271,0.216 -1.49986,-0.1589 -1.21948,-1 z m 137.47047,-34.7124 c -1.5463,-1.0195 -5.5963,-2.6582 -9,-3.6416 -3.4038,-0.9834 -11.9612,-3.5218 -19.0165,-5.6408 -22.43014,-6.7366 -39.49657,-10.8507 -45.01216,-10.8507 -5.20813,0 -6.85896,-0.8574 -9.02989,-4.6901 -0.37077,-0.6546 0.63546,-2.6817 2.23605,-4.5047 4.914,-5.5967 6.87565,-10.6677 7.54904,-19.5147 0.77909,-10.2358 3.96494,-20.8115 7.16178,-23.7742 2.82268,-2.616 3.007,-3.7868 0.87478,-5.5564 -0.85154,-0.7067 -1.41404,-2.2243 -1.25,-3.3724 0.28524,-1.9963 0.7786,-2.0725 11.29826,-1.7449 12.96232,0.4038 27.00014,-1.006 45.17004,-4.5363 14.2737,-2.7733 20.33,-2.6127 20.33,0.539 0,0.9651 -0.3946,2.1822 -0.8768,2.7047 -2.0754,2.2489 -5.3772,14.6735 -6.2037,23.3443 -1.2841,13.4726 1.1777,46.0227 4.2585,56.3055 1.9027,6.3509 -2.4783,8.8968 -8.4894,4.9333 z m -1.662,-11.703 c 0.6301,-1.6574 0.6399,-5.6525 0.028,-11.25 -2.1101,-19.2932 -2.3599,-38.2161 -0.6353,-48.1129 2.071,-11.8844 1.6813,-12.5013 -6.9397,-10.986 -3.2887,0.578 -15.7974,2.0867 -27.7971,3.3526 -21.39976,2.2574 -25.38647,3.2621 -22.88234,5.7662 1.80843,1.8084 1.44575,6.398 -0.86327,10.924 -2.7357,5.3624 -4.70558,20.8931 -3.09765,24.4222 0.63851,1.4013 1.16092,4.7574 1.16092,7.4579 l 0,4.91 9.75,2.9646 c 5.3625,1.6305 12.675,3.697 16.25004,4.5923 3.575,0.8953 8.075,2.1327 10,2.7499 4.154,1.3318 20.9499,5.5131 22.7747,5.6697 0.7011,0.06 1.7145,-1.0471 2.2519,-2.4605 z"
         id="path3481"
         inkscape:connector-curvature="0" />
      <path
         style="fill:#050404"
         d="m 946.51112,1812.0507 c 0.36189,-0.3619 0.24523,-1.1553 -0.25924,-1.7632 -0.50448,-0.6078 -1.21795,-6.4992 -1.58548,-13.092 -0.68772,-12.336 0.88368,-29.7503 4.05941,-44.9868 0.80246,-3.85 1.47369,-8.8 1.49164,-11 0.0179,-2.2 0.70014,-4.8829 1.516,-5.9619 1.41567,-1.8723 2.63538,-1.9486 26.7182,-1.6712 13.94244,0.1606 30.97175,-0.2327 38.05495,-0.8789 19.676,-1.7951 20.8402,-0.9392 14.6652,10.7813 -2.2063,4.1877 -4.4416,9.2153 -4.9672,11.1724 -1.6042,5.9725 -4.0181,25.0306 -4.0181,31.7232 0,6.1163 0.1106,6.3884 3.4876,8.5759 4.3011,2.7861 4.4298,4.9697 0.4596,7.7967 -2.4681,1.7575 -3.872,2.0509 -7.331,1.5322 -2.63,-0.3944 -10.9893,0.3195 -21.69726,1.853 -9.58044,1.3721 -23.1383,3.0356 -30.12858,3.6968 -6.99029,0.6612 -12.47623,1.5798 -12.19099,2.0413 0.28524,0.4616 -1.60793,0.8392 -4.20706,0.8392 -2.59913,0 -4.42959,-0.2961 -4.06769,-0.658 z m 30.67534,-8.9047 c 30.74424,-4.8194 33.99264,-5.4662 36.92054,-7.3515 0.9733,-0.6267 1.6561,-4.0112 2.1688,-10.7502 1.3531,-17.7881 2.9542,-30.7546 4.444,-35.9895 1.9716,-6.9282 1.8866,-10.113 -0.2833,-10.6208 -0.9625,-0.2253 -14.4142,-0.3681 -29.89264,-0.3174 -31.95859,0.1046 -30.97036,-0.1428 -33.79683,8.4597 -4.07854,12.4132 -8.35584,44.3435 -7.07992,52.8519 0.3554,2.37 1.38428,4.6982 2.3281,5.2681 1.89422,1.1439 11.95389,0.5248 25.19125,-1.5503 z m 44.55934,-114.55 c -8.9068,-3.6121 -39.21094,-8.8264 -51.51718,-8.8643 -7.20079,-0.022 -7.5826,0.099 -11.07772,3.5117 -4.30009,4.1989 -6.10837,3.8723 -8.21217,-1.4834 -1.31798,-3.3553 -2.02231,-3.9211 -5.64216,-4.5327 -4.23811,-0.716 -6.7633,-3.374 -5.73967,-6.0416 0.74059,-1.9299 6.96483,-2.9031 9.58819,-1.4991 4.28438,2.2929 4.99222,0.3968 9.55035,-25.5823 2.36543,-13.4818 5.25152,-22.5115 7.6736,-24.0084 0.6191,-0.3827 11.29378,-0.7388 23.72153,-0.7915 21.24813,-0.09 23.35363,-0.2705 35.30023,-3.027 10.6069,-2.4474 13.1363,-2.7345 15.3212,-1.739 3.5359,1.611 2.8502,4.2422 -1.659,6.3654 -2.5528,1.2021 -4.0674,2.8496 -5.1831,5.6381 -4.0808,10.1988 -6.3905,36.2047 -4.6803,52.6973 0.8008,7.7222 0.7488,10.0093 -0.2415,10.638 -1.6212,1.0291 -1.4148,1.0659 -7.2023,-1.2812 z m -0.2001,-9.1373 c 1.0058,-1.6104 1.5693,-7.3671 1.9822,-20.25 0.3173,-9.9 1.1409,-21.2857 1.8301,-25.3015 1.5203,-8.8576 0.7207,-10.8075 -4.2953,-10.474 -1.8569,0.1235 -13.1762,0.3735 -25.15399,0.5555 -20.01291,0.3042 -21.93014,0.4886 -23.65824,2.2755 -4.36873,4.5174 -12.84774,41.3873 -10.40927,45.2634 0.8185,1.3011 3.97233,1.9871 13.95142,3.0349 7.09161,0.7447 19.41884,2.6074 27.39388,4.1394 18.0915,3.4754 16.6971,3.4179 18.3592,0.7568 z m -291.01569,-3.2583 c -5.26176,-1.6591 -14.38989,-7.4639 -17.04504,-10.8393 -1.11815,-1.4215 -2.31774,-2.2998 -2.66576,-1.9518 -0.34801,0.348 -0.63275,-1.0438 -0.63275,-3.093 0,-2.0491 0.40066,-3.478 0.89035,-3.1754 0.48969,0.3027 1.17082,-0.9447 1.51362,-2.772 0.91916,-4.8996 7.98066,-18.9938 14.21765,-28.3774 6.18974,-9.3125 12.25081,-14.805 17.37838,-15.7481 4.29445,-0.7899 10.96867,1.4197 15.30204,5.066 2.78064,2.3398 3.6868,2.5584 8.33663,2.012 6.54972,-0.7698 28.74877,-6.6456 37.36133,-9.889 3.575,-1.3463 10.20251,-4.3099 14.7278,-6.5858 11.34811,-5.7072 13.27961,-5.4631 14.73814,1.8621 0.38328,1.925 2.53527,7.2683 4.7822,11.8739 4.66269,9.5574 4.4307,11.1224 -1.8461,12.4537 -6.45428,1.369 -12.28531,4.7487 -16.73885,9.7021 -2.31738,2.5775 -5.66982,5.4395 -7.44986,6.36 -1.78005,0.9205 -4.24375,3.2434 -5.47489,5.1621 -2.92129,4.5527 -5.74925,5.2294 -10.39599,2.4877 -4.59959,-2.7138 -7.18894,-2.0983 -10.07108,2.3937 -1.22575,1.9105 -3.14126,3.962 -4.25669,4.559 -2.04694,1.0954 -3.20165,0.2969 -7.80411,-5.397 -2.47903,-3.0669 -3.88759,-1.9197 -7.97727,6.4969 -4.45731,9.1732 -10.1286,15.3435 -15.91464,17.315 -5.5257,1.8828 -15.14905,1.9216 -20.97511,0.085 z m 20.4979,-6.2041 c 4.41684,-3.2669 10.15855,-12.2392 10.15855,-15.8744 0,-2.5607 0.79088,-3.865 3.75,-6.1845 4.14377,-3.248 7.59388,-5.2287 9.10753,-5.2287 0.54396,0 2.32937,1.1278 3.96757,2.5063 3.69495,3.1091 5.47744,2.4969 7.46533,-2.5637 1.8872,-4.8044 3.75053,-4.9909 9.13771,-0.9148 2.16048,1.6347 4.29925,2.9722 4.75283,2.9722 0.45357,0 3.18591,-2.2587 6.07186,-5.0193 2.88594,-2.7606 9.07217,-7.1947 13.74717,-9.8534 12.34277,-7.0195 14.85346,-11.4546 11.38777,-20.1162 -1.87627,-4.6893 -5.11942,-6.0722 -8.71507,-3.7162 -2.58029,1.6907 -23.1026,8.3101 -40.6727,13.1189 -6.325,1.7311 -12.9071,4.1898 -14.62688,5.4639 -4.21112,3.1196 -6.73918,2.5068 -7.37312,-1.7871 -0.63372,-4.2925 -4.35784,-7.1512 -10.16948,-7.8062 -3.84632,-0.4336 -4.94993,-0.075 -8.79869,2.8608 -9.89955,7.5507 -24.82195,35.2707 -23.29292,43.2693 0.58197,3.0444 9.13106,9.262 14.73071,10.7134 5.36247,1.3899 16.42552,0.3389 19.37183,-1.8403 z m 288.59969,-86.7506 c -1.987,-1.4976 -3.987,-2.1605 -29.9411,-9.9242 -23.70614,-7.0913 -38.29045,-10.6128 -43.95302,-10.6128 -3.98808,0 -5.67396,-0.4828 -7.06908,-2.0244 -1.78088,-1.9678 -1.77098,-2.1005 0.35433,-4.75 6.23913,-7.7779 7.33372,-10.3368 8.169,-19.0972 1.57389,-16.5067 5.46316,-26.7543 9.83968,-25.926 2.49007,0.4713 2.61198,5.9895 0.23524,10.6483 -2.78967,5.4682 -4.75659,22.0095 -3.00608,25.2803 0.69562,1.2998 1.16841,4.475 1.05064,7.0559 -0.16597,3.6373 0.18997,4.9079 1.58256,5.6491 0.98818,0.526 8.54669,2.8184 16.79669,5.0942 8.25004,2.2758 17.25004,4.8042 20.00004,5.6186 2.75,0.8143 8.802,2.3809 13.4489,3.4813 12.4924,2.958 12.3917,3.2028 10.0821,-24.5301 -1.3947,-16.7465 -1.2696,-27.6289 0.4284,-37.2774 2.163,-12.2905 1.5629,-12.9212 -10.2276,-10.7499 -4.2525,0.7831 -17.3206,2.3804 -29.04023,3.5496 -22.33683,2.2283 -24.19161,2.0735 -24.19161,-2.0192 0,-1.5784 0.89753,-1.7008 9.05825,-1.2355 11.08913,0.6322 29.46439,-1.1331 45.32239,-4.3543 13.787,-2.8006 18.4455,-3.03 19.2444,-0.948 0.3093,0.8059 -0.6484,5.1008 -2.1282,9.5441 -2.8901,8.6783 -4.6865,23.7055 -3.9438,32.9906 1.8071,22.5901 2.7708,31.3712 4.0855,37.225 0.8307,3.6987 1.2253,7.1862 0.8769,7.75 -0.9238,1.4948 -4.8308,1.2529 -7.0743,-0.438 z"
         id="path3479"
         inkscape:connector-curvature="0" />
    </g>
  </g>
</svg>
