<?xml version="1.0" encoding="UTF-8" standalone="no"?>
<!-- Created with Inkscape (http://www.inkscape.org/) -->

<svg
   xmlns:dc="http://purl.org/dc/elements/1.1/"
   xmlns:cc="http://creativecommons.org/ns#"
   xmlns:rdf="http://www.w3.org/1999/02/22-rdf-syntax-ns#"
   xmlns:svg="http://www.w3.org/2000/svg"
   xmlns="http://www.w3.org/2000/svg"
   xmlns:sodipodi="http://sodipodi.sourceforge.net/DTD/sodipodi-0.dtd"
   xmlns:inkscape="http://www.inkscape.org/namespaces/inkscape"
   width="239.2995"
   height="170.93695"
   id="svg2"
   version="1.1"
   inkscape:version="0.48.5 r10040">
  <defs
     id="defs4" />
  <sodipodi:namedview
     id="base"
     pagecolor="#ffffff"
     bordercolor="#666666"
     borderopacity="1.0"
     inkscape:pageopacity="0.0"
     inkscape:pageshadow="2"
     inkscape:zoom="3.1428571"
     inkscape:cx="114.48684"
     inkscape:cy="85.500017"
     inkscape:document-units="px"
     inkscape:current-layer="layer1"
     showgrid="false"
     inkscape:window-width="1366"
     inkscape:window-height="718"
     inkscape:window-x="0"
     inkscape:window-y="0"
     inkscape:window-maximized="1"
     fit-margin-top="0"
     fit-margin-left="0"
     fit-margin-right="0"
     fit-margin-bottom="0" />
  <metadata
     id="metadata7">
    <rdf:RDF>
      <cc:Work
         rdf:about="">
        <dc:format>image/svg+xml</dc:format>
        <dc:type
           rdf:resource="http://purl.org/dc/dcmitype/StillImage" />
        <dc:title></dc:title>
      </cc:Work>
    </rdf:RDF>
  </metadata>
  <g
     inkscape:label="Layer 1"
     inkscape:groupmode="layer"
     id="layer1"
     transform="translate(-702.80209,-1446.9252)">
    <path
       style="fill:#000000"
       d="m 904.02379,1617.1955 c -1.41523,-1.4152 -0.55868,-3.1436 1.85854,-3.7503 2.57904,-0.6473 10.47479,-7.1547 10.47479,-8.6329 0,-0.4495 1.33167,-2.9846 2.95927,-5.6336 6.73416,-10.9604 12.9209,-31.5459 14.52095,-48.3165 1.49729,-15.6936 0.0285,-33.108 -4.428,-52.5 -3.44918,-15.0087 -8.72729,-27.1151 -14.74454,-33.8195 -1.88541,-2.1007 -3.25366,-4.3507 -3.04055,-5 0.21311,-0.6493 2.03669,-1.32 4.0524,-1.4904 2.95573,-0.2499 4.17065,0.2338 6.27828,2.5 3.73176,4.0124 7.68464,12.2729 11.89521,24.8578 3.84403,11.4894 4.55101,14.384 7.07137,28.9521 1.90048,10.9852 1.42552,38.3451 -0.85063,49 -0.82246,3.85 -1.82623,8.575 -2.2306,10.5 -3.1445,14.9694 -12.67115,33.5967 -20.84092,40.75 -2.95455,2.5869 -4.58881,3.25 -8.01037,3.25 -2.36419,0 -4.59854,-0.3 -4.9652,-0.6667 z m -127.66667,-10.2977 c -1.25415,-0.8042 -1.54034,-4.9424 -1.7461,-25.2487 -0.2818,-27.8108 0.0825,-26.747 -9.19503,-26.8465 -3.05738,-0.033 -7.6774,-0.4086 -10.26672,-0.8351 -2.58932,-0.4265 -5.15554,-0.4987 -5.70272,-0.1606 -0.54718,0.3382 -1.47124,7.3223 -2.05347,15.5203 -1.15011,16.1938 -2.45799,22.8987 -4.34192,22.2588 -1.32365,-0.4495 -1.338,-2.3269 -0.17832,-23.3238 0.85586,-15.4959 1.099,-14.739 -5.51572,-17.1702 -4.77286,-1.7543 -23.27057,-5.1806 -24.35387,-4.5111 -1.49055,0.9212 0.0394,8.0667 2.3545,10.9967 l 2.20023,2.7846 -3.16575,0.3182 c -3.90893,0.393 -5.55181,-0.9163 -8.47677,-6.7554 -3.2653,-6.5185 -4.00618,-11.4721 -2.01378,-13.4645 1.99305,-1.9931 8.65709,-2.0862 16.31109,-0.228 14.94484,3.6283 22.25711,4.9127 23.05653,4.05 0.46909,-0.5061 1.16318,-6.2066 1.54243,-12.6676 l 0.68954,-11.7474 -2.82207,-1.1172 c -1.55214,-0.6145 -8.10678,-1.3524 -14.56586,-1.6397 l -11.74378,-0.5224 -1.46896,3.5157 c -1.71312,4.1001 -3.82179,5.2072 -6.86592,3.605 -2.75792,-1.4516 -3.643,-2.7866 -3.66225,-5.5241 -0.0118,-1.6723 1.3066,-2.8027 5.68311,-4.8731 5.54212,-2.6219 6.10912,-2.6856 20.67311,-2.3227 l 14.97469,0.3732 0.68692,-2.55 c 0.3778,-1.4025 0.96057,-7.0275 1.29503,-12.5 0.33446,-5.4725 1.26461,-15.125 2.067,-21.45 0.80239,-6.325 1.75712,-14.2799 2.12163,-17.6775 0.41022,-3.8237 1.18786,-6.3789 2.04094,-6.7063 2.22253,-0.8528 2.44243,0.6213 1.41619,9.4934 -0.5338,4.6147 -1.22674,11.6768 -1.53988,15.6935 -0.31314,4.0168 -0.7183,8.0766 -0.90036,9.0219 -0.18205,0.9454 -0.65879,7.2108 -1.05943,13.9233 l -0.72842,12.2046 2.69218,1.0235 c 4.0041,1.5224 23.51425,1.3388 24.06298,-0.2264 0.38458,-1.097 1.15557,-9.9616 4.10951,-47.25 0.39213,-4.95 0.61244,-10.1787 0.48957,-11.6193 -0.27208,-3.1901 2.54738,-4.6618 4.7367,-2.4725 1.26066,1.2607 1.31167,2.7206 0.34192,9.7868 -0.62687,4.5677 -1.66547,17.6564 -2.30799,29.086 -1.42621,25.3704 -2.22697,23.9182 12.62929,22.9026 5.5,-0.376 13.36722,-0.6836 17.4827,-0.6836 6.49316,0 7.53046,0.2455 7.84378,1.8562 0.1986,1.0209 -0.0347,2.252 -0.51842,2.7357 -0.48372,0.4838 -8.96342,1.3945 -18.84378,2.0238 -9.88035,0.6294 -18.47255,1.5459 -19.09377,2.0367 -2.39481,1.8922 -4.30728,22.2287 -2.42172,25.7519 1.56774,2.9294 8.16548,2.7782 17.64595,-0.4043 4.09605,-1.375 8.28279,-2.5 9.30387,-2.5 2.29337,0 4.50429,2.5077 3.80882,4.32 -0.78661,2.0499 -12.28379,5.5482 -22.79937,6.9372 l -9.40806,1.2428 -0.52009,5.8507 c -0.46725,5.2562 -0.18966,10.8453 1.62505,32.7201 0.87954,10.6021 -1.3277,15.7076 -5.60496,12.9648 z m -2.13262,-58.9325 c 1.49132,-0.9447 1.6159,-1.7466 2.61224,-16.8146 l 0.67521,-10.2115 -2.82741,-0.7311 c -1.55508,-0.4021 -7.5155,-0.7569 -13.24538,-0.7885 l -10.41797,-0.057 -0.82119,3 c -0.45166,1.65 -1.10607,7.05 -1.45426,12 -0.56396,8.0175 -0.428,9.1839 1.24553,10.6845 2.7224,2.4411 21.43032,4.6943 24.23323,2.9186 z m 84.63223,47.511 c -4.14049,-1.8045 -5.16849,-3.2903 -7.96448,-11.5108 -3.67425,-10.8028 -4.89166,-21.5148 -4.26485,-37.5267 0.57049,-14.5729 2.83117,-25.3815 9.32354,-44.5766 3.68996,-10.9096 3.40606,-10.2522 11.22779,-26 12.28491,-24.7337 18.94775,-32.5976 23.23848,-27.4276 1.22711,1.4786 0.95503,2.0378 -2.33564,4.8006 -2.04849,1.7198 -3.72452,3.5284 -3.72449,4.0189 2e-5,0.4906 -1.72051,3.6406 -3.82342,7 -3.51398,5.6137 -12.17654,22.7303 -12.17654,24.06 0,0.3134 -0.86238,2.4775 -1.9164,4.809 -3.90977,8.6484 -9.55342,27.5366 -11.12679,37.2391 -2.33539,14.4017 -0.33636,39.5069 4.02112,50.5 2.71052,6.8381 4.29589,8.6277 8.89299,10.0383 7.05743,2.1656 6.82763,1.9483 4.2683,4.036 -2.76507,2.2555 -9.12537,2.5072 -13.63961,0.5398 z"
       id="path3279"
       inkscape:connector-curvature="0" />
  </g>
</svg>
