<?xml version="1.0" encoding="UTF-8" standalone="no"?>
<!-- Created with Inkscape (http://www.inkscape.org/) -->

<svg
   xmlns:dc="http://purl.org/dc/elements/1.1/"
   xmlns:cc="http://creativecommons.org/ns#"
   xmlns:rdf="http://www.w3.org/1999/02/22-rdf-syntax-ns#"
   xmlns:svg="http://www.w3.org/2000/svg"
   xmlns="http://www.w3.org/2000/svg"
   xmlns:sodipodi="http://sodipodi.sourceforge.net/DTD/sodipodi-0.dtd"
   xmlns:inkscape="http://www.inkscape.org/namespaces/inkscape"
   width="155.83244"
   height="191.3931"
   id="svg2"
   version="1.1"
   inkscape:version="0.48.5 r10040">
  <defs
     id="defs4" />
  <sodipodi:namedview
     id="base"
     pagecolor="#ffffff"
     bordercolor="#666666"
     borderopacity="1.0"
     inkscape:pageopacity="0.0"
     inkscape:pageshadow="2"
     inkscape:zoom="1.7080745"
     inkscape:cx="213.78649"
     inkscape:cy="97.781572"
     inkscape:document-units="px"
     inkscape:current-layer="layer1"
     showgrid="false"
     inkscape:window-width="1366"
     inkscape:window-height="718"
     inkscape:window-x="0"
     inkscape:window-y="0"
     inkscape:window-maximized="1"
     fit-margin-top="0"
     fit-margin-left="0"
     fit-margin-right="0"
     fit-margin-bottom="0" />
  <metadata
     id="metadata7">
    <rdf:RDF>
      <cc:Work
         rdf:about="">
        <dc:format>image/svg+xml</dc:format>
        <dc:type
           rdf:resource="http://purl.org/dc/dcmitype/StillImage" />
        <dc:title></dc:title>
      </cc:Work>
    </rdf:RDF>
  </metadata>
  <g
     inkscape:label="Layer 1"
     inkscape:groupmode="layer"
     id="layer1"
     transform="translate(-666.39997,-1559.0972)">
    <g
       id="g3615"
       transform="translate(-139.92364,-55.032727)">
      <path
         style="fill:#d1cfcf"
         d="m 842.32361,1804.5929 c -13.41216,-1.3042 -19.79697,-3.2399 -27.9557,-8.4754 -4.18231,-2.6837 -5.13972,-3.9236 -6.58971,-8.5335 -0.99894,-3.1758 -1.44116,-6.6478 -1.07553,-8.4442 0.34152,-1.6779 0.89844,-4.4104 1.23761,-6.0723 2.50141,-12.2566 36.89555,-32.3312 59.15081,-34.5241 21.78196,-2.1464 38.31498,15.7005 37.04042,39.9841 -0.40251,7.6687 -0.7745,8.9378 -4.07877,13.9144 -5.29383,7.973 -12.62962,11.3686 -26.22913,12.1407 -5.5,0.3122 -12.025,0.7158 -14.5,0.8968 -2.475,0.181 -10.125,-0.2179 -17,-0.8865 z m 9.90541,-11.2538 c -0.73671,-0.9625 -1.40866,-1.8793 -1.49322,-2.0374 -0.0846,-0.1581 -1.32278,0.2452 -2.75161,0.8962 -3.395,1.5469 -2.45534,2.8912 2.02088,2.8912 3.23735,0 3.44086,-0.1601 2.22395,-1.75 z m 20.52316,0.1786 c 1.65314,-1.6532 2.0918,-3.4599 0.82143,-3.3834 -0.4125,0.025 -2.775,1.1295 -5.25,2.4548 l -4.5,2.4096 3.67857,0.045 c 2.06488,0.025 4.36792,-0.6441 5.25,-1.5262 z m -39.1985,-4.0054 c -0.32489,-1.6995 0.27438,-3.6142 1.76016,-5.6238 1.23901,-1.6759 1.86058,-2.8788 1.38126,-2.6732 -2.11434,0.9069 -11.3373,7.4386 -11.35352,8.0405 -0.0211,0.7821 4.7642,2.6402 7.09336,2.7543 1.20391,0.059 1.48678,-0.5725 1.11874,-2.4978 z m 57.63122,-17.4095 c 3.81364,-0.038 -3.07587,-15.7765 -8.28389,-18.9235 -4.72949,-2.8579 -13.21968,-3.4968 -20.70205,-1.5579 -8.08396,2.0948 -8.19306,2.176 -6.38607,4.7559 0.83089,1.1862 1.51072,3.1817 1.51072,4.4343 0,2.8531 0.27804,2.8402 4.78519,-0.2225 5.75956,-3.9137 12.21481,-2.6609 12.21481,2.3706 0,1.3899 0.69316,1.6469 3.54461,1.314 4.44446,-0.5189 7.45539,1.9394 7.45539,6.087 0,2.5833 0.28741,2.8846 2.25,2.3587 1.2375,-0.3317 2.86258,-0.6091 3.61129,-0.6166 z m -49.67773,-12.7349 c 0.93207,-1.123 0.1,-0.954 -2.94195,0.5979 -2.33289,1.1902 -4.24161,2.3564 -4.24161,2.5916 0,0.929 5.96265,-1.7184 7.18356,-3.1895 z m 15.81644,-37.9624 c -1.375,-0.2186 -5.65,-1.1165 -9.5,-1.9952 -3.85,-0.8787 -9.27417,-1.5322 -12.05372,-1.4522 -5.71295,0.1643 -9.47657,-2.2997 -9.40562,-6.158 0.0224,-1.216 3.41818,-12.111 7.54626,-24.211 4.12809,-12.1 7.59729,-22.8846 7.70935,-23.9658 0.24993,-2.4116 -3.29544,-4.2982 -9.73621,-5.181 -3.94729,-0.5411 -4.94751,-0.3144 -6.6425,1.5049 -2.59121,2.7813 -4.04344,2.7013 -6.94074,-0.3828 -3.11734,-3.3182 -2.95259,-6.9787 0.84038,-18.6711 1.66002,-5.1173 3.28715,-10.9197 3.61582,-12.8943 0.32868,-1.9745 1.66543,-4.5932 2.97057,-5.8193 2.04277,-1.9191 3.32776,-2.197 9.23469,-1.9971 3.77394,0.1278 10.46172,-0.2984 14.86172,-0.947 5.76454,-0.8498 20.64676,-0.9994 53.25882,-0.5354 l 45.25882,0.644 2.67704,-2.6771 c 1.95622,-1.9562 3.49821,-2.5964 5.7268,-2.3775 2.86142,0.281 3.13849,0.6851 4.48655,6.5431 1.07416,4.6678 1.16093,6.8131 0.3438,8.5 -0.60114,1.241 -1.34868,4.42 -1.66121,7.0643 -0.85017,7.1934 -4.22495,17.3323 -8.38535,25.1921 l -3.70527,7 -14.5,-0.2836 c -7.975,-0.156 -17.05095,-0.5334 -20.16879,-0.8388 -5.31141,-0.5201 -5.77815,-0.3882 -7.40347,2.0923 -1.04845,1.6002 -2.00968,5.7752 -2.42984,10.5539 -0.74851,8.5133 -1.9984,11.0443 -5.28265,10.697 -1.71501,-0.1813 -2.40157,0.7624 -3.84069,5.2792 -1.94465,6.1035 -2.42091,14.5443 -0.87456,15.5 1.74445,1.0781 1.08299,6.1149 -1.05743,8.052 -1.79895,1.628 -3.96605,1.8808 -17.25,2.0119 -8.35591,0.083 -16.31757,-0.029 -17.69257,-0.2475 z m 22.15632,-12.5664 c 0.84621,-0.6875 2.1038,-3.95 2.79464,-7.25 0.69083,-3.3 2.72086,-10.05 4.51117,-15 1.7903,-4.95 4.50545,-12.9639 6.03365,-17.8086 4.18441,-13.2655 4.22136,-13.2936 16.66918,-12.6914 18.2195,0.8814 29.79293,0.4796 31.26494,-1.0855 1.98079,-2.106 6.30301,-13.7462 7.0877,-19.0879 l 0.68652,-4.6734 -4.35206,-0.5401 c -2.39363,-0.297 -18.07706,-0.7775 -34.85206,-1.0676 -16.775,-0.2901 -34.8875,-0.8178 -40.25,-1.1727 -9.33659,-0.618 -9.75,-0.5594 -9.75,1.3802 0,1.114 -0.82371,3.0427 -1.83046,4.286 -1.83043,2.2604 -1.83058,2.2605 -9.75,0.6633 -9.11031,-1.8373 -10.62778,-1.3375 -14.3817,4.7365 -3.07823,4.9807 -2.41071,6.6214 3.28111,8.0649 2.65042,0.6722 6.1197,2.1838 7.70951,3.3592 1.5898,1.1754 4.06336,2.1371 5.49679,2.1371 3.75429,0 6.47475,1.7484 6.47475,4.1612 0,1.15 -1.56814,6.0103 -3.48475,10.8007 -4.05147,10.1263 -11.51525,33.9062 -11.51525,36.6881 0,1.529 1.3353,2.2215 6.75,3.5007 8.47407,2.002 29.19318,2.3973 31.40632,0.5993 z"
         id="path3629"
         inkscape:connector-curvature="0" />
      <path
         style="fill:#a3a1a1"
         d="m 837.87353,1804.0368 c -13.22655,-2.0579 -26.3688,-9.1219 -29.75189,-15.9916 -2.13604,-4.3375 -2.2064,-7.5472 -0.28484,-12.9935 2.35007,-6.6608 7.72053,-12.3442 18.35331,-19.4227 20.18238,-13.436 42.07134,-19.5062 54.43551,-15.096 13.70772,4.8895 22.86707,19.2442 22.97509,36.0071 0.0798,12.3871 -5.91222,20.9511 -17.89627,25.5778 -5.19551,2.0059 -7.97845,2.3039 -23.88083,2.5576 -9.9,0.1579 -20.67754,-0.1295 -23.95008,-0.6387 z m 15.70611,-10.997 -2.98128,-3.0494 -3.63738,1.7346 c -2.00055,0.954 -3.63737,2.0699 -3.63737,2.4798 0,0.9359 3.22846,1.5723 8.86866,1.7481 l 4.36865,0.1362 -2.98128,-3.0493 z m 16.81304,2.4368 c 2.75885,-0.4564 3.81743,-1.2484 4.66313,-3.489 1.48171,-3.9255 -0.3226,-3.8012 -8.7322,0.6015 -6.37045,3.3351 -6.43024,3.4037 -3,3.4405 1.925,0.021 5.10608,-0.2282 7.06907,-0.553 z m -34.86907,-3.5875 c -2.12006,-2.1201 -1.33873,-5.8587 1.8,-8.6129 1.65,-1.4479 3,-2.9823 3,-3.4098 0,-1.7593 -2.96649,-0.5257 -9.05472,3.7654 -4.65865,3.2835 -7.06898,4.387 -8.69528,3.981 -3.89359,-0.9722 -2.45427,0.4732 3,3.0125 5.62847,2.6205 12.13279,3.4466 9.95,1.2638 z m 57.2179,-19.8892 c 1.20013,-1.1069 -0.8838,-8.1864 -3.99563,-13.5738 -5.49976,-9.5215 -17.825,-11.4826 -33.81784,-5.3806 l -2.89557,1.1048 2.14557,2.2839 c 1.18006,1.2561 2.14557,3.4923 2.14557,4.9694 0,3.3257 0.97768,3.356 6,0.1855 6.16216,-3.89 11,-2.9765 11,2.0772 0,1.9786 0.39774,2.1323 4.36302,1.6853 3.72599,-0.4199 4.59807,-0.1561 5.97291,1.8067 0.97465,1.3915 1.37369,3.2396 1.01128,4.6835 -0.57345,2.2849 -0.43574,2.3561 3.27709,1.6949 2.13164,-0.3796 4.28876,-1.0712 4.7936,-1.5368 z m -55.4179,-9.2733 c 3.025,-1.45 6.625,-3.5265 8,-4.6146 2.40304,-1.9017 2.41763,-1.9793 0.37595,-2.0007 -2.60575,-0.027 -10.10697,4.0426 -17.12595,9.2918 -6.26247,4.6835 -7.08232,7.0372 -1,2.8709 2.3375,-1.6011 6.725,-4.0975 9.75,-5.5474 z m 14.5,-43.2577 c -3.3,-0.8007 -9.33365,-1.6583 -13.40811,-1.9059 -7.94461,-0.4827 -11.09189,-2.1371 -11.09189,-5.8306 0,-2.052 9.12409,-30.5467 13.61886,-42.532 2.83814,-7.5679 2.44209,-8.4218 -4.92019,-10.6081 -6.87255,-2.041 -9.96542,-1.907 -11.4666,0.4968 -1.69693,2.7172 -3.68384,2.5124 -6.15949,-0.6349 -2.72704,-3.4668 -2.66818,-4.1652 1.42742,-16.9361 1.925,-6.0026 3.5,-11.869 3.5,-13.0365 0,-1.1675 0.95021,-3.3308 2.11157,-4.8072 1.9399,-2.4662 2.65125,-2.6721 8.75,-2.5326 3.65114,0.083 9.78843,-0.3762 13.63843,-1.0215 4.83936,-0.8111 21.60085,-1.0921 54.30347,-0.9105 l 47.30348,0.2626 2.31287,-2.6916 c 2.45617,-2.8585 5.73245,-3.5093 7.25692,-1.4417 0.5069,0.6875 1.47632,3.4475 2.15426,6.1333 1.01579,4.0243 0.9819,5.6074 -0.19271,9 -0.78392,2.2642 -2.18617,7.6023 -3.11609,11.8624 -0.92992,4.2602 -3.65542,11.7824 -6.05668,16.716 l -4.36591,8.9703 -11.7998,-0.4839 c -6.4899,-0.2661 -15.46539,-0.6756 -19.94554,-0.91 -6.76551,-0.3538 -8.39355,-0.139 -9.60839,1.2679 -2.27392,2.6335 -3.74588,7.9982 -3.74588,13.6521 0,5.8081 -1.37655,8.2511 -4.91395,8.7212 -2.03937,0.2709 -2.69824,1.3293 -4.24609,6.8207 -2.01871,7.1619 -2.38836,13.543 -0.83996,14.5 1.92828,1.1917 1.10464,6.3873 -1.25,7.8851 -3.16297,2.0119 -30.95167,2.0082 -39.25,-0.01 z m 28.50765,-9.9846 c 0.6061,-0.6077 1.77302,-3.9827 2.59316,-7.5 1.68362,-7.2206 3.35155,-12.3411 6.15474,-18.8952 1.05856,-2.475 2.22925,-6.075 2.60152,-8 0.98301,-5.0831 5.61688,-16.861 6.97786,-17.7357 0.64079,-0.4118 10.4154,-0.5951 21.72137,-0.4074 l 20.5563,0.3412 3.11069,-6.849 c 3.66212,-8.0632 5.94948,-18.0763 4.46777,-19.558 -0.85482,-0.8549 -51.71371,-2.5714 -81.23426,-2.7418 l -8.54321,-0.049 -0.95679,3.25 c -0.93666,3.1816 -1.06203,3.2421 -5.9568,2.8729 -13.68342,-1.0318 -14.54186,-0.8914 -17.60576,2.8812 -1.56522,1.9272 -3.13367,4.9431 -3.48545,6.7019 -0.68571,3.4286 -1.12414,3.1262 6.91431,4.7687 1.27771,0.261 3.99769,1.611 6.04441,3 2.04672,1.3889 4.78952,2.5253 6.09511,2.5253 6.42633,0 6.92128,2.3689 2.656,12.7123 -2.52767,6.1297 -7.49415,21.2136 -11.18241,33.9626 -1.4629,5.0568 -0.75915,7.32 2.28241,7.3403 1.25476,0.01 4.30638,0.6711 6.78138,1.4728 5.38554,1.7444 28.24563,1.6737 30.00765,-0.093 z"
         id="path3627"
         inkscape:connector-curvature="0" />
      <path
         style="fill:#817d7d"
         d="m 836.82361,1803.1383 c -15.57935,-3.5016 -24.74054,-8.4481 -28.42267,-15.3464 -2.58088,-4.8352 -2.60464,-7.3068 -0.12586,-13.0896 5.01843,-11.7075 24.15722,-25.0867 46.002,-32.1583 7.14696,-2.3136 9.5512,-2.6276 17.46659,-2.2815 7.70787,0.3372 9.91015,0.8301 13.74223,3.0758 6.05519,3.5486 10.47039,8.7413 14.18888,16.6875 2.68095,5.7291 3.06213,7.6392 3.10264,15.5474 0.0513,10.0177 -1.424,14.3322 -6.7073,19.6155 -3.97354,3.9736 -7.4374,5.6474 -16.46475,7.9562 -10.12151,2.5887 -31.24927,2.5854 -42.78176,-0.01 z m 32.48721,-6.8733 c 3.68621,-0.5552 4.74248,-1.2114 5.9173,-3.6759 0.78655,-1.65 2.14231,-3.5482 3.01279,-4.2182 3.3286,-2.562 -1.41229,-1.2626 -9.9173,2.7182 -4.675,2.1881 -9.31287,3.9833 -10.30637,3.9892 -0.99351,0.01 -3.04644,-1.3469 -4.56207,-3.0063 -2.6813,-2.9356 -2.83893,-2.9756 -5.83841,-1.4793 -4.11044,2.0506 -6.00948,4.3059 -4.15577,4.9355 4.28662,1.4559 18.40402,1.8583 25.84983,0.7368 z m -33.3722,-4.6407 c -2.27424,-3.471 -2.11801,-4.0342 2.51235,-9.0575 3.4883,-3.7844 3.81597,-4.4777 2.11627,-4.4777 -1.1061,0 -5.01289,2.0554 -8.68176,4.5675 -5.50645,3.7704 -7.18475,4.4546 -9.61627,3.9205 -4.38974,-0.9641 -3.64565,1.1137 1.3044,3.6425 5.04096,2.5752 8.39063,3.6664 11.61501,3.7836 2.28643,0.083 2.31135,0 0.75,-2.3789 z m 0.38499,-27.8166 c 2.475,-1.1019 6.38108,-3.2893 8.68017,-4.861 2.2991,-1.5717 4.9991,-2.8507 6,-2.8423 3.78347,0.032 5.60136,2.9462 4.201,6.7347 -1.18483,3.2054 1.25346,2.954 7.27325,-0.75 2.6816,-1.65 5.53349,-3 6.33755,-3 1.7535,0 4.70323,4.2107 4.29681,6.1337 -0.15883,0.7515 0.3581,1.2257 1.14872,1.0538 6.09443,-1.3249 6.67652,-1.2715 8.53581,0.783 1.65158,1.825 1.76251,2.5664 0.77529,5.1818 l -1.15205,3.0522 3.70173,-0.6556 c 2.03594,-0.3605 4.48922,-0.8869 5.45172,-1.1696 2.7106,-0.7963 2.17463,-6.2101 -1.30396,-13.1714 -4.05553,-8.1158 -7.55526,-10.2648 -17.7323,-10.8887 -6.64151,-0.4071 -8.68675,-0.1025 -14.71374,2.1914 -3.85,1.4652 -8.84669,2.9935 -11.10375,3.396 -6.46962,1.1539 -18.8451,8.9462 -24.61935,15.5018 -4.35555,4.945 -3.23728,4.929 3.4731,-0.049 3.4375,-2.5503 8.275,-5.5384 10.75,-6.6403 z m 31.5,-43.753 c -11.7789,-0.4713 -18.67399,-1.2149 -22.45055,-2.4212 -3.15147,-1.0066 -6.87056,-1.5106 -8.81705,-1.1947 -3.87818,0.6293 -7.95877,-0.9122 -8.71409,-3.292 -0.28607,-0.9013 2.89969,-11.7456 7.07947,-24.0982 4.17979,-12.3527 7.6677,-23.7974 7.75092,-25.4326 0.18019,-3.5408 -2.51427,-5.1898 -10.61643,-6.4975 -4.48916,-0.7246 -5.52547,-0.5736 -7.29672,1.0631 -2.57459,2.3789 -3.68529,2.394 -5.78056,0.079 -2.43502,-2.6907 -2.04682,-6.481 1.84941,-18.057 1.92258,-5.7121 3.4956,-11.3799 3.4956,-12.595 0,-1.2151 0.94802,-3.0666 2.10672,-4.1143 2.53021,-2.2879 -0.33942,-2.1595 70.55371,-3.157 l 53.16042,-0.748 2.16216,-2.75 c 2.29666,-2.9211 5.16472,-3.5626 6.70645,-1.5 0.5139,0.6875 1.50181,3.5783 2.19536,6.4239 1.06864,4.3847 1.03521,5.5288 -0.21914,7.5 -0.81407,1.2794 -2.16682,5.7164 -3.00611,9.86 -1.75857,8.6824 -4.51424,16.3402 -8.4443,23.4661 -2.47213,4.4824 -3.06593,4.964 -5.73642,4.6521 -1.63837,-0.1914 -10.85385,-0.4164 -20.47885,-0.5 l -17.5,-0.1521 -1.95292,4 c -1.0741,2.2 -2.1991,7.1471 -2.5,10.9935 -0.53282,6.8111 -0.62424,7.0067 -3.50729,7.5029 -2.66576,0.4588 -3.18296,1.2055 -5.1996,7.5065 -2.67785,8.3671 -2.84701,11.6163 -0.80984,15.5558 1.14081,2.2061 1.26225,3.4603 0.47708,4.9274 -1.18977,2.2231 -4.22178,4.102 -6.19169,3.8368 -0.72366,-0.097 -8.96574,-0.4832 -18.31574,-0.8573 z m 13.14494,-10.2484 c 0.63297,-0.6694 1.89866,-4.5922 2.81264,-8.7172 0.91399,-4.125 3.20993,-11.3808 5.10211,-16.124 1.89217,-4.7432 3.44031,-9.3021 3.44031,-10.1309 0,-1.908 4.84479,-14.8524 6.14577,-16.4204 0.71688,-0.864 6.32227,-1.0272 21.16469,-0.616 23.37751,0.6477 21.63119,1.3281 26.20059,-10.2087 1.73486,-4.3802 2.813,-9.0584 2.88072,-12.5 l 0.10823,-5.5 -18,-0.6205 c -9.9,-0.3412 -30.375,-0.7912 -45.5,-1 l -27.5,-0.3795 -0.32074,2.5 c -0.53497,4.1698 -2.56037,4.984 -8.47875,3.4083 -8.33669,-2.2195 -10.50193,-1.8765 -14.29523,2.2648 -1.85045,2.0203 -3.87618,5.2237 -4.50163,7.1188 -1.32188,4.0054 -0.64576,4.738 5.2997,5.7425 2.05935,0.3479 5.66855,1.9368 8.02046,3.5309 2.53606,1.7189 5.6115,2.9057 7.55758,2.9165 1.82141,0.01 3.51238,0.6202 3.80056,1.3712 0.28556,0.7441 -1.22593,5.8066 -3.35884,11.25 -6.02426,15.3743 -12.77392,38.2462 -11.62562,39.3945 0.54169,0.5417 3.21636,1.4651 5.94371,2.0521 2.72734,0.587 6.5338,1.4698 8.4588,1.9619 4.83125,1.2351 25.1885,0.2462 26.64494,-1.2943 z"
         id="path3625"
         inkscape:connector-curvature="0" />
      <path
         style="fill:#6e6d6c"
         d="m 837.29388,1803.0994 c -14.56969,-3.1441 -24.1957,-8.2389 -28.52557,-15.0979 -3.06896,-4.8615 -3.07552,-7.734 -0.0314,-13.7413 6.3189,-12.4697 28.29137,-26.8764 49.7862,-32.6432 8.53803,-2.2907 19.5452,-1.7549 25.30051,1.2315 12.88573,6.6863 21.52931,25.1485 18.53245,39.5843 -3.18532,15.3436 -17.57384,22.7378 -43.94241,22.5818 -8.20879,-0.049 -15.55833,-0.715 -21.11977,-1.9152 z m 33.52973,-6.8314 c 3.09966,-0.547 4.07134,-1.2047 4.31694,-2.9224 0.17432,-1.2192 1.41182,-3.0779 2.75,-4.1305 1.33818,-1.0526 2.43306,-2.1866 2.43306,-2.5199 0,-1.2629 -2.4672,-0.4834 -10.74107,3.3939 -10.2052,4.7823 -13.30666,5.0261 -16.25526,1.2775 l -2.14149,-2.7224 -4.68109,2.4724 c -5.43278,2.8695 -5.87128,4.1984 -1.68109,5.0944 4.12257,0.8815 21.11619,0.9188 26,0.057 z m -34.3,-4.3789 c -2.1238,-2.1238 -1.28775,-5.3226 2.3,-8.8 4.08126,-3.9557 4.65511,-6.4712 1.25,-5.4794 -1.2375,0.3604 -5.175,2.615 -8.75,5.0102 -5.04574,3.3805 -7.11527,4.2297 -9.25,3.7955 -1.9898,-0.4048 -2.75,-0.1598 -2.75,0.8862 0,1.521 7.0695,5.1231 13,6.6239 3.88435,0.9829 6.13036,-0.106 4.2,-2.0364 z m -9.57529,-21.9911 c 3.36859,-2.4543 7.64359,-5.0715 9.5,-5.8159 1.85641,-0.7443 5.17529,-2.5465 7.37529,-4.0048 5.40499,-3.5828 7.29872,-4.1663 9.57244,-2.9494 2.123,1.1362 2.49161,4.0387 0.89238,7.0269 -1.81223,3.3862 0.21797,2.7912 11.45488,-3.3569 3.85829,-2.1111 6.5803,-0.7351 6.5803,3.3264 0,3.2192 0.54972,3.4667 4.42622,1.9929 5.03412,-1.914 8.95397,2.2165 6.15597,6.4868 -0.85798,1.3095 -1.2252,2.5877 -0.81605,2.8406 1.07438,0.664 10.02528,-1.7469 11.33011,-3.0517 1.60454,-1.6046 -1.32831,-10.9436 -5.05034,-16.0817 -4.20188,-5.8005 -7.65325,-7.3152 -16.84871,-7.3942 -6.25413,-0.054 -9.2798,0.5187 -16.1386,3.053 -4.64277,1.7155 -9.19597,3.1191 -10.11821,3.1191 -5.1593,0 -26.94039,16.0883 -26.94039,19.8991 0,0.9362 0.38041,1.0455 1.25,0.359 0.6875,-0.5427 4.00612,-2.9948 7.37471,-5.4492 z m 42.37529,-49.8674 c -10.23622,-0.4388 -18.58793,-1.3201 -22,-2.3215 -3.025,-0.8877 -7.84589,-1.5465 -10.71308,-1.464 -5.73906,0.1653 -8.29029,-1.2299 -8.2808,-4.5284 0.006,-2.2439 10.28056,-34.3392 13.9275,-43.5081 1.99846,-5.0245 2.03038,-5.5018 0.48232,-7.2124 -1.83943,-2.0325 -5.68138,-3.4203 -12.32506,-4.452 -3.88999,-0.604 -4.62092,-0.4062 -6.20801,1.6801 -1.46344,1.9238 -2.13305,2.159 -3.59088,1.2612 -3.84333,-2.3669 -3.83562,-5.5865 0.0421,-17.5814 2.01623,-6.2367 3.66587,-12.2463 3.66587,-13.3547 0,-1.1084 0.66354,-2.9626 1.47452,-4.1205 2.10858,-3.0104 12.08631,-3.5425 72.98828,-3.8926 l 50.96281,-0.2929 2.53719,-3.0862 c 2.98932,-3.6361 5.74247,-3.9611 6.93075,-0.8181 3.2489,8.5933 3.35997,9.782 1.31587,14.0832 -1.08911,2.2917 -2.92107,8.1401 -4.07101,12.9962 -2.10283,8.8803 -6.80318,19.6323 -10.03885,22.9639 -1.36583,1.4063 -2.28549,1.5865 -4.26168,0.8352 -1.38601,-0.527 -10.05833,-1.0908 -19.27184,-1.253 -15.74551,-0.2772 -16.82134,-0.1772 -17.90893,1.6648 -2.4481,4.1461 -3.50775,8.1667 -3.58103,13.5873 -0.078,5.7696 -0.9942,7.3743 -4.57608,8.0148 -3.77198,0.6744 -8.63017,20.4231 -5.5,22.3576 0.55,0.3399 1,1.9299 1,3.5333 0,2.2169 -0.70679,3.2808 -2.95034,4.441 -1.62269,0.8391 -3.08519,1.4467 -3.25,1.3501 -0.16481,-0.097 -7.72466,-0.4939 -16.79966,-0.8829 z m 9.91204,-8.8155 c 2.09713,-0.5866 2.76923,-2.0424 5.14781,-11.1503 1.50467,-5.7616 3.90675,-13.1192 5.33796,-16.3501 1.4312,-3.231 2.60219,-6.68 2.60219,-7.6646 0,-2.9466 6.08258,-17.95 7.33754,-18.099 0.63935,-0.076 10.24174,-0.025 21.33863,0.1125 l 20.17617,0.2504 2.43555,-4.8624 c 2.71137,-5.4132 5.23384,-12.9925 6.14829,-18.474 0.42586,-2.5528 0.16876,-3.9715 -0.87701,-4.8394 -1.06694,-0.8855 -11.8777,-1.47 -38.76933,-2.0961 -55.90171,-1.3017 -52.78695,-1.3782 -52.80515,1.297 -0.0316,4.6404 -1.30199,5.2912 -7.73518,3.9624 -9.92232,-2.0494 -11.65269,-1.7276 -15.61789,2.9049 -3.4855,4.072 -5.35057,8.9104 -4.17064,10.8196 0.33505,0.5421 2.28089,1.2882 4.3241,1.658 3.98405,0.7211 8.78377,2.8385 11.21492,4.9475 0.825,0.7157 3.07132,1.4489 4.99181,1.6294 4.69784,0.4415 4.82776,2.0917 0.95089,12.0771 -4.24839,10.9423 -11.9427,35.6639 -11.9427,38.3716 0,1.8616 1.10455,2.4209 8.25,4.1773 8.31918,2.045 26.38931,2.803 31.66204,1.3282 z"
         id="path3623"
         inkscape:connector-curvature="0" />
      <path
         style="fill:#514f4f"
         d="m 838.32361,1802.9972 c -15.39844,-3.375 -25.28795,-8.5914 -29.60667,-15.6165 -2.89068,-4.7022 -2.92962,-6.2241 -0.30656,-11.9821 6.87529,-15.0922 36.27413,-32.5446 58.58517,-34.7787 14.23128,-1.425 24.95869,4.7945 31.56605,18.3011 3.02556,6.1848 3.26201,7.3984 3.26201,16.7425 0,9.4562 -0.18412,10.3702 -3,14.8939 -3.64305,5.8526 -9.80954,9.5623 -20.73162,12.472 -10.02204,2.6699 -27.50478,2.6557 -39.76838,-0.032 z m 34.59228,-6.9432 c 1.18486,-0.4505 2.42417,-1.8943 2.75403,-3.2086 0.32985,-1.3142 1.73687,-2.998 3.12671,-3.7419 1.38984,-0.7438 2.52698,-1.9816 2.52698,-2.7508 0,-1.7732 -1.94515,-1.1832 -12.76922,3.8734 -9.82905,4.5917 -12.38233,4.7987 -14.99239,1.2157 -1.54324,-2.1185 -2.44926,-2.5166 -4.53595,-1.9929 -2.97549,0.7468 -8.50653,5.1651 -7.6018,6.0724 2.25415,2.2607 25.89489,2.6606 31.49164,0.5327 z m -35.18333,-1.8176 c 0.28984,-0.469 -0.11929,-1.7065 -0.90918,-2.75 -2.25483,-2.9788 -1.80046,-4.5152 2.68786,-9.0885 6.95847,-7.0901 2.38209,-7.2082 -8.09947,-0.2088 -4.91169,3.2799 -6.78537,4.0106 -9.09808,3.548 -3.41966,-0.6839 -4.86435,0.9063 -2.74697,3.0237 1.6198,1.6198 13.23971,6.1928 15.94787,6.2762 0.93004,0.029 1.92813,-0.3316 2.21797,-0.8006 z m -11.88327,-23.1667 c 3.64738,-2.7607 8.27818,-5.7075 10.29068,-6.5483 2.01249,-0.8409 5.729,-2.8572 8.25891,-4.4806 5.06053,-3.2473 9.37737,-3.8205 10.31774,-1.3699 1.03057,2.6856 0.71125,3.5184 -2.49877,6.517 -4.28816,4.0057 -1.94488,3.6324 7.94233,-1.2655 9.19921,-4.5571 11.38812,-4.4488 11.98713,0.593 0.30732,2.5867 0.52419,2.6907 4.28459,2.0554 2.56066,-0.4326 4.47892,-0.2393 5.4263,0.547 1.76477,1.4646 1.91739,5.1193 0.28208,6.7546 -2.10857,2.1086 -0.0809,2.4433 5.86432,0.9682 4.65517,-1.1551 5.88353,-1.8793 6.14162,-3.621 0.63496,-4.2851 -2.94978,-12.2704 -7.69691,-17.1455 -4.51518,-4.6369 -4.80779,-4.7669 -12.24679,-5.441 -7.83902,-0.7102 -10.6389,-0.078 -31.56274,7.1297 -6.01716,2.0727 -15.28829,8.3263 -20.66973,13.9424 -7.75202,8.0899 -5.87745,8.7493 3.87924,1.3645 z m 24.97432,-53.1643 c -4.95,-1.0992 -11.60395,-2.07 -14.78656,-2.1574 -5.61682,-0.1542 -7.65697,-1.2855 -7.69813,-4.2688 -0.008,-0.6104 3.40281,-11.1854 7.58051,-23.5 4.17771,-12.3145 7.66521,-23.5151 7.75,-24.8901 0.187,-3.0321 -4.49921,-5.6705 -12.24708,-6.8953 -4.54309,-0.7182 -5.25648,-0.5657 -7.24204,1.5478 -2.06211,2.195 -2.319,2.2391 -4.02961,0.691 -2.63671,-2.3862 -2.2994,-7.4704 1.17291,-17.6793 1.65,-4.8512 3,-9.664 3,-10.6952 0,-3.191 2.24213,-6.9936 4.42144,-7.4987 1.14321,-0.2649 4.77856,-0.3946 8.07856,-0.2882 3.3,0.1065 9.825,-0.3362 14.5,-0.9836 6.09694,-0.8444 21.11514,-0.9933 53.12181,-0.5267 l 44.62181,0.6505 1.87819,-2.2727 c 5.79409,-7.0113 7.176,-6.7456 9.67944,1.8608 1.47972,5.0871 1.46204,5.625 -0.29586,9 -1.0283,1.9743 -2.78838,7.6396 -3.91127,12.5896 -1.18605,5.2284 -3.68097,12.143 -5.95354,16.5 -3.73156,7.1542 -4.06702,7.4941 -7.27625,7.3714 -1.85038,-0.071 -11.01433,-0.2958 -20.36433,-0.5 l -17,-0.3714 -2.32143,4.6781 c -1.56098,3.1456 -2.32143,6.4399 -2.32143,10.0565 0,6.3588 -0.53072,7.4478 -3.85714,7.9146 -2.08758,0.2929 -2.86534,1.4231 -4.7146,6.8508 -2.50566,7.3543 -2.83994,12.8245 -1.08095,17.6888 1.03252,2.8554 0.95941,3.5759 -0.51219,5.0475 -2.71003,2.71 -28.12043,2.7606 -40.19226,0.08 z m 29.82434,-7.0663 c 0.98449,-0.7211 2.53806,-4.7331 3.67162,-9.4817 1.08077,-4.5274 3.26574,-11.7274 4.85551,-16 1.58976,-4.2726 4.17078,-11.7591 5.7356,-16.6368 1.79633,-5.5994 3.59489,-9.3525 4.87903,-10.1813 1.61862,-1.0446 4.48406,-1.108 14.0339,-0.3103 16.71631,1.3963 26.40839,0.6915 28.65574,-2.0839 4.25537,-5.2552 9.25694,-24.0433 7.00107,-26.2992 -1.10067,-1.1007 -40.29339,-2.6184 -80.58581,-3.1206 l -10.929,-0.1362 -0.83684,3.2008 c -0.46025,1.7604 -1.28463,3.4775 -1.83193,3.8157 -0.54731,0.3383 -4.32646,-0.1261 -8.39812,-1.032 -8.87407,-1.9743 -10.38615,-1.4288 -14.64223,5.2824 -3.74373,5.9032 -3.90895,9.9923 -0.43288,10.714 1.375,0.2855 3.5454,0.7327 4.8231,0.9938 1.27771,0.261 3.99769,1.611 6.04441,3 2.04672,1.3889 4.93882,2.5322 6.4269,2.5406 5.42533,0.031 5.89571,1.2016 3.28582,8.1793 -7.80799,20.8749 -14.17592,42.0325 -13.15026,43.6921 0.38736,0.6267 3.82408,1.9889 7.63716,3.027 8.45736,2.3025 30.99317,2.8608 33.75721,0.8363 z"
         id="path3621"
         inkscape:connector-curvature="0" />
      <path
         style="fill:#2d2c2c"
         d="m 838.82361,1802.5552 c -12.15833,-2.6744 -24.43737,-8.0995 -27.24126,-12.0356 -0.96731,-1.358 -2.54624,-3.4292 -3.50874,-4.6028 -0.9625,-1.1735 -1.75,-2.8075 -1.75,-3.631 0,-3.1584 5.46565,-12.4582 9.88325,-16.8163 13.12688,-12.9503 38.11876,-24.3804 53.30763,-24.3804 9.73605,0 14.19591,1.5869 20.40265,7.2595 16.00086,14.6239 16.27688,40.9587 0.52016,49.6275 -12.76036,7.0204 -32.53817,8.775 -51.61369,4.5791 z m 36.02135,-6.4838 c 0.81326,-0.675 1.47865,-2.0415 1.47865,-3.0367 0,-0.9951 1.35,-2.7707 3,-3.9456 1.65,-1.1749 3,-2.5556 3,-3.0681 0,-1.8394 -4.02112,-0.8668 -12.19087,2.9488 -12.38408,5.7838 -12.3858,5.784 -15.86709,2.0573 l -3.00267,-3.2144 -3.94004,1.7767 c -4.25847,1.9203 -7.71734,5.115 -6.67091,6.1615 2.46295,2.4629 31.28591,2.7331 34.19293,0.3205 z m -37.57029,-4.5615 -2.21205,-3.5792 4.13049,-4.2086 c 3.90373,-3.9776 5.38382,-7.633 3.09066,-7.633 -1.59252,0 -8.73799,3.8265 -13.25317,7.0973 -3.26854,2.3677 -4.68395,2.81 -7.37585,2.305 -2.90981,-0.5458 -3.33114,-0.3611 -3.33114,1.4607 0,3.1858 10.20508,7.9355 17.33156,8.0665 l 3.83156,0.07 -2.21206,-3.5792 z m -14.73586,-17.2481 c 4.7946,-4.1267 11.9124,-8.7834 14.7848,-9.6727 1.375,-0.4257 4.42368,-2.0917 6.77485,-3.7021 2.35117,-1.6105 5.50117,-3.0114 7,-3.113 2.25945,-0.1533 2.77744,0.2666 3.03115,2.4571 0.23136,1.9975 -0.4395,3.1729 -2.75,4.8181 -3.20611,2.283 -3.96409,4.0399 -1.74291,4.0399 0.7222,0 5.24033,-2.0039 10.04029,-4.4532 4.79996,-2.4492 9.38407,-4.201 10.18691,-3.893 0.80446,0.3087 1.45971,1.8323 1.45971,3.3942 0,3.6158 1.39225,4.4464 4.96963,2.9646 5.16284,-2.1385 9.57102,2.634 5.53037,5.9874 -2.40645,1.9972 -1.9103,4.3552 0.75,3.5645 1.2375,-0.3678 3.93083,-0.9286 5.98518,-1.2463 4.9097,-0.7592 6.1486,-2.4202 5.48657,-7.3561 -0.78636,-5.8627 -4.86589,-13.0167 -9.42968,-16.5361 -3.61147,-2.7851 -4.73779,-3.0926 -11.9819,-3.2708 -6.40349,-0.1576 -9.47077,0.3224 -15.40295,2.4103 -4.07397,1.4339 -8.98222,2.9423 -10.90722,3.352 -4.24863,0.9044 -8.71893,3.166 -16.00133,8.0954 -5.65925,3.8308 -13.99867,12.15 -13.99867,13.9648 0,1.8886 2.90363,1.0454 6.2152,-1.805 z m 46.2848,-55.1618 c -10.48441,-0.4094 -18.23916,-1.2398 -22.49552,-2.4089 -3.66159,-1.0056 -7.97676,-1.5436 -9.89059,-1.2331 -4.39241,0.7128 -7.11389,-0.7867 -7.11389,-3.9197 0,-1.3643 3.375,-12.6655 7.5,-25.1139 4.125,-12.4483 7.5,-23.4261 7.5,-24.3951 0,-2.3168 -6.96097,-5.547 -13.72231,-6.3678 -4.55625,-0.5531 -5.38406,-0.3749 -6.49055,1.3968 -1.59665,2.5567 -3.41556,2.5936 -4.75196,0.097 -1.58966,-2.9703 -1.30769,-4.8413 2.46482,-16.3561 1.925,-5.8756 3.5,-11.503 3.5,-12.5052 0,-1.0022 0.63525,-2.6909 1.41167,-3.7527 1.71087,-2.3398 -0.494,-2.2461 70.56552,-2.9978 46.25241,-0.4893 52.68748,-0.7454 54.25,-2.1595 0.97505,-0.8824 1.77281,-2.2096 1.77281,-2.9494 0,-0.8278 1.15364,-1.345 3,-1.345 2.59747,0 3.00475,0.369 3.03544,2.75 0.0195,1.5125 0.67854,3.875 1.46456,5.25 1.85158,3.239 1.8472,3.2937 -0.47881,5.9756 -1.08834,1.2548 -2.25363,3.9112 -2.58953,5.903 -1.55663,9.2304 -4.84484,19.1813 -8.30121,25.1214 -3.2256,5.5435 -4.13887,6.4467 -6.2063,6.1377 -1.33328,-0.1992 -10.38815,-0.5649 -20.12192,-0.8125 l -17.69777,-0.4503 -2.17137,4.2562 c -1.27826,2.5056 -2.43084,7.1586 -2.80223,11.3126 -0.5968,6.6753 -0.77197,7.0727 -3.24462,7.3596 -3.04043,0.3528 -3.89236,1.9264 -6.46573,11.9432 -1.87571,7.3011 -1.86007,7.521 1.02428,14.4014 0.81536,1.945 -2.98675,5.9495 -5.38335,5.67 -0.85879,-0.1002 -8.76144,-0.4633 -17.56144,-0.807 z m 12.06615,-7.788 c 1.05337,-0.5895 2.54564,-4.3077 3.94731,-9.8353 1.23951,-4.8882 3.57153,-12.4876 5.18226,-16.8876 1.61073,-4.4 4.29309,-12.05 5.96079,-17 l 3.03219,-9 19.97923,0.3796 c 13.10539,0.249 20.67334,0.01 21.9967,-0.7001 2.5853,-1.3836 7.10692,-11.4461 8.74311,-19.457 1.42402,-6.9721 1.14536,-9.2963 -1.22361,-10.2053 -2.02459,-0.7769 -89.07382,-2.7735 -90.87003,-2.0842 -0.72276,0.2773 -1.3141,1.9269 -1.3141,3.6657 l 0,3.1614 -4.75,-0.6684 c -14.53801,-2.0456 -13.54693,-2.1565 -17.12318,1.9166 -5.90657,6.7273 -7.58185,12.7268 -3.8995,13.965 0.69997,0.2354 3.12345,0.9009 5.3855,1.4789 2.26205,0.5781 5.76953,2.1753 7.79441,3.5494 2.02487,1.3741 4.98505,2.4984 6.57816,2.4984 1.59312,0 3.13728,0.3895 3.43148,0.8655 0.29419,0.476 -1.03518,4.7592 -2.95415,9.5182 -4.79516,11.8917 -12.63225,37.4328 -12.26438,39.9694 0.19728,1.3604 1.3397,2.3388 3.30166,2.8276 1.65,0.4111 5.7,1.4377 9,2.2813 6.54564,1.6733 26.9387,1.5111 30.06615,-0.2391 z"
         id="path3619"
         inkscape:connector-curvature="0" />
      <path
         style="fill:#040404"
         d="m 852.82361,1804.1704 c 2.26127,-0.5141 1.02413,-0.8273 -5.02406,-1.2717 -16.40907,-1.2056 -34.59217,-8.5811 -37.63847,-15.267 -0.62146,-1.3639 -1.46612,-2.2721 -1.87702,-2.0181 -1.25499,0.7756 -2.01664,-4.2108 -1.02216,-6.6919 0.51421,-1.2829 0.97334,-1.8826 1.02029,-1.3326 0.0469,0.55 0.91411,-0.8 1.92704,-3 4.93088,-10.7094 25.26294,-24.365 45.61438,-30.6359 8.16679,-2.5165 21.54697,-2.4962 27,0.041 5.56212,2.5878 11.88157,9.4876 15.19925,16.595 2.45007,5.2487 2.80075,7.1895 2.80075,15.5 0,8.2267 -0.31428,10.0055 -2.34479,13.2714 -5.23787,8.4247 -14.9628,12.6744 -31.15521,13.6146 l -10.5,0.6097 7,0.5756 c 6.34304,0.5215 6.01456,0.581 -3.5,0.6338 -5.8611,0.033 -9.1746,-0.2431 -7.5,-0.6238 z m 20.81458,-7.0108 c 1.37422,-0.5225 2.90765,-2.2692 3.51068,-3.9991 0.58889,-1.6893 1.51197,-3.0714 2.05129,-3.0714 1.46922,0 4.12345,-2.9426 4.12345,-4.5714 0,-2.4242 -3.67929,-1.6108 -13.89395,3.0714 -5.39941,2.475 -10.44462,4.5041 -11.21158,4.509 -0.76696,0.01 -2.60335,-1.4575 -4.08086,-3.25 l -2.68639,-3.259 -3.81361,1.9505 c -2.09748,1.0727 -4.60111,2.605 -5.56361,3.405 -1.5451,1.2842 -1.98417,1.2426 -3.75,-0.3555 -2.80334,-2.537 -2.54778,-3.5592 2,-8 3.89906,-3.8073 5.01058,-6.7574 3.01153,-7.9929 -1.40192,-0.8664 -9.26696,2.8003 -13.77178,6.4205 -3.02258,2.429 -4.63052,3.0116 -7.77499,2.8174 -3.44767,-0.2131 -4.00633,0.051 -4.28657,2.0238 -0.27279,1.9208 0.67755,2.7367 6.19375,5.3181 3.58379,1.677 9.3537,3.5118 12.82202,4.0772 3.46832,0.5655 8.33104,1.4048 10.80604,1.8653 5.35173,0.9957 22.85072,0.358 26.31458,-0.9589 z m -48.22847,-24.2292 c 3.52764,-2.8372 8.3845,-6.034 10.79301,-7.1039 2.40852,-1.0699 6.43412,-3.2485 8.94578,-4.8413 5.16389,-3.2749 7.94365,-3.6628 8.87394,-1.2385 0.64313,1.6759 -0.42649,2.8642 -7.68726,8.5396 -1.89782,1.4834 -3.22174,2.926 -2.94204,3.2057 1.03502,1.035 16.34805,-5.1399 21.05112,-8.4888 4.12939,-2.9404 6.37934,-2.1969 6.37934,2.108 0,3.7775 0.58671,3.9777 7.2346,2.4684 4.74752,-1.0778 5.60825,1.7567 2.04424,6.732 -2.28388,3.1882 0.23617,3.807 7.72345,1.8965 l 6.99771,-1.7856 -0.12108,-4.9455 c -0.15317,-6.2565 -4.03863,-14.1375 -8.9768,-18.208 -3.17522,-2.6173 -4.75823,-3.1133 -11.80929,-3.7007 -7.2804,-0.6064 -8.93404,-0.3969 -15.61769,1.9793 -4.11133,1.4617 -9.36648,3.0069 -11.67812,3.4339 -5.99079,1.1064 -19.53061,9.6247 -25.88265,16.2834 -9.27781,9.7257 -6.03067,12.2735 4.67174,3.6655 z m 41.91389,-54.8998 c -10.34932,-0.4437 -18.55023,-1.3143 -22,-2.3357 -3.11549,-0.9223 -7.01742,-1.3873 -9,-1.0724 -2.22926,0.354 -4.20094,0.043 -5.43061,-0.8574 -1.87092,-1.3696 -1.69006,-2.1208 5.84907,-24.2947 4.27882,-12.5847 7.84759,-24.407 7.93061,-26.2718 0.13115,-2.9463 -0.32365,-3.6384 -3.47102,-5.2816 -1.99207,-1.0401 -6.26707,-2.3297 -9.5,-2.8657 -5.40656,-0.8965 -6.01823,-0.8051 -7.6257,1.1395 -2.42421,2.9325 -4.75235,1.7652 -4.75235,-2.3827 0,-1.8391 1.29943,-7.1881 2.88763,-11.8866 1.5882,-4.6985 3.19838,-10.382 3.57817,-12.63 0.95863,-5.674 2.34851,-6.5355 9.25856,-5.7388 3.34937,0.3862 7.87607,0.1836 10.77564,-0.4822 3.44391,-0.7909 20.45056,-1.112 54.64549,-1.0318 44.33293,0.1041 49.81718,-0.055 51.25,-1.4879 1.49498,-1.495 2.00891,-2.9005 1.72293,-4.7117 -0.0651,-0.4125 1.15481,-0.75 2.71098,-0.75 2.03093,0 2.82723,0.4939 2.82172,1.75 -0.0218,4.976 0.44438,7.309 1.34888,6.75 1.6523,-1.0212 1.12582,3.6875 -0.54926,4.9124 -0.85209,0.623 -2.38693,4.9476 -3.41075,9.6102 -2.09256,9.5296 -4.94497,17.5499 -8.34974,23.4774 -1.83325,3.1916 -2.79202,3.9372 -4.74393,3.689 -1.34548,-0.171 -10.54632,-0.396 -20.44632,-0.5 l -18,-0.189 -2.36696,4.7726 c -1.42,2.8631 -2.57499,7.364 -2.88691,11.25 -0.48464,6.0375 -0.68389,6.4774 -2.93407,6.4774 -2.82367,0 -4.47776,3.2785 -6.87986,13.6361 -1.48715,6.4125 -1.40276,7.525 1.02303,13.485 0.86547,2.1264 -1.98053,4.9287 -4.77666,4.7033 -1.19821,-0.097 -9.60357,-0.4939 -18.67857,-0.8829 z m 7.95556,-4.9415 c 2.5642,0 5.43015,-0.5625 6.36878,-1.25 0.98499,-0.7215 2.53894,-4.7367 3.67508,-9.4961 1.08266,-4.5354 3.5507,-12.3431 5.48453,-17.3504 1.93383,-5.0073 3.51388,-9.6215 3.51123,-10.2539 -0.003,-0.6323 1.17977,-4.4043 2.62759,-8.3822 l 2.63241,-7.2325 19.6547,0.6342 c 14.5018,0.468 20.24642,0.3176 21.91167,-0.5736 3.88898,-2.0813 10.17845,-18.6603 10.17845,-26.8304 0,-2.5216 -0.53829,-3.5157 -2.25,-4.1553 -1.2375,-0.4624 -14.85,-1.118 -30.25,-1.457 -15.4,-0.3389 -35.37762,-0.9225 -44.39472,-1.2968 -15.25381,-0.6333 -16.48904,-0.5517 -17.75,1.1728 -0.7454,1.0194 -1.35528,2.9449 -1.35528,4.279 0,2.0248 -0.37164,2.3272 -2.25,1.8308 -14.01822,-3.7051 -16.49378,-3.2282 -21.45594,4.133 -5.86872,8.7061 -5.06018,12.3057 3.04224,13.5442 2.10997,0.3226 6.03018,1.9943 8.71157,3.7149 3.17907,2.04 5.5552,2.9127 6.82954,2.5082 3.39434,-1.0773 3.33111,1.192 -0.28508,10.2303 -3.72033,9.2987 -11.16193,32.4196 -12.17851,37.8385 -0.74064,3.9479 0.075,4.4525 11.08618,6.8581 4.4,0.9613 8.45,1.9164 9,2.1225 0.55,0.2061 3.65351,0.158 6.89669,-0.1068 3.24318,-0.2648 7.99467,-0.4815 10.55887,-0.4815 z"
         id="path3617"
         inkscape:connector-curvature="0" />
    </g>
  </g>
</svg>
