<?xml version="1.0" encoding="UTF-8" standalone="no"?>
<!-- Created with Inkscape (http://www.inkscape.org/) -->

<svg
   xmlns:dc="http://purl.org/dc/elements/1.1/"
   xmlns:cc="http://creativecommons.org/ns#"
   xmlns:rdf="http://www.w3.org/1999/02/22-rdf-syntax-ns#"
   xmlns:svg="http://www.w3.org/2000/svg"
   xmlns="http://www.w3.org/2000/svg"
   xmlns:sodipodi="http://sodipodi.sourceforge.net/DTD/sodipodi-0.dtd"
   xmlns:inkscape="http://www.inkscape.org/namespaces/inkscape"
   width="171.57639"
   height="169.95105"
   id="svg2"
   version="1.1"
   inkscape:version="0.48.5 r10040">
  <defs
     id="defs4" />
  <sodipodi:namedview
     id="base"
     pagecolor="#ffffff"
     bordercolor="#666666"
     borderopacity="1.0"
     inkscape:pageopacity="0.0"
     inkscape:pageshadow="2"
     inkscape:zoom="3.2163743"
     inkscape:cx="114.89219"
     inkscape:cy="84.062903"
     inkscape:document-units="px"
     inkscape:current-layer="layer1"
     showgrid="false"
     inkscape:window-width="1366"
     inkscape:window-height="718"
     inkscape:window-x="0"
     inkscape:window-y="0"
     inkscape:window-maximized="1"
     fit-margin-top="0"
     fit-margin-left="0"
     fit-margin-right="0"
     fit-margin-bottom="0" />
  <metadata
     id="metadata7">
    <rdf:RDF>
      <cc:Work
         rdf:about="">
        <dc:format>image/svg+xml</dc:format>
        <dc:type
           rdf:resource="http://purl.org/dc/dcmitype/StillImage" />
        <dc:title></dc:title>
      </cc:Work>
    </rdf:RDF>
  </metadata>
  <g
     inkscape:label="Layer 1"
     inkscape:groupmode="layer"
     id="layer1"
     transform="translate(-736.23555,-1510.4286)">
    <g
       id="g3431"
       transform="translate(-29.225455,-0.31090909)">
      <path
         style="fill:#f7a2a1"
         d="m 875.62775,1679.3497 c -7.40983,-3.3077 -57.33426,-6.9354 -77,-5.5952 -13.52669,0.9218 -17.17373,1.7593 -19.41354,4.4581 -1.78489,2.1507 -8.44613,2.1017 -10.62596,-0.078 -1.36664,-1.3666 -1.52613,-2.5395 -0.84987,-6.25 1.05198,-5.7718 0.94106,-12.0335 -0.71859,-40.5676 -1.52288,-26.1824 -1.73768,-41.7654 -0.63023,-45.7211 1.14394,-4.0861 4.07089,-5.2277 10.14886,-3.9584 11.33751,2.3678 51.11274,6.4674 58.31845,6.0108 l 5.22913,-0.3313 0.42409,-20 c 0.34759,-16.3924 0.77936,-21.0823 2.3937,-26 1.08329,-3.3 2.43169,-9.5447 2.99645,-13.8771 0.63629,-4.8812 1.76421,-8.8747 2.96562,-10.5 7.55821,-10.2251 28.80051,-7.5748 50.18969,6.2618 14.70824,9.5147 20.63346,16.9407 30.66836,38.4362 7.07026,15.1451 8.60017,21.965 6.03862,26.9185 -1.92733,3.727 -3.82427,4.5047 -9.0695,3.7181 -3.28271,-0.4923 -4.97129,-0.1078 -8.57638,1.9527 -6.04396,3.4545 -8.83635,3.2875 -13.29348,-0.7951 -3.28599,-3.0098 -3.6965,-3.9239 -3.70519,-8.25 -0.01,-4.9768 -2.9752,-12.7265 -7.06958,-18.4765 -2.52131,-3.5409 -8.74385,-6.8886 -12.80409,-6.8886 -6.26988,0 -14.10348,10.8402 -14.09148,19.5 0.008,5.6293 1.07534,6.9299 5.03741,6.1375 2.12831,-0.4257 4.02331,-0.1561 5.44337,0.7744 1.99721,1.3086 2.23151,2.5363 2.8165,14.7577 0.35094,7.3317 1.39107,18.5054 2.31139,24.8304 0.92033,6.325 1.75483,14.875 1.85445,19 0.0996,4.125 0.53509,12.9579 0.96771,19.6288 0.75049,11.572 0.68923,12.2261 -1.33466,14.25 -2.41646,2.4164 -4.34548,2.5628 -8.62125,0.6541 z m -2.14489,-23.7507 c -0.085,-6.175 -0.65964,-11.5042 -1.39105,-12.9015 -2.73216,-5.2195 -18.10235,-28.0757 -18.56742,-27.6107 -0.27326,0.2733 2.00071,5.8744 5.05326,12.447 5.90695,12.7184 6.85373,17.8283 3.8001,20.5097 -4.41219,3.8745 -7.72853,3.1877 -14.69281,-3.0426 -4.59255,-4.1085 -5.55083,-3.0521 -2.55613,2.818 2.59253,5.0818 2.30381,7.6987 -1.13122,10.2534 -3.6683,2.7281 -7.81573,1.5955 -13.11689,-3.5821 -5.17931,-5.0586 -25.19618,-27.894 -27.40164,-31.26 -4.906,-7.4875 -2.36384,2.3167 4.03088,15.5457 5.18054,10.7171 5.58864,13.8091 2.2066,16.7182 -3.80981,3.277 -6.91689,2.9245 -11.61234,-1.3175 -2.21612,-2.0022 -4.25824,-3.4113 -4.53804,-3.1315 -0.86215,0.8621 3.63135,11.7667 4.88344,11.8509 0.64798,0.043 6.57815,0.033 13.17815,-0.023 10.92702,-0.093 29.09343,0.9192 51.5,2.8704 4.675,0.4071 8.95,0.6584 9.5,0.5585 0.6028,-0.1095 0.94245,-4.3606 0.85511,-10.7026 z m -90.8743,9.2489 c 0.32936,-0.533 -0.25091,-2.6253 -1.28948,-4.6497 -2.17595,-4.2413 -3.11798,-3.5207 -2.44252,1.8686 0.44792,3.5738 2.36098,4.9994 3.732,2.7811 z m 10.51919,-33.1932 c 0,-0.6392 -0.67193,-3.4517 -1.49318,-6.25 -0.82125,-2.7983 -2.89668,-10.2629 -4.61207,-16.5879 -3.77934,-13.9352 -5.045,-16.2334 -8.70737,-15.8104 l -2.68738,0.3104 -0.29087,11 c -0.36174,13.68 -0.006,15.1401 4.10499,16.8579 1.80349,0.7535 5.28311,3.661 7.73248,6.4611 4.50728,5.1525 5.9534,6.1288 5.9534,4.0189 z m 45.99636,-19.9202 c -1.1009,-4.6297 -2.21898,-9.5953 -2.48462,-11.0345 -0.39158,-2.1216 -1.19545,-2.7346 -4.24737,-3.239 -4.75556,-0.786 -13.26437,-0.8296 -13.26437,-0.068 0,0.7859 21.31337,23.4438 21.69434,23.0628 0.16701,-0.167 -0.59708,-4.0916 -1.69798,-8.7213 z m -26.99636,2.1395 c 0,-0.5186 -0.95041,-2.5537 -2.11202,-4.5225 -1.82941,-3.1006 -1.94883,-3.9736 -0.89245,-6.5239 0.67076,-1.6194 2.07117,-3.2146 3.11202,-3.5449 2.56848,-0.8152 2.38317,-2.1259 -0.39933,-2.8243 -5.50348,-1.3813 -13.70822,-1.8855 -13.70822,-0.8425 0,0.9157 5.25193,9.0653 10.90357,16.9195 1.67281,2.3247 3.09643,2.9401 3.09643,1.3386 z m 57.31698,-5.8072 c -0.93987,-10.4384 -1.43758,-11.25 -6.89922,-11.25 -3.70195,0 -4.51643,0.3005 -4.05734,1.4969 0.74562,1.943 10.56733,16.5031 11.13243,16.5031 0.23754,0 0.1584,-3.0375 -0.17587,-6.75 z m -11.04539,-29 c 0.63844,-8.8771 2.96746,-14.8393 8.16887,-20.9121 6.71356,-7.8382 15.23106,-10.1222 23.8963,-6.4079 9.16812,3.9299 17.0609,14.2428 20.71757,27.07 1.79563,6.2989 2.21384,6.5512 7.50724,4.5296 4.56775,-1.7444 4.64357,-1.8453 4.07239,-5.4172 -1.629,-10.1873 -12.38179,-29.9964 -20.78447,-38.2899 -6.69997,-6.6129 -17.61995,-13.3333 -26.84949,-16.5239 -6.80645,-2.3529 -15.4356,-3.0208 -16.51265,-1.2781 -0.34688,0.5612 0.52649,2.3957 1.94082,4.0765 3.12217,3.7105 2.68127,6.957 -1.55506,11.4506 -1.58021,1.6762 -2.87311,3.6722 -2.87311,4.4356 0,0.7633 -0.93829,2.3867 -2.0851,3.6074 -2.67147,2.8436 -4.22387,14.3499 -3.69803,27.4094 0.4263,10.5874 1.68786,14 5.17542,14 2.18155,0 2.35562,-0.4685 2.8793,-7.75 z"
         id="path3445"
         inkscape:connector-curvature="0" />
      <path
         style="fill:#a39f9e"
         d="m 876.62775,1679.4182 c -6.51712,-2.9393 -57.71962,-7.1352 -74.5,-6.1051 -15.89693,0.9759 -18.88315,1.5345 -21.93595,4.1033 -3.60079,3.0298 -9.01634,3.2156 -11.56737,0.3967 -1.63728,-1.8091 -1.69207,-2.5454 -0.56437,-7.5844 1.2824,-5.7304 1.26283,-6.2939 -2.06903,-59.5749 -1.63528,-26.1504 0.19668,-31.4559 9.98218,-28.9089 2.01,0.5232 10.17954,1.6748 18.15454,2.559 7.975,0.8843 18.05905,2.0364 22.409,2.5603 4.34996,0.5239 11.54996,0.9511 16,0.9492 l 8.091,0 0.1467,-19.7466 c 0.12472,-16.7882 0.44531,-20.6455 2.1399,-25.7466 1.09625,-3.3 2.30045,-9.0085 2.676,-12.6856 0.83595,-8.1852 3.99458,-14.793 8.0374,-16.8143 3.62095,-1.8103 14.80263,-1.939 22.19647,-0.2554 12.8171,2.9184 31.85702,14.971 40.30353,25.5127 7.45968,9.3102 19.63112,34.7526 20.61009,43.0821 0.61702,5.25 0.48687,5.7174 -2.39432,8.5986 -2.72911,2.7291 -3.4988,2.9856 -7.3813,2.4604 -3.51652,-0.4758 -5.18366,-0.099 -8.83447,1.9955 -5.52522,3.1701 -7.46197,3.2325 -11.63317,0.3743 -3.79677,-2.6016 -5.36683,-5.5672 -5.36683,-10.1372 0,-4.4041 -2.4792,-11.2586 -5.82958,-16.1177 -6.21261,-9.0102 -15.16107,-11.2674 -20.86645,-5.2634 -4.41632,4.6474 -7.30645,10.976 -7.28866,15.9602 0.0215,6.0221 1.01576,7.2087 5.4387,6.491 2.82273,-0.4581 4.09693,-0.1503 5.60008,1.3529 1.63736,1.6374 1.94591,3.362 1.94591,10.8767 0,4.9119 0.95378,16.0494 2.11952,24.75 1.16573,8.7005 2.22251,19.4192 2.3484,23.8192 0.12589,4.4 0.57648,13.0081 1.00131,19.1292 0.73207,10.5478 0.66163,11.2399 -1.34841,13.25 -2.4641,2.4641 -3.53392,2.5655 -7.62082,0.7222 z m -2.72423,-24.0041 c -0.59121,-13.3971 -1.09958,-14.6779 -12.52228,-31.5491 -7.30984,-10.7966 -10.25349,-13.9259 -10.25349,-10.9003 0,0.7231 2.51516,6.5907 5.58925,13.0393 6.29201,13.1989 7.54196,18.5387 4.94697,21.1337 -3.1887,3.1887 -7.10372,2.0971 -14.26419,-3.9773 -3.66726,-3.1111 -6.83917,-5.1422 -7.04868,-4.5136 -0.20952,0.6285 1.00452,4.0751 2.69785,7.6591 1.69334,3.5839 3.0788,6.9329 3.0788,7.4421 0,2.0625 -3.35744,4.0693 -6.82143,4.0773 -3.31639,0.01 -4.46623,-0.8195 -11.67857,-8.4008 -4.4,-4.6251 -12.05,-13.3705 -17,-19.4343 -11.7628,-14.4095 -14.17726,-14.7758 -8.85866,-1.344 1.45273,3.6689 3.87189,9.1456 5.3759,12.1706 5.06746,10.1921 4.68177,14.0335 -1.56646,15.6017 -1.87625,0.4709 -3.44082,-0.3032 -7.07087,-3.4985 -4.40353,-3.8761 -7.37991,-5.1789 -7.37991,-3.2303 0,1.5224 4.18724,10.5593 5.68949,12.2791 1.21878,1.3952 2.948,1.5726 11.12678,1.1413 9.63398,-0.5081 34.7739,0.8691 64.57321,3.5375 1.77856,0.1593 1.85994,-0.5002 1.38629,-11.2335 z m -89.77577,9.3706 c 0,-1.9796 -2.70259,-7.4782 -4.3451,-8.8403 -1.46447,-1.2146 -1.6549,-1.0851 -1.6549,1.125 0,5.9259 1.16924,8.7474 3.625,8.7474 1.30625,0 2.375,-0.4644 2.375,-1.0321 z m 9.49798,-36.6256 c -0.89336,-2.6313 -2.22287,-7.2723 -2.95447,-10.3133 -2.24705,-9.3401 -5.72537,-21.4363 -6.69399,-23.279 -0.64177,-1.2209 -2.12713,-1.75 -4.91292,-1.75 l -3.99304,0 0.27822,13.722 c 0.26605,13.1216 0.37725,13.7713 2.54166,14.8489 1.24489,0.6198 5.50254,4.2324 9.46144,8.028 7.92146,7.5947 9.19181,7.3403 6.2731,-1.2566 z m 49.17641,-6.5923 c -2.0246,-8.1526 -4.95489,-20.5884 -5.27248,-22.3759 -0.35882,-2.0195 -1.11668,-2.1581 -15.13982,-2.7684 -8.11915,-0.3534 -17.12459,-0.9027 -20.01209,-1.2207 -3.89345,-0.4287 -5.25,-0.2482 -5.25,0.6985 0,3.2872 16.97237,25.2775 18.40428,23.8456 0.23883,-0.2389 -1.09674,-3.7396 -2.96794,-7.7794 -3.7712,-8.1417 -3.52438,-10.4053 1.3361,-12.2533 3.95176,-1.5024 6.1645,0.1302 17.3769,12.8211 9.92956,11.2389 12.59098,13.3247 11.52505,9.0325 z m 26.42164,-15.3824 c -0.58293,-4.7656 -1.29826,-8.9032 -1.58962,-9.1945 -0.29136,-0.2914 -2.7745,-0.6667 -5.51808,-0.8341 -3.93144,-0.2399 -4.98833,0.018 -4.98833,1.2167 0,2.1667 12.26836,20.1392 12.75364,18.6834 0.22124,-0.6637 -0.0747,-5.1059 -0.65761,-9.8715 z m -10.89026,-26.6723 c 0.56466,-8.7986 3.82512,-16.4403 9.42872,-22.0984 4.2169,-4.258 10.43239,-7.5376 14.36551,-7.5799 4.40181,-0.047 12.15161,3.3643 16.66327,7.3356 4.46231,3.9279 11.43563,16.6249 12.81212,23.3283 0.96632,4.7059 2.38445,5.3176 7.27461,3.1379 5.13182,-2.2875 5.34272,-3.87 1.77795,-13.3408 -6.32903,-16.8147 -16.28873,-30.8059 -26.98165,-37.9035 -13.6524,-9.0619 -29.75703,-14.3346 -34.09488,-11.1626 -1.92199,1.4054 -1.91748,1.463 0.29858,3.822 3.2995,3.5122 2.99646,8.2664 -0.75,11.7661 -1.65,1.5413 -3,3.5219 -3,4.4012 0,0.8793 -0.94281,2.5416 -2.09513,3.6939 -2.77296,2.773 -4.21087,13.2015 -3.70972,26.9049 0.42184,11.5345 1.62519,15 5.20853,15 2.18867,0 2.36236,-0.4528 2.80209,-7.3047 z"
         id="path3443"
         inkscape:connector-curvature="0" />
      <path
         style="fill:#fb5e5e"
         d="m 878.19862,1679.1697 c -5.00335,-3.5371 -55.79482,-8.0305 -77.57087,-6.8626 -13.78152,0.7391 -18.15493,1.6638 -21.93609,4.6381 -3.21403,2.5281 -7.12615,2.7379 -9.36205,0.502 -1.39717,-1.3971 -1.45357,-2.2402 -0.41072,-6.1393 1.46582,-5.4805 1.51755,-11.4131 0.22618,-25.9381 -4.36621,-49.1104 -4.36372,-58.2346 0.0169,-61.7818 1.48087,-1.1991 3.11254,-1.672 4.40843,-1.2776 6.22823,1.8953 50.81151,6.6104 59.55257,6.2983 l 8.17377,-0.2919 0.36463,-19.5 c 0.26498,-14.1701 0.80846,-21.0033 1.9884,-25 0.89307,-3.025 2.21946,-9.3699 2.94753,-14.0998 2.00313,-13.0132 4.48692,-16.4662 13.19208,-18.3398 12.07041,-2.5979 38.97693,9.8929 52.7417,24.4842 5.59292,5.9288 7.79824,9.4865 15.00279,24.2029 4.64534,9.4889 8.74318,19.1608 9.10631,21.4931 0.59357,3.8124 0.35712,4.5437 -2.3416,7.2425 -2.68128,2.6812 -3.46471,2.9392 -7.33632,2.4155 -3.45149,-0.4669 -5.38261,-0.058 -9.4797,2.0075 -6.37357,3.2131 -7.05938,3.2 -11.17458,-0.2142 -2.89886,-2.4051 -3.42235,-3.5811 -4.12845,-9.2747 -1.86802,-15.0626 -14.12733,-28.0275 -23.55884,-24.9149 -8.38305,2.7667 -15.38025,18.7341 -11.43778,26.1007 0.81037,1.5142 1.95116,1.9186 4.91781,1.7436 6.11315,-0.3607 7.0259,1.0699 7.03466,11.0258 0.007,8.3943 0.7329,16.1994 3.03287,32.6276 0.616,4.4 1.25535,12.275 1.42078,17.5 0.16543,5.225 0.63073,13.5776 1.034,18.5614 0.69762,8.6215 0.61842,9.1937 -1.63101,11.7851 -2.29606,2.6451 -2.43427,2.6741 -4.79336,1.0064 z m -3.2533,-18.8529 c 0.64391,-14.1937 0.0621,-15.9009 -11.13445,-32.6707 -9.48723,-14.2097 -12.68312,-17.9091 -12.68312,-14.6814 0,0.7231 2.51516,6.5907 5.58925,13.0393 6.29201,13.1989 7.54196,18.5387 4.94697,21.1337 -3.1887,3.1887 -7.10372,2.0971 -14.26419,-3.9773 -3.66726,-3.1111 -6.83917,-5.1422 -7.04868,-4.5136 -0.20952,0.6285 1.00452,4.0751 2.69785,7.6591 1.69334,3.5839 3.0788,6.9329 3.0788,7.4421 0,2.0625 -3.35744,4.0693 -6.82143,4.0773 -3.31639,0.01 -4.46623,-0.8195 -11.67857,-8.4008 -4.4,-4.6251 -12.05,-13.3705 -17,-19.4343 -11.7628,-14.4095 -14.17726,-14.7758 -8.85866,-1.344 1.45273,3.6689 3.87189,9.1456 5.3759,12.1706 5.06746,10.1921 4.68177,14.0335 -1.56646,15.6017 -1.87625,0.4709 -3.44082,-0.3032 -7.07087,-3.4985 -4.29868,-3.7838 -7.37578,-5.1814 -7.38278,-3.3532 -0.006,1.5193 5.47017,13.7739 6.46958,14.4781 0.56831,0.4004 5.30829,0.4658 10.53329,0.1453 8.44773,-0.5182 27.68643,0.4316 53,2.6167 14.28813,1.2334 13.4493,1.6274 13.81757,-6.4901 z m -91.53582,3.031 c -0.2257,-3.0705 -3.00847,-7.6066 -5.0926,-8.3013 -1.29409,-0.4313 -1.63237,5.5135 -0.54479,9.5741 0.47652,1.7792 1.21356,2.2346 3.23634,2 2.22915,-0.2585 2.58679,-0.746 2.40105,-3.2728 z m 10.21623,-35.1887 c -0.89336,-2.6313 -2.22287,-7.2723 -2.95447,-10.3133 -2.87248,-11.9397 -5.80066,-21.6356 -7.19847,-23.8358 -1.17391,-1.8477 -2.19979,-2.2457 -5.15529,-2 l -3.68975,0.3068 -0.2896,12 c -0.33946,14.0659 0.0292,16.1329 3.04192,17.0535 1.23623,0.3778 5.60371,3.8953 9.70553,7.8167 8.18622,7.8261 9.47726,7.6232 6.54013,-1.0279 z m 49.17641,-6.5923 c -0.30732,-1.2375 -1.52332,-6.3 -2.70222,-11.25 -1.17891,-4.95 -2.45178,-10.125 -2.82862,-11.5 -0.67393,-2.459 -0.89787,-2.5103 -13.66436,-3.1306 -7.13855,-0.3469 -16.01669,-0.9745 -19.72919,-1.3947 -6.14622,-0.6956 -6.75,-0.6007 -6.75,1.0607 0,3.7006 16.81292,25.985 18.40428,24.3937 0.23883,-0.2389 -1.09674,-3.7396 -2.96794,-7.7794 -3.7712,-8.1417 -3.52438,-10.4053 1.3361,-12.2533 3.95176,-1.5024 6.1645,0.1302 17.3769,12.8211 9.92956,11.2389 12.59098,13.3247 11.52505,9.0325 z m 27.75798,-13 c -0.87265,-10.2107 -1.70534,-12.5294 -4.77617,-13.3002 -3.92335,-0.9846 -8.10651,-0.1218 -8.46039,1.7453 -0.36304,1.9152 11.28828,19.8049 12.89871,19.8049 0.6966,0 0.80879,-2.7396 0.33785,-8.25 z m -12.83088,-20.5153 c 0.60582,-0.4041 1.35029,-4.1121 1.65438,-8.24 0.67805,-9.2043 3.99261,-17.0544 9.3718,-22.1959 4.32198,-4.1309 9.89217,-6.81 14.09021,-6.7768 3.35741,0.026 10.52754,3.1651 14.96797,6.552 3.91021,2.9824 9.28848,12.4725 12.27821,21.6651 1.20547,3.7066 2.57841,6.9781 3.05096,7.2702 0.47256,0.292 3.02499,-0.4954 5.67209,-1.7499 3.45492,-1.6373 4.90763,-2.9476 5.14865,-4.6438 0.78002,-5.4895 -10.07217,-28.9008 -17.32414,-37.3731 -8.46989,-9.8951 -24.0387,-19.2789 -36.94088,-22.2654 -7.72809,-1.7888 -11.0081,-1.3969 -12.55879,1.5006 -0.86181,1.6103 -0.603,2.2441 1.47113,3.6032 3.64319,2.3871 3.43165,7.1686 -0.48308,10.9191 -1.65,1.5808 -3,3.5485 -3,4.3726 0,0.8242 -0.98103,2.5428 -2.18007,3.8191 -1.33457,1.4206 -2.46974,4.3543 -2.92699,7.5644 -1.16116,8.152 -1.01708,27.0713 0.23491,30.8447 1.6309,4.9153 4.67065,7.0035 7.47364,5.1339 z"
         id="path3441"
         inkscape:connector-curvature="0" />
      <path
         style="fill:#605d5c"
         d="m 878.19862,1679.1697 c -5.00335,-3.5371 -55.79482,-8.0305 -77.57087,-6.8626 -13.78152,0.7391 -18.15493,1.6638 -21.93609,4.6381 -3.21403,2.5281 -7.12615,2.7379 -9.36205,0.502 -1.39717,-1.3971 -1.45357,-2.2402 -0.41072,-6.1393 1.46582,-5.4805 1.51755,-11.4131 0.22618,-25.9381 -4.36621,-49.1104 -4.36372,-58.2346 0.0169,-61.7818 1.48087,-1.1991 3.11254,-1.672 4.40843,-1.2776 6.22823,1.8953 50.81151,6.6104 59.55257,6.2983 l 8.17377,-0.2919 0.36463,-19.5 c 0.26498,-14.1701 0.80846,-21.0033 1.9884,-25 0.89307,-3.025 2.21946,-9.3699 2.94753,-14.0998 2.00313,-13.0132 4.48692,-16.4662 13.19208,-18.3398 12.07041,-2.5979 38.97693,9.8929 52.7417,24.4842 5.59292,5.9288 7.79824,9.4865 15.00279,24.2029 4.64534,9.4889 8.74318,19.1608 9.10631,21.4931 0.59357,3.8124 0.35712,4.5437 -2.3416,7.2425 -2.68128,2.6812 -3.46471,2.9392 -7.33632,2.4155 -3.45149,-0.4669 -5.38261,-0.058 -9.4797,2.0075 -6.37357,3.2131 -7.05938,3.2 -11.17458,-0.2142 -2.89886,-2.4051 -3.42235,-3.5811 -4.12845,-9.2747 -1.86802,-15.0626 -14.12733,-28.0275 -23.55884,-24.9149 -8.38305,2.7667 -15.38025,18.7341 -11.43778,26.1007 0.81037,1.5142 1.95116,1.9186 4.91781,1.7436 6.11315,-0.3607 7.0259,1.0699 7.03466,11.0258 0.007,8.3943 0.7329,16.1994 3.03287,32.6276 0.616,4.4 1.25535,12.275 1.42078,17.5 0.16543,5.225 0.63073,13.5776 1.034,18.5614 0.69762,8.6215 0.61842,9.1937 -1.63101,11.7851 -2.29606,2.6451 -2.43427,2.6741 -4.79336,1.0064 z m -3.57087,-22.3529 c 0,-6.6155 -0.55007,-12.1584 -1.48687,-14.9827 -1.85328,-5.5874 -18.17595,-30.4989 -20.95997,-31.9888 -3.71221,-1.9868 -2.45201,3.8876 3.51823,16.4 6.05458,12.6891 7.40838,17.686 5.43563,20.063 -2.55873,3.0831 -6.57978,1.7788 -13.84709,-4.4915 -10.35209,-8.9319 -11.58677,-7.9376 -5.47682,4.4104 4.16803,8.4234 3.72781,10.5896 -2.15202,10.5896 -2.66835,0 -4.35,-1.1634 -9.75714,-6.75 -6.93638,-7.1666 -18.7913,-20.6268 -25.10107,-28.5 -9.02326,-11.259 -8.87886,-0.9968 0.24038,17.0827 3.24528,6.434 4.98131,12.0477 4.32385,13.9819 -0.24577,0.7231 -1.57972,1.7454 -2.96432,2.2718 -2.18924,0.8323 -3.23358,0.3676 -8.01001,-3.5646 -8.48636,-6.9865 -10.09292,-5.8396 -6.19315,4.4209 3.23531,8.5122 4.44732,9.1591 15.82801,8.448 8.53393,-0.5333 27.65275,0.4026 53.10236,2.5994 4.675,0.4036 9.625,0.6834 11,0.6218 l 2.5,-0.1119 0,-10.5 z m -91.08179,9.393 c 0.86999,-0.3338 1.58179,-1.2562 1.58179,-2.0496 0,-1.7953 -2.72097,-7.2503 -4.79697,-9.617 -1.98529,-2.2633 -3.17172,-0.6659 -3.17406,4.2736 -0.003,7.2875 1.6571,9.2089 6.38924,7.393 z m 12.58179,-31.1988 c 0,-1.5432 -0.84261,-5.4807 -1.87247,-8.75 -1.02985,-3.2693 -2.8754,-9.7692 -4.1012,-14.4442 -5.00102,-19.0729 -5.84899,-20.4361 -12.32254,-19.8099 l -3.20379,0.3099 -0.27907,13.2563 c -0.27663,13.1403 -0.25661,13.2759 2.28893,15.5 1.4124,1.234 5.90374,5.5062 9.98075,9.4937 4.07701,3.9875 7.88449,7.25 8.46107,7.25 0.57658,0 1.04832,-1.2626 1.04832,-2.8058 z m 47.99236,-11.4442 c -0.004,-1.2375 -0.90043,-5.175 -1.99163,-8.75 -1.09119,-3.575 -2.26308,-8.5799 -2.6042,-11.122 -0.99111,-7.3858 -0.83453,-7.3053 -15.60791,-8.0287 -7.30874,-0.358 -16.48752,-0.9804 -20.39729,-1.3832 -4.69234,-0.4835 -7.33125,-0.3723 -7.7635,0.3271 -0.74282,1.2019 11.30724,19.4001 17.3379,26.1839 2.88723,3.2479 4.28114,4.176 5.07669,3.3805 0.79555,-0.7956 -0.0207,-3.3594 -2.97288,-9.3378 -2.23825,-4.5326 -4.06954,-9.0809 -4.06954,-10.1074 0,-1.0265 1.125,-2.6034 2.5,-3.5044 2.27498,-1.4906 2.7146,-1.4974 4.88422,-0.076 1.31131,0.8592 5.69881,5.2826 9.75,9.8298 14.07057,15.7933 15.87388,17.2248 15.85814,12.588 z m 26.96373,-8 c -0.11918,-8.8206 -1.83013,-18.1847 -3.55276,-19.4443 -2.78665,-2.0377 -12.40333,-1.3831 -12.40333,0.8443 0,1.5275 13.97214,21.85 15.02237,21.85 0.53769,0 0.95787,-1.4625 0.93372,-3.25 z m -13.3546,-27.5153 c 0.60582,-0.4041 1.35029,-4.1121 1.65438,-8.24 0.67805,-9.2043 3.99261,-17.0544 9.3718,-22.1959 4.32198,-4.1309 9.89217,-6.81 14.09021,-6.7768 3.35741,0.026 10.52754,3.1651 14.96797,6.552 3.91021,2.9824 9.28848,12.4725 12.27821,21.6651 1.20547,3.7066 2.57841,6.9781 3.05096,7.2702 0.47256,0.292 3.02499,-0.4954 5.67209,-1.7499 3.45492,-1.6373 4.90763,-2.9476 5.14865,-4.6438 0.78002,-5.4895 -10.07217,-28.9008 -17.32414,-37.3731 -8.46989,-9.8951 -24.0387,-19.2789 -36.94088,-22.2654 -7.72809,-1.7888 -11.0081,-1.3969 -12.55879,1.5006 -0.86181,1.6103 -0.603,2.2441 1.47113,3.6032 3.64319,2.3871 3.43165,7.1686 -0.48308,10.9191 -1.65,1.5808 -3,3.5485 -3,4.3726 0,0.8242 -0.98103,2.5428 -2.18007,3.8191 -1.33457,1.4206 -2.46974,4.3543 -2.92699,7.5644 -1.16116,8.152 -1.01708,27.0713 0.23491,30.8447 1.6309,4.9153 4.67065,7.0035 7.47364,5.1339 z"
         id="path3439"
         inkscape:connector-curvature="0" />
      <path
         style="fill:#fc0707"
         d="m 878.23512,1678.1795 c -5.19975,-3.6421 -59.07484,-7.973 -80.10737,-6.4397 -13.23232,0.9646 -16.23576,1.7128 -20.99139,5.2288 -2.50693,1.8534 -3.35051,2.0135 -5.48556,1.0407 -2.75958,-1.2574 -2.97095,-2.5387 -1.48294,-8.9898 1.05315,-4.5658 -1.2374,-45.6971 -3.08832,-55.4569 -0.52349,-2.7603 -0.95179,-9.7028 -0.95179,-15.4277 0,-9.8344 0.14132,-10.5503 2.55971,-12.9687 1.97152,-1.9715 3.1779,-2.4149 5.25,-1.9295 14.48223,3.3928 66.29061,7.8448 67.55135,5.8049 0.36325,-0.5877 0.83316,-10.2163 1.04424,-21.3967 0.30257,-16.027 0.74451,-21.2802 2.08869,-24.8281 0.93771,-2.475 2.10722,-7.875 2.59891,-12 1.713,-14.371 5.78847,-19 16.72808,-19 3.3467,0 7.11859,0.4021 8.38197,0.8935 19.36428,7.5319 27.39382,11.9871 36.05333,20.0043 8.38041,7.7587 11.58474,12.8686 22.79582,36.3522 1.77235,3.7125 3.61068,6.75 4.08518,6.75 0.47449,0 0.86272,2.603 0.86272,5.7844 0,5.3406 -0.22561,5.9177 -2.94042,7.5213 -2.12134,1.2531 -4.03929,1.5613 -6.88518,1.1062 -3.17703,-0.508 -4.81132,-0.1229 -8.39743,1.9787 -5.69688,3.3385 -7.84232,3.2849 -11.67121,-0.2918 -2.48829,-2.3244 -3.10576,-3.7087 -3.10576,-6.9625 0,-5.9158 -3.47287,-14.2559 -8.14785,-19.5669 -5.00643,-5.6876 -8.48038,-7.5694 -13.97391,-7.5694 -3.66728,0 -4.75617,0.5609 -8.29966,4.2755 -6.65732,6.9786 -9.54969,18.4653 -5.94537,23.6112 1.35853,1.9396 2.23086,2.2348 5.18677,1.7551 5.29202,-0.8588 6.17889,0.4642 6.18761,9.2306 0.007,7.4469 0.80576,15.6574 3.14822,32.3776 0.63569,4.5375 1.21971,11.175 1.29782,14.75 0.0781,3.575 0.51219,12.35 0.96463,19.5 0.76878,12.1494 0.69653,13.1132 -1.10421,14.7298 -1.77508,1.5935 -2.10635,1.604 -4.20668,0.1329 z m -3.08095,-10.8945 c 1.51812,-1.8293 0.78339,-20.208 -0.99483,-24.8851 -1.82676,-4.8047 -19.75698,-31.3658 -21.97504,-32.5528 -3.7159,-1.9887 -2.45783,3.8807 3.51484,16.3982 6.05458,12.6891 7.40838,17.686 5.43563,20.063 -2.55873,3.0831 -6.57978,1.7788 -13.84709,-4.4915 -10.35209,-8.9319 -11.58677,-7.9376 -5.47682,4.4104 4.16803,8.4234 3.72781,10.5896 -2.15202,10.5896 -2.66835,0 -4.35,-1.1634 -9.75714,-6.75 -6.93638,-7.1666 -18.7913,-20.6268 -25.10107,-28.5 -9.02326,-11.259 -8.87886,-0.9968 0.24038,17.0827 3.24528,6.434 4.98131,12.0477 4.32385,13.9819 -0.24577,0.7231 -1.57972,1.7454 -2.96432,2.2718 -2.18924,0.8323 -3.23358,0.3676 -8.01001,-3.5646 -8.60312,-7.0826 -9.95156,-6.0059 -6.10614,4.8755 3.29313,9.3186 2.87787,9.1167 18.11576,8.8087 12.67325,-0.2562 50.25026,1.9347 62.35516,3.6356 0.62015,0.087 1.69964,-0.5309 2.39886,-1.3734 z m -91.60821,-0.075 c 2.1141,-0.8113 1.99479,-3.6632 -0.34512,-8.2498 -2.17469,-4.2627 -4.7646,-6.7869 -5.84726,-5.6988 -0.83035,0.8346 -0.57266,12.1854 0.30903,13.612 0.66287,1.0725 3.53699,1.2369 5.88335,0.3366 z m 12.58179,-32.1988 c 0,-1.5432 -0.84261,-5.4807 -1.87247,-8.75 -1.02985,-3.2693 -2.8754,-9.7692 -4.1012,-14.4442 -5.17889,-19.7513 -5.86376,-21 -11.51746,-21 -5.02298,0 -5.50887,1.2467 -5.50887,14.1349 0,13.3606 0.82174,16.4748 4.73207,17.9335 1.52236,0.568 5.75955,4.1599 9.41597,7.9821 3.65641,3.8222 7.14391,6.9495 7.75,6.9495 0.60608,0 1.10196,-1.2626 1.10196,-2.8058 z m 47.98918,-11.4442 c -0.006,-1.2375 -0.70912,-4.5 -1.56259,-7.25 -0.85346,-2.75 -2.20697,-8.3459 -3.00779,-12.4353 -0.80082,-4.0894 -1.71002,-7.6894 -2.02044,-8 -0.31042,-0.3106 -6.93954,-0.8669 -14.73138,-1.2362 -7.79184,-0.3694 -16.90978,-0.9881 -20.26208,-1.3749 -8.80567,-1.016 -8.84523,0.3189 -0.37907,12.7923 9.07253,13.3667 14.55824,19.57 16.01659,18.1117 0.79555,-0.7956 -0.0207,-3.3594 -2.97288,-9.3378 -2.23825,-4.5326 -4.06954,-9.0809 -4.06954,-10.1074 0,-1.0265 1.125,-2.6034 2.5,-3.5044 2.27498,-1.4906 2.7146,-1.4974 4.88422,-0.076 1.31131,0.8592 5.69881,5.2826 9.75,9.8298 14.069,15.7915 15.87727,17.2272 15.85496,12.588 z m 28.00323,-7 c -0.0193,-5.718 -2.04784,-19.1119 -3.0836,-20.3599 -1.61347,-1.9441 -12.76838,-1.9196 -13.51639,0.03 -0.7069,1.8421 13.18871,22.5802 15.12995,22.5802 0.86794,0 1.4745,-0.9284 1.47004,-2.25 z m -12.57215,-30 c 0.2521,-1.2375 0.66243,-5.001 0.91184,-8.3634 1.31244,-17.6934 15.15271,-29.9269 28.35196,-25.0605 7.50858,2.7683 12.03158,7.2012 16.18434,15.862 2.19199,4.5716 4.48361,10.2167 5.09249,12.5449 1.52038,5.8135 3.37538,6.5044 9.78911,3.6458 4.51982,-2.0144 5.24707,-2.725 5.22891,-5.1093 -0.0634,-8.3249 -12.20555,-32.2314 -20.81209,-40.9766 -7.82429,-7.9503 -19.51895,-15.221 -29.66682,-18.4443 -5.53989,-1.7597 -12.94414,-2.6302 -15.17067,-1.7837 -3.25785,1.2386 -4.74883,4.5018 -2.80402,6.1369 4.15117,3.4901 4.52111,4.0778 3.87371,6.1536 -0.36787,1.1795 -1.95815,3.6228 -3.53394,5.4294 -1.57579,1.8066 -2.86508,3.8026 -2.86508,4.4355 0,0.633 -0.90214,2.1111 -2.00476,3.2848 -4.82871,5.1399 -5.405,37.5548 -0.76883,43.2449 0.56016,0.6875 2.52981,1.25 4.37698,1.25 2.68042,0 3.45105,-0.4543 3.81687,-2.25 z"
         id="path3437"
         inkscape:connector-curvature="0" />
      <path
         style="fill:#2f2e2e"
         d="m 878.23512,1678.1795 c -5.19975,-3.6421 -59.07484,-7.973 -80.10737,-6.4397 -13.23232,0.9646 -16.23576,1.7128 -20.99139,5.2288 -2.50693,1.8534 -3.35051,2.0135 -5.48556,1.0407 -2.75958,-1.2574 -2.97095,-2.5387 -1.48294,-8.9898 1.05315,-4.5658 -1.2374,-45.6971 -3.08832,-55.4569 -0.52349,-2.7603 -0.95179,-9.7028 -0.95179,-15.4277 0,-9.8344 0.14132,-10.5503 2.55971,-12.9687 1.97152,-1.9715 3.1779,-2.4149 5.25,-1.9295 14.48223,3.3928 66.29061,7.8448 67.55135,5.8049 0.36325,-0.5877 0.83316,-10.2163 1.04424,-21.3967 0.30257,-16.027 0.74451,-21.2802 2.08869,-24.8281 0.93771,-2.475 2.10722,-7.875 2.59891,-12 1.713,-14.371 5.78847,-19 16.72808,-19 3.3467,0 7.11859,0.4021 8.38197,0.8935 19.36428,7.5319 27.39382,11.9871 36.05333,20.0043 8.38041,7.7587 11.58474,12.8686 22.79582,36.3522 1.77235,3.7125 3.61068,6.75 4.08518,6.75 0.47449,0 0.86272,2.603 0.86272,5.7844 0,5.3406 -0.22561,5.9177 -2.94042,7.5213 -2.12134,1.2531 -4.03929,1.5613 -6.88518,1.1062 -3.17703,-0.508 -4.81132,-0.1229 -8.39743,1.9787 -5.69688,3.3385 -7.84232,3.2849 -11.67121,-0.2918 -2.48829,-2.3244 -3.10576,-3.7087 -3.10576,-6.9625 0,-5.9158 -3.47287,-14.2559 -8.14785,-19.5669 -5.00643,-5.6876 -8.48038,-7.5694 -13.97391,-7.5694 -3.66728,0 -4.75617,0.5609 -8.29966,4.2755 -6.65732,6.9786 -9.54969,18.4653 -5.94537,23.6112 1.35853,1.9396 2.23086,2.2348 5.18677,1.7551 5.29202,-0.8588 6.17889,0.4642 6.18761,9.2306 0.007,7.4469 0.80576,15.6574 3.14822,32.3776 0.63569,4.5375 1.21971,11.175 1.29782,14.75 0.0781,3.575 0.51219,12.35 0.96463,19.5 0.76878,12.1494 0.69653,13.1132 -1.10421,14.7298 -1.77508,1.5935 -2.10635,1.604 -4.20668,0.1329 z m -3.08095,-10.8945 c 1.57476,-1.8975 0.75007,-20.4125 -1.11213,-24.9684 -1.17874,-2.8839 -2.14107,-14.0816 -2.01957,-23.4998 0.0968,-7.5027 -1.75005,-21.1208 -3.08197,-22.7256 -1.00113,-1.2063 -2.76377,-1.3901 -8.78263,-0.9159 -11.74291,0.9252 -21.21372,0.8155 -38.53012,-0.4461 -20.41285,-1.4873 -31.54267,-1.7122 -33.72708,-0.6815 -1.19264,0.5628 -2.35308,0.1889 -3.75,-1.208 -2.38484,-2.3848 -8.20034,-2.719 -9.98095,-0.5735 -1.78495,2.1508 -1.03111,26.6623 0.89107,28.9735 1.12695,1.3551 1.48667,6.2976 1.68412,23.139 0.13809,11.7787 0.53228,21.8709 0.87597,22.427 1.01382,1.6404 5.03082,1.1586 7.38849,-0.8862 1.25647,-1.0898 3.02645,-1.678 4.15833,-1.382 1.08389,0.2834 2.64331,-0.043 3.46538,-0.7251 1.19545,-0.9922 1.82186,-0.9689 3.12908,0.116 1.23198,1.0224 4.86368,1.2912 14.75,1.0917 12.57763,-0.2538 50.19019,1.9447 62.24315,3.6383 0.62015,0.087 1.69964,-0.5309 2.39886,-1.3734 z m -15.60616,-80.7182 c 0.2521,-1.2375 0.66243,-5.001 0.91184,-8.3634 1.31244,-17.6934 15.15271,-29.9269 28.35196,-25.0605 7.50858,2.7683 12.03158,7.2012 16.18434,15.862 2.19199,4.5716 4.48361,10.2167 5.09249,12.5449 1.52038,5.8135 3.37538,6.5044 9.78911,3.6458 4.51982,-2.0144 5.24707,-2.725 5.22891,-5.1093 -0.0634,-8.3249 -12.20555,-32.2314 -20.81209,-40.9766 -7.82429,-7.9503 -19.51895,-15.221 -29.66682,-18.4443 -5.53989,-1.7597 -12.94414,-2.6302 -15.17067,-1.7837 -3.25785,1.2386 -4.74883,4.5018 -2.80402,6.1369 4.15117,3.4901 4.52111,4.0778 3.87371,6.1536 -0.36787,1.1795 -1.95815,3.6228 -3.53394,5.4294 -1.57579,1.8066 -2.86508,3.8026 -2.86508,4.4355 0,0.633 -0.90214,2.1111 -2.00476,3.2848 -4.82871,5.1399 -5.405,37.5548 -0.76883,43.2449 0.56016,0.6875 2.52981,1.25 4.37698,1.25 2.68042,0 3.45105,-0.4543 3.81687,-2.25 z"
         id="path3435"
         inkscape:connector-curvature="0" />
      <path
         style="fill:#050404"
         d="m 878.28337,1677.2133 c -5.12257,-3.588 -59.78389,-7.9024 -80.36211,-6.343 -13.58501,1.0295 -17.0253,1.8918 -20.48815,5.1354 -1.5721,1.4726 -2.9195,1.8738 -4.75,1.4144 -2.80804,-0.7048 -3.05132,-2.0891 -1.64491,-9.3597 0.45285,-2.3411 0.46016,-9.9911 0.0163,-17 -1.77348,-28.0023 -3.28369,-44.141 -4.08426,-43.6462 -0.46335,0.2863 -0.84245,-3.8075 -0.84245,-9.0974 0,-6.1574 0.35981,-9.3957 1,-9 0.55,0.3399 1,-0.2534 1,-1.3185 0,-3.6607 2.38814,-4.5159 9.24095,-3.3095 20.12395,3.5429 62.11482,7.0467 64.50496,5.3825 0.91081,-0.6342 1.33339,-6.635 1.57116,-22.311 0.2928,-19.3045 0.54258,-21.9709 2.50409,-26.7305 1.19836,-2.9079 2.18135,-7.1829 2.18442,-9.5 0.003,-2.3172 0.49499,-6.013 1.09316,-8.213 1.1459,-4.2144 5.36787,-9.5 7.58835,-9.5 0.7221,0 1.31291,-0.45 1.31291,-1 0,-0.55 2.475,-1 5.5,-1 3.025,0 5.5,0.45 5.5,1 0,0.55 0.84642,1 1.88094,1 3.28656,0 15.3403,4.9789 23.61906,9.7561 4.96286,2.8638 10.84768,7.4879 15.50097,12.1801 6.79944,6.8564 8.27247,9.1197 15.75,24.2 4.53697,9.1499 8.25592,17.2499 8.26434,18 0.0119,1.0607 0.23073,1.0305 0.98469,-0.1362 0.69188,-1.0706 0.97376,0.051 0.98469,3.9167 0.008,2.9791 -0.24719,5.1541 -0.56802,4.8333 -0.32084,-0.3208 -1.46981,0.3031 -2.55329,1.3866 -1.60869,1.6087 -2.76761,1.8503 -6.31967,1.3177 -3.6078,-0.541 -5.10615,-0.209 -8.78457,1.9467 -5.35745,3.1397 -7.07323,3.2236 -10.85477,0.5309 -2.35517,-1.677 -2.90437,-2.805 -2.90437,-5.965 0,-8.59 -6.92916,-21.9059 -13.51815,-25.9781 -2.0525,-1.2685 -5.85268,-2.5102 -8.44485,-2.7593 -4.21629,-0.4051 -5.10579,-0.108 -8.43925,2.8188 -7.52832,6.61 -11.35369,19.9337 -7.68909,26.781 1.07375,2.0063 1.87522,2.2767 5.91666,1.9957 l 4.67468,-0.325 0.69278,11.5 c 0.38103,6.325 1.40641,16.45 2.27861,22.5 0.87221,6.05 2.08469,20.5972 2.69441,32.3271 0.94304,18.1424 0.89661,21.5391 -0.31094,22.7466 -1.22602,1.226 -1.73026,1.2019 -3.69924,-0.1772 z m -92.87931,-10.3992 c 1.42578,-1.1215 3.2507,-1.7323 4.14759,-1.3881 0.88086,0.338 2.27084,0.059 3.08883,-0.6198 1.16583,-0.9675 1.80274,-0.9725 2.94691,-0.023 1.02035,0.8469 6.14002,1.1738 17.01155,1.0864 8.55355,-0.069 22.40921,0.4467 30.79036,1.1453 8.38115,0.6986 19.28845,1.2773 24.23845,1.286 l 9,0.016 -0.23407,-11.4367 c -0.12874,-6.2902 -0.80149,-13.0402 -1.495,-15 -0.69351,-1.9598 -1.31821,-6.2633 -1.38823,-9.5633 -0.46507,-21.9215 -2.16572,-36.0717 -4.52708,-37.6676 -0.74559,-0.5038 -4.50562,-0.6767 -8.35562,-0.384 -12.45166,0.9465 -22.67407,0.8189 -39,-0.4866 -8.8,-0.7037 -20.5,-1.3205 -26,-1.3706 -6.00298,-0.055 -10.87305,-0.5908 -12.18426,-1.3412 -3.2461,-1.8577 -7.75869,-1.523 -9.79433,0.7263 -1.57804,1.7438 -1.73411,3.48 -1.32586,14.75 0.28305,7.8137 0.97533,13.7302 1.78287,15.2369 0.92665,1.729 1.45272,8.7336 1.76493,23.5 0.25879,12.2399 0.87482,21.5595 1.47316,22.2868 1.52734,1.8565 5.17593,1.5157 8.0598,-0.7527 z m 74.38058,-78.2473 c 0.42621,-0.6875 0.87029,-3.8674 0.98686,-7.0665 0.3487,-9.57 3.00961,-16.239 8.87725,-22.249 7.76881,-7.9573 15.17494,-8.5754 24.95389,-2.0825 4.04894,2.6883 5.93378,4.9051 8.74676,10.2874 1.97211,3.7733 4.29694,9.281 5.16629,12.2392 2.62231,8.9232 4.4814,9.7786 12.61206,5.803 5.61425,-2.7451 5.87144,-4.2287 2.4851,-14.3356 -4.19878,-12.5316 -12.02415,-25.8795 -19.56757,-33.3768 -11.21722,-11.1486 -29.22629,-19.9692 -40.77127,-19.9692 -4.22795,0 -5.32568,0.4126 -7.10064,2.6691 -2.37703,3.0219 -2.26992,4.2224 0.5139,5.7595 4.44045,2.4518 4.42959,4.1983 -0.0595,9.5714 -1.925,2.3041 -3.5,4.6801 -3.5,5.2802 0,0.6 -1.0125,2.1683 -2.25,3.4851 -2.16788,2.3067 -2.25,3.0771 -2.25,21.1065 0,16.2292 0.23529,19.0717 1.77305,21.4203 1.35529,2.0699 2.57839,2.7079 5.19099,2.7079 1.87986,0 3.76664,-0.5625 4.19285,-1.25 z"
         id="path3433"
         inkscape:connector-curvature="0" />
    </g>
  </g>
</svg>
