<?xml version="1.0" encoding="UTF-8" standalone="no"?>
<!-- Created with Inkscape (http://www.inkscape.org/) -->

<svg
   xmlns:dc="http://purl.org/dc/elements/1.1/"
   xmlns:cc="http://creativecommons.org/ns#"
   xmlns:rdf="http://www.w3.org/1999/02/22-rdf-syntax-ns#"
   xmlns:svg="http://www.w3.org/2000/svg"
   xmlns="http://www.w3.org/2000/svg"
   xmlns:sodipodi="http://sodipodi.sourceforge.net/DTD/sodipodi-0.dtd"
   xmlns:inkscape="http://www.inkscape.org/namespaces/inkscape"
   width="192.82053"
   height="518.6557"
   id="svg2"
   version="1.1"
   inkscape:version="0.48.5 r10040">
  <defs
     id="defs4">
    <clipPath
       clipPathUnits="userSpaceOnUse"
       id="clipPath4470">
      <rect
         style="fill:#000000;fill-opacity:1;stroke:#000000;stroke-width:1.50743604;stroke-miterlimit:4;stroke-opacity:1;stroke-dasharray:none"
         id="rect4472"
         width="513.16364"
         height="322.06415"
         x="482.71091"
         y="1466.4425" />
    </clipPath>
  </defs>
  <sodipodi:namedview
     id="base"
     pagecolor="#ffffff"
     bordercolor="#666666"
     borderopacity="1.0"
     inkscape:pageopacity="0.0"
     inkscape:pageshadow="2"
     inkscape:zoom="1.0576923"
     inkscape:cx="-59.259579"
     inkscape:cy="262.78183"
     inkscape:document-units="px"
     inkscape:current-layer="layer1"
     showgrid="false"
     inkscape:window-width="1366"
     inkscape:window-height="718"
     inkscape:window-x="0"
     inkscape:window-y="0"
     inkscape:window-maximized="1"
     fit-margin-top="0"
     fit-margin-left="0"
     fit-margin-right="0"
     fit-margin-bottom="0" />
  <metadata
     id="metadata7">
    <rdf:RDF>
      <cc:Work
         rdf:about="">
        <dc:format>image/svg+xml</dc:format>
        <dc:type
           rdf:resource="http://purl.org/dc/dcmitype/StillImage" />
        <dc:title></dc:title>
      </cc:Work>
    </rdf:RDF>
  </metadata>
  <g
     inkscape:label="Layer 1"
     inkscape:groupmode="layer"
     id="layer1"
     transform="translate(-834.80944,-1486.8257)">
    <g
       id="g4754"
       transform="translate(156,3.7818182)">
      <path
         style="fill:#e2a5a7"
         d="m 805.04987,2000.7782 c -6.76532,-0.8448 -16.79172,-5.4379 -23.03112,-10.5506 -10.93063,-8.9568 -15.18754,-28.6292 -10.46119,-48.3442 3.68435,-15.3685 7.36004,-21.1838 13.38974,-21.1838 1.56986,0 2.69337,0.7107 3.08774,1.9533 0.57888,1.8239 0.90583,1.735 4.9355,-1.3409 9.91094,-7.5652 27.89205,-11.9928 40.16596,-9.8904 20.41531,3.497 36.41337,21.8746 36.41337,41.8296 0,17.2038 -17.31459,39.3558 -35.88189,45.9067 -5.0036,1.7654 -20.45153,2.64 -28.61811,1.6203 z m 10.03302,-19.2776 c 3.67536,-5.6094 6.91797,-10.8969 7.2058,-11.75 0.28783,-0.853 -4.37316,3.2973 -10.35775,9.223 -8.75285,8.6666 -10.58769,10.9618 -9.38107,11.7346 3.92478,2.5138 5.71457,1.1989 12.53302,-9.2076 z m 21.35301,6.3199 c 1.45763,-1.1208 1.97217,-2.0905 1.32238,-2.4921 -0.58502,-0.3616 -2.33373,0.4598 -3.88604,1.8253 -3.34473,2.9422 -1.14098,3.5153 2.56366,0.6668 z m -41.38396,-12.2309 c 5.56688,-7.5621 5.75304,-9.2566 0.49505,-4.5064 -4.20833,3.802 -5.88794,4.2804 -9.06286,2.5812 -1.59694,-0.8546 -1.93426,-0.7038 -1.93426,0.8652 0,2.0881 3.59674,7.17 5.07465,7.17 0.51122,0 2.95355,-2.7495 5.42742,-6.11 z m 62.11529,-14.6457 c 3.75661,-12.9223 -3.32228,-28.9237 -16.00598,-36.1806 -7.3389,-4.1989 -14.34602,-5.4278 -22.85783,-4.0088 -7.27865,1.2133 -8.56405,2.0275 -6.24254,3.9542 2.30283,1.9112 1.77911,5.7404 -1.59068,11.6301 -1.69382,2.9605 -2.93111,5.8285 -2.74953,6.3732 0.38599,1.158 18.0741,-11.7453 22.02283,-16.0654 3.17863,-3.4776 5.57199,-3.7058 9.17151,-0.8744 3.62337,2.8501 3.30359,5.7437 -1.15353,10.4377 -5.52918,5.823 -10.53951,12.4951 -9.87903,13.1556 0.31553,0.3155 3.95446,-1.7302 8.08652,-4.5461 4.13206,-2.8159 8.44861,-5.1198 9.59232,-5.1198 2.58904,0 6.98858,4.2696 6.98858,6.7822 0,1.0302 -2.68827,5.4382 -5.97393,9.7954 -3.28566,4.3573 -5.98566,8.407 -6,8.9992 -0.0146,0.6011 1.18879,0.9138 2.72393,0.7078 1.85836,-0.2494 3.7227,0.443 5.75,2.1354 l 3,2.5046 1.75666,-2.0813 c 0.96617,-1.1447 2.47848,-4.5643 3.3607,-7.599 z m -72.61736,1.5646 c 0,-0.4449 -0.9,-0.8089 -2,-0.8089 -2.11972,0 -2.40936,0.7696 -1.33917,3.5585 0.61683,1.6075 0.74997,1.6002 2,-0.1093 0.73654,-1.0073 1.33917,-2.1954 1.33917,-2.6403 z m -6.5,-106.8089 c -1.65,-0.4198 -5.05265,-0.8166 -7.56144,-0.8817 -5.25042,-0.1362 -8.93856,-2.8389 -8.93856,-6.5503 0,-2.7513 1.64764,-3.568 7.19842,-3.568 4.70102,0 4.79006,1.0049 -1.19617,-13.5 -3.99728,-9.6856 -8.77397,-23.6987 -10.93678,-32.0845 -0.94262,-3.6548 -2.01923,-9.3678 -5.16651,-27.4155 -1.49844,-8.5926 -1.21845,-32.4631 0.48316,-41.1924 1.99121,-10.215 3.87342,-15.5753 9.15567,-26.0744 4.19512,-8.3383 6.77568,-12.597 23.16727,-38.2332 9.61407,-15.0362 16.23664,-27.1681 21.59345,-39.5571 7.18896,-16.6263 12.63194,-35.7605 12.64241,-44.4429 0.003,-2.2 0.2797,-6.767 0.61567,-10.1489 1.15067,-11.5826 -4.27257,-26.2587 -12.36274,-33.4555 -6.61715,-5.8864 -13.15456,-8.5723 -22.69385,-9.3237 -9.4651,-0.7457 -15.87193,0.668 -26.7188,5.8955 -9.34612,4.5043 -18.36797,11.931 -23.66247,19.4788 -5.69609,8.1204 -7.11873,11.9349 -7.11873,19.0874 0,7.5384 1.17793,9.9664 4.83518,9.9664 3.12721,0 5.16482,1.6038 5.16482,4.0651 0,2.4701 -3.47017,6.4356 -8.74975,9.9988 -10.49796,7.085 -33.02335,17.9361 -37.2328,17.9361 -2.71451,0 -4.83423,-3.1117 -7.54844,-11.0811 -2.14754,-6.3055 -2.57966,-9.6181 -2.87927,-22.0725 -0.19388,-8.0594 -0.69009,-15.1998 -1.10269,-15.8673 -0.87086,-1.4091 0.84704,-9.9801 3.64648,-18.1931 2.62916,-7.7134 14.71766,-25.5936 23.51817,-34.786 8.13797,-8.5003 19.32715,-15.7615 33.63738,-21.8289 7.04127,-2.9855 12.03755,-4.3008 21.21092,-5.5842 6.6,-0.9234 14.74464,-2.1435 18.09919,-2.7114 4.26725,-0.7225 7.85163,-0.7087 11.93366,0.046 3.20896,0.5932 8.3803,1.0786 11.49188,1.0786 7.70263,0 13.46786,1.9142 21.06499,6.9941 8.2112,5.4905 11.52816,8.5443 14.66955,13.5059 1.39292,2.2 4.2862,6.1105 6.42952,8.69 2.20579,2.6547 5.61611,8.9151 7.85843,14.426 2.17881,5.3549 4.73435,10.5901 5.67898,11.6339 1.09764,1.2129 1.77404,3.766 1.87416,7.074 0.0864,2.8558 2.25096,12.1243 4.8286,20.6761 4.11377,13.6482 4.80392,17.3091 5.77675,30.6427 1.24168,17.0183 0.85099,21.0368 -4.11821,42.3573 -2.45589,10.5371 -4.04874,15.0363 -7.25755,20.5 -2.2611,3.85 -6.21715,11.05 -8.79121,16 -2.57407,4.95 -7.68581,13.6235 -11.35943,19.2743 -3.67362,5.6509 -6.67931,10.5531 -6.67931,10.8937 0,0.3406 -2.19416,4.2672 -4.8759,8.7257 -5.97997,9.9418 -12.50517,23.7679 -15.62457,33.1063 -2.63059,7.8751 -5.96333,34.0396 -5.03098,39.4969 1.9063,11.1582 4.23288,18.8848 6.74584,22.4031 2.1378,2.9931 2.78561,5.0395 2.78561,8.7997 0,5.2946 1.83115,9.8045 5.63386,13.8756 5.82916,6.2405 4.32898,14.2653 -3.13386,16.7639 -16.32228,5.4647 -32.03371,7.4423 -41,5.1608 z m 15.91736,-9.6067 c 1.34523,-0.5162 1.20833,-1.0494 -0.91822,-3.5767 -1.5574,-1.8509 -2.49914,-4.21 -2.49914,-6.2604 0,-2.731 0.6801,-3.7405 4,-5.9375 4.02783,-2.6655 5.57717,-5.4906 2.25,-4.1027 -6.52654,2.7225 -7.05334,2.8081 -9.93574,1.6142 -4.6977,-1.9459 -6.68388,-6.3198 -5.97025,-13.1475 l 0.6031,-5.77 -3.37211,-0.6326 c -1.85466,-0.348 -4.54276,-1.5535 -5.97355,-2.679 -1.4308,-1.1254 -2.60145,-1.794 -2.60145,-1.4856 0,2.541 7.15607,22.089 11.0978,30.3155 2.69621,5.6271 4.9022,10.6896 4.9022,11.25 0,1.1069 5.85944,1.3939 8.41736,0.4123 z m 12.6323,-3.919 c 2.86011,-1.479 3.85079,-3.7998 2.0873,-4.8896 -0.47467,-0.2934 -2.61217,1.0113 -4.75,2.8993 -2.90927,2.5693 -3.43429,3.4432 -2.0873,3.4744 0.98981,0.023 3.12731,-0.645 4.75,-1.4841 z m -7.97466,-31.7493 c -0.12369,-1.1957 -1.49529,-0.9641 -1.925,0.325 -0.22,0.66 0.14,1.02 0.8,0.8 0.66,-0.22 1.16625,-0.7263 1.125,-1.125 z m -29.33054,-18.475 c 0.65061,-1.5125 1.74585,-3.5159 2.43386,-4.452 1.54764,-2.1058 1.25356,-2.3711 -3.42832,-3.0936 -4.23993,-0.6543 -4.51294,0.01 -2.69742,6.5456 1.23976,4.4642 2.10135,4.6975 3.69188,1 z m 21.78766,-1.699 c 2.67224,-1.1165 3.46788,-2.0342 3.46788,-4 0,-3.2863 -0.74126,-3.2129 -5.27216,0.5218 -5.67678,4.6793 -4.85621,6.2612 1.80428,3.4782 z m -21.0053,-26.6713 6.97318,-7.1203 -4.17372,0.6199 c -3.54697,0.5269 -4.63569,0.2312 -7.25,-1.9686 -4.34381,-3.655 -4.20722,-8.258 0.45029,-15.174 l 3.52656,-5.2367 -4.00751,0 c -3.4172,0 -4.09795,0.3603 -4.62148,2.4462 -1.42787,5.6891 0.15969,33.5538 1.9117,33.5538 0.11979,0 3.35573,-3.2041 7.19098,-7.1203 z m 26.2682,-2.3385 -0.29502,-5.0412 -5.28289,4.9176 -5.2829,4.9176 3.6581,1.2576 c 2.01196,0.6917 4.15093,1.7504 4.75328,2.3528 1.63192,1.6319 2.80185,-2.3823 2.44943,-8.4044 z m -2.77919,-26.0453 c 3.27334,-0.8482 6.99459,-1.2804 8.26946,-0.9604 2.02438,0.5081 2.62368,-0.091 4.73224,-4.7269 1.32787,-2.9197 4.62665,-9.2616 7.33062,-14.093 2.70398,-4.8315 4.696,-9.0048 4.42673,-9.2741 -0.95542,-0.9554 -12.7008,8.5355 -23.17149,18.7238 -9.74434,9.4815 -13.01486,13.974 -9.07124,12.4607 0.84269,-0.3233 4.21034,-1.2819 7.48368,-2.1301 z m -8.69218,-35.0703 c 11.61634,-9.8774 13.71916,-12.0873 13.16927,-13.84 -1.95636,-6.2352 -1.91689,-6.3409 5.07248,-13.5806 l 6.79104,-7.0343 -1.67822,-3.5193 c -0.92302,-1.9356 -1.67822,-3.9943 -1.67822,-4.575 0,-0.5807 2.47298,-3.8279 5.49551,-7.2161 3.02252,-3.3881 5.49752,-6.6537 5.5,-7.2567 0.002,-0.603 -0.69296,-2.4944 -1.5454,-4.2031 -2.15682,-4.3235 -0.96995,-6.2838 12.15744,-20.0805 10.12581,-10.642 10.68093,-11.4359 8.90461,-12.7348 -1.04193,-0.7618 -2.22171,-1.3852 -2.62173,-1.3852 -0.40002,0 -1.71924,-1.605 -2.9316,-3.5666 -2.19056,-3.5444 -2.28827,-6.8112 -0.39432,-13.1834 0.41821,-1.4071 0.24238,-2.25 -0.46932,-2.25 -0.62594,0 -1.52488,1.0125 -1.99765,2.25 -1.4197,3.7161 -4.89668,15.0415 -5.59684,18.2302 -0.35991,1.6392 -2.89018,8.7653 -5.62283,15.8358 -5.22325,13.5148 -13.72321,29.4868 -25.90862,48.684 -16.13855,25.4251 -23.96925,39.1498 -23.96925,42.0102 0,1.7955 2.82818,-0.259 17.32365,-12.5846 z m 42.84847,-8.4256 c 6.16547,-8.6234 10.82788,-16.3582 10.82788,-17.9632 0,-0.7809 -0.66273,-0.7525 -2.24901,0.097 -3.76548,2.0152 -20.75099,16.0158 -20.75099,17.1043 0,0.8478 6.17025,8.5798 6.65493,8.3393 0.0852,-0.042 2.56794,-3.4519 5.51719,-7.5769 z m 21.66566,-36.75 c 2.30444,-4.6005 3.49133,-9.25 2.36127,-9.25 -1.51063,0 -9.19905,7.1219 -9.19905,8.5212 0,1.083 3.56521,4.4788 4.70218,4.4788 0.14145,0 1.10246,-1.6875 2.1356,-3.75 z m 7.60787,-27.7357 c 0.81455,-2.7065 1.29326,-5.1087 1.06379,-5.3382 -0.49367,-0.4937 -8.50944,5.7173 -8.50944,6.5935 0,1.367 4.43532,5.1951 5.16907,4.4613 0.43756,-0.4375 1.46202,-3.01 2.27658,-5.7166 z m -6.72256,-30.7354 c 6.24597,-6.1905 7.36191,-8.7879 5.66992,-13.1971 -0.86946,-2.2658 -1.85302,-1.9939 -6.03354,1.6682 -8.03009,7.0342 -12.23775,17.75 -6.96971,17.75 0.58104,0 3.88104,-2.7995 7.33333,-6.2211 z m -142.13298,0.6441 c 9.86515,-4.8745 10.88307,-6.1116 9.32031,-11.3277 -0.67485,-2.2524 -1.52535,-4.0953 -1.89,-4.0953 -0.76422,0 -19.05002,11.6296 -20.38525,12.9648 -0.48881,0.4888 -0.59811,2.0467 -0.2429,3.462 0.91057,3.628 4.35384,3.3661 13.19784,-1.0038 z m 12.50856,-39.4567 c 3.75652,-7.048 16.61853,-20.5442 23.32354,-24.4736 3.72904,-2.1853 4.41102,-2.9887 3.48467,-4.1049 -1.79521,-2.1631 -2.82834,-1.7286 -7.9939,3.3622 -9.20251,9.0692 -12.4544,11.991 -20.16298,18.1161 -4.2625,3.3869 -7.75,6.6981 -7.75,7.3584 0,0.913 4.57863,5.5304 5.69136,5.7395 0.10525,0.02 1.63854,-2.6792 3.40731,-5.9977 z m 114.31895,1.9932 c 3.66759,-4.0596 3.9132,-5.9542 0.77336,-5.9657 -0.93004,0 -2.97992,-0.6783 -4.55529,-1.5 -1.57537,-0.8216 -3.08896,-1.4938 -3.36354,-1.4938 -0.52097,0 0.46605,8.2118 1.3522,11.25 0.75277,2.5809 1.74762,2.1876 5.79327,-2.2905 z m -129.54373,-17.222 c 4.15635,-2.7828 4.95304,-4.1084 3.14195,-5.2277 -0.5413,-0.3345 -1.34918,-2.0169 -1.79531,-3.7386 l -0.81114,-3.1302 -2.45469,3.8228 c -4.29806,6.6936 -7.90722,13.0089 -7.93134,13.8783 -0.023,0.83 1.72693,-0.1657 9.85053,-5.6046 z m 120.7609,-3.436 c -0.30169,-0.3017 -1.29362,-0.2627 -2.20429,0.087 -1.37492,0.5276 -1.43738,0.8985 -0.36824,2.1867 1.15981,1.3975 1.37844,1.3889 2.20429,-0.087 0.50423,-0.901 0.66994,-1.885 0.36824,-2.1867 z m -104.24357,-23.1763 c 1.28002,-2.0859 -8.34958,4.984 -10.00749,7.3473 -2.86602,4.0855 -1.20441,3.6356 3.86627,-1.0469 2.8875,-2.6664 5.65105,-5.5016 6.14122,-6.3004 z m 112.60878,6.9582 c 0,-0.3759 -0.54,-1.2234 -1.2,-1.8834 -0.66,-0.66 -1.50752,-1.2 -1.88337,-1.2 -0.82185,0 -1.88782,3.6955 -1.24996,4.3333 0.63786,0.6379 4.33333,-0.4281 4.33333,-1.2499 z m -9.30979,-8.3741 c 2.688,-0.054 3.04657,-0.3326 2.27777,-1.7691 -1.71003,-3.1953 -11.45467,-11.2301 -16.46798,-13.5785 -7.50985,-3.5179 -14.45322,-2.7378 -18.44528,2.0724 -1.11806,1.3471 -0.9682,1.561 1.07284,1.5305 1.30484,-0.019 3.49744,-0.6786 4.87244,-1.4646 3.95751,-2.2623 9.60228,-1.9059 11.4433,0.7225 2.27785,3.2521 1.92842,5.2519 -1.52022,8.7006 l -3.07693,3.0769 3.32693,0.1 c 1.8298,0.055 4.45192,0.4747 5.82692,0.9332 1.375,0.4584 3.625,0.5876 5,0.2871 1.375,-0.3005 3.93559,-0.5753 5.69021,-0.6107 z"
         id="path4768"
         inkscape:connector-curvature="0" />
      <path
         style="fill:#a99e9b"
         d="m 805.92175,2000.6767 c -7.46078,-1.0095 -18.84679,-6.5301 -24.81576,-12.0321 -11.13955,-10.2681 -14.03633,-31.8812 -7.16318,-53.445 2.90891,-9.1264 4.7957,-12.241 8.19929,-13.5351 3.32646,-1.2647 5.40777,-0.203 5.40777,2.7585 0,2.4824 0.0443,2.4693 4.12496,-1.2173 10.81345,-9.7693 33.28116,-14.4961 47.16904,-9.9235 11.65373,3.837 22.85255,13.9616 26.78512,24.2158 3.03028,7.9014 3.66915,19.4327 1.44725,26.1222 -5.03491,15.1587 -18.29069,29.0741 -33.35069,35.0102 -5.80516,2.2881 -18.896,3.2516 -27.8038,2.0463 z m 11.34933,-20.4771 c 6.95109,-10.5286 8.35468,-13.5 6.37699,-13.5 -1.24942,0 -20.93118,18.8194 -22.24064,21.2662 -1.39215,2.6012 0.43293,3.8465 5.12189,3.4948 3.23628,-0.2428 3.98698,-1.0297 10.74176,-11.261 z m 16.87371,9.4541 c 4.53994,-2.1978 6.27646,-4.6825 3.90775,-5.5914 -1.50524,-0.5777 -9.50267,5.079 -9.50267,6.7213 0,1.3309 0.87779,1.1536 5.59492,-1.1299 z m -39.43406,-11.7041 c 5.71516,-7.6003 9.17931,-13.2432 8.52913,-13.8934 -0.33148,-0.3314 -3.36169,1.7027 -6.73379,4.5204 -3.3721,2.8176 -6.5622,5.123 -7.0891,5.123 -2.06674,0 -6.05068,-5.0801 -5.32843,-6.7945 0.39519,-0.938 0.93811,-2.718 1.2065,-3.9555 0.40869,-1.8844 0.0628,-2.25 -2.12859,-2.25 -3.27855,0 -3.37347,1.8163 -0.53527,10.2414 2.28139,6.7722 5.36914,11.7586 7.2813,11.7586 0.67453,0 2.83374,-2.1375 4.79825,-4.75 z m 61.8911,-14.0911 c 7.21235,-19.1841 -7.39814,-41.5653 -28.57269,-43.7692 -6.25539,-0.6511 -16.96835,0.9746 -18.05979,2.7406 -0.33847,0.5477 0.10368,1.7903 0.98256,2.7615 2.21263,2.4449 2.07975,3.2014 -1.97739,11.2578 -2.10622,4.1824 -3.20727,7.4678 -2.67957,7.9955 0.91639,0.9164 15.06325,-9.1224 22.98258,-16.3087 2.32521,-2.11 4.77121,-3.8364 5.43555,-3.8364 1.66107,0 5.83679,4.0519 5.83679,5.6637 0,0.7233 -2.14246,3.6824 -4.76102,6.5757 -8.99098,9.9344 -12.0086,14.7606 -9.22917,14.7606 0.5554,0 4.83458,-2.5453 9.50929,-5.6563 7.64918,-5.0904 8.75011,-5.5421 11.00491,-4.5147 1.378,0.6278 3.00528,2.2386 3.61619,3.5793 1.00193,2.1991 0.46383,3.3025 -5.49313,11.2648 -3.63212,4.8548 -6.61358,9.4098 -6.62546,10.1222 -0.0153,0.918 0.92524,1.1231 3.22839,0.7042 2.47057,-0.4493 4.08938,-0.01 6.75,1.8504 4.28982,2.9924 5.19469,2.409 8.05196,-5.191 z m -76.55196,-108.0957 c -1.65,-0.4546 -4.93485,-0.8798 -7.29966,-0.9449 -4.79374,-0.1319 -9.64973,-2.241 -10.54777,-4.5813 -1.43805,-3.7475 2.08307,-6.1932 7.2747,-5.053 1.58528,0.3482 3.1154,0.256 3.40026,-0.2049 0.28485,-0.4609 -0.96194,-4.1998 -2.77067,-8.3086 -10.74697,-24.4133 -18.29539,-55.2633 -19.28657,-78.8232 -1.14571,-27.2329 3.73937,-43.8379 20.85162,-70.8773 24.40843,-38.5683 29.4357,-47.3464 35.48509,-61.9602 8.04036,-19.4234 11.07602,-31.7224 11.93965,-48.3736 0.58715,-11.3205 0.42013,-14.5457 -1.0099,-19.5 -2.4879,-8.6194 -6.30491,-15.0584 -11.48562,-19.3752 -7.56791,-6.306 -11.49378,-7.7903 -22.7068,-8.5853 -9.34902,-0.6628 -10.71863,-0.5153 -18.12753,1.9521 -22.04866,7.3429 -40.18631,26.5909 -40.21122,42.673 -0.008,5.4774 1.84879,9.8992 4.15799,9.8992 3.24495,0 5.83643,1.9266 5.83643,4.339 0,3.7698 -7.03009,9.4385 -21.07343,16.9925 -12.91131,6.945 -23.60095,10.9131 -25.97539,9.6424 -1.07315,-0.5744 -1.95118,-1.1579 -1.95118,-1.2969 0,-0.1389 -1.40267,-4.2746 -3.11705,-9.1903 -2.7219,-7.8048 -3.11369,-10.2443 -3.09051,-19.2436 0.0146,-5.6682 -0.33833,-12.8792 -0.78428,-16.0245 -0.82001,-5.7835 0.91079,-15.1938 4.18226,-22.7389 2.72399,-6.2825 17.10336,-26.526 23.25416,-32.7376 13.46002,-13.5932 34.99006,-24.1164 55.55542,-27.1538 6.325,-0.9342 14.2,-2.1523 17.5,-2.707 4.09026,-0.6876 7.43231,-0.6778 10.5,0.031 2.475,0.5716 7.00582,1.0502 10.0685,1.0637 3.06267,0.013 7.97752,0.7398 10.92189,1.6142 6.83028,2.0284 22.68059,12.6265 24.85945,16.622 0.90759,1.6643 4.00632,6.0816 6.88608,9.8161 3.07802,3.9917 6.67268,10.354 8.72208,15.4375 1.91739,4.7561 4.33656,9.8595 5.37594,11.341 1.16049,1.6541 2.10409,5.202 2.4451,9.1936 0.30543,3.575 2.58662,13.0853 5.06932,21.134 3.81663,12.3732 4.6961,16.8442 5.69267,28.9403 1.32715,16.1084 1.14565,18.2453 -3.04444,35.8444 -4.25144,17.8568 -5.60281,21.8649 -9.46782,28.0813 -1.88078,3.025 -5.65324,9.7927 -8.38325,15.0393 -2.73001,5.2466 -7.34505,13.1216 -10.25563,17.5 -6.93247,10.4285 -13.66963,22.3871 -20.25935,35.9607 -9.06999,18.6825 -10.98214,26.0187 -12.23237,46.9307 -0.5704,9.5406 -0.34866,12.49 1.54565,20.5587 1.21637,5.1811 3.12932,10.709 4.25101,12.2842 1.12168,1.5753 2.37103,5.4206 2.77632,8.5453 0.93491,7.2077 2.12749,10.0849 6.0155,14.5131 4.26669,4.8595 4.93909,9.5186 1.86581,12.9281 -4.90756,5.4444 -34.05887,11.3639 -43.35246,8.8032 z m 19.5,-10.7304 c 6.87918,-1.8628 10,-3.8279 10,-6.2968 0,-3.4039 -1.74988,-3.1472 -6.48556,0.9515 -5.31876,4.6034 -6.64774,4.8592 -9.47548,1.8239 -3.35065,-3.5965 -2.61396,-6.6949 2.71104,-11.4022 2.6125,-2.3095 4.40228,-4.5566 3.97729,-4.9935 -0.42499,-0.437 -2.99053,0 -5.70119,0.9778 -2.78331,1.0009 -5.85028,1.4797 -7.04629,1.1001 -4.56458,-1.4487 -7.34037,-10.2693 -5.03311,-15.9936 1.12704,-2.7962 -0.58372,-4.5 -4.51825,-4.5 -2.59726,0 -3.88597,-0.7333 -5.87756,-3.3444 -3.28461,-4.3063 -3.27311,-8.7475 0.0373,-14.3962 1.42349,-2.429 2.43599,-4.5614 2.25,-4.7386 -0.18599,-0.1771 -2.58816,-0.4793 -5.33816,-0.6715 l -5,-0.3493 0.32359,3 c 0.53857,4.9931 8.98632,33.1624 12.24283,40.8241 1.67752,3.9467 4.14884,9.1451 5.49181,11.5519 1.34297,2.4067 2.44177,4.9042 2.44177,5.55 0,3.6247 4.05728,3.87 15,0.9068 z m -0.18045,-35.093 c 0.17575,-1.2319 -0.092,-2.2398 -0.59501,-2.2398 -1.42365,0 -4.3131,3.5781 -3.52549,4.3657 1.35571,1.3557 3.80399,0.092 4.1205,-2.1259 z m -7.00547,-19.2678 c 2.61857,-1.5965 3.24817,-2.5764 3,-4.6691 -0.17274,-1.4568 -0.85409,-2.8259 -1.51409,-3.0424 -1.51073,-0.4958 -10.46841,7.658 -9.72843,8.8553 0.93012,1.505 4.77259,0.9717 8.24252,-1.1438 z m -20.99303,-26.8418 c 3.90831,-4.3284 6.85892,-8.1169 6.5569,-8.4189 -0.30201,-0.302 -2.92068,-0.3044 -5.81926,-0.01 -4.71798,0.4869 -5.44243,0.298 -6.91442,-1.8036 -2.90862,-4.1526 -1.56097,-9.5716 4.05275,-16.2962 3.00391,-3.5983 2.06919,-4.5543 -3.65709,-3.7403 -4.11951,0.5856 -4.51497,0.9012 -5.17895,4.134 -0.85157,4.146 -0.32298,29.7286 0.66635,32.25 1.1914,3.0364 2.99355,1.965 10.29372,-6.1198 z m 24.50647,7.1198 c 0.24506,-0.4125 0.76728,-4.0125 1.16051,-8 0.57362,-5.8168 0.4444,-7.25 -0.65371,-7.25 -1.85569,0 -11.83432,8.8251 -11.83432,10.4663 0,0.7211 1.52978,1.5981 3.39952,1.9489 1.86973,0.3507 3.94983,1.3008 4.62244,2.1113 1.33823,1.6124 2.61186,1.8912 3.30556,0.7235 z m -4.97186,-33.8715 c 3.37938,-0.8918 7.71934,-1.6793 9.64434,-1.75 3.15951,-0.116 3.74031,-0.6149 5.97017,-5.1285 1.35859,-2.75 5.07109,-9.531 8.25,-15.0689 3.17891,-5.5378 5.77983,-10.3686 5.77983,-10.7349 0,-1.0009 6.01297,-10.6328 9.55828,-15.311 4.1008,-5.4111 10.77306,-17.3872 10.07558,-18.0847 -0.30165,-0.3016 -2.06764,0.3479 -3.92441,1.4434 -5.02832,2.9668 -22.70945,17.4587 -22.70945,18.6133 0,0.5504 1.575,2.4434 3.5,4.2067 4.79477,4.3918 4.52823,6.6433 -1.25,10.5586 -6.54785,4.4368 -11.08999,8.4298 -23,20.2193 -9.54505,9.4485 -11.86372,12.6582 -9.14434,12.6582 0.60811,0 3.87061,-0.7297 7.25,-1.6215 z m -6.92895,-34.8915 c 16.0878,-13.6387 16.07148,-13.6191 14.68103,-17.6078 -1.32094,-3.7892 -0.82458,-4.7454 6.78717,-13.0738 5.44767,-5.9607 5.87914,-7.1979 3.57329,-10.2465 -2.31541,-3.0613 -1.84857,-4.2005 4.5318,-11.0589 3.3,-3.5473 5.98569,-6.7984 5.9682,-7.2248 -0.0175,-0.4263 -0.6925,-1.6487 -1.5,-2.7163 -2.70874,-3.5813 -1.71748,-6.4687 4.94782,-14.4124 3.52882,-4.2056 8.70382,-9.8796 11.5,-12.6089 2.79619,-2.7293 5.08398,-5.4696 5.08398,-6.0895 0,-0.6199 -1.12603,-1.6401 -2.5023,-2.2672 -2.9698,-1.3531 -6.4887,-6.7518 -6.49396,-9.963 -0.002,-1.2552 0.66827,-3.8905 1.48962,-5.8562 0.82135,-1.9658 1.24404,-3.9776 0.93931,-4.4706 -0.67276,-1.0886 -4.39574,0.7503 -4.90842,2.4243 -0.19952,0.6515 -1.78602,6.1346 -3.52554,12.1846 -1.73953,6.05 -4.92785,15.5 -7.08515,21 -2.15731,5.5 -3.92039,10.3782 -3.91797,10.8404 0.008,1.5383 -15.23327,27.9423 -25.49053,44.1596 -15.30475,24.1976 -21.50506,35.4519 -21.50506,39.034 0,1.5803 0.18264,1.5763 2.67671,-0.058 1.4722,-0.9646 8.1097,-6.3598 14.75,-11.9892 z m 65.57268,-46.292 c 2.24239,-4.7574 3.91533,-11.1297 3.06058,-11.6579 -1.25925,-0.7783 -11.05997,7.404 -11.05997,9.2335 0,2.1849 3.91895,6.1977 5.471,5.6022 0.69196,-0.2656 1.82973,-1.6956 2.52839,-3.1778 z m 6.00061,-21.4482 c 0,-0.1392 0.86655,-3.2834 1.92568,-6.9869 1.07186,-3.7481 1.52631,-6.9806 1.02495,-7.2904 -1.13616,-0.7022 -9.95063,7.3362 -9.95063,9.0745 0,0.709 1.2375,2.2125 2.75,3.3409 2.43087,1.8136 4.25,2.6106 4.25,1.8619 z m -5.15449,-36.8439 c 7.10005,-6.8348 7.32318,-7.1936 6.67706,-10.737 -1.01234,-5.5518 -2.65571,-6.78 -6.07459,-4.5399 -4.22113,2.7658 -11.44798,13.1202 -11.44798,16.4022 0,3.6421 0.92281,5.9751 2.35699,5.9588 0.62865,-0.01 4.44849,-3.195 8.48852,-7.0841 z m -140.84551,-0.5835 c 9.06559,-4.869 9.38431,-5.2709 8.55667,-10.79 -0.38318,-2.5553 -1.3088,-4.8808 -2.05694,-5.1679 -0.74814,-0.2871 -5.10414,1.8418 -9.67999,4.7309 -13.22393,8.3492 -14.67941,10.1952 -11.13047,14.1167 2.19877,2.4297 5.73671,1.7152 14.31073,-2.8897 z m 11.40456,-38.7906 c 3.37591,-6.6302 17.91893,-21.8811 23.84544,-25.0062 4.06627,-2.1442 4.87432,-4.8505 1.92028,-6.4315 -1.53038,-0.819 -3.61623,0.7293 -12.75,9.464 -6.00615,5.7438 -11.24276,10.4436 -11.6369,10.4441 -0.91715,0 -11.03596,8.8984 -12.04738,10.5931 -0.84093,1.4091 5.07114,7.6252 6.7333,7.0796 0.53312,-0.1749 2.30398,-2.9394 3.93526,-6.1431 z m 111.09544,5.7059 c 2.72797,-2.0042 8.49471,-9.4343 7.97497,-10.2752 -0.32615,-0.5277 -1.80395,-0.9612 -3.28399,-0.9632 -1.48004,0 -4.13715,-0.8855 -5.90469,-1.9633 -1.81768,-1.1083 -3.46726,-1.5492 -3.79741,-1.015 -0.56926,0.9211 1.21728,12.6975 2.15692,14.2179 0.58853,0.9523 1.55696,0.9519 2.8542,0 z m -128.92671,-18.7497 c 3.48,-2.4833 6.59304,-4.9451 6.91786,-5.4707 0.32482,-0.5256 -0.0612,-2.2159 -0.85778,-3.7564 -1.99345,-3.8549 -0.97231,-5.4349 9.86663,-15.266 13.40611,-12.1595 13.95761,-12.8291 7.73889,-9.3962 -7.55569,4.171 -13.09281,8.9211 -18.23889,15.6464 -2.475,3.2346 -5.4276,7.0908 -6.56133,8.5695 -1.13373,1.4786 -3.27123,4.7935 -4.75,7.3665 -4.77059,8.3004 -3.31451,8.8712 5.88462,2.3069 z m 124.0018,-3.9282 c 0.79847,-3.1813 -0.0888,-4.4967 -2.59167,-3.8422 -2.82709,0.7393 -3.12778,1.6343 -1.38501,4.1224 1.97771,2.8236 3.21964,2.7361 3.97668,-0.2802 z m -15.57509,-15.5568 c 0,-0.55 -0.92656,-1 -2.05902,-1 -1.13246,0 -1.7809,0.45 -1.44098,1 0.33992,0.55 1.26648,1 2.05902,1 0.79254,0 1.44098,-0.45 1.44098,-1 z m 22.75,-0.9863 c 2.58148,-0.028 1.44139,-2.0503 -8.29779,-14.717 -1.35463,-1.7618 -5.33974,-5.2561 -8.85578,-7.7651 -7.01492,-5.0058 -15.31249,-7.3805 -19.71294,-5.6419 -3.41871,1.3508 -9.52024,6.7759 -8.63514,7.6778 0.4116,0.4194 3.3366,-0.021 6.5,-0.979 9.46766,-2.8667 11.14033,-2.9992 13.2911,-1.0528 2.69407,2.4381 2.46552,4.1132 -1.03945,7.6181 -1.65,1.65 -3,3.3277 -3,3.7281 0,1.4779 14.52721,3.2484 17.47087,2.1292 2.20872,-0.8398 3.31386,-0.7269 5.23974,0.5349 2.16012,1.4154 2.36155,2.0674 1.75244,5.6727 -0.66218,3.9194 -0.59888,4.0495 1.67437,3.441 1.29942,-0.3478 2.92508,-0.6385 3.61258,-0.646 z m -75.99499,-24.7637 c 0.26963,-0.8187 -0.65212,-1.25 -2.67168,-1.25 -2.9709,0 -3.86025,0.8897 -2.37448,2.3755 1.07414,1.0742 4.57921,0.2924 5.04616,-1.1255 z m 22.99546,-4 c 0.24412,-0.7332 -0.44516,-1.25 -1.66714,-1.25 -1.22833,0 -2.08333,0.6457 -2.08333,1.5733 0,1.8379 3.12044,1.5689 3.75047,-0.3233 z"
         id="path4766"
         inkscape:connector-curvature="0" />
      <path
         style="fill:#e25c63"
         d="m 806.03848,2000.2579 c -7.86612,-1.7473 -17.99626,-6.589 -23.31946,-11.1455 -8.20159,-7.0203 -13.21816,-22.7698 -11.77176,-36.9575 1.35798,-13.3204 6.75579,-27.6567 11.17046,-29.6682 4.03647,-1.8391 5.10165,0.1713 3.00269,5.6674 -2.30486,6.0352 -1.44317,8.132 1.21269,2.9508 6.31862,-12.3265 28.77712,-21.2913 46.27822,-18.4728 21.66021,3.4883 38.20057,24.5428 35.07128,44.6429 -2.73722,17.5817 -18.61211,35.5671 -36.44229,41.2871 -8.38579,2.6902 -17.85648,3.3275 -25.20183,1.6958 z m 10.84171,-19.4231 c 11.49138,-17.777 10.52825,-18.6127 -4.69727,-4.0761 -13.285,12.684 -14.50105,15.8836 -6.05273,15.9256 2.84132,0.014 3.67538,-0.9053 10.75,-11.8495 z m 17.70292,9.348 c 4.91359,-2.4899 6.35287,-5.0141 3.48629,-6.1141 -1.7749,-0.6811 -9.51953,5.1886 -9.51953,7.2149 0,1.8754 0.24986,1.8298 6.03324,-1.1008 z M 794.3,1978.4496 c 5.97946,-7.8611 9.61646,-13.7167 8.93986,-14.3934 -0.33148,-0.3314 -3.36169,1.7027 -6.73379,4.5204 -3.3721,2.8176 -6.5622,5.123 -7.0891,5.123 -2.06674,0 -6.05068,-5.0801 -5.32843,-6.7945 1.81346,-4.3045 1.65913,-5.9205 -0.62242,-6.5172 -4.58674,-1.1994 -4.90568,0.6588 -1.75777,10.2412 2.09019,6.3626 6.07823,13.0705 7.7708,13.0705 0.45513,0 2.62451,-2.3625 4.82085,-5.25 z m 62.24987,-12.2949 c 2.06035,-4.0837 2.49341,-6.362 2.46252,-12.9551 -0.0315,-6.7235 -0.4913,-8.9224 -2.88177,-13.781 -7.39722,-15.035 -22.77079,-22.8402 -39.03446,-19.818 -6.98729,1.2985 -8.5328,2.4121 -6.76745,4.8765 2.55075,3.5608 2.44199,4.6625 -1.18353,11.9896 -2.14364,4.3322 -3.34382,7.8844 -2.83561,8.3926 0.90058,0.9006 15.13724,-9.2174 22.96796,-16.3233 2.32521,-2.11 4.77121,-3.8364 5.43555,-3.8364 1.66107,0 5.83679,4.0519 5.83679,5.6637 0,0.7233 -2.14246,3.6824 -4.76102,6.5757 -8.99098,9.9344 -12.0086,14.7606 -9.22917,14.7606 0.5554,0 4.83458,-2.5453 9.50929,-5.6563 7.64918,-5.0904 8.75011,-5.5421 11.00491,-4.5147 1.378,0.6278 3.00528,2.2386 3.61619,3.5793 1.00193,2.1991 0.46383,3.3025 -5.49313,11.2648 -3.63212,4.8548 -6.61358,9.4098 -6.62546,10.1222 -0.0153,0.918 0.92524,1.1231 3.22839,0.7042 2.49051,-0.4529 4.06791,-0.01 6.75,1.9026 1.925,1.3715 3.95,2.3844 4.5,2.2509 0.55,-0.1336 2.125,-2.4726 3.5,-5.1979 z m -77,-111.4551 c -1.375,-0.4404 -4.8625,-0.8455 -7.75,-0.9003 -3.82312,-0.073 -5.79357,-0.6433 -7.25,-2.0997 -3.78277,-3.7828 -1.55228,-6.5233 4.7695,-5.8602 5.31454,0.5574 5.26877,-0.4395 -0.70593,-15.3772 -17.09698,-42.7451 -21.72858,-85.0606 -12.2329,-111.7626 4.39829,-12.3681 8.23652,-19.304 27.39248,-49.5 11.26393,-17.7556 17.62153,-29.0745 22.46724,-40 7.21743,-16.273 13.41427,-37.2746 13.37894,-45.3423 -0.0112,-2.5617 0.23846,-7.8077 0.55485,-11.6577 1.06003,-12.8994 -3.49146,-25.9549 -11.75303,-33.7125 -7.52619,-7.0671 -13.53396,-9.5686 -24.87115,-10.3557 -8.63161,-0.5993 -10.22172,-0.4169 -17.39547,1.9961 -21.121,7.1041 -38.17339,23.7201 -40.79159,39.7477 -1.45788,8.9246 0.31839,14.1924 4.93573,14.6377 2.01764,0.1945 3.6599,1.0816 4.3339,2.341 0.93452,1.7462 0.47898,2.6053 -3.28034,6.1867 -7.47114,7.1176 -37.74044,22.4482 -41.78682,21.1639 -1.94534,-0.6174 -3.37542,-3.4082 -6.15177,-12.0049 -1.34518,-4.1652 -2.25078,-11.2946 -2.96145,-23.3141 l -1.02371,-17.3142 2.67823,-8.1858 c 2.87136,-8.7762 13.27856,-25.6843 22.16266,-36.0068 12.34771,-14.3469 33.85429,-25.946 55.28063,-29.8146 26.72917,-4.826 25.31312,-4.7264 39.05608,-2.7457 6.96741,1.0042 13.8567,2.2777 15.30953,2.8301 5.67443,2.1574 20.61324,13.1099 22.25202,16.3142 0.91051,1.7803 3.8757,6.0405 6.58932,9.4672 2.94124,3.714 6.36029,9.7677 8.46582,14.9894 1.94257,4.8175 4.38589,9.9583 5.42959,11.4241 1.07016,1.5029 1.89912,4.3419 1.90103,6.5106 0.003,3.8028 2.36547,13.1989 7.283,28.9707 1.59837,5.1264 3.135,13.928 4.16353,23.8481 l 1.63018,15.723 -2.65794,10.1519 c -1.46187,5.5836 -3.49751,13.9203 -4.52365,18.5262 -1.93805,8.699 -5.3248,17.1069 -8.93041,22.1705 -1.1531,1.6194 -4.2463,7.1093 -6.87377,12.1998 -2.62748,5.0904 -7.07392,12.6953 -9.88099,16.8995 -2.80707,4.2043 -6.9764,11.1793 -9.26518,15.5 -2.28878,4.3208 -4.74669,8.5309 -5.46202,9.3559 -1.80702,2.0841 -9.11176,17.9126 -12.6131,27.3311 -2.82802,7.6073 -5.83862,27.3676 -5.86341,38.4849 -0.016,7.1808 4.04403,22.2618 7.14913,26.5554 2.18027,3.0148 2.77642,4.9079 2.69424,8.5555 -0.11612,5.1542 1.8205,9.7319 6.28567,14.8579 4.97811,5.7148 3.05822,12.3253 -4.13867,14.2499 -1.925,0.5148 -7.55,2.0443 -12.5,3.3988 -9.1275,2.4978 -20.42512,3.1918 -25.5,1.5665 z m 20.30463,-8.8749 c 7.52247,-2.0859 10.93129,-4.5205 10.48939,-7.4916 -0.48633,-3.2698 -2.3246,-2.9345 -7.24142,1.321 -5.3576,4.6369 -6.68271,4.8956 -9.51364,1.8569 -3.35065,-3.5965 -2.61396,-6.6949 2.71104,-11.4022 2.6125,-2.3095 4.40228,-4.5566 3.97729,-4.9935 -0.42499,-0.437 -2.99053,0 -5.70119,0.9778 -2.78331,1.0009 -5.85028,1.4797 -7.04629,1.1001 -4.56458,-1.4487 -7.34037,-10.2693 -5.03311,-15.9936 1.12704,-2.7962 -0.58372,-4.5 -4.51825,-4.5 -2.59726,0 -3.88597,-0.7333 -5.87756,-3.3444 -3.28461,-4.3063 -3.27311,-8.7475 0.0373,-14.3962 1.42349,-2.429 2.43599,-4.5451 2.25,-4.7024 -0.18599,-0.1573 -2.70066,-0.5875 -5.58816,-0.956 l -5.25,-0.6699 0,3.5142 c 0,1.9328 0.65524,5.2108 1.45609,7.2845 0.80086,2.0736 2.16803,6.6952 3.03818,10.2702 2.32198,9.5399 8.20816,25.4157 12.63402,34.0757 2.12944,4.1666 3.87171,8.1041 3.87171,8.75 0,1.7835 7.60082,1.4356 15.30463,-0.7006 z m 0.51492,-35.8751 c 0.39377,-2.7726 -1.83398,-2.9965 -4.16674,-0.4189 -1.91214,2.1129 -1.1378,3.3825 1.80604,2.9611 1.23868,-0.1773 2.16678,-1.1768 2.3607,-2.5422 z m -8.39744,-18.9143 c 3.88877,-1.8544 4.69966,-3.154 3.89286,-6.2392 -0.8108,-3.1005 -2.83794,-2.5774 -7.82477,2.0193 -6.14344,5.6628 -3.97476,7.9904 3.93191,4.2199 z m -20.60106,-27.2055 c 3.90831,-4.3284 6.85892,-8.1169 6.5569,-8.4189 -0.30201,-0.302 -2.92068,-0.3044 -5.81926,-0.01 -4.71798,0.4869 -5.44243,0.298 -6.91442,-1.8036 -2.90862,-4.1526 -1.56097,-9.5716 4.05275,-16.2962 2.98334,-3.5737 2.14329,-4.3993 -3.91067,-3.8435 -3.31802,0.3047 -4.87469,0.9402 -5.25754,2.1464 -0.84486,2.6619 -0.93019,29.1982 -0.10561,32.8408 1.14197,5.0446 3.55419,4.0669 11.39785,-4.6198 z m 25.5396,6.1198 c 0.27249,-0.9625 0.797,-4.5625 1.16558,-8 0.60822,-5.6725 0.49777,-6.25 -1.19522,-6.25 -2.21867,0 -12.33101,8.5831 -12.33101,10.4663 0,0.7211 1.52978,1.5981 3.39952,1.9489 1.86973,0.3507 3.94983,1.3008 4.62244,2.1113 1.65295,1.9916 3.73412,1.859 4.33869,-0.2765 z m -4.79253,-33.1206 c 3.88747,-1.01 8.42384,-1.6374 10.08083,-1.3942 2.85651,0.4192 3.15107,0.1231 5.68121,-5.7109 1.46767,-3.3842 4.91879,-9.9629 7.66917,-14.6193 2.75037,-4.6565 5.00067,-8.7312 5.00067,-9.0549 0,-0.9918 7.21381,-12.6757 9.68082,-15.6795 1.27807,-1.5562 4.12273,-5.9098 6.32147,-9.6745 3.78145,-6.4747 4.92818,-10.0025 3.24771,-9.991 -2.43989,0.017 -26.25,18.454 -26.25,20.3267 0,0.5644 1.575,2.4688 3.5,4.2321 4.79477,4.3918 4.52823,6.6433 -1.25,10.5586 -6.54785,4.4368 -11.08999,8.4298 -23,20.2193 -9.68066,9.5828 -11.88623,12.6806 -9,12.6411 0.6875,-0.01 4.43065,-0.8435 8.31812,-1.8535 z m -8.14141,-34.6424 c 16.0878,-13.6387 16.07148,-13.6191 14.68103,-17.6078 -1.32094,-3.7892 -0.82458,-4.7454 6.78717,-13.0738 5.44767,-5.9607 5.87914,-7.1979 3.57329,-10.2465 -2.31541,-3.0613 -1.84857,-4.2005 4.5318,-11.0589 3.3,-3.5473 5.98569,-6.7984 5.9682,-7.2248 -0.0175,-0.4263 -0.6925,-1.6487 -1.5,-2.7163 -2.70874,-3.5813 -1.71748,-6.4687 4.94782,-14.4124 3.52882,-4.2056 8.70382,-9.8796 11.5,-12.6089 2.79619,-2.7293 5.08398,-5.4696 5.08398,-6.0895 0,-0.6199 -1.12603,-1.6401 -2.5023,-2.2672 -2.9698,-1.3531 -6.4887,-6.7518 -6.49396,-9.963 -0.002,-1.2552 0.68159,-3.9224 1.51921,-5.9271 1.78287,-4.267 0.9123,-5.6993 -2.43253,-4.0021 -1.58608,0.8049 -2.79293,2.7213 -3.59657,5.7113 -8.95659,33.3237 -15.22618,46.7835 -40.5246,87 -17.95215,28.5382 -23.60917,41.2702 -16.17178,36.3971 1.40578,-0.9211 7.98894,-6.2807 14.62924,-11.9101 z m 66.98384,-47.6833 c 2.53549,-5.0881 3.44548,-10.8037 1.72008,-10.8037 -1.76283,0 -11.13063,8.2232 -11.13063,9.7706 0,1.9294 3.85507,6.2294 5.58487,6.2294 0.67993,0 2.40149,-2.3383 3.82568,-5.1963 z m 6.55122,-23.5537 c 1.92629,-6.842 2.37442,-11.25 1.1437,-11.25 -1.63721,0 -10.10547,7.9977 -10.10547,9.544 0,1.449 4.85213,5.3756 6.703,5.4243 0.66164,0.017 1.67809,-1.6558 2.25877,-3.7183 z m -6.62135,-33.705 c 5.6358,-5.3191 7.70054,-7.9123 7.34295,-9.2224 -0.27361,-1.0024 -0.77288,-3.0601 -1.10948,-4.5726 -1.16223,-5.2225 -6.50547,-2.5654 -13.24144,6.5848 -4.17732,5.6745 -5.19588,9.2516 -3.72546,13.0834 1.02318,2.6664 2.59928,1.804 10.73343,-5.8732 z m -146.3987,3.0568 c 8.6446,-3.5126 15.05828,-8.198 15.05828,-11.0006 0,-3.9671 -2.08782,-8.6047 -3.84783,-8.5471 -2.43773,0.08 -22.60384,13.3412 -22.94021,15.0856 -0.31875,1.6531 3.3857,6.8603 4.88049,6.8603 0.52101,0 3.60318,-1.0792 6.84927,-2.3982 z m 17.2402,-41.7917 c 3.88696,-7.2927 17.69974,-21.6888 23.79224,-24.7969 4.49577,-2.2936 4.95226,-4.3289 1.48616,-6.626 -1.88821,-1.2515 -2.85367,-0.5734 -13,9.1296 -6.02818,5.7648 -11.2828,10.4819 -11.67694,10.4824 -0.91715,0 -11.03596,8.8984 -12.04738,10.5931 -0.82152,1.3765 4.83282,7.3948 6.95536,7.4031 0.65525,0 2.676,-2.7809 4.49056,-6.1853 z m 110.31808,5.4246 c 2.72797,-2.0042 8.49471,-9.4343 7.97497,-10.2752 -0.32615,-0.5277 -1.80395,-0.9612 -3.28399,-0.9632 -1.48004,0 -4.11096,-0.8696 -5.84648,-1.9279 -3.74788,-2.2853 -4.3463,-1.8924 -4.33892,2.8483 0.0122,7.8586 2.49522,12.5215 5.49442,10.318 z m -128.92671,-18.7497 c 3.48,-2.4833 6.59461,-4.9477 6.92136,-5.4763 0.32674,-0.5287 -0.0493,-2.1891 -0.83554,-3.6898 -2.08188,-3.9734 -0.95564,-5.6306 11.41208,-16.7926 6.0098,-5.4238 10.75098,-10.0375 10.53595,-10.2525 -1.81589,-1.8159 -16.97018,9.2625 -22.60714,16.5268 -7.63855,9.8436 -15,21.2506 -15,23.2434 0,2.0654 3.53091,0.7527 9.57329,-3.559 z m 124.42671,-5.6171 c 0,-2.3231 -1.02757,-2.8116 -3.75,-1.7827 -2.69146,1.0172 -2.8547,2.5891 -0.53504,5.1523 1.62828,1.7993 1.77991,1.8062 3,0.1376 0.70677,-0.9665 1.28504,-2.5448 1.28504,-3.5072 z m -16,-13.9269 c 0,-0.5176 -0.9,-0.941 -2,-0.941 -2.20605,0 -2.72337,1.5739 -0.75,2.2817 1.5126,0.5426 2.75,-0.061 2.75,-1.3407 z m 24.25968,-1.856 c 1.32393,-1.2275 -10.88594,-16.74 -16.43365,-20.8788 -7.67143,-5.7232 -11.09439,-7.2062 -16.63257,-7.2062 -4.07899,0 -5.68855,0.5976 -9.54966,3.5458 -7.40959,5.6577 -5.7189,6.9983 4.3562,3.4542 6.98623,-2.4575 9.26307,-2.4718 11.43515,-0.072 2.13145,2.3553 1.39928,5.2702 -1.99426,7.9395 -1.34249,1.056 -2.44089,2.33 -2.44089,2.8311 0,1.6133 14.32334,3.5089 17.47087,2.3122 2.20872,-0.8398 3.31386,-0.7269 5.23974,0.5349 2.15369,1.4112 2.3606,2.073 1.75979,5.6292 l -0.68085,4.0299 3.35522,-0.7079 c 1.84538,-0.3893 3.69708,-1.0249 4.11491,-1.4122 z m -77.44657,-24.335 c 0.25574,-1.3418 -0.34448,-1.75 -2.57312,-1.75 -3.58044,0 -4.58188,0.8831 -3.06882,2.7062 1.54207,1.8581 5.2245,1.234 5.64194,-0.9562 z m 22.99873,-4.0115 c 0.2311,-1.2 -0.30742,-1.7385 -1.73852,-1.7385 -1.43109,0 -2.07332,0.6422 -2.07332,2.0733 0,2.5627 3.30983,2.272 3.81184,-0.3348 z"
         id="path4764"
         inkscape:connector-curvature="0" />
      <path
         style="fill:#6a5a55"
         d="m 806.03848,2000.2579 c -7.86612,-1.7473 -17.99626,-6.589 -23.31946,-11.1455 -8.20159,-7.0203 -13.21816,-22.7698 -11.77176,-36.9575 1.35798,-13.3204 6.75579,-27.6567 11.17046,-29.6682 4.03647,-1.8391 5.10165,0.1713 3.00269,5.6674 -2.30486,6.0352 -1.44317,8.132 1.21269,2.9508 6.31862,-12.3265 28.77712,-21.2913 46.27822,-18.4728 21.66021,3.4883 38.20057,24.5428 35.07128,44.6429 -2.73722,17.5817 -18.61211,35.5671 -36.44229,41.2871 -8.38579,2.6902 -17.85648,3.3275 -25.20183,1.6958 z m 12.71374,-20.363 c 7.38028,-11.3946 8.79889,-15.1953 5.6717,-15.1953 -1.6015,0 -24.87405,23.0602 -24.87405,24.6471 0,2.0161 3.2009,3.3623 7.36633,3.0981 3.77729,-0.2395 4.04991,-0.5286 11.83602,-12.5499 z m 15.7061,10.3511 c 6.34433,-3.2149 8.07212,-7.5464 3.01019,-7.5464 -1.96572,0 -10.91864,7.4841 -10.91864,9.1274 0,1.5295 2.92334,0.9451 7.90845,-1.581 z m -36.90845,-14.2124 c 5.45656,-7.573 8.87752,-13.1424 8.95808,-14.584 0.11853,-2.1207 -3.44604,-0.125 -9.37718,5.25 -3.64142,3.3 -6.97578,6 -7.4097,6 -2.44839,0 -4.41518,-2.8327 -3.87926,-5.5871 1.36497,-7.0153 1.39921,-6.8945 -2.04882,-7.2268 -4.54678,-0.4382 -4.99653,1.5976 -2.24674,10.1699 2.55497,7.9648 6.22957,13.6524 8.80451,13.6277 0.95959,-0.01 4.09293,-3.3387 7.19911,-7.6497 z m 56.9453,-5.9916 c 1.14975,-1.4617 2.81264,-5.1418 3.69531,-8.1781 4.3671,-15.0223 -4.12138,-32.3415 -19.56959,-39.9283 -4.87441,-2.3939 -6.69639,-2.7262 -14.57102,-2.658 -5.98543,0.052 -10.27339,0.6281 -12.80169,1.7205 l -3.8017,1.6427 2.21908,3.0014 2.21909,3.0015 -3.66739,7.0008 c -6.67808,12.7481 -4.37183,13.7685 8.98576,3.9759 5.41577,-3.9704 11.48441,-8.7694 13.48587,-10.6644 3.04415,-2.8823 3.96487,-3.2712 5.63235,-2.3788 3.81394,2.0412 3.47334,4.0742 -1.61537,9.6421 -5.89933,6.4548 -11.30229,14.4346 -10.5727,15.6151 1.14121,1.8465 4.24662,0.6562 12.22619,-4.6861 8.81966,-5.9048 11.0479,-6.2519 12.97566,-2.0209 0.96628,2.1208 0.46822,3.2147 -4.4303,9.7308 -6.74168,8.9678 -8.43902,12.0872 -7.44886,13.6893 0.56273,0.9105 1.46665,0.9609 3.48318,0.1942 2.75414,-1.0471 7.60757,0.5256 9.10643,2.9508 1.00709,1.6295 2.22502,1.1777 4.4497,-1.6505 z m -74.9453,-115.3424 c -1.375,-0.4404 -4.8625,-0.8455 -7.75,-0.9003 -3.82312,-0.073 -5.79357,-0.6433 -7.25,-2.0997 -3.78277,-3.7828 -1.55228,-6.5233 4.7695,-5.8602 5.31454,0.5574 5.26877,-0.4395 -0.70593,-15.3772 -17.09698,-42.7451 -21.72858,-85.0606 -12.2329,-111.7626 4.39829,-12.3681 8.23652,-19.304 27.39248,-49.5 11.26393,-17.7556 17.62153,-29.0745 22.46724,-40 7.21743,-16.273 13.41427,-37.2746 13.37894,-45.3423 -0.0112,-2.5617 0.23846,-7.8077 0.55485,-11.6577 1.06003,-12.8994 -3.49146,-25.9549 -11.75303,-33.7125 -7.52619,-7.0671 -13.53396,-9.5686 -24.87115,-10.3557 -8.63161,-0.5993 -10.22172,-0.4169 -17.39547,1.9961 -21.121,7.1041 -38.17339,23.7201 -40.79159,39.7477 -1.45788,8.9246 0.31839,14.1924 4.93573,14.6377 2.01764,0.1945 3.6599,1.0816 4.3339,2.341 0.93452,1.7462 0.47898,2.6053 -3.28034,6.1867 -7.47114,7.1176 -37.74044,22.4482 -41.78682,21.1639 -1.94534,-0.6174 -3.37542,-3.4082 -6.15177,-12.0049 -1.34518,-4.1652 -2.25078,-11.2946 -2.96145,-23.3141 l -1.02371,-17.3142 2.67823,-8.1858 c 2.87136,-8.7762 13.27856,-25.6843 22.16266,-36.0068 12.34771,-14.3469 33.85429,-25.946 55.28063,-29.8146 26.72917,-4.826 25.31312,-4.7264 39.05608,-2.7457 6.96741,1.0042 13.8567,2.2777 15.30953,2.8301 5.67443,2.1574 20.61324,13.1099 22.25202,16.3142 0.91051,1.7803 3.8757,6.0405 6.58932,9.4672 2.94124,3.714 6.36029,9.7677 8.46582,14.9894 1.94257,4.8175 4.38589,9.9583 5.42959,11.4241 1.07016,1.5029 1.89912,4.3419 1.90103,6.5106 0.003,3.8028 2.36547,13.1989 7.283,28.9707 1.59837,5.1264 3.135,13.928 4.16353,23.8481 l 1.63018,15.723 -2.65794,10.1519 c -1.46187,5.5836 -3.49751,13.9203 -4.52365,18.5262 -1.93805,8.699 -5.3248,17.1069 -8.93041,22.1705 -1.1531,1.6194 -4.2463,7.1093 -6.87377,12.1998 -2.62748,5.0904 -7.07392,12.6953 -9.88099,16.8995 -2.80707,4.2043 -6.9764,11.1793 -9.26518,15.5 -2.28878,4.3208 -4.74669,8.5309 -5.46202,9.3559 -1.80702,2.0841 -9.11176,17.9126 -12.6131,27.3311 -2.82802,7.6073 -5.83862,27.3676 -5.86341,38.4849 -0.014,6.2613 3.97758,22.0763 6.51588,25.8167 1.26212,1.8599 2.41577,5.5094 2.74261,8.6762 0.63064,6.1103 2.62446,10.6014 6.87055,15.4759 4.97811,5.7148 3.05822,12.3253 -4.13867,14.2499 -1.925,0.5148 -7.55,2.0443 -12.5,3.3988 -9.1275,2.4978 -20.42512,3.1918 -25.5,1.5665 z m 20.30463,-8.8749 c 9.50629,-2.636 13.27698,-6.7377 9.25929,-10.072 -1.76763,-1.4671 -3.91774,-0.4295 -8.00101,3.8608 -3.48968,3.6667 -4.91939,3.8429 -7.00621,0.8636 -2.5062,-3.5781 -1.78255,-6.0252 2.7544,-9.3141 4.26569,-3.0923 5.8998,-6.7848 3.42322,-7.7351 -0.75428,-0.2894 -3.50393,0.3968 -6.11032,1.5251 -4.71573,2.0413 -4.75177,2.0417 -7.3684,0.088 -3.71392,-2.7729 -4.8241,-6.7669 -3.38083,-12.1631 1.48412,-5.549 0.34646,-7.1784 -5.01191,-7.1784 -3.31812,0 -4.18455,-0.4794 -5.87382,-3.25 -2.67398,-4.3856 -2.50246,-8.6655 0.51096,-12.75 3.87893,-5.2576 3.27688,-6.8757 -2.7808,-7.4741 -1.77056,-0.1748 -3.8942,-0.4772 -4.7192,-0.6719 -2.15522,-0.5086 -2.53039,6.441 -0.62443,11.567 0.83417,2.2434 2.2331,7.004 3.10873,10.579 2.34721,9.5831 8.23219,25.4432 12.64399,34.0757 2.12944,4.1666 3.87171,8.1041 3.87171,8.75 0,1.7835 7.60082,1.4356 15.30463,-0.7006 z m -0.82284,-32.7497 c 2.00956,-2.0096 1.60537,-5.7431 -0.66866,-6.1764 -0.95277,-0.1815 -2.4186,0.7954 -3.36829,2.2448 -1.35621,2.0699 -1.44144,2.8554 -0.44069,4.0612 1.58356,1.9081 2.46546,1.8825 4.47764,-0.1296 z m -7.36151,-20.51 c 3.16489,-1.2085 4.85519,-4.5429 4.15629,-8.1989 -0.74349,-3.8894 -1.54754,-3.9772 -6.11559,-0.6682 -5.56562,4.0318 -7.80951,7.5153 -6.13809,9.5293 1.25855,1.5164 2.70059,1.3985 8.09739,-0.6622 z m 6.15086,-29.2898 c 0.57327,-4.7275 0.78531,-8.8525 0.47122,-9.1666 -1.7003,-1.7003 -15.99145,10.7783 -15.076,13.1639 0.2754,0.7177 1.92563,1.616 3.66718,1.9963 1.74155,0.3803 4.25605,1.5457 5.58778,2.5898 1.51683,1.1892 2.77362,1.5461 3.36443,0.9552 0.5187,-0.5187 1.41213,-4.811 1.98539,-9.5386 z m -25.94455,1.5392 c 4.22037,-4.3368 7.67341,-8.6637 7.67341,-9.6152 0,-1.5167 -0.68823,-1.6441 -5.58062,-1.0328 -4.56087,0.5699 -5.93135,0.3798 -7.5,-1.0398 -3.38011,-3.0589 -2.42924,-7.3546 3.22531,-14.5709 1.57042,-2.0041 2.85531,-4.4089 2.85531,-5.3438 0,-1.4709 -0.70746,-1.6078 -5.25,-1.0163 -2.92873,0.3814 -5.80268,1.3917 -6.5,2.285 -1.9744,2.5293 -2.09935,30.8548 -0.15862,35.9593 0.47251,1.2429 1.46722,2.2597 2.21046,2.2597 0.74323,0 4.80437,-3.5483 9.02475,-7.8852 z m 19.26448,-26.604 c 2.69991,-0.819 6.48393,-1.5009 8.40893,-1.5153 4.78555,-0.036 5.53209,-0.6886 8.5246,-7.4552 1.43308,-3.2405 4.82631,-9.6515 7.5405,-14.2467 2.7142,-4.5952 4.9349,-8.6198 4.9349,-8.9435 0,-1.018 7.27314,-12.642 11.00099,-17.5818 4.24926,-5.6308 10.53062,-17.57 9.68742,-18.4132 -1.44672,-1.4467 -5.9334,1.158 -16.10791,9.3515 -6.00572,4.8364 -11.39478,9.5672 -11.97568,10.513 -0.84745,1.3797 -0.4187,2.3772 2.1695,5.0476 3.98175,4.1081 4.1339,7.1178 0.47568,9.4093 -5.01918,3.1439 -18.64149,15.0268 -26.5,23.1162 -10.91075,11.2312 -10.36295,14.4203 1.84107,10.7181 z m -19.41779,-24.2278 c 1.82969,-1.4943 9.08933,-7.6275 16.13252,-13.6293 l 12.80581,-10.9122 -0.62228,-5.1208 -0.62229,-5.1207 6.06648,-5.9687 c 6.4384,-6.3346 6.9827,-7.8588 4.51232,-12.636 l -1.55416,-3.0054 6.25748,-7.0582 6.25748,-7.0581 -1.70332,-2.9678 c -0.93683,-1.6323 -1.70332,-3.7627 -1.70332,-4.7342 0,-2.4165 10.20491,-14.0911 25.41172,-29.0716 6.97886,-6.875 13.31172,-13.6581 14.07303,-15.0736 2.23114,-4.1484 -0.17819,-11.8383 -3.73187,-11.9111 -1.39998,-0.029 -8.91342,7.3577 -11.90047,11.6992 -2.03186,2.9532 -2.99582,5.5932 -3.03327,8.3072 -0.0631,4.5725 -0.65048,4.8568 -3.5707,1.7283 -3.02872,-3.2448 -3.5527,-6.6418 -1.79322,-11.6257 2.00493,-5.6792 1.94795,-7.1243 -0.28091,-7.1243 -2.32455,0 -5.7691,3.7541 -6.42275,7 -1.254,6.2271 -6.43582,22.4911 -10.45105,32.8022 -5.18154,13.3063 -13.48683,28.4205 -30.33126,55.1978 -12.31151,19.5714 -19.96925,33.8356 -19.96925,37.1971 0,2.5735 2.32444,2.2293 6.17328,-0.9141 z m 76.40172,-55.0009 c 4.17039,-4.1703 7.27973,-16.2917 4.175,-16.2756 -1.57907,0.01 -10.445,7.5551 -11.75831,10.009 -0.76329,1.4262 -0.40359,2.53 1.6008,4.912 2.98621,3.549 3.64013,3.697 5.98251,1.3546 z m 9.22646,-27.7816 c 2.07788,-6.342 2.68053,-12.5005 1.22324,-12.5005 -2.35062,0 -11.0247,8.1083 -11.0247,10.3056 0,2.4211 4.75233,6.7724 7,6.4094 0.825,-0.1333 2.08566,-2.0298 2.80146,-4.2145 z m -152.85974,-30.8987 c 8.9179,-3.6237 15.05828,-8.1834 15.05828,-11.182 0,-3.2984 -2.60891,-9.4198 -4.01471,-9.4198 -2.44963,0 -18.61479,10.1979 -21.21305,13.3824 -2.24714,2.7541 -2.20209,3.8014 0.30034,6.9827 2.52568,3.2109 2.54823,3.2115 9.86914,0.2367 z m -9.60815,-21.0287 c 0.76254,-1.9871 -2.06489,-4.2418 -3.50873,-2.7979 -1.38085,1.3808 -0.34634,4.2248 1.53679,4.2248 0.78341,0 1.67079,-0.6421 1.97194,-1.4269 z m 26.66643,-20.575 c 4.0688,-7.3848 17.95465,-21.914 23.78762,-24.8898 5.0577,-2.5802 5.68249,-4.318 2.5952,-7.2184 -2.95337,-2.7745 -1.94692,-3.3748 -16.11221,9.6101 -5.99997,5.5 -13.0249,11.7178 -15.61096,13.8174 -2.58605,2.0996 -5.46004,4.9745 -6.38663,6.3887 -1.66452,2.5404 -1.63731,2.6112 2.27114,5.9167 2.17571,1.84 4.40584,3.2064 4.95584,3.0366 0.55,-0.1699 2.575,-3.1675 4.5,-6.6613 z m 115.43081,1.9724 c 5.6936,-6.0869 5.65305,-8.1448 -0.1801,-9.1406 -7.89362,-1.3475 -10.63962,-5.0466 -8.30491,-11.1873 1.30468,-3.4316 -0.99378,-5.373 -4.75555,-4.0168 -3.11169,1.1219 -3.11449,3.2051 -0.01,7.4042 1.27573,1.7255 2.31631,5.2829 2.80965,9.6052 1.63424,14.3182 3.00707,15.2827 10.44089,7.3353 z m -137.43081,-11.5318 c 1.925,-1.3452 5.209,-3.5885 7.29777,-4.985 4.43036,-2.962 5.46806,-4.9978 3.86005,-7.5726 -2.29276,-3.6713 -1.19079,-5.6428 7.56085,-13.5268 15.89565,-14.3198 16.77461,-15.1944 16.02438,-15.9446 -1.96168,-1.9617 -19.94062,10.8715 -25.74305,18.3751 -12.30725,15.9155 -17.78899,26.3438 -13.75,26.1576 0.6875,-0.032 2.825,-1.1584 4.75,-2.5037 z m 144,-9.8797 c 0,-0.7925 -0.48921,-1.7433 -1.08713,-2.1129 -1.41202,-0.8726 -3.3394,1.0547 -2.46672,2.4668 0.98021,1.586 3.55385,1.3297 3.55385,-0.3539 z m -30.625,-12.3567 c 0.75198,-1.2168 -0.6297,-2.8562 -3.04084,-3.6082 -2.89402,-0.9025 -4.19119,1.3061 -1.79581,3.0576 2.07155,1.5148 4.09817,1.7454 4.83665,0.5506 z m 20.5,-0.8273 c 1.71875,-0.3437 3.125,-1.1641 3.125,-1.8229 0,-2.524 -12.09427,-17.5563 -17.17397,-21.3459 -7.96257,-5.9404 -11.0532,-7.2062 -17.59459,-7.2062 -5.0726,0 -6.43462,0.4356 -10.04966,3.214 -3.89773,2.9957 -5.29194,5.9819 -3.35249,7.1805 0.89654,0.5541 8.0176,-1.4143 12.34697,-3.4129 7.05008,-3.2546 10.49261,2.4227 4.73302,7.8056 -2.75502,2.5747 -2.92688,3.0523 -1.58227,4.397 1.59646,1.5964 15.35401,3.2592 18.13544,2.1918 0.84811,-0.3254 2.65656,-0.312 4.01877,0.03 2.30105,0.5776 2.43312,0.9399 1.86184,5.1079 -0.67266,4.9075 -0.45594,5.0588 5.53194,3.8612 z m -74.41335,-24.7233 c 2.5045,-1.8313 1.11498,-3.655 -2.77067,-3.6364 -4.56244,0.022 -6.44482,1.3715 -4.75423,3.4085 1.60349,1.9321 5.05148,2.0365 7.5249,0.2279 z m 22.33835,-3.8517 c 1.91564,-1.9156 1.3925,-3.8013 -1.05,-3.7847 -3.19408,0.022 -5.14502,1.5129 -4.4271,3.3838 0.72353,1.8855 3.76955,2.1084 5.4771,0.4009 z"
         id="path4762"
         inkscape:connector-curvature="0" />
      <path
         style="fill:#f00312"
         d="m 812.15795,2000.9744 c -0.39889,-0.3989 -3.37959,-1.2667 -6.62377,-1.9285 -7.14027,-1.4565 -17.12261,-6.1192 -22.2726,-10.4035 -7.67992,-6.389 -12.64194,-22.0857 -11.34748,-35.8963 1.23455,-13.1714 6.7067,-28.2995 10.69436,-29.5651 3.08981,-0.9807 3.41331,-0.01 1.58578,4.7797 -3.4095,8.9277 -1.27437,11.8891 2.78962,3.8692 3.87493,-7.6469 11.7686,-13.1597 23.60872,-16.488 17.24538,-4.8478 31.75468,-1.9236 43.68703,8.8046 5.87544,5.2826 9.54963,11.7719 11.84957,20.9288 1.45275,5.7839 1.54612,7.8481 0.58803,13 -1.7485,9.4021 -6.3533,17.6671 -14.4825,25.9942 -8.67684,8.8881 -19.18739,14.5026 -28.77744,15.3722 -3.28032,0.2975 -6.203,0.9272 -6.49483,1.3994 -0.6462,1.0455 -3.80458,1.1332 -4.80449,0.1333 z m -1.44667,-9.0248 c 0.80926,-0.9625 4.74498,-6.8312 8.74603,-13.0415 6.76288,-10.4972 8.05637,-14.2085 4.95208,-14.2085 -0.66179,0 -6.86342,5.6404 -13.78139,12.5341 l -12.57813,12.5342 2.36078,1.9658 c 2.94158,2.4495 8.3277,2.5624 10.30063,0.2159 z m 24.33859,-1.0273 c 3.93524,-2.1491 5,-3.2621 5,-5.2267 0,-4.2027 -3.71643,-3.7595 -8.9535,1.0679 -7.50082,6.914 -5.31052,9.2181 3.9535,4.1588 z m -37.80462,-14.5421 c 5.53219,-7.5867 9.30462,-13.7213 9.30462,-15.1309 0,-1.8809 -3.67749,0.247 -9.4191,5.4503 -3.64142,3.3 -6.97578,6 -7.4097,6 -2.44839,0 -4.41518,-2.8327 -3.87926,-5.5871 1.30677,-6.7162 1.31245,-6.6922 -1.79194,-7.5624 -6.19254,-1.7358 -6.84364,0.6251 -3.16885,11.4904 2.37251,7.0147 6.7631,13.6591 9.02594,13.6591 0.6995,0 4.00173,-3.7437 7.33829,-8.3194 z m 59.98399,-9.2914 c 3.98041,-8.6944 4.1838,-16.2347 0.68185,-25.2776 -6.63519,-17.1338 -22.69366,-26.3383 -40.42285,-23.1699 -3.71867,0.6645 -7.5417,1.779 -8.49564,2.4765 -1.62438,1.1878 -1.58765,1.4668 0.57881,4.3971 l 2.31324,3.1288 -3.66739,7.0008 c -6.67808,12.7481 -4.37183,13.7685 8.98576,3.9759 5.41577,-3.9704 11.48441,-8.7694 13.48587,-10.6644 3.04415,-2.8823 3.96487,-3.2712 5.63235,-2.3788 3.81394,2.0412 3.47334,4.0742 -1.61537,9.6421 -5.89933,6.4548 -11.30229,14.4346 -10.5727,15.6151 1.14121,1.8465 4.24662,0.6562 12.22619,-4.6861 8.81966,-5.9048 11.0479,-6.2519 12.97566,-2.0209 0.96628,2.1208 0.46822,3.2147 -4.4303,9.7308 -6.74168,8.9678 -8.43902,12.0872 -7.44886,13.6893 0.56273,0.9105 1.46665,0.9609 3.48318,0.1942 2.75414,-1.0471 7.60757,0.5256 9.10643,2.9508 0.34234,0.5539 1.52077,1.0071 2.61874,1.0071 1.45267,0 2.69583,-1.528 4.56503,-5.6108 z m -74.67937,-18.3892 c 0,-2.1091 -1.45488,-2.691 -2.5,-1 -0.7292,1.1799 0.21667,3 1.55902,3 0.51754,0 0.94098,-0.9 0.94098,-2 z m -3.5,-95 c -1.65,-0.4198 -5.06776,-0.8166 -7.59501,-0.8817 -3.16547,-0.082 -5.14037,-0.7209 -6.34796,-2.0553 -2.52241,-2.7872 -1.13496,-4.063 4.41865,-4.063 2.99723,0 5.01724,-0.4787 5.27434,-1.25 0.22918,-0.6875 -1.51322,-5.8564 -3.87199,-11.4864 -11.31646,-27.0108 -17.18517,-51.7829 -18.099,-76.3968 -1.174,-31.6214 2.38529,-41.8254 29.34953,-84.141 17.23316,-27.0445 24.72597,-41.3592 30.95527,-59.139 4.06549,-11.6038 7.4992,-25.5753 7.4928,-30.4876 -0.003,-2.5296 0.23951,-8.1111 0.53959,-12.4035 0.92814,-13.2765 -4.1741,-26.6156 -13.22927,-34.5863 -7.25222,-6.3837 -13.42831,-8.8591 -24.04177,-9.6363 -7.18308,-0.526 -10.41373,-0.3044 -15,1.0289 -14.73284,4.2829 -29.4012,14.2886 -37.15763,25.3461 -5.88182,8.3851 -7.44227,12.5852 -7.52782,20.2616 -0.0903,8.1029 1.9025,11.8903 6.25633,11.8903 5.98921,0 4.27276,4.7019 -3.67949,10.0794 -6.7036,4.5331 -21.52469,12.2968 -29.56366,15.4863 -8.30244,3.2941 -8.73387,3.0253 -12.36302,-7.7004 -1.90521,-5.6308 -2.62042,-10.2561 -3.03697,-19.6403 -0.29967,-6.7513 -0.93368,-12.5153 -1.40889,-12.809 -1.11102,-0.6867 -1.12982,-9.7158 -0.0228,-10.966 0.46267,-0.5225 1.86454,-4.1 3.11527,-7.95 2.8056,-8.6362 14.82414,-27.1098 23.88765,-36.7176 7.24188,-7.6768 19.0076,-15.4232 32.15588,-21.171 7.70197,-3.3669 20.55236,-6.4392 34.77296,-8.3135 2.35013,-0.3097 4.51418,-0.9535 4.80902,-1.4305 0.69941,-1.1317 13.13732,-1.1306 13.83681,0 0.29526,0.4777 3.72509,1.1828 7.62186,1.5667 9.8817,0.9738 14.64427,2.607 22.04907,7.5616 8.34407,5.583 10.61882,7.6627 13.67585,12.5031 1.38945,2.2 4.2799,6.1105 6.42322,8.69 2.20579,2.6547 5.61611,8.9151 7.85843,14.426 2.17881,5.3549 4.63452,10.4798 5.45713,11.3888 0.82261,0.909 1.49718,3.4172 1.49904,5.5739 0.003,3.8716 2.34281,13.2019 7.283,29.0464 1.59232,5.107 3.13353,13.9138 4.14911,23.709 l 1.61576,15.5839 -3.64837,15.291 c -5.56939,23.3423 -6.05259,24.8531 -10.00812,31.291 -2.02754,3.3 -5.79013,10.05 -8.3613,15 -2.57117,4.95 -7.68054,13.6234 -11.35416,19.2743 -3.67362,5.6509 -6.67931,10.5531 -6.67931,10.8937 0,0.3406 -2.185,4.2672 -4.85555,8.7257 -12.79543,21.3619 -17.73954,35.2298 -19.88216,55.7679 -1.62628,15.5887 -1.62323,15.712 0.65546,26.5 1.58543,7.5059 3.17991,12.1979 5.18579,15.2598 2.08099,3.1767 2.89646,5.6541 2.89646,8.7997 0,4.8824 1.8671,9.1599 6.13867,14.0637 4.85059,5.5685 3.43727,11.4868 -3.16545,13.2555 -1.91027,0.5117 -7.52322,2.0387 -12.47322,3.3932 -9.11485,2.4943 -19.81932,3.1392 -26,1.5665 z m 20.61113,-6.8888 c 10.57376,-3.0238 12.96462,-5.1465 11.38887,-10.1112 -0.98178,-3.0933 -4.12663,-2.3853 -8.88417,2 -5.00557,4.614 -5.92963,4.8178 -8.05913,1.7775 -2.5062,-3.5781 -1.78255,-6.0252 2.7544,-9.3141 4.26569,-3.0923 5.8998,-6.7848 3.42322,-7.7351 -0.75428,-0.2894 -3.50393,0.3968 -6.11032,1.5251 -4.71573,2.0413 -4.75177,2.0417 -7.3684,0.088 -3.71392,-2.7729 -4.8241,-6.7669 -3.38083,-12.1631 1.48412,-5.549 0.34646,-7.1784 -5.01191,-7.1784 -3.31812,0 -4.18455,-0.4794 -5.87382,-3.25 -2.67398,-4.3856 -2.50246,-8.6655 0.51096,-12.75 3.87893,-5.2576 3.27688,-6.8757 -2.7808,-7.4741 -1.77056,-0.1748 -3.6692,-0.418 -4.2192,-0.5403 -4.3223,-0.9614 -4.61026,3.2381 -1.00168,14.6079 1.37408,4.3294 2.79247,9.4545 3.15198,11.3891 0.94782,5.1004 7.77768,23.1517 11.27727,29.8059 1.6521,3.1413 3.45812,6.949 4.01337,8.4615 0.88625,2.4141 1.53206,2.75 5.28749,2.75 2.35286,0 7.25008,-0.85 10.8827,-1.8888 z m 1.12356,-34.496 c 1.09147,-1.6568 0.91762,-4.0629 -0.38789,-5.3684 -2.57788,-2.5779 -8.12348,3.51 -5.77501,6.3397 1.29444,1.5597 4.86639,0.9968 6.1629,-0.9713 z m -8.01433,-20.2659 c 3.57303,-1.7994 4.86362,-4.3886 3.92918,-7.8825 -1.04374,-3.9027 -2.13679,-3.9831 -6.93194,-0.5095 -5.57532,4.0388 -7.86817,7.5539 -6.22147,9.538 1.34169,1.6167 4.52349,1.2214 9.22423,-1.146 z m 4.68098,-20.5993 c 0.46851,-1.2375 1.17286,-5.4609 1.56523,-9.3854 0.78218,-7.8234 0.0731,-9.2231 -3.6959,-7.2963 -3.75044,1.9174 -12.64213,11.1031 -12.10431,12.5046 0.2754,0.7177 1.92563,1.616 3.66718,1.9963 1.74155,0.3803 4.23965,1.5328 5.55132,2.5611 3.09218,2.4242 3.98019,2.3569 5.01648,-0.3803 z m -25.57475,-6.6352 c 4.22037,-4.3368 7.67341,-8.6637 7.67341,-9.6152 0,-1.5167 -0.68823,-1.6441 -5.58062,-1.0328 -4.56087,0.5699 -5.93135,0.3798 -7.5,-1.0398 -3.38011,-3.0589 -2.42924,-7.3546 3.22531,-14.5709 1.57042,-2.0041 2.85531,-4.399 2.85531,-5.322 0,-1.4551 -0.7638,-1.5875 -5.75,-0.9969 -3.1625,0.3746 -6.30729,1.2054 -6.98842,1.8461 -2.21244,2.0812 -1.84752,33.7969 0.4357,37.8667 1.19655,2.1328 4.70495,-0.02 11.62931,-7.1352 z m 19.26448,-26.604 c 2.69991,-0.819 7.07203,-1.494 9.71582,-1.5 l 4.8069,-0.011 3.32292,-7.25 c 1.82761,-3.9875 5.40201,-10.7504 7.94311,-15.0288 2.5411,-4.2783 4.62018,-7.9667 4.62018,-8.1964 0,-0.9349 7.48717,-13.2214 9.65263,-15.84 3.59548,-4.3479 9.39147,-14.6553 10.02659,-17.8309 1.16753,-5.8376 -4.29336,-3.0461 -21.08964,10.7806 -8.42545,6.9359 -8.70739,7.617 -4.81526,11.6327 3.98175,4.1081 4.1339,7.1178 0.47568,9.4093 -5.01918,3.144 -18.64149,15.0268 -26.5,23.1162 -10.91075,11.2312 -10.36295,14.4204 1.84107,10.7181 z m -19.41779,-24.2278 c 1.82969,-1.4943 9.08933,-7.6275 16.13252,-13.6293 l 12.80581,-10.9122 -0.62228,-5.1208 -0.62229,-5.1207 6.06648,-5.9687 c 6.4384,-6.3346 6.9827,-7.8588 4.51232,-12.636 l -1.55416,-3.0054 6.25748,-7.0582 6.25748,-7.0581 -1.70332,-2.9678 c -0.93683,-1.6323 -1.70332,-3.7272 -1.70332,-4.6552 0,-2.5648 6.44696,-9.9628 25.06239,-28.7598 16.52105,-16.6821 16.92787,-17.1937 16.29993,-20.5 -1.52332,-8.0204 -4.19926,-8.8398 -10.44405,-3.198 -6.32911,5.718 -10.03539,11.7105 -10.09913,16.3289 -0.0631,4.5725 -0.65048,4.8568 -3.5707,1.7283 -3.02872,-3.2448 -3.5527,-6.6418 -1.79322,-11.6257 2.01226,-5.6999 1.94821,-7.1243 -0.32036,-7.1243 -2.85534,0 -6.84634,3.6391 -7.38201,6.7311 -0.97584,5.6327 -6.18075,22.1016 -10.4502,33.0657 -5.87975,15.0992 -15.33947,31.9112 -35.91172,63.8227 -5.73344,8.8937 -12.19782,21.233 -13.50205,25.7729 -1.5328,5.3355 1.09753,6.1268 6.2844,1.8906 z m 79.56238,-57.8984 c 1.24614,-2.2635 2.55157,-6.201 2.90095,-8.75 0.56201,-4.1004 0.41784,-4.6339 -1.25069,-4.6281 -2.06947,0.01 -10.82571,7.0782 -12.39423,10.009 -0.76449,1.4285 -0.39694,2.5379 1.64468,4.9642 3.4956,4.1543 6.19447,3.6812 9.09929,-1.5951 z m 7.4457,-26.8846 c 3.46347,-11.5999 1.85993,-13.2325 -6.29258,-6.4069 -5.64575,4.7269 -6.16064,7.2801 -2.13878,10.6057 4.42758,3.661 6.37401,2.6917 8.43136,-4.1988 z m -152.68136,-28.5715 c 1.65,-0.7195 5.5875,-2.8617 8.75,-4.7604 6.20471,-3.7254 6.57901,-4.6426 4.68216,-11.4734 -1.81805,-6.547 -3.55249,-6.2699 -17.44889,2.7877 -9.86285,6.4286 -11.18815,8.2538 -9.02721,12.4326 2.19246,4.2398 5.12287,4.4675 13.04394,1.0135 z m -11.16643,-21.3554 c 0.76254,-1.9871 -2.06489,-4.2418 -3.50873,-2.7979 -1.38085,1.3808 -0.34634,4.2248 1.53679,4.2248 0.78341,0 1.67079,-0.6421 1.97194,-1.4269 z m 27.51653,-20.0687 c 3.85302,-7.4408 17.09615,-21.416 23.28709,-24.5744 5.1906,-2.648 5.77645,-4.4709 2.49236,-7.755 -3.15717,-3.1572 -2.05957,-3.7828 -16.35894,9.325 -5.99997,5.5 -13.0249,11.7178 -15.61096,13.8174 -2.58605,2.0996 -5.45633,4.9689 -6.37839,6.3761 -1.66004,2.5335 -1.63324,2.5955 2.73398,6.3195 2.42575,2.0685 4.87717,3.5809 5.44761,3.3609 0.57043,-0.22 2.54469,-3.3113 4.38725,-6.8695 z m 114.58071,1.4661 c 5.6936,-6.0869 5.65305,-8.1448 -0.1801,-9.1406 -7.89362,-1.3475 -10.63962,-5.0466 -8.30491,-11.1873 1.29774,-3.4134 -0.99173,-5.3642 -4.74583,-4.044 -3.57296,1.2566 -3.85585,3.6589 -0.8982,7.6279 1.85677,2.4917 2.57478,4.9928 3.00635,10.4725 1.00498,12.7607 3.65514,14.2549 11.12269,6.2715 z m -137.43081,-11.5318 c 1.925,-1.3452 5.209,-3.5885 7.29777,-4.985 4.43036,-2.962 5.46806,-4.9978 3.86005,-7.5726 -2.29276,-3.6713 -1.19079,-5.6428 7.56085,-13.5268 15.84479,-14.2739 16.77496,-15.194 16.07191,-15.897 -1.2365,-1.2366 -5.36614,0.4115 -11.80428,4.7107 -7.24179,4.8359 -12.02834,9.3875 -16.9863,16.1525 -1.925,2.6266 -4.43814,5.9915 -5.58475,7.4776 -3.70582,4.8029 -7.68853,13.0474 -7.0751,14.6459 0.81845,2.1329 2.54162,1.8728 6.65985,-1.0053 z m 144,-10.4387 c 0,-2.0703 -2.41251,-2.7596 -3.5,-1 -0.83704,1.3544 0.29243,3 2.05902,3 0.79254,0 1.44098,-0.9 1.44098,-2 z m -31.17965,-11.2835 c 1.32059,-1.5912 0.34502,-3.2395 -2.42917,-4.1043 -1.30588,-0.4071 -2.56147,-0.1119 -3.29767,0.7751 -0.95263,1.1479 -0.73776,1.7485 1.08132,3.0226 2.74668,1.9239 3.27439,1.9587 4.64552,0.3066 z m 24.57403,-2.7121 c 1.29137,-1.2896 -7.90655,-14.3412 -14.10638,-20.0166 -7.03931,-6.4438 -14.35794,-9.9878 -20.62539,-9.9878 -4.16246,0 -5.71338,0.5862 -9.80366,3.7055 -4.48234,3.4183 -6.06221,6.4328 -4.02966,7.689 0.89654,0.5541 8.0176,-1.4143 12.34697,-3.4129 7.05008,-3.2546 10.49261,2.4227 4.73302,7.8056 -2.75502,2.5747 -2.92688,3.0523 -1.58227,4.397 1.59646,1.5964 15.35401,3.2592 18.13544,2.1918 0.84811,-0.3254 2.65656,-0.312 4.01877,0.03 2.31572,0.5812 2.4354,0.9233 1.84088,5.2608 l -0.63586,4.6391 4.40688,-0.7041 c 2.42378,-0.3872 4.80935,-1.106 5.30126,-1.5973 z m -77.92303,-23.3598 c 2.66181,-1.9464 1.29184,-4.6446 -2.35818,-4.6446 -5.6037,0 -7.68237,2.0308 -4.91317,4.8 1.59405,1.5941 4.97773,1.5217 7.27135,-0.1554 z m 22.51808,-4.1319 c 1.61949,-1.9513 0.57762,-4.5127 -1.8356,-4.5127 -2.42603,0 -4.55401,2.5148 -3.79709,4.4873 0.74373,1.9381 4.03298,1.953 5.63269,0.025 z"
         id="path4760"
         inkscape:connector-curvature="0" />
      <path
         style="fill:#541815"
         d="m 812.15795,2000.9744 c -0.39889,-0.3989 -3.37959,-1.2667 -6.62377,-1.9285 -7.14027,-1.4565 -17.12261,-6.1192 -22.2726,-10.4035 -7.67992,-6.389 -12.64194,-22.0857 -11.34748,-35.8963 1.23455,-13.1714 6.7067,-28.2995 10.69436,-29.5651 3.08981,-0.9807 3.41331,-0.01 1.58578,4.7797 -3.4095,8.9277 -1.27437,11.8891 2.78962,3.8692 3.87493,-7.6469 11.7686,-13.1597 23.60872,-16.488 17.24538,-4.8478 31.75468,-1.9236 43.68703,8.8046 5.87544,5.2826 9.54963,11.7719 11.84957,20.9288 1.45275,5.7839 1.54612,7.8481 0.58803,13 -1.7485,9.4021 -6.3533,17.6671 -14.4825,25.9942 -8.67684,8.8881 -19.18739,14.5026 -28.77744,15.3722 -3.28032,0.2975 -6.203,0.9272 -6.49483,1.3994 -0.6462,1.0455 -3.80458,1.1332 -4.80449,0.1333 z m -1.82829,-8.4546 c 0.89275,-0.8927 1.73215,-0.9012 3.45,-0.035 3.75829,1.8953 16.59558,0.9088 21.56893,-1.6575 2.3643,-1.2199 4.57705,-2.9434 4.91722,-3.8299 0.34018,-0.8865 2.56111,-3.6392 4.93542,-6.1172 2.37431,-2.4779 4.57938,-5.3323 4.90017,-6.343 0.32078,-1.0107 1.47782,-1.8376 2.57118,-1.8376 2.81716,0 6.99008,-9.5166 7.61256,-17.3609 0.40554,-5.1106 0.008,-7.3771 -2.37405,-13.5275 -6.66867,-17.2202 -22.68274,-26.3403 -40.62201,-23.1344 -4.05319,0.7244 -7.7322,2.0157 -8.8083,3.0918 -1.01636,1.0164 -3.5541,2.7402 -5.63942,3.8307 -5.23444,2.7373 -10.01709,7.526 -11.89783,11.9128 -1.16062,2.7072 -5.24762,19.3735 -5.38052,21.9413 -0.007,0.1396 -1.45819,0.1396 -3.22435,0 -4.31286,-0.3409 -4.6105,1.6387 -1.6502,10.9756 2.64516,8.3429 7.14652,14.6908 9.90583,13.9692 1.14368,-0.2991 3.57088,1.2591 6.88457,4.4197 3.99196,3.8075 5.83905,4.8817 8.39457,4.8817 1.80204,0 3.80735,-0.531 4.45623,-1.1798 z m -27.77979,-43.8202 c 0,-2.1091 -1.45488,-2.691 -2.5,-1 -0.7292,1.1799 0.21667,3 1.55902,3 0.51754,0 0.94098,-0.9 0.94098,-2 z m -3.5,-95 c -1.65,-0.4198 -5.06776,-0.8166 -7.59501,-0.8817 -3.16547,-0.082 -5.14037,-0.7209 -6.34796,-2.0553 -2.52241,-2.7872 -1.13496,-4.063 4.41865,-4.063 2.99723,0 5.01724,-0.4787 5.27434,-1.25 0.22918,-0.6875 -1.51322,-5.8564 -3.87199,-11.4864 -11.31646,-27.0108 -17.18517,-51.7829 -18.099,-76.3968 -1.174,-31.6214 2.38529,-41.8254 29.34953,-84.141 17.23316,-27.0445 24.72597,-41.3592 30.95527,-59.139 4.06549,-11.6038 7.4992,-25.5753 7.4928,-30.4876 -0.003,-2.5296 0.23951,-8.1111 0.53959,-12.4035 0.92814,-13.2765 -4.1741,-26.6156 -13.22927,-34.5863 -7.25222,-6.3837 -13.42831,-8.8591 -24.04177,-9.6363 -7.18308,-0.526 -10.41373,-0.3044 -15,1.0289 -14.73284,4.2829 -29.4012,14.2886 -37.15763,25.3461 -5.88182,8.3851 -7.44227,12.5852 -7.52782,20.2616 -0.0903,8.1029 1.9025,11.8903 6.25633,11.8903 5.98921,0 4.27276,4.7019 -3.67949,10.0794 -6.7036,4.5331 -21.52469,12.2968 -29.56366,15.4863 -8.30244,3.2941 -8.73387,3.0253 -12.36302,-7.7004 -1.90521,-5.6308 -2.62042,-10.2561 -3.03697,-19.6403 -0.29967,-6.7513 -0.93368,-12.5153 -1.40889,-12.809 -1.11102,-0.6867 -1.12982,-9.7158 -0.0228,-10.966 0.46267,-0.5225 1.86454,-4.1 3.11527,-7.95 2.8056,-8.6362 14.82414,-27.1098 23.88765,-36.7176 7.24188,-7.6768 19.0076,-15.4232 32.15588,-21.171 7.70197,-3.3669 20.55236,-6.4392 34.77296,-8.3135 2.35013,-0.3097 4.51418,-0.9535 4.80902,-1.4305 0.69941,-1.1317 13.13732,-1.1306 13.83681,0 0.29526,0.4777 3.72509,1.1828 7.62186,1.5667 9.8817,0.9738 14.64427,2.607 22.04907,7.5616 8.34407,5.583 10.61882,7.6627 13.67585,12.5031 1.38945,2.2 4.2799,6.1105 6.42322,8.69 2.20579,2.6547 5.61611,8.9151 7.85843,14.426 2.17881,5.3549 4.63452,10.4798 5.45713,11.3888 0.82261,0.909 1.49718,3.4172 1.49904,5.5739 0.003,3.8716 2.34281,13.2019 7.283,29.0464 1.59232,5.107 3.13353,13.9138 4.14911,23.709 l 1.61576,15.5839 -3.64837,15.291 c -5.56939,23.3423 -6.05259,24.8531 -10.00812,31.291 -2.02754,3.3 -5.79013,10.05 -8.3613,15 -2.57117,4.95 -7.68054,13.6234 -11.35416,19.2743 -3.67362,5.6509 -6.67931,10.5531 -6.67931,10.8937 0,0.3406 -2.185,4.2672 -4.85555,8.7257 -12.79543,21.3619 -17.73954,35.2298 -19.88216,55.7679 -1.62628,15.5887 -1.62323,15.712 0.65546,26.5 1.58543,7.5059 3.17991,12.1979 5.18579,15.2598 2.08099,3.1767 2.89646,5.6541 2.89646,8.7997 0,4.8824 1.8671,9.1599 6.13867,14.0637 4.85059,5.5685 3.43727,11.4868 -3.16545,13.2555 -1.91027,0.5117 -7.52322,2.0387 -12.47322,3.3932 -9.11485,2.4943 -19.81932,3.1392 -26,1.5665 z m 20.61113,-6.8888 c 8.31815,-2.3788 10.59133,-3.5984 11.38853,-6.1101 0.90526,-2.8522 -0.33476,-6.0011 -2.3632,-6.0011 -1.66619,0 -3.60999,-4.4159 -6.08464,-13.8231 -0.4808,-1.8277 -1.65889,-4.1902 -2.61799,-5.25 -0.9788,-1.0816 -1.24547,-1.9269 -0.60787,-1.9269 2.24019,0 2.53229,-4.9854 0.42803,-7.3054 -1.11216,-1.2261 -2.26995,-4.3565 -2.62361,-7.0937 -0.34815,-2.6945 -1.12146,-5.4877 -1.71848,-6.2071 -0.79643,-0.9596 -0.67014,-1.9009 0.47422,-3.5347 1.5722,-2.2446 1.29617,-6.1401 -0.60663,-8.5611 -1.0109,-1.2862 -0.48727,-3.8762 1.81618,-8.9832 0.79015,-1.7518 1.65869,-7.3768 1.93008,-12.5 0.2714,-5.1231 0.97617,-11.1148 1.56616,-13.3148 0.58999,-2.2 1.31175,-5.2375 1.6039,-6.75 0.29215,-1.5125 1.18072,-2.75 1.97458,-2.75 0.8245,0 2.89476,-3.1848 4.82828,-7.4276 1.86169,-4.0853 4.46207,-9.1478 5.77863,-11.25 1.31656,-2.1023 4.34143,-7.4224 6.72194,-11.8224 4.43592,-8.1991 6.19461,-11.0217 11.60889,-18.6315 4.7003,-6.6063 8.39187,-14.0491 8.39187,-16.9194 0,-1.4118 0.66069,-3.4404 1.4682,-4.508 0.8075,-1.0676 1.4825,-2.6973 1.5,-3.6216 0.0182,-0.9644 0.98411,-1.8166 2.26677,-2 3.70634,-0.5299 7.08602,-7.9355 7.32229,-16.0448 0.12901,-4.4277 0.73152,-7.454 1.70454,-8.5616 3.52008,-4.0068 4.70113,-12.0123 3.70586,-25.1191 -0.56373,-7.4237 -1.50249,-13.2613 -2.33754,-14.5358 -1.22493,-1.8694 -1.17,-2.4082 0.44938,-4.4081 1.32242,-1.6331 1.67409,-3.1805 1.24183,-5.4642 -0.82189,-4.3422 -2.12997,-6.6859 -3.73151,-6.6859 -0.7369,0 -1.62536,-1.4625 -1.97434,-3.25 -0.82654,-4.2335 -6.29743,-24.9324 -8.16295,-30.8842 -0.79889,-2.5488 -1.45253,-5.5863 -1.45253,-6.75 0,-1.1637 -0.36719,-2.1158 -0.81599,-2.1158 -0.87682,0 -5.50183,-10.5149 -5.71809,-13 -0.22421,-2.5765 -9.29748,-14.6632 -14.55747,-19.3924 -2.76323,-2.4844 -7.43441,-5.6963 -10.3804,-7.1377 -4.53545,-2.219 -6.48061,-2.5806 -12.6922,-2.3596 -4.03472,0.1435 -10.3672,-0.2802 -14.07219,-0.9417 -4.19443,-0.7488 -7.40184,-0.8594 -8.5,-0.293 -3.33582,1.7205 -15.76913,3.8478 -19.85256,3.3967 -2.64625,-0.2923 -4.58676,0.031 -5.5,0.9174 -0.7761,0.7529 -6.73965,3.5644 -13.25232,6.2478 -13.80979,5.6898 -24.64913,13.1068 -30.31527,20.7436 -2.11393,2.8491 -5.05279,6.7864 -6.53079,8.7496 -4.0528,5.383 -8.81272,14.1851 -8.81272,16.2965 0,1.0297 -0.74137,3.3058 -1.64749,5.058 -1.63071,3.1535 -2.16852,16.5854 -0.75562,18.8716 0.60139,0.973 0.85737,2.3941 1.85171,10.28 0.27302,2.1652 1.15053,4.5909 1.95003,5.3904 1.2715,1.2715 1.20071,1.7957 -0.56501,4.184 -1.90675,2.579 -1.92895,2.9038 -0.40045,5.8596 2.71517,5.2505 8.59155,4.2546 21.81683,-3.6976 4.09536,-2.4625 5.7484,-4.064 5.74442,-5.5653 -0.01,-3.708 -2.07218,-9.7005 -3.53119,-10.2604 -1.09809,-0.4214 -1.28002,-1.9106 -0.81784,-6.6947 0.32692,-3.384 1.13482,-6.6028 1.79533,-7.1528 0.66051,-0.55 2.70568,-3.8339 4.54483,-7.2977 3.86135,-7.2721 17.15713,-21.2141 23.14321,-24.268 2.1735,-1.1088 4.37256,-3.1227 4.88678,-4.4752 0.57282,-1.5066 1.72772,-2.4591 2.98167,-2.4591 1.12569,0 5.03336,-1.3542 8.68372,-3.0094 14.27952,-6.4746 35.03342,-5.9726 43.88481,1.0616 2.0401,1.6213 4.28415,2.9478 4.98678,2.9478 1.64921,0 9.44748,8.8383 9.44748,10.7075 0,0.7843 1.125,2.9009 2.5,4.7036 1.77772,2.3307 2.50689,4.5505 2.52386,7.6833 0.0131,2.4231 0.51596,6.2056 1.11743,8.4056 0.60146,2.2 1.42233,8.275 1.82414,13.5 0.63245,8.2241 0.4995,9.7686 -0.98993,11.5 -0.94627,1.1 -1.94704,3.125 -2.22394,4.5 -1.25377,6.226 -6.43547,22.4902 -10.44891,32.7968 -5.88044,15.101 -15.33899,31.9105 -35.91859,63.8334 -6.92633,10.744 -13.2496,23.4391 -13.77179,27.6493 -0.23117,1.8638 -1.1385,5.5041 -2.01629,8.0895 -0.87779,2.5855 -1.59598,5.8872 -1.59598,7.3372 0,1.45 -0.66517,3.3713 -1.47815,4.2697 -1.14395,1.264 -1.51253,4.8992 -1.63023,16.0787 -0.16721,15.8814 0.5435,21.5299 2.873,22.8336 1.18701,0.6642 1.51858,2.6147 1.45689,8.5699 -0.0577,5.5711 0.59357,9.8319 2.34763,15.3586 1.33512,4.2066 2.72165,9.2313 3.08116,11.1659 0.94782,5.1004 7.77768,23.1517 11.27727,29.8059 1.6521,3.1413 3.45812,6.949 4.01337,8.4615 0.88625,2.4141 1.53206,2.75 5.28749,2.75 2.35286,0 7.25008,-0.85 10.8827,-1.8888 z"
         id="path4758"
         inkscape:connector-curvature="0" />
      <path
         style="fill:#230b05"
         d="m 812.98686,2000.8016 c 0.30526,-0.494 -2.41044,-1.4145 -6.03488,-2.0457 -14.31199,-2.4923 -26.12253,-10.6078 -30.92238,-21.2481 -2.43555,-5.3991 -2.90895,-7.9156 -3.28483,-17.4616 -0.38965,-9.8957 -0.13709,-12.2074 2.23966,-20.5 3.16252,-11.0342 5.3864,-15.2328 8.29278,-15.6566 l 2.12607,-0.3099 -1.99413,5.2481 c -1.09677,2.8865 -1.76449,6.1263 -1.48382,7.1996 0.28067,1.0732 -0.38271,4.2511 -1.47417,7.0618 -5.11096,13.1617 -2.4594,30.1505 6.2501,40.045 4.77202,5.4213 13.23115,10.165 20.53401,11.515 2.98668,0.5522 5.77465,1.2167 6.19549,1.4768 1.11434,0.6887 14.10649,-1.2425 17.61911,-2.6189 7.25354,-2.8424 14.95392,-8.9244 20.14272,-15.9094 7.3629,-9.9117 9.64051,-16.371 9.13187,-25.8981 -0.71588,-13.4092 -8.24097,-24.6444 -20.55701,-30.6923 -5.04953,-2.4796 -6.82758,-2.8074 -15.21758,-2.8048 -11.70196,0 -21.92379,2.9516 -28.25796,8.1498 -4.11891,3.3802 -10.58626,13.989 -10.69177,17.5383 -0.0276,0.93 -0.50027,1.9691 -1.05027,2.309 -2.14684,1.3268 -0.83887,-6.2679 2.06666,-12 4.16713,-8.221 7.25993,-11.2321 15.43334,-15.0256 21.10712,-9.7964 41.74513,-6.3634 55.46811,9.2267 7.84947,8.9175 11.03964,24.5688 7.21651,35.405 -5.42948,15.3892 -19.64767,29.1767 -34.96783,33.9087 -3.5351,1.0918 -8.20662,1.9852 -10.38114,1.9852 -2.38115,0 -3.70787,0.3977 -3.33565,1 0.33992,0.55 -0.33508,1 -1.5,1 -1.16492,0 -1.86828,-0.4041 -1.56301,-0.898 z m -33.43699,-147.2044 c -3.025,-0.528 -7.525,-1.2835 -10,-1.6788 -3.5152,-0.5615 -4.5,-1.1376 -4.5,-2.6324 0,-1.6172 0.77174,-1.927 4.98233,-2 6.4756,-0.1123 6.74515,-1.4936 2.23201,-11.4377 -11.5166,-25.3754 -19.00777,-58.538 -19.00854,-84.1487 -4.9e-4,-16.4264 1.54793,-25.429 6.47082,-37.6214 3.45029,-8.5452 3.85086,-9.2476 21.88597,-38.3786 24.2295,-39.1364 30.8363,-53.1038 37.49599,-79.2706 2.55672,-10.0456 2.64605,-10.9131 2.70532,-26.2754 0.056,-14.5163 -4.57739,-26.2194 -13.43417,-33.9321 -11.02359,-9.5996 -26.42851,-12.6377 -41.54089,-8.1926 -15.68766,4.6144 -32.30575,17.593 -39.20156,30.6161 -2.69307,5.086 -3.50911,7.9471 -3.86982,13.5678 -0.58695,9.146 1.17936,13.0954 6.28503,14.0532 1.92363,0.3609 3.49751,1.1969 3.49751,1.8578 0,3.7689 -16.1979,13.7759 -36.37712,22.4736 -6.99821,3.0165 -8.10023,2.7781 -9.92912,-2.1478 -3.16758,-8.5314 -4.80561,-15.7725 -4.85144,-21.4465 -0.096,-11.8842 -1.12656,-22.9011 -1.89928,-20.3035 -0.59744,2.0084 -0.76027,1.6151 -0.82805,-2 -0.0609,-3.2483 0.18526,-4.0828 0.88501,-3 0.82035,1.2694 0.97173,1.2196 0.98469,-0.3237 0.0453,-5.3967 5.42175,-17.1412 12.91772,-28.2179 9.93727,-14.6842 17.16825,-22.2587 27.79151,-29.1119 14.94813,-9.6431 29.17605,-14.3123 54.54587,-17.9002 2.60688,-0.3687 4.49283,-1.0699 4.19098,-1.5583 -0.30184,-0.4884 2.06525,-0.8811 5.26021,-0.8727 3.53263,0.01 5.28898,0.345 4.48195,0.8567 -1.54196,0.9775 3.96794,2.0996 10.39557,2.117 6.71951,0.018 14.20724,2.8487 22.98032,8.6871 6.67091,4.4394 9.13525,6.8123 12.53617,12.0711 2.32817,3.6 5.46728,7.9511 6.97579,9.6692 1.50851,1.7181 4.40362,7.3898 6.43357,12.6037 2.02995,5.214 4.26477,10.1549 4.96626,10.9799 0.7015,0.825 1.52597,4.0744 1.83216,7.2209 0.30619,3.1465 1.03895,7.1965 1.62835,9 10.14623,31.0465 13.2597,52.4701 9.56429,65.8112 -0.83302,3.0073 -2.86799,11.3179 -4.52216,18.4679 -2.52671,10.9215 -3.78323,14.2791 -7.859,21 -2.66828,4.4 -6.54557,11.375 -8.61619,15.5 -2.07063,4.125 -6.05203,10.875 -8.84758,15 -2.79554,4.125 -7.30426,11.55 -10.01938,16.5 -17.26423,31.4749 -21.07437,41.1911 -22.62873,57.7052 -0.53293,5.6621 -1.23766,12.1228 -1.56606,14.357 -0.58492,3.9795 0.0446,8.3754 3.07018,21.4378 0.82805,3.575 1.94136,8.525 2.47403,11 0.53267,2.475 2.09314,6.75 3.46771,9.5 1.37457,2.75 2.5133,5.4815 2.5305,6.07 0.0172,0.5885 1.57959,2.8789 3.47199,5.0897 7.57011,8.844 5.72854,11.8825 -9.86611,16.2789 -12.26992,3.4591 -21.4484,4.3774 -29.57461,2.959 z m 22.6338,-6.9952 c 7.98479,-2.5881 9.80513,-4.5933 9.07971,-10.0017 -0.30571,-2.2792 -1.71632,-6.3809 -3.13468,-9.1147 -1.41835,-2.7338 -2.57883,-5.7321 -2.57883,-6.663 0,-0.9307 -0.91159,-4.2859 -2.02575,-7.4559 -1.11416,-3.17 -2.2824,-7.8794 -2.5961,-10.4654 -0.31369,-2.5859 -1.28293,-6.6658 -2.15386,-9.0663 -1.40728,-3.8788 -1.43991,-6.1527 -0.2932,-20.4303 0.8431,-10.4975 1.9719,-17.9962 3.25682,-21.6354 1.08157,-3.0634 2.51932,-7.5947 3.195,-10.0697 1.47615,-5.4072 4.09521,-11.7367 7.65505,-18.5 6.14167,-11.6685 16.2465,-28.8554 19.37477,-32.9536 1.85535,-2.4307 6.13075,-9.5104 9.50088,-15.7329 3.37014,-6.2224 6.56355,-11.9885 7.09648,-12.8135 3.57266,-5.5307 5.58806,-11.0169 9.12208,-24.8317 4.24398,-16.5901 5.24345,-26.1241 3.68679,-35.1683 -0.52065,-3.025 -1.3517,-8.65 -1.84678,-12.5 -0.49508,-3.85 -2.94135,-13.7365 -5.43616,-21.97 -2.49481,-8.2335 -4.53602,-16.2879 -4.53602,-17.8987 0,-1.6108 -1.30302,-5.6743 -2.89559,-9.03 -1.59258,-3.3557 -4.16107,-8.9363 -5.70776,-12.4013 -1.54669,-3.465 -3.42154,-6.8057 -4.16635,-7.4238 -0.7448,-0.6182 -2.95042,-3.5287 -4.90137,-6.468 -4.11991,-6.2069 -11.6319,-13.0701 -18.2143,-16.6413 -5.89938,-3.2006 -17.53582,-5.0961 -32.11463,-5.2312 -9.53124,-0.088 -12.72856,0.2932 -18.67632,2.2288 -3.94697,1.2845 -8.67197,2.3431 -10.5,2.3523 -8.78904,0.044 -33.14125,13.9814 -42.37476,24.2512 -4.25304,4.7304 -14.4906,19.6506 -19.71457,28.732 -3.52195,6.1226 -5.13627,15.4735 -3.652,21.154 0.62456,2.3903 1.49949,7.946 1.9443,12.346 2.17166,21.4819 5.6138,24.1936 20.81601,16.3991 4.39901,-2.2554 8.98868,-5.1551 10.19927,-6.4437 2.19783,-2.3395 2.1985,-2.3534 0.45783,-9.4564 -2.22641,-9.085 -1.65173,-14.8004 2.32621,-23.1348 4.06741,-8.5219 17.22902,-22.1659 25.17403,-26.0967 12.56585,-6.217 25.35554,-10.8755 31.35091,-11.4193 8.63473,-0.783 20.35694,1.0698 25.70744,4.0635 6.90232,3.862 16.41447,14.3063 18.01574,19.7812 2.82428,9.6564 3.87316,17.2893 2.88176,20.971 -0.55943,2.0776 -0.92416,7.9531 -0.81052,13.0568 0.18503,8.3091 -0.19237,10.5339 -3.60975,21.2793 -9.2502,29.0858 -19.4106,48.7946 -44.33534,86 -1.84228,2.75 -6.40791,11.3 -10.14583,19 -7.86701,16.2058 -9.05441,21.975 -9.05441,43.9922 0,16.3107 1.63112,26.6432 7.65754,48.5078 4.43363,16.0857 8.62436,27.6087 13.46944,37.0358 2.13016,4.1447 3.87302,8.2172 3.87302,9.05 0,4.4968 7.3383,4.802 19.6338,0.8166 z"
         id="path4756"
         inkscape:connector-curvature="0" />
    </g>
  </g>
</svg>
