<?xml version="1.0" encoding="UTF-8" standalone="no"?>
<!-- Created with Inkscape (http://www.inkscape.org/) -->

<svg
   xmlns:dc="http://purl.org/dc/elements/1.1/"
   xmlns:cc="http://creativecommons.org/ns#"
   xmlns:rdf="http://www.w3.org/1999/02/22-rdf-syntax-ns#"
   xmlns:svg="http://www.w3.org/2000/svg"
   xmlns="http://www.w3.org/2000/svg"
   xmlns:sodipodi="http://sodipodi.sourceforge.net/DTD/sodipodi-0.dtd"
   xmlns:inkscape="http://www.inkscape.org/namespaces/inkscape"
   width="369.14648"
   height="276.9964"
   id="svg2"
   version="1.1"
   inkscape:version="0.48.5 r10040">
  <defs
     id="defs4">
    <clipPath
       clipPathUnits="userSpaceOnUse"
       id="clipPath4470">
      <rect
         style="fill:#000000;fill-opacity:1;stroke:#000000;stroke-width:1.50743604;stroke-miterlimit:4;stroke-opacity:1;stroke-dasharray:none"
         id="rect4472"
         width="513.16364"
         height="322.06415"
         x="482.71091"
         y="1466.4425" />
    </clipPath>
  </defs>
  <sodipodi:namedview
     id="base"
     pagecolor="#ffffff"
     bordercolor="#666666"
     borderopacity="1.0"
     inkscape:pageopacity="0.0"
     inkscape:pageshadow="2"
     inkscape:zoom="1.2276786"
     inkscape:cx="312.58101"
     inkscape:cy="122.28192"
     inkscape:document-units="px"
     inkscape:current-layer="layer1"
     showgrid="false"
     inkscape:window-width="1366"
     inkscape:window-height="718"
     inkscape:window-x="0"
     inkscape:window-y="0"
     inkscape:window-maximized="1"
     fit-margin-top="0"
     fit-margin-left="0"
     fit-margin-right="0"
     fit-margin-bottom="0" />
  <metadata
     id="metadata7">
    <rdf:RDF>
      <cc:Work
         rdf:about="">
        <dc:format>image/svg+xml</dc:format>
        <dc:type
           rdf:resource="http://purl.org/dc/dcmitype/StillImage" />
        <dc:title></dc:title>
      </cc:Work>
    </rdf:RDF>
  </metadata>
  <g
     inkscape:label="Layer 1"
     inkscape:groupmode="layer"
     id="layer1"
     transform="translate(-433.44078,-1543.085)">
    <g
       id="g4655"
       transform="matrix(-1,0,0,1,1471.4317,-101.00364)">
      <path
         style="fill:#a8a09c"
         d="m 791.58161,1918.5741 c -5.14505,-2.7356 -38.12078,-25.7181 -48.57557,-33.8547 -10.95166,-8.5234 -45.94824,-37.8792 -56,-46.974 -6.32847,-5.7259 -10.59404,-8.8121 -12.7771,-9.2443 -3.89808,-0.7718 -5.2229,-2.8768 -5.2229,-8.2988 0,-2.8742 0.69593,-4.7652 2.45033,-6.6582 2.67249,-2.8837 3.98067,-6.5475 8.01906,-22.4591 3.50045,-13.7921 5.28566,-20.2273 7.61339,-27.4442 2.27247,-7.0455 2.40809,-12.3227 0.38542,-14.9969 -3.26149,-4.3121 -0.83883,-10.2226 4.75128,-11.5915 1.40204,-0.3434 3.25977,-2.6532 5.22772,-6.5 2.89324,-5.6555 3.3664,-6.0749 9.0528,-8.0244 9.29759,-3.1874 10.69747,-3.8739 29.83107,-14.6291 31.24118,-17.561 46.77023,-24.3092 84.66893,-36.7934 27.59468,-9.09 55.69268,-20.4769 56.45499,-22.8787 2.62908,-8.2835 20.08864,-1.9905 53.45105,19.2656 8.03963,5.1223 18.66221,12.3016 23.60573,15.9541 25.99093,19.2032 66.10059,44.0452 76.83469,47.5878 4.4687,1.4748 5.6429,3.4769 5.7123,9.7401 0.27,24.3632 0.1457,25.798 -2.4819,28.6332 -2.7579,2.9758 -4.402,10.9117 -5.6306,27.1774 -1.372,18.1644 -1.3507,18.3957 1.8019,19.5944 4.1008,1.5591 6.2526,3.9056 6.2454,6.8106 -0.01,3.2158 -7.7703,13.0893 -10.2932,13.0926 -2.4845,0 -7.7004,-2.8084 -7.7004,-4.1511 0,-1.185 -6.0653,-0.5525 -11.5,1.1992 -15.54424,5.0102 -41.23778,11.6199 -55.99996,14.4061 -29.83984,5.632 -37.6694,8.3615 -73.98787,25.793 -25.82073,12.393 -40.76905,18.001 -64.40358,24.1615 -10.26689,2.6761 -14.05013,4.1216 -16.21444,6.1952 -3.20603,3.0715 -3.06299,3.8927 0.84644,4.859 3.13845,0.7758 8.25945,5.2564 8.25945,7.2266 0,2.2921 -3.89532,5.3129 -6.85106,5.3129 -1.56808,0 -4.9761,-1.1299 -7.57337,-2.5109 z m -11.0627,-23.7391 c 0.70157,-1.5991 1.99961,-2.3429 4.48713,-2.5713 1.925,-0.1767 3.81316,-0.6267 4.1959,-1 0.38275,-0.3733 1.43684,-6.7494 2.34241,-14.1691 1.55953,-12.7778 1.55433,-13.5438 -0.0985,-14.5 -0.95974,-0.5553 -2.46382,-1.8998 -3.34241,-2.9878 -4.27865,-5.2987 -37.01722,-37.168 -43.36942,-42.2179 -3.9754,-3.1603 -9.39627,-8.1059 -12.04638,-10.99 -2.6501,-2.8842 -7.1501,-6.9155 -10,-8.9586 -2.84987,-2.043 -8.7816,-7.1693 -13.1816,-11.3919 -4.4,-4.2225 -9.46605,-8.43 -11.25788,-9.3501 -3.18288,-1.6343 -3.28078,-1.6203 -4.25248,0.6069 -0.54703,1.2539 -3.25906,10.9632 -6.02673,21.5761 l -5.03212,19.2964 2.78461,3.3006 c 4.26442,5.0547 46.19003,41.9138 56.28422,49.4826 1.9248,1.4433 5.79734,4.4694 8.60566,6.7248 2.80833,2.2555 7.6519,5.8555 10.76351,8 3.11161,2.1446 8.01406,5.5625 10.89434,7.5952 6.19407,4.3715 6.95113,4.5141 8.24974,1.5541 z m 40.98713,-10.8884 c 17.25783,-4.8727 29.27486,-9.4163 43.47848,-16.4389 31.01861,-15.3362 52.95311,-23.8002 69.52152,-26.8265 23.69533,-4.3281 32.04563,-6.1478 45,-9.8065 17.96572,-5.0741 36.81496,-10.7713 37.32526,-11.2816 0.2186,-0.2187 0.7916,-6.1599 1.2733,-13.2028 0.8505,-12.4367 2.5427,-26.861 3.5999,-30.6871 0.4667,-1.689 0.1258,-1.8078 -3.3288,-1.1597 -2.1168,0.3971 -8.3534,2.1882 -13.8592,3.9802 -5.50575,1.792 -13.38546,4.2668 -17.51046,5.4995 -4.125,1.2328 -12.45,4.197 -18.5,6.5871 -6.05,2.3902 -14.375,5.556 -18.5,7.0352 -4.125,1.4791 -9.975,3.9281 -13,5.4422 -3.025,1.5141 -8.65,3.9935 -12.5,5.5097 -3.85,1.5162 -7.50457,3.1533 -8.12128,3.6378 -0.6167,0.4846 -4.65621,1.8069 -8.9767,2.9386 -4.32048,1.1316 -11.0159,3.4211 -14.87872,5.0878 -3.86281,1.6666 -8.1483,3.3964 -9.5233,3.844 -4.10791,1.3371 -44.69024,17.4176 -56,22.1897 -5.775,2.4367 -13.425,6.4358 -17,8.8869 -7.34118,5.0332 -6.93476,3.8668 -8.4665,24.2974 l -0.73539,9.8087 3.35095,-0.6944 c 1.84302,-0.3819 9.65094,-2.4732 17.35094,-4.6473 z m -27.5,-40.1495 c 0,-2.9257 -0.68848,-3.7431 -6.25,-7.4202 -10.74954,-7.1072 -19.13809,-15.2009 -34.59386,-33.3779 -8.22429,-9.6723 -17.38732,-19.6655 -20.36228,-22.2071 -10.27594,-8.779 -20.44,-13.7065 -22.24578,-10.7847 -0.61482,0.9948 11.76274,12.6041 20.02634,18.7833 2.79093,2.087 6.58469,5.5215 8.43058,7.6322 1.84589,2.1107 7.4374,7.1448 12.42558,11.1868 4.98818,4.0421 16.24286,14.5776 25.01041,23.4124 8.76754,8.8347 16.30504,16.0631 16.75,16.0631 0.44495,0 0.80901,-1.4796 0.80901,-3.2879 z m 16.29569,-15.3528 c 18.54035,-5.9674 71.87669,-28.0801 149.20431,-61.8584 24.10216,-10.5283 49.42746,-20.575 60.74996,-24.0997 2.6125,-0.8133 4.75,-1.9009 4.75,-2.4169 0,-1.0419 0.4233,-0.7688 -17,-10.9704 -15.21585,-8.9091 -39.15095,-24.7975 -51.99996,-34.5181 -16.99422,-12.8565 -43.08716,-29.3936 -54.65311,-34.6379 -6.52517,-2.9586 -6.98603,-3.0272 -12.31289,-1.8312 -6.19917,1.3918 -16.07177,4.7233 -23.40942,7.8994 -2.68148,1.1607 -16.18148,5.8833 -30,10.4947 -46.0128,15.3548 -64.47389,23.2444 -91.12458,38.9429 -10.31243,6.0745 -10.44346,6.2099 -9.80777,10.1272 0.65683,4.0475 -0.60639,6.0198 -4.47803,6.9915 -1.48708,0.3732 -7.74477,3.0747 -13.906,6.0034 -10.1423,4.821 -11.35803,5.6886 -12.84896,9.1695 -0.9057,2.1146 -1.88661,5.5159 -2.17978,7.5584 -0.46849,3.2639 -0.22275,3.855 2.02901,4.881 2.28764,1.0423 2.82119,0.8661 4.98135,-1.6452 2.31518,-2.6916 2.56539,-2.7538 5.81473,-1.4448 10.92641,4.4015 26.20084,17.4693 40.59857,34.7334 20.29558,24.3362 37.21261,39.2619 44.50004,39.2619 1.58852,0 6.58016,-1.1883 11.09253,-2.6407 z m 110.79053,-32.3058 c 7.47252,-3.1657 16.89261,-7.9246 15.85222,-8.0083 -1.42259,-0.1145 -31.93844,12.6922 -31.93844,13.4037 0,0.6588 8.61946,-2.2322 16.08622,-5.3954 z m 19.4067,-9.042 c 0.35034,-0.5669 -0.0511,-0.7345 -0.94098,-0.3931 -1.73242,0.6648 -2.04939,1.3816 -0.61096,1.3816 0.51754,0 1.21592,-0.4448 1.55194,-0.9885 z m 15.00708,-5.5064 c 3.85,-1.4444 9.33463,-3.7239 12.18807,-5.0656 2.85345,-1.3417 5.72993,-2.4395 6.39219,-2.4395 1.69137,0 12.60004,-3.2343 32.4197,-9.6122 11.0308,-3.5497 17.6145,-6.1972 18.75,-7.54 4.7964,-5.6718 0.3171,-5.1034 -19.8792,2.5223 -26.01834,9.824 -57.99828,23.1473 -59.87076,24.943 -1.2662,1.2143 0.89885,0.6063 10,-2.808 z"
         id="path4669"
         inkscape:connector-curvature="0" />
      <path
         style="fill:#8c827c"
         d="m 792.27689,1918.0673 c -21.58063,-12.3766 -77.23219,-55.4947 -106.57911,-82.5761 -5.3645,-4.9504 -8.88162,-7.4068 -11.23785,-7.8489 -5.76408,-1.0813 -7.59213,-8.6472 -3.106,-12.855 3.58427,-3.362 4.26147,-5.1463 9.125,-24.0427 2.48552,-9.6571 5.64018,-21.0686 7.01035,-25.3589 2.82325,-8.8403 3.12189,-13.9165 0.98496,-16.7418 -3.2367,-4.2793 -1.40097,-8.7133 4.67677,-11.2962 1.75333,-0.7452 3.49464,-2.98 5.16544,-6.6296 2.36488,-5.1655 2.84602,-5.6021 7.79371,-7.0714 6.99783,-2.0781 11.26156,-4.17 31.39588,-15.4034 31.22225,-17.4196 45.30176,-23.526 82.5,-35.7809 12.375,-4.077 30.25643,-10.6198 39.73652,-14.5396 15.17742,-6.2755 17.47302,-7.5278 19.21627,-10.4824 1.08887,-1.8455 2.55744,-3.3538 3.26348,-3.3518 2.64027,0.01 16.96503,5.9125 25.47233,10.5004 12.61537,6.8033 36.90906,22.4277 50.3114,32.3577 18.1752,13.4662 40.27329,27.8454 55.82656,36.3263 7.8796,4.2966 14.9064,7.812 15.6151,7.812 0.7088,0 2.4743,0.9327 3.9235,2.0726 2.0822,1.6379 2.6348,2.9338 2.6348,6.179 0,2.2585 0.5437,5.61 1.2082,7.4476 0.9917,2.7424 0.9302,4.0994 -0.343,7.571 -0.8661,2.3618 -1.3482,5.9131 -1.0916,8.0413 0.3612,2.9954 -0.03,4.3321 -1.8251,6.2433 -3.0064,3.2002 -4.7142,11.5163 -6.0273,29.3493 -1.1557,15.6947 -0.8216,19.0959 1.8754,19.0959 2.9907,0 6.2034,2.9354 6.2034,5.6679 0,3.1602 -7.4496,12.3321 -10.0163,12.3321 -1.0066,0 -3.269,-1.2107 -5.0276,-2.6904 l -3.1973,-2.6904 -7.1294,1.8019 c -3.9212,0.991 -13.87936,3.7344 -22.12936,6.0965 -16.48616,4.7202 -28.52473,7.5943 -41.5,9.9078 -25.25005,4.502 -32.76046,7.2113 -71.46267,25.7792 -23.41301,11.2327 -39.56524,17.2645 -61.03733,22.7936 -6.6,1.6994 -13.125,3.5533 -14.5,4.1197 -3.02365,1.2454 -7.90405,7.0808 -6.35409,7.5974 3.44065,1.1469 9.8746,5.0284 10.75727,6.4898 0.79799,1.3211 0.49153,2.2781 -1.36096,4.25 -3.05197,3.2486 -4.38438,3.1902 -10.77137,-0.4728 z m -11.27085,-22.4823 c 0.75681,-1.9906 1.64381,-2.5 4.3528,-2.5 1.87127,0 3.88438,-0.5808 4.47357,-1.2908 0.58919,-0.7099 1.79837,-7.2408 2.68708,-14.5132 l 1.61583,-13.2224 -19.31464,-19.5811 c -10.62305,-10.7696 -22.23964,-21.8711 -25.81464,-24.67 -3.575,-2.7989 -10.55,-8.9781 -15.5,-13.7316 -4.95,-4.7534 -11.025,-10.0396 -13.5,-11.7471 -2.475,-1.7074 -7.2,-5.8782 -10.5,-9.2683 -6.18252,-6.3514 -13.74695,-11.5589 -15.3507,-10.5678 -0.50077,0.3095 -1.13852,1.5819 -1.41722,2.8275 -0.2787,1.2457 -2.82318,10.9489 -5.65441,21.5627 l -5.14769,19.2979 2.28501,2.8951 c 2.45301,3.1081 23.80467,22.6209 32.81094,29.9852 3.01074,2.4619 8.84907,7.4339 12.97407,11.0491 15.63369,13.7013 45.556,35.7282 48.77475,35.9048 0.70111,0.038 1.70248,-1.055 2.22525,-2.43 z m 40.26398,-10.6193 c 18.85823,-5.3897 26.0384,-8.0776 41.73602,-15.6237 26.29508,-12.6406 37.9765,-17.6614 53,-22.7801 8.96237,-3.0536 14.15812,-4.2301 35.30826,-7.9952 15.07041,-2.6828 63.9314,-16.3213 66.0453,-18.4352 0.4896,-0.4897 1.3053,-7.113 1.8125,-14.7184 0.5072,-7.6055 1.5245,-17.6531 2.2606,-22.3281 0.7361,-4.675 1.1147,-8.8779 0.8414,-9.3398 -0.6921,-1.1692 -6.0548,-0.03 -17.7576,3.7735 -5.50575,1.7893 -14.06046,4.4942 -19.01046,6.011 -4.95,1.5167 -13.725,4.6975 -19.5,7.0683 -5.775,2.3709 -12.3,4.8534 -14.5,5.5167 -2.2,0.6633 -7.6,2.8945 -12,4.9582 -4.4,2.0637 -11.15,5.006 -15,6.5383 -3.85,1.5324 -7.9,3.3402 -9,4.0174 -1.1,0.6772 -4.475,1.786 -7.5,2.464 -3.025,0.6781 -9.775,2.9362 -15,5.0182 -5.225,2.0819 -14.225,5.6136 -20,7.8481 -42.39191,16.4029 -55.46931,22.0121 -62.58438,26.8439 -3.29791,2.2395 -6.49784,4.6817 -7.11096,5.4271 -1.26837,1.5418 -3.77953,27.1752 -2.88944,29.4948 0.71092,1.8526 2.07471,1.6067 20.84876,-3.759 z m -26.45712,-41.1493 c 0.29626,-3.489 0.0542,-3.7788 -7,-8.3804 -8.32327,-5.4294 -21.72376,-18.4414 -33.31686,-32.351 -11.49813,-13.7956 -25.19278,-26.947 -32.54078,-31.25 -6.36032,-3.7246 -11.21076,-4.7539 -12.50836,-2.6543 -0.79937,1.2934 6.39013,8.8123 14.90693,15.5899 3.32736,2.6479 9.89781,8.4371 14.60098,12.8648 4.70318,4.4278 10.35123,9.3413 12.55123,10.9191 2.2,1.5777 12.22155,11.152 22.27012,21.2762 10.04856,10.1241 18.82356,18.2258 19.5,18.0036 0.67643,-0.2221 1.36797,-2.0302 1.53674,-4.0179 z m 20.16418,-3.6923 c 0.80907,-0.5117 1.18048,-1.2209 0.82536,-1.576 -0.87435,-0.8744 -4.7964,0.4375 -4.7964,1.6043 0,1.1899 2.0681,1.1751 3.97104,-0.028 z m -2.65236,-11.4391 c 13.01577,-4.3465 34.0813,-12.7349 66.18132,-26.3538 7.15,-3.0335 17.05,-7.1994 22,-9.2576 9.66944,-4.0204 39.39568,-16.8848 56.5,-24.4511 21.41962,-9.4751 52.03546,-21.6443 63.20706,-25.1235 5.2549,-1.6366 6.4928,-2.8658 4.8631,-4.8294 -0.606,-0.7303 -6.7874,-4.6009 -13.7362,-8.6014 -15.24761,-8.7781 -38.33159,-23.9845 -53.61117,-35.316 -6.17253,-4.5777 -14.82279,-10.7117 -19.22279,-13.6314 -4.4,-2.9196 -9.8,-6.5145 -12,-7.9888 -6.85638,-4.5947 -19.73421,-11.8222 -26,-14.5923 -5.65,-2.4978 -6.32083,-2.5805 -11.5,-1.419 -6.2081,1.3923 -16.06378,4.7247 -23.5,7.946 -2.75,1.1912 -16.25,5.9189 -30,10.506 -39.5824,13.2048 -54.64615,19.2205 -74.5,29.7513 -10.66535,5.6571 -25.89682,14.3554 -26.95825,15.3952 -0.25203,0.2469 -0.47703,2.4711 -0.5,4.9426 l -0.0417,4.4936 -8,3.3019 c -14.10982,5.8237 -22.5,10.4799 -22.5,12.4866 0,1.0086 -0.70539,3.2478 -1.56753,4.976 -2.21144,4.433 -1.51962,8.2758 1.82433,10.1336 2.65218,1.4734 2.8458,1.4202 5.10162,-1.4013 2.25889,-2.8253 2.46933,-2.8827 5.74319,-1.5662 4.4265,1.78 13.28941,7.7464 20.83517,14.0261 3.30793,2.7528 12.65364,12.7604 20.76826,22.2391 8.11461,9.4786 17.18476,19.6344 20.15589,22.5685 7.09912,7.0107 19.68274,15.1653 23.40188,15.1653 1.58101,0 7.45615,-1.53 13.05587,-3.4 z m 69.18132,-16.8168 c 0.68954,-0.7181 0.0686,-0.821 -2,-0.3315 -4.88121,1.1551 -12.51297,4.7183 -11.97393,5.5905 0.54284,0.8783 12.34607,-3.5637 13.97393,-5.259 z m 23,-8.4518 c 15.27497,-5.617 18.33711,-6.8538 27.18112,-10.9787 8.99619,-4.1958 26.61677,-11.3527 27.95086,-11.3527 0.37127,0 3.12366,-1.1584 6.11641,-2.5742 2.99276,-1.4158 8.66118,-3.4233 12.59649,-4.4612 9.73084,-2.5664 41.02048,-12.5512 44.38018,-14.1621 2.8543,-1.3686 5.551,-5.5469 4.5868,-7.1069 -0.3114,-0.5038 -2.0905,-0.6687 -3.9536,-0.3663 -6.4134,1.0407 -38.05761,13.4194 -78.35826,30.6524 -11.275,4.8214 -27.10717,11.5635 -35.18261,14.9827 -15.2447,6.4546 -21.14872,9.7526 -15.31739,8.5565 1.65,-0.3385 6.15,-1.7737 10,-3.1895 z"
         id="path4667"
         inkscape:connector-curvature="0" />
      <path
         style="fill:#857974"
         d="m 793.00604,1918.3428 c -6.77188,-4.0092 -43.4459,-29.8093 -52,-36.582 -18.03138,-14.2762 -47.60947,-39.2069 -56.05979,-47.2515 -4.44786,-4.2342 -7.87573,-6.5991 -10.64718,-7.3454 -6.41945,-1.7286 -7.26076,-7.1585 -2.0097,-12.9707 2.77665,-3.0735 3.87765,-5.9471 7.13458,-18.6212 2.1182,-8.2429 5.18559,-19.487 6.81644,-24.987 4.9427,-16.6691 4.92217,-16.5048 2.65085,-21.218 -2.8781,-5.9724 -2.24434,-8.3828 2.82326,-10.7376 3.51796,-1.6348 4.61706,-2.8978 6.69871,-7.6977 2.29594,-5.2939 2.82587,-5.8252 6.79154,-6.8089 5.72286,-1.4194 14.38654,-5.575 31.30129,-15.0137 31.48616,-17.5698 46.41319,-24.1265 81.11279,-35.629 13.99963,-4.6407 29.82637,-10.201 35.17054,-12.3561 21.35099,-8.6102 23.67562,-9.7751 25.71667,-12.8874 1.1,-1.6773 2.56848,-3.2858 3.26328,-3.5744 1.89555,-0.7872 14.62621,4.0508 24.23672,9.2107 10.32316,5.5426 40.05002,24.5184 49,31.2787 16.55366,12.5035 50.61596,34.3413 64.99996,41.6722 l 15.5,7.8997 0.012,4.5522 c 0.01,2.5037 0.6631,5.7683 1.4585,7.2546 1.2788,2.3894 1.252,3.2496 -0.2319,7.4276 -1.0732,3.0216 -1.4588,6.0776 -1.0695,8.4763 0.5092,3.1382 0.1883,4.1924 -1.9637,6.451 -3.1899,3.3478 -5.249,14.5336 -6.2464,33.9325 l -0.6803,13.2327 2.8587,1.0869 c 3.8932,1.4802 6.3624,3.8736 6.3624,6.1671 0,2.4986 -8.0149,11.7795 -10.1732,11.7801 -0.9204,3e-4 -3.0103,-1.1245 -4.6444,-2.4995 -1.6341,-1.375 -3.8554,-2.5 -4.9363,-2.5 -1.0809,0 -10.4659,2.4252 -20.85567,5.3894 -21.54663,6.1471 -24.39358,6.8542 -40.89041,10.1563 -6.6,1.321 -14.475,2.9095 -17.5,3.53 -15.47224,3.1734 -32.21552,9.5851 -58.8615,22.5406 -28.68917,13.9489 -38.81949,17.7399 -66.51604,24.8919 -11.0959,2.8653 -13.28306,3.7693 -15.80866,6.5345 -3.0271,3.3143 -3.12169,5.9573 -0.21322,5.9573 2.19185,0 8.05424,3.6581 8.74432,5.4564 0.71269,1.8573 -3.01903,6.5546 -5.16748,6.5046 -0.92258,-0.022 -3.70242,-1.2379 -6.17742,-2.7032 z m -11.48713,-22.5078 c 0.71461,-1.6288 2.08132,-2.388 4.95049,-2.75 4.64097,-0.5855 4.59177,-0.4448 6.5662,-18.7744 1.01486,-9.4215 1.01022,-11.7123 -0.0244,-12.0572 -0.70254,-0.2342 -5.37472,-4.7554 -10.38264,-10.0471 -13.82391,-14.6073 -32.18522,-32.0943 -38.60023,-36.7622 -3.15545,-2.296 -7.42551,-6.235 -9.48901,-8.7532 -2.0635,-2.5182 -6.74015,-6.8033 -10.39254,-9.5223 -3.65242,-2.7191 -8.66574,-7.0562 -11.14074,-9.638 -5.37987,-5.612 -15.65409,-13.4456 -17.63476,-13.4456 -1.81147,0 -2.76029,2.5737 -6.90132,18.7198 -1.86478,7.2709 -4.11319,15.7058 -4.99647,18.7442 -0.88327,3.0383 -1.33997,6.3623 -1.01488,7.3866 0.62977,1.9842 12.95641,13.6968 28.54743,27.1253 5.225,4.5003 13.325,11.4817 18,15.5141 9.17885,7.9173 25.46059,20.7661 31.65798,24.983 2.11311,1.4378 6.76702,4.6176 10.34202,7.0661 7.36216,5.0425 9.10939,5.4099 10.51287,2.2109 z m 36.85992,-9.7822 c 19.71773,-5.4064 30.13845,-9.3157 48.89283,-18.342 35.39436,-17.0349 52.61236,-23.3285 74.10059,-27.0856 17.06818,-2.9843 24.48288,-4.6518 38.63379,-8.6884 5.775,-1.6474 12.525,-3.5682 15,-4.2685 17.26756,-4.886 20.68366,-6.0755 22.14846,-7.7122 1.2564,-1.4038 1.812,-4.8776 2.336,-14.6065 0.3782,-7.0205 1.312,-16.7642 2.0753,-21.6526 0.7632,-4.8884 1.148,-9.2759 0.855,-9.75 -0.9409,-1.5222 -4.0589,-0.9461 -17.1204,3.1637 -7.0369,2.2142 -16.61936,5.2256 -21.29436,6.6921 -4.675,1.4665 -12.325,4.2147 -17,6.1073 -4.675,1.8925 -11.875,4.676 -16,6.1856 -4.125,1.5096 -14.25,5.754 -22.5,9.432 -8.25,3.6779 -18.26539,7.5649 -22.25641,8.6377 -3.99103,1.0728 -9.84103,3.1042 -13,4.5143 -3.15898,1.4101 -9.11859,3.8382 -13.24359,5.3957 -38.81503,14.6562 -64.47349,25.2551 -67.5,27.8826 -1.1,0.9549 -3.84654,2.9119 -6.10342,4.3488 -4.56342,2.9054 -4.3995,2.2369 -6.01371,24.5282 -0.63531,8.7733 -0.56795,9.25 1.30715,9.25 1.08733,0 8.59458,-1.8145 16.68277,-4.0322 z m -23.37279,-41.9305 c 0,-3.7211 -0.36352,-4.2096 -5.96118,-8.0109 -10.81012,-7.341 -17.77361,-13.8309 -29.22662,-27.2389 -21.21959,-24.8417 -33.19013,-36.0331 -42.46725,-39.7033 -3.54713,-1.4033 -7.50339,-1.1465 -8.05222,0.5226 -0.43921,1.3358 11.53179,13.1096 18.90502,18.5936 2.91624,2.1691 8.90225,7.4296 13.30225,11.6901 4.4,4.2605 9.73353,9.0111 11.8523,10.5569 2.11876,1.5457 11.61072,10.6274 21.09324,20.1815 9.48252,9.5541 17.98648,17.3711 18.8977,17.3711 1.26362,0 1.65676,-0.9403 1.65676,-3.9627 z m 21.07058,-4.6223 c 1.15523,-1.392 0.96636,-1.5443 -1.55043,-1.25 -1.57625,0.1842 -3.05062,0.8975 -3.27636,1.585 -0.59625,1.8158 3.26411,1.5479 4.82679,-0.335 z m -4.07058,-10.4905 c 13.49763,-4.5291 12.05782,-3.9705 49.5,-19.2022 9.20247,-3.7436 18.29593,-7.5984 30,-12.7174 1.1,-0.4811 7.85,-3.3426 15,-6.3589 17.21098,-7.2606 30.54096,-13.0166 38.5,-16.6247 22.51366,-10.2061 61.78856,-26.0933 74.11056,-29.9786 4.3643,-1.3761 6.8894,-3.0386 6.8894,-4.5357 0,-0.7825 -2.1375,-2.6401 -4.75,-4.128 -23.71421,-13.5061 -46.63198,-28.3145 -63.48725,-41.0225 -24.67491,-18.6037 -57.91417,-38.5721 -64.26271,-38.6058 -3.04002,-0.016 -15.14837,3.7454 -25.09849,7.7969 -4.89583,1.9934 -21.05151,7.6886 -35.90151,12.656 -14.85,4.9673 -31.05,10.6008 -36,12.519 -16.62823,6.4435 -50.35089,23.3983 -60.81819,30.5777 -2.5103,1.7218 -2.74841,2.346 -2.17944,5.7137 0.7518,4.4499 1.22772,4.0531 -11.50237,9.5904 -15.48154,6.7342 -17.99199,8.3776 -19.69934,12.8956 -2.51614,6.6582 -2.7403,10.3567 -0.76029,12.5446 2.38423,2.6346 4.65961,2.4607 7.283,-0.5565 2.09164,-2.4056 2.33151,-2.4502 5.66929,-1.0556 9.21229,3.8491 24.5226,16.3626 34.34572,28.0715 24.88065,29.6571 30.19941,34.9468 42.56588,42.333 7.71826,4.6099 7.12577,4.6073 20.59574,0.088 z m 62.08013,-13.1791 c 7.18156,-2.9874 9.55633,-4.4423 8.68059,-5.318 -0.91135,-0.9114 -15.05869,4.9665 -15.55782,6.4639 -0.53558,1.6068 0.79172,1.3856 6.87723,-1.1459 z m 31.94635,-12.7897 c 7.73154,-2.7744 17.30098,-6.5333 21.26543,-8.3532 12.97186,-5.9546 16.11185,-7.2936 23.70809,-10.1099 4.125,-1.5293 10.30128,-4.0369 13.72506,-5.5724 3.42379,-1.5355 9.04879,-3.4993 12.5,-4.3642 8.51866,-2.1346 37.0068,-11.1954 43.697,-13.8981 4.1235,-1.6657 5.6473,-2.866 6.3625,-5.0116 0.5833,-1.7498 0.5854,-3.1763 0.01,-3.7561 -1.9699,-1.97 -29.48393,8.2798 -76.79015,28.6065 -17.6,7.5624 -33.575,14.3119 -35.5,14.9988 -1.925,0.6869 -5.525,2.1623 -8,3.2787 -2.475,1.1164 -7.0875,3.174 -10.25,4.5725 -3.1625,1.3985 -5.75,3.0176 -5.75,3.598 0,1.4595 -0.60383,1.6198 15.02648,-3.989 z"
         id="path4665"
         inkscape:connector-curvature="0" />
      <path
         style="fill:#695c56"
         d="m 791.207,1916.997 c -7.92634,-4.9684 -38.56695,-26.531 -47.20096,-33.2167 -13.28329,-10.2859 -52.85903,-43.5007 -61.17576,-51.3432 -3.76382,-3.5492 -6.52382,-5.3521 -8.1933,-5.3521 -2.94145,0 -5.63094,-3.3101 -5.63094,-6.9303 0,-1.4688 1.39484,-3.9342 3.41026,-6.0275 2.94689,-3.0609 3.90234,-5.4444 7.03182,-17.5422 1.99186,-7.7 5.48323,-20.5789 7.75861,-28.6197 l 4.13705,-14.6197 -2.23683,-4.2915 c -2.9435,-5.6472 -2.21214,-8.3073 2.83975,-10.3287 3.25734,-1.3033 4.45513,-2.608 6.75912,-7.3622 2.52914,-5.2188 3.23586,-5.9058 7.30022,-7.0959 6.55111,-1.9182 11.34499,-4.2799 32.48834,-16.0055 31.22327,-17.3156 45.46033,-23.466 82.51166,-35.6452 17.1162,-5.6263 43.11415,-15.4926 54.18241,-20.5624 1.47533,-0.6757 3.20403,-2.4879 3.84156,-4.0271 0.63753,-1.5391 1.79221,-3.0413 2.56597,-3.3382 0.77375,-0.297 4.90761,0.7969 9.18636,2.4308 13.95959,5.3307 38.63697,19.9722 61.0369,36.2142 16.30963,11.826 49.77706,33.9346 58.18676,38.4382 4.125,2.209 9.525,5.1469 12,6.5287 2.475,1.3818 6.191,3.0595 8.2577,3.7283 4.5994,1.4885 6.0914,4.0304 5.2586,8.9594 -0.4671,2.7651 -0.2235,4.0945 0.9248,5.0476 1.9901,1.6516 1.9787,4.3364 -0.035,8.2303 -1.1316,2.1882 -1.4042,4.3466 -0.9399,7.4424 0.5702,3.8027 0.3398,4.6514 -1.8023,6.6366 -3.2027,2.9682 -5.2795,14.1771 -6.2058,33.4936 l -0.6835,14.2539 3.6467,1.5237 c 3.9691,1.6584 6.3269,5.3466 4.9394,7.7264 -1.1841,2.0308 -6.7428,8.242 -8.1601,9.1179 -1.3522,0.8358 -4.9297,-0.8435 -7.4967,-3.519 -2.0915,-2.18 -1.2455,-2.3227 -22.70402,3.8279 -20.42213,5.8534 -31.55737,8.6711 -42.5,10.7542 -33.1859,6.3173 -44.12625,10.1195 -82,28.4978 -24.10704,11.698 -37.45017,16.5668 -62,22.6231 -9.35826,2.3086 -11.55968,3.2459 -14.75,6.2798 -2.0625,1.9614 -3.75,3.89 -3.75,4.2857 0,0.3957 1.54688,1.23 3.43752,1.854 4.56674,1.5071 8.56248,4.7449 8.56248,6.9382 0,2.095 -3.05678,5.1119 -5.07874,5.0125 -0.78169,-0.038 -4.25583,-1.8466 -7.7203,-4.0181 z m -0.20096,-11.353 c 0,-0.2425 -0.45,-0.7191 -1,-1.059 -0.55,-0.3399 -1,-0.1415 -1,0.441 0,0.5824 0.45,1.059 1,1.059 0.55,0 1,-0.1984 1,-0.441 z m -9.79584,-9.309 c 1.01785,-2.1313 2.19612,-2.8625 5.23747,-3.25 4.74044,-0.604 4.94597,-1.1656 6.71731,-18.3529 1.16726,-11.3261 1.13343,-12.0553 -0.60645,-13.0712 -1.01347,-0.5917 -3.01488,-2.4 -4.44758,-4.0183 -7.33177,-8.2815 -37.44163,-37.4579 -43.09253,-41.7565 -3.5682,-2.7143 -8.67394,-7.3881 -11.3461,-10.3862 -2.67216,-2.9981 -6.95273,-6.882 -9.51238,-8.631 -2.55964,-1.7489 -8.2539,-6.5952 -12.6539,-10.7696 -12.44764,-11.8093 -17.56714,-14.5884 -18.90779,-10.2643 -1.04494,3.3703 -8.89729,33.796 -9.94078,38.5178 l -1.05367,4.7677 5.95112,6.0589 c 5.74434,5.8484 48.88581,43.3534 56.8571,49.4287 17.87666,13.6246 33.22866,24.4179 34.78945,24.4587 0.38249,0.01 1.28642,-1.2193 2.00873,-2.7318 z m 39.75062,-10.7679 c 17.53317,-4.8499 30.21212,-9.6245 44.54522,-16.7747 32.63751,-16.2815 54.25818,-24.2143 76.67977,-28.1346 8.05172,-1.4078 17.71766,-3.2721 21.47986,-4.1428 12.36211,-2.861 52.98973,-14.746 54.05743,-15.8137 0.9379,-0.9379 2.0962,-10.7387 2.1986,-18.6017 0.046,-3.567 0.8017,-11.3772 1.6785,-17.3559 1.0767,-7.3422 1.2652,-11.1993 0.5808,-11.8837 -0.6844,-0.6844 -5.8269,0.497 -15.8441,3.6401 -32.67775,10.253 -32.08842,10.0438 -60.83086,21.5935 -11.83536,4.7559 -28.94575,12.166 -30,12.9924 -0.55,0.4311 -3.925,1.5203 -7.5,2.4204 -3.575,0.9002 -11.45,3.6111 -17.5,6.0243 -11.24523,4.4854 -15.05082,5.9694 -36,14.0382 -25.24191,9.7221 -37.25804,15.1264 -44.5,20.0141 l -7.5,5.0619 -0.69421,5.97 c -0.38182,3.2836 -1.16048,9.9649 -1.73037,14.8474 -0.56988,4.8825 -0.79343,9.27 -0.49677,9.75 0.97937,1.5846 4.86522,0.922 21.37613,-3.6452 z m -25.54278,-42.9626 c -0.3551,-1.6607 -0.70556,-3.0458 -0.77882,-3.078 -0.0733,-0.032 -2.60818,-1.7839 -5.63318,-3.8925 -12.25564,-8.5432 -18.68618,-14.7118 -33.87999,-32.5002 -16.6347,-19.4753 -23.28376,-25.8846 -32.79386,-31.6113 -6.5704,-3.9565 -13.32615,-4.7928 -13.32615,-1.6497 0,1.9372 13.32837,14.5969 21.64883,20.5627 2.83185,2.0305 5.85985,4.7769 6.72888,6.1032 0.86903,1.3263 5.52706,5.6617 10.35117,9.6341 4.82412,3.9725 17.01642,15.3653 27.094,25.3174 17.43045,17.2135 18.39379,17.9983 19.77882,16.1143 0.94746,-1.2889 1.23045,-3.0351 0.8103,-5 z m 20.338,-2.5085 c 4.10548,-2.5032 4.13939,-3.4389 0.0953,-2.6301 -3.63805,0.7277 -6.06924,2.4478 -5.27528,3.7324 0.78929,1.2771 1.5391,1.1175 5.17997,-1.1023 z m -5.51488,-10.0663 c 15.70345,-5.1785 76.78411,-30.0609 109.76488,-44.7149 39.01867,-17.3367 73.71315,-31.8254 91.49996,-38.2111 4.95,-1.7771 10.2375,-3.6879 11.75,-4.2462 3.3691,-1.2436 3.6126,-4.2063 0.5,-6.083 -1.2375,-0.7462 -7.875,-4.6502 -14.75,-8.6756 -15.21585,-8.9091 -39.15095,-24.7975 -51.99996,-34.5181 -18.72519,-14.166 -47.17189,-31.8981 -58.63949,-36.5524 -4.49514,-1.8245 -5.97061,-2.0435 -7.46768,-1.1085 -1.02613,0.6408 -2.79228,1.1651 -3.92478,1.1651 -1.99341,0 -23.4462,7.5888 -25.46805,9.0092 -0.55,0.3864 -10.74877,3.9287 -22.66394,7.8719 -44.93758,14.8715 -58.9935,20.5656 -83.27368,33.7343 -21.08779,11.4372 -22.05415,12.1776 -22.10355,16.9352 -0.0477,4.5887 -0.94732,6.4494 -3.11833,6.4494 -0.84781,0 -7.09758,2.6578 -13.88837,5.9062 -11.25983,5.3862 -12.49386,6.2446 -14.01608,9.75 -0.91805,2.1141 -1.89521,5.9421 -2.17147,8.5067 -0.47956,4.4518 -0.35501,4.739 2.75248,6.3459 3.22129,1.6658 3.27731,1.6549 5.4458,-1.0647 2.80723,-3.5206 4.80643,-3.0592 14.68359,3.3887 9.79837,6.3964 18.96407,15.0627 30.84808,29.1672 16.49758,19.5801 24.92872,27.9638 34.36491,34.1716 4.87269,3.2056 9.7035,5.8284 10.73512,5.8284 1.03162,0 6.04487,-1.3749 11.14056,-3.0553 z m 66.03684,-14.776 c 5.9535,-2.7065 10.35282,-6.1687 7.8384,-6.1687 -2.55557,0 -17.11036,6.5921 -17.11036,7.7496 0,1.9294 2.48085,1.5064 9.27196,-1.5809 z m 16.22804,-7.281 c 7.34694,-2.0226 30.69161,-11.0129 40.40239,-15.5595 10.22997,-4.7897 13.70934,-6.205 24.28801,-9.8799 3.67972,-1.2782 7.72972,-2.9991 9,-3.8242 1.27028,-0.825 5.6846,-2.4106 9.8096,-3.5235 13.01069,-3.51 38.62986,-11.5368 44.99996,-14.099 4.8367,-1.9455 7.7445,-5.6192 6.668,-8.4244 -0.8802,-2.2938 -2.7608,-1.8433 -22.3855,5.3623 -17.93013,6.5834 -29.67992,11.3606 -60.28246,24.5092 -11.825,5.0808 -28.1061,12.0165 -36.18023,15.4129 -20.92775,8.8031 -28.27605,13.3175 -16.31977,10.0261 z"
         id="path4663"
         inkscape:connector-curvature="0" />
      <path
         style="fill:#47362f"
         d="m 797.00604,1920.3124 c 0,-0.4249 -1.6773,-1.6624 -3.72734,-2.75 -10.88964,-5.7771 -50.94221,-35.1278 -72.27266,-52.9617 -4.675,-3.9086 -12.42937,-10.3905 -17.23194,-14.404 -4.80256,-4.0136 -12.53523,-10.8296 -17.1837,-15.1468 -6.08076,-5.6474 -9.45021,-8.0367 -12.01086,-8.5171 -3.0346,-0.5693 -3.72536,-1.2226 -4.68732,-4.4334 -1.08789,-3.631 -0.99956,-3.8863 2.47072,-7.14 3.28031,-3.0756 3.96117,-4.7467 7.69006,-18.8744 5.53793,-20.9815 6.79813,-25.5064 9.03582,-32.4442 2.29185,-7.1056 2.45114,-12.4676 0.44902,-15.1147 -0.80751,-1.0676 -1.4825,-3.1946 -1.5,-4.7266 -0.0267,-2.3373 0.65352,-3.0793 4.22652,-4.6109 3.65397,-1.5663 4.58909,-2.6234 6.58905,-7.4486 2.32073,-5.5992 2.35931,-5.6319 8.99168,-7.6204 3.70018,-1.1094 15.55088,-6.9372 26.66095,-13.1111 11,-6.1126 22.53756,-12.4023 25.63902,-13.9771 13.28948,-6.7476 36.10374,-15.7224 60.83644,-23.932 14.5885,-4.8425 33.20968,-11.6333 41.3804,-15.0908 13.20157,-5.5864 15.14055,-6.7166 17.41244,-10.1497 1.40611,-2.1247 3.04598,-3.6506 3.64414,-3.3907 0.59816,0.2599 4.91256,2.0866 9.58756,4.0592 16.47811,6.953 48.64868,26.869 70.51344,43.6531 8.04776,6.1777 36.28965,24.623 44.98652,29.3815 9.5201,5.2089 20.4695,10.8108 23.5,12.023 2.2118,0.8847 2.5135,1.6244 2.617,6.4161 0.081,3.7538 0.6181,5.7827 1.75,6.6103 2.1172,1.5481 2.0596,3.214 -0.2692,7.7818 -1.3416,2.6316 -1.7428,4.9189 -1.3615,7.7622 0.4516,3.3669 0.1231,4.4759 -1.9938,6.7303 -3.0116,3.2074 -5.2582,15.5059 -6.2977,34.476 -0.6757,12.3291 -0.1028,14.7233 3.5227,14.7233 2.1505,0 5.0325,3.0857 5.0325,5.3883 0,2.4153 -7.0558,10.6117 -9.135,10.6117 -0.9413,0 -3.1058,-1.1732 -4.81,-2.6072 -3.2396,-2.726 -5.7519,-2.7864 -13.555,-0.3261 -17.53802,5.5299 -41.63549,11.701 -56.49996,14.4691 -29.54538,5.5022 -40.14805,9.2794 -78.96576,28.1316 -20.82589,10.1143 -37.12205,16.1003 -59.53424,21.8686 -11.62621,2.9923 -14.47487,4.1001 -16.80069,6.5336 -2.97281,3.1105 -4.19291,3.5588 -5.20939,1.9141 -0.7199,-1.1648 -2.48992,-0.36 -2.48992,1.1322 0,0.5488 3.38683,2.5413 7.52629,4.4277 4.13947,1.8864 7.77846,4.087 8.08666,4.8902 0.74313,1.9365 -2.64913,6.495 -4.86295,6.5348 -0.9625,0.017 -1.75,-0.3163 -1.75,-0.7412 z m -15.18195,-23.7274 c 0.82446,-1.8095 1.92081,-2.5 3.96938,-2.5 5.24691,0 5.94124,-1.454 7.67536,-16.0733 1.69099,-14.2556 1.54412,-16.1255 -1.37845,-17.5499 -0.98945,-0.4822 -6.25069,-5.6262 -11.69167,-11.4311 -12.74212,-13.5942 -28.22703,-28.2996 -36.09109,-34.2741 -3.40913,-2.59 -7.85386,-6.7294 -9.87716,-9.1985 -2.02331,-2.4692 -5.98402,-6.1733 -8.80158,-8.2313 -2.81756,-2.058 -9.24648,-7.5668 -14.28648,-12.2418 -10.91769,-10.127 -15.70943,-13.0659 -17.81672,-10.9274 -2.25627,2.2898 -12.76292,43.6043 -11.62816,45.7246 1.26044,2.3552 25.83402,24.9098 35.60852,32.6829 2.75,2.187 7.86508,6.6074 11.36685,9.8232 3.50176,3.2158 8.27813,7.2756 10.61416,9.0218 8.00499,5.9838 20.01929,15.0248 23.38773,17.5998 6.04714,4.6225 14.59638,9.8825 16.22074,9.9798 0.87422,0.052 2.10207,-1.0297 2.72857,-2.4047 z m 39.68195,-10.6454 c 19.28908,-5.4559 25.09135,-7.7004 47.5,-18.3745 32.34672,-15.408 49.62822,-21.9763 65.5,-24.8951 4.95,-0.9102 12.825,-2.3579 17.5,-3.217 17.1592,-3.1531 63.42216,-16.364 65.86936,-18.8097 0.9201,-0.9195 1.679,-5.9102 2.3133,-15.2134 0.5192,-7.6147 1.5317,-17.6699 2.25,-22.3449 0.7182,-4.675 1.0757,-9.104 0.7942,-9.8422 -0.3811,-0.9998 -1.687,-1.1659 -5.1192,-0.6513 -2.5342,0.38 -5.2827,1.0492 -6.1077,1.4872 -0.825,0.4379 -8.475,2.8951 -16.99996,5.4603 -8.525,2.5652 -20.45,6.6307 -26.5,9.0344 -6.05,2.4038 -14.6,5.7197 -19,7.3687 -4.4,1.6491 -14.3,5.7729 -22,9.1641 -7.7,3.3912 -17.62137,7.2332 -22.0475,8.5378 -4.42612,1.3046 -10.69436,3.5425 -13.92941,4.9732 -3.23505,1.4307 -7.48868,3.1775 -9.4525,3.8818 -9.34371,3.3508 -39.98898,15.3394 -52.07059,20.3703 -12.76481,5.3153 -27.26607,13.8607 -28.36034,16.7124 -0.27438,0.715 -1.04383,7.6926 -1.70988,15.5057 -1.02269,11.9966 -0.99476,14.3448 0.1796,15.0999 1.73941,1.1184 4.02039,0.6655 21.39062,-4.2477 z m -26,-41.7828 0,-4.4009 -9.28276,-6.671 c -11.40986,-8.1997 -13.73057,-10.425 -26.53464,-25.4438 -13.79468,-16.1807 -25.16202,-28.0338 -31.20569,-32.5393 -6.48149,-4.8318 -12.76441,-8.0168 -15.81463,-8.0168 -2.93539,0 -5.14624,2.3591 -3.99127,4.2589 1.25465,2.0638 15.89169,15.3483 21.70384,19.6983 2.81883,2.1098 7.37515,6.179 10.12515,9.0428 2.75,2.8638 7.33814,6.9566 10.19588,9.095 2.85773,2.1385 13.29281,12.0302 23.18907,21.9816 19.61247,19.7218 21.61505,20.9258 21.61505,12.9952 z m 22.16214,-4.6139 c 7.55517,-4.4277 4.67045,-5.7128 -4.35677,-1.941 -3.43222,1.4341 -4.54981,4.4831 -1.64323,4.4831 0.91418,0 3.61418,-1.144 6,-2.5421 z m -5.10862,-9.8471 c 12.92259,-4.4032 43.40137,-16.6021 73.94648,-29.5964 4.95,-2.1059 14.85,-6.3128 22,-9.3488 7.15,-3.0361 19.3,-8.2912 27,-11.6782 40.15611,-17.6633 60.08648,-25.8047 86.74996,-35.4369 8.131,-2.9373 6.9924,-4.4138 -11.75,-15.2383 -16.8889,-9.754 -31.35638,-19.2804 -51.60093,-33.9775 -16.74901,-12.1594 -31.54159,-22.1338 -42.59859,-28.7235 -7.90126,-4.7089 -20.6467,-10.6112 -22.9139,-10.6112 -2.59009,0 -16.96025,4.5591 -28.38654,9.0059 -3.025,1.1773 -19.38226,6.8657 -36.34947,12.641 -16.9672,5.7753 -36.94947,13.1517 -44.40503,16.392 -13.89438,6.0387 -40.42954,19.9276 -47.92507,25.0846 -3.8695,2.6623 -4.18315,3.2108 -4.00917,7.0105 l 0.18874,4.1223 -8.35459,3.5119 c -4.59503,1.9316 -11.29315,5.1364 -14.88472,7.1219 -6.2698,3.466 -6.61025,3.8533 -8.5402,9.7149 -2.34269,7.1152 -1.83369,10.5668 1.80259,12.2236 3.77665,1.7207 5.02571,1.4571 6.29497,-1.3286 1.50232,-3.2972 2.68755,-3.1675 9.74078,1.0662 10.72773,6.4392 20.35983,14.5334 28.21251,23.7079 28.52929,33.3315 30.77504,35.6009 43.1337,43.587 4.05338,2.6193 7.56102,4.1389 9.55351,4.1389 1.73167,0 7.6244,-1.5251 13.09497,-3.3892 z m 67.12548,-15.7675 c 4.49844,-2.191 10.79844,-4.8045 14,-5.8077 10.86653,-3.4052 23.7893,-8.2893 33.821,-12.7824 15.46143,-6.9251 23.42404,-10.2556 30.5,-12.7572 3.575,-1.2638 7.91709,-3.0278 9.64908,-3.9198 1.732,-0.8921 6.67463,-2.5454 10.98362,-3.674 8.22798,-2.1552 35.76346,-10.8366 43.24556,-13.6346 3.3025,-1.235 4.7231,-2.4627 5.7818,-4.9965 3.0472,-7.2929 -0.696,-7.0306 -23.7617,1.6648 -18.51189,6.9787 -30.49873,11.8714 -60.89836,24.8568 -9.075,3.8764 -24.15,10.2722 -33.5,14.2128 -9.35,3.9406 -17.45,7.5047 -18,7.9203 -0.55,0.4155 -5.95,2.6975 -12,5.0711 -11.91853,4.6759 -15.40355,6.8175 -13.27363,8.1567 1.69912,1.0683 3.77515,0.4031 13.45263,-4.3103 z"
         id="path4661"
         inkscape:connector-curvature="0" />
      <path
         style="fill:#261208"
         d="m 797.75604,1920.4227 c 0.6875,-0.2774 1.8125,-0.2774 2.5,0 0.6875,0.2774 0.125,0.5044 -1.25,0.5044 -1.375,0 -1.9375,-0.227 -1.25,-0.5044 z m -10.02223,-7.1137 c -13.68426,-8.9291 -39.29924,-27.3056 -49.32884,-35.389 -25.65675,-20.6781 -40.54164,-33.2987 -53.15194,-45.0666 -3.98916,-3.7226 -8.11486,-6.7684 -9.16822,-6.7684 -3.45243,0 -5.07877,-1.1739 -5.07877,-3.666 0,-1.38 -0.43718,-2.1818 -1,-1.834 -0.55,0.3399 -1,-0.3351 -1,-1.5 0,-1.1649 0.38114,-1.8825 0.84698,-1.5946 1.14402,0.7071 5.78774,-4.2751 7.0159,-7.5272 0.54457,-1.442 2.41633,-8.192 4.15948,-15 1.74314,-6.808 4.92622,-18.4064 7.0735,-25.7743 2.14728,-7.3678 3.90414,-14.2482 3.90414,-15.2898 0,-1.0416 -0.91545,-3.6882 -2.03433,-5.8814 -2.44028,-4.7833 -1.77417,-6.4705 3.46772,-8.7832 3.01813,-1.3316 4.19106,-2.7127 6.06149,-7.1374 2.20333,-5.2122 2.58619,-5.5656 7.66217,-7.0741 6.27145,-1.8638 17.24834,-7.2891 32.35579,-15.9918 13.06941,-7.5286 37.6213,-19.4359 49.98716,-24.243 4.95,-1.9243 18.9,-6.748 31,-10.7193 12.1,-3.9714 30.15903,-10.5835 40.13118,-14.6938 14.90421,-6.1431 18.36136,-7.9463 19.42451,-10.1316 0.71133,-1.4622 1.2148,-2.996 1.11882,-3.4085 -0.096,-0.4125 0.95049,-0.75 2.32549,-0.75 1.375,0 2.5,0.3897 2.5,0.866 0,0.4763 2.8125,1.8802 6.25,3.1199 12.53719,4.5211 42.98359,22.929 63.95625,38.6681 18.13064,13.6062 46.09381,31.5028 62.22071,39.8217 l 16.073,8.2911 -0.2577,3.8666 c -0.3119,4.6791 1.6297,10.1743 2.8917,8.1841 0.5627,-0.8875 0.8404,-0.4006 0.8507,1.4915 0.01,1.545 -0.3676,2.5724 -0.8355,2.2832 -1.3517,-0.8354 -3.4872,6.9676 -2.82,10.3037 0.4675,2.3375 0.035,3.7067 -1.898,6.0035 -3.3663,4.0007 -5.113,13.7003 -6.0043,33.3416 l -0.7142,15.741 3.8937,1.6214 c 3.5882,1.4942 5.3398,2.9636 5.3783,4.512 0.01,0.3384 -1.8491,2.9073 -4.1278,5.7086 -4.4753,5.5015 -5.7544,5.6205 -10.2283,0.9519 -2.3377,-2.4395 -3.2627,-2.2818 -27.62856,4.7114 -19.51272,5.6003 -37.16373,9.8857 -45.5,11.0467 -20.06355,2.7942 -42.98254,11.1704 -76.44284,27.9374 -19.84505,9.9443 -36.10439,15.7409 -63.55716,22.6587 -7.00068,1.7641 -9.62857,2.9325 -11.82952,5.2598 -2.49184,2.6348 -3.07279,2.84 -4.8679,1.7189 -1.49317,-0.9325 -2.33517,-0.9762 -3.148,-0.1634 -1.80986,1.8099 0.51196,4.3429 6.02457,6.5725 7.89439,3.193 10.03171,4.9428 8.71999,7.139 -2.00938,3.3642 -5.50968,2.5452 -14.67137,-3.4329 z m -5.52523,-15.974 c 1.03592,-2.1719 2.10878,-2.8159 5.10337,-3.0633 4.68597,-0.3871 5.08705,-1.3008 6.57492,-14.9776 1.614,-14.8361 1.49074,-18.1278 -0.71118,-18.9913 -1.00669,-0.3948 -6.29419,-5.4645 -11.75,-11.2659 -12.95361,-13.7744 -29.46806,-29.4354 -36.60813,-34.7164 -3.12867,-2.3141 -7.40367,-6.2651 -9.5,-8.7801 -2.09634,-2.515 -7.10791,-7.0575 -11.13682,-10.0945 -4.02891,-3.037 -8.92221,-7.2894 -10.87398,-9.4498 -5.57562,-6.1715 -15.11677,-12.9111 -18.27817,-12.9111 -2.36098,0 -2.93502,0.5644 -3.81406,3.75 -5.26193,19.0689 -9.61687,36.4629 -9.95881,39.7764 -0.41014,3.9745 -0.28971,4.1421 9.34413,13 14.30577,13.1536 19.21865,17.5175 25.90619,23.0111 3.3,2.7108 8.54954,7.24 11.66564,10.0648 8.71565,7.9008 27.78402,22.5762 40.01804,30.7987 2.37398,1.5955 5.44132,3.708 6.81632,4.6944 3.56843,2.56 5.69748,2.3101 7.20254,-0.8454 z m 39.35896,-10.7475 c 20.9906,-5.923 21.36455,-6.067 47.20556,-18.1796 37.67693,-17.6606 53.53321,-23.4325 72.23294,-26.2939 12.23755,-1.8725 28.84433,-5.7198 45.17286,-10.4651 8.42993,-2.4499 19.0502,-5.5395 23.6005,-6.8658 4.5504,-1.3264 8.5586,-2.6967 8.9071,-3.0452 1.0191,-1.0191 2.1954,-9.6286 2.2599,-16.5406 0.033,-3.5132 0.7967,-12.2036 1.6976,-19.312 1.9834,-15.6494 1.8479,-15.9368 -6.3977,-13.5766 -18.11558,5.1853 -42.37012,13.2093 -53.39199,17.6635 -6.95845,2.812 -13.17118,5.1128 -13.80608,5.1128 -0.6349,0 -3.91623,1.3703 -7.29184,3.0451 -11.39476,5.6536 -29.19707,12.8705 -38.09405,15.4432 -4.86404,1.4065 -10.23188,3.2751 -11.92853,4.1525 -1.69666,0.8774 -5.81699,2.6088 -9.1563,3.8477 -31.1503,11.5567 -68.16327,26.8597 -71.07147,29.3845 -1.1,0.9549 -3.86426,2.9237 -6.14281,4.3749 -4.09505,2.6082 -4.15046,2.7228 -4.80687,9.9454 -0.36524,4.0187 -1.11695,10.8455 -1.67047,15.1706 -0.55352,4.3252 -0.76705,8.4877 -0.47451,9.25 0.89859,2.3417 6.49693,1.5895 23.15616,-3.1114 z m -25.18851,-39.6218 c 1.50907,-4.291 -0.005,-7.5368 -5.13144,-10.9969 -10.32784,-6.9716 -18.4377,-14.2786 -28.38079,-25.5711 -5.72059,-6.497 -11.43401,-13.1627 -12.6965,-14.8127 -4.20719,-5.4985 -15.59646,-16.7223 -21.14764,-20.8402 -12.39649,-9.196 -21.01662,-11.2612 -21.01662,-5.0351 0,2.587 9.7293,12.4876 19.3749,19.7161 2.81881,2.1124 9.00465,7.6249 13.74633,12.25 4.74168,4.625 9.07819,8.4092 9.63669,8.4092 0.5585,0 10.06232,9.0338 21.1196,20.0751 13.41839,13.399 20.6823,19.9637 21.84265,19.7403 0.95618,-0.1842 2.14994,-1.5048 2.65282,-2.9347 z m 21.81179,-6.7829 c 5.36896,-3.4049 6.5186,-4.8907 4.41032,-5.6997 -1.71383,-0.6576 -10.33917,2.2339 -12.48184,4.1844 -1.77864,1.6192 -0.72735,4.4175 1.65957,4.4175 1.00959,0 3.89496,-1.306 6.41195,-2.9022 z m -6.63126,-9.4692 c 11.65734,-3.9513 24.80737,-8.9872 39.44648,-15.1063 5.775,-2.4139 17.7,-7.3949 26.5,-11.0688 14.46265,-6.038 25.20611,-10.6229 56,-23.8989 39.65873,-17.0978 61.30592,-26.06 76.20766,-31.5509 9.4642,-3.4874 17.4376,-6.9398 17.7186,-7.6722 0.9101,-2.3717 -0.5667,-4.3311 -5.2934,-7.0227 -23.08555,-13.1464 -45.74437,-27.7996 -64.53208,-41.7324 -6.10543,-4.5277 -14.70078,-10.6186 -19.10078,-13.5354 -4.4,-2.9167 -9.125,-6.0727 -10.5,-7.0134 -14.3034,-9.7847 -32.14179,-18.4932 -35.96924,-17.5597 -1.39192,0.3395 -4.40749,1.0278 -6.70127,1.5296 -2.29377,0.5018 -9.49377,3.0237 -16,5.6041 -6.50622,2.5805 -25.0777,9.1508 -41.26996,14.6007 -40.30158,13.5646 -55.51934,20.1833 -84.05953,36.56 -12.23135,7.0185 -11.84606,6.6438 -12.19846,11.8627 l -0.30154,4.4657 -8.00787,3.2722 c -4.40433,1.7998 -10.90072,4.8169 -14.43641,6.7047 -6.22151,3.3219 -6.50172,3.6417 -8.70135,9.9324 -2.9169,8.342 -2.90458,8.6036 0.56871,12.0769 3.64661,3.6466 6.72879,3.7813 8.28673,0.362 0.9528,-2.0912 1.63697,-2.4452 3.72856,-1.9292 7.03222,1.7347 24.12132,15.2708 34.06163,26.9797 19.40238,22.8545 28.0781,32.3358 33.07585,36.1468 9.22949,7.0379 16.31246,11.2603 18.97767,11.3132 1.40443,0.028 7.02943,-1.4665 12.5,-3.3208 z m 56.36351,-11.6129 c 2.85451,-0.5413 8.42843,-2.6095 12.38649,-4.596 3.95806,-1.9864 10.34648,-4.6546 14.19648,-5.9293 13.76756,-4.5584 21.13953,-7.3339 30.5,-11.4833 5.225,-2.3162 15.575,-6.6707 23,-9.6767 7.425,-3.006 15.975,-6.5202 19,-7.8092 3.025,-1.289 10.45,-3.7104 16.5,-5.3807 13.42925,-3.7077 37.85396,-11.755 41.67416,-13.7306 2.834,-1.4655 4.3088,-4.7477 3.631,-8.0808 -0.6093,-2.9968 -6.1198,-2.1056 -21.3555,3.4536 -12.91615,4.7128 -38.58829,15.0049 -47.94966,19.2232 -2.2,0.9914 -13.225,5.7111 -24.5,10.4884 -11.275,4.7772 -25.675,10.9277 -32,13.6679 -6.325,2.7401 -17.28688,7.3995 -24.35973,10.3542 -7.07285,2.9547 -13.63328,6.0723 -14.57874,6.9279 -0.94546,0.8556 -2.21952,1.5557 -2.83125,1.5557 -0.61174,0 -1.39036,0.45 -1.73028,1 -0.78104,1.2637 1.81075,1.2686 8.41703,0.016 z"
         id="path4659"
         inkscape:connector-curvature="0" />
      <path
         style="fill:#1a0800"
         d="m 795.76744,1917.112 c -1.41727,-1.1149 -2.87001,-2.027 -3.2283,-2.027 -0.79875,0 -20.69869,-13.2427 -25.5331,-16.9913 -1.925,-1.4927 -6.65,-4.8996 -10.5,-7.571 -14.46399,-10.0361 -51.2448,-40.3106 -70.25726,-57.8292 -6.28333,-5.7897 -8.94279,-7.6085 -11.125,-7.6085 -2.43134,0 -2.96598,-0.4912 -3.51329,-3.2277 -0.54485,-2.7243 -0.18644,-3.6568 2.2978,-5.9786 2.99515,-2.7992 3.48155,-4.1192 8.58295,-23.2937 1.46329,-5.5 4.02035,-14.725 5.68236,-20.5 5.38899,-18.7252 5.59313,-21.1604 2.11048,-25.1756 -2.15652,-2.4863 -1.15863,-5.193 2.33217,-6.3258 4.50553,-1.4622 5.74663,-2.8087 7.76682,-8.4267 1.65724,-4.6086 2.17508,-5.1353 5.96882,-6.0703 4.82372,-1.1889 17.89599,-7.3228 28.65415,-13.4453 16.03549,-9.1258 33.09431,-17.6564 46.0129,-23.0097 7.41791,-3.0739 14.1621,-5.9526 14.9871,-6.3972 0.825,-0.4445 9.6,-3.4087 19.5,-6.5871 9.9,-3.1783 20.25,-6.6221 23,-7.6527 31.13192,-11.6675 40.59546,-15.9354 41.64875,-18.7827 1.23019,-3.3255 3.36737,-3.5673 10.13733,-1.1472 6.29166,2.2493 24.05344,11.5985 33.21392,17.4828 13.63974,8.7615 28.51898,18.8759 33,22.4322 2.75,2.1825 12.2,8.7888 21,14.6806 17.42987,11.6699 18.45111,12.4247 16.80944,12.4247 -1.44716,0 -17.52337,-10.5944 -28.79247,-18.9746 -22.76036,-16.9255 -52.51569,-35.9734 -64.2511,-41.1303 l -7.23412,-3.1789 -5.76588,1.7111 c -7.22636,2.1446 -25.98567,8.6443 -33.26587,11.5261 -7.17567,2.8404 -13.64989,5.0098 -18,6.0314 -1.925,0.4521 -5.975,1.7972 -9,2.9891 -3.025,1.192 -8.2,2.9879 -11.5,3.991 -3.3,1.0031 -10.5,3.4815 -16,5.5075 -5.5,2.026 -10.675,3.6912 -11.5,3.7006 -0.825,0.01 -3.4076,0.8742 -5.7391,1.922 -2.33151,1.0477 -4.73438,1.905 -5.33971,1.905 -0.60533,0 -1.84774,0.8768 -2.7609,1.9484 -0.91316,1.0716 -7.96029,5.164 -15.66029,9.0941 -7.7,3.9302 -17.29726,9.1967 -21.32724,11.7033 l -7.32723,4.5575 0.32723,4.3837 0.32724,4.3838 -8.5,3.4364 c -4.675,1.89 -9.4,3.9737 -10.5,4.6304 -1.1,0.6567 -4.1375,2.268 -6.75,3.5808 -3.46743,1.7424 -4.75957,2.9802 -4.78544,4.5842 -0.0195,1.2086 -0.67854,3.3224 -1.46456,4.6974 -0.78602,1.375 -1.44508,4.6008 -1.46457,7.1684 -0.0324,4.2701 0.2624,4.8526 3.45441,6.8253 4.15567,2.5684 6.64866,2.3216 8.01016,-0.793 1.39241,-3.1852 4.19163,-2.3317 14,4.2685 7.4368,5.0044 20.59437,17.3775 27.14937,25.5308 5.54569,6.8979 22.19016,25.559 25.48815,28.5763 4.41189,4.0364 12.63702,9.7579 17.8539,12.4193 6.97378,3.5578 11.54589,2.0369 84.00858,-27.9457 6.875,-2.8447 13.4,-5.5653 14.5,-6.0459 1.1,-0.4806 8.075,-3.4322 15.5,-6.5591 17.88,-7.53 30.76936,-13.0537 46.30941,-19.8461 12.81784,-5.6025 15.69059,-6.4492 15.69059,-4.6245 0,1.2816 -2.86718,2.7138 -19.00661,9.4938 -7.42136,3.1176 -16.41839,7.0345 -19.99339,8.7041 -3.575,1.6697 -9.73025,4.3215 -13.67834,5.893 -3.94808,1.5714 -9.12308,3.7305 -11.5,4.7979 -2.37691,1.0675 -8.37166,3.7619 -13.32166,5.9878 -12.07429,5.4293 -23.74471,10.1415 -25.12756,10.1457 -0.62015,0 -1.66374,0.6495 -2.31909,1.4391 -0.65535,0.7897 -2.49005,1.7209 -4.07712,2.0695 -2.69384,0.5917 -4.93394,3.8704 -3.57369,5.2307 1.55554,1.5555 19.02155,-3.7924 27.09746,-8.2971 2.2,-1.2271 5.125,-2.5465 6.5,-2.9319 8.44254,-2.3665 35.09451,-12.6058 45.66248,-17.5428 6.57973,-3.0738 23.84616,-9.9641 24.96915,-9.9641 0.37107,0 3.53196,-1.35 7.0242,-3 3.49223,-1.65 6.79357,-3 7.33631,-3 4.07621,0 45.25232,-13.2542 49.83612,-16.0417 3.1256,-1.9009 5.0597,-7.2018 3.813,-10.4508 -0.7443,-1.9395 -5.1787,-1.9348 -10.6948,0.011 -3.3386,1.1779 -4.4745,1.2448 -5.0597,0.2979 -1.0061,-1.6278 1.355,-3.1278 8.3366,-5.2962 9.4018,-2.9201 8.5412,-8.1366 -2.2633,-13.7197 -2.9631,-1.5311 -6.3038,-3.7489 -7.4238,-4.9285 -1.45,-1.5273 0.5549,-0.8364 6.9637,2.3999 4.95,2.4995 10.2926,5.0513 11.8724,5.6705 2.6796,1.0503 2.8291,1.3959 2.2286,5.1511 -0.4655,2.9111 -0.1729,4.8222 1.0572,6.9045 1.6077,2.7217 1.6021,3.098 -0.1019,6.8769 -1.2864,2.8527 -1.603,5.0621 -1.1054,7.7145 0.602,3.2089 0.3527,4.0035 -1.8238,5.8136 -3.2354,2.6907 -5.1867,13.8348 -6.1757,35.2692 l -0.7,15.1727 4.1054,1.23 c 5.7898,1.7346 6.1727,4.0341 1.5344,9.2149 -2.073,2.3154 -4.0661,4.3372 -4.4292,4.4929 -0.363,0.1556 -2.0391,-1.1275 -3.7246,-2.8515 -2.9786,-3.0466 -3.2012,-3.1051 -7.9472,-2.0872 -2.6855,0.5759 -9.8119,2.4688 -15.83647,4.2064 -20.25896,5.8432 -40.60063,10.8739 -48.30481,11.9463 -4.20688,0.5856 -9.44888,1.5298 -11.64888,2.0981 -2.2,0.5684 -5.8,1.4303 -8,1.9154 -10.89426,2.402 -35.60691,12.5617 -58.75018,24.1531 -19.41993,9.7265 -36.34756,15.9118 -61.10132,22.3264 -9.39925,2.4356 -13.56296,4.009 -15.5,5.857 -2.11438,2.0172 -3.02271,2.3159 -4.50404,1.4811 -2.55066,-1.4374 -5.12018,1.1459 -4.31394,4.3372 0.45298,1.793 1.93688,2.7621 6.39626,4.1774 7.68533,2.439 10.06142,4.1841 8.67969,6.3746 -1.56673,2.4838 -2.79535,2.5512 -5.64507,0.3096 z m -13.9614,-17.227 c 0.66,-0.66 1.2,-1.9853 1.2,-2.9452 0,-1.3726 1.01425,-1.8103 4.75,-2.05 l 4.75,-0.3048 1.17619,-8 c 0.6469,-4.4 1.49546,-11.8911 1.8857,-16.647 0.69487,-8.4685 0.65907,-8.6748 -1.73566,-10 -1.34484,-0.7441 -7.14341,-6.3689 -12.8857,-12.4994 -12.88573,-13.7569 -29.922,-29.8718 -35.99541,-34.0487 -2.50518,-1.7229 -6.6326,-5.5645 -9.17205,-8.5369 -2.53945,-2.9725 -7.23975,-7.3845 -10.44512,-9.8044 -3.20537,-2.42 -9.49148,-7.8649 -13.96912,-12.0998 -9.05415,-8.5634 -13.19074,-11.1341 -17.17523,-10.6738 -2.5698,0.2969 -2.8438,0.9249 -6.4613,14.81 -2.07773,7.975 -4.66666,17.65 -5.75317,21.5 -3.09121,10.9536 -3.03821,11.1221 6.31404,20.0726 8.37349,8.0138 24.70044,22.3658 30.21683,26.5616 1.65,1.255 6.15,5.1751 10,8.7114 7.00726,6.4361 11.6413,10.1294 24.90809,19.8514 3.90055,2.8584 8.39696,6.2111 9.99201,7.4504 4.12736,3.2069 14.90348,9.7497 16.1499,9.8056 0.5775,0.026 1.59,-0.493 2.25,-1.153 z m 32.2,-10.3394 c 5.225,-1.394 10.85,-2.9549 12.5,-3.4689 1.65,-0.5139 6.825,-2.1263 11.5,-3.5831 7.43944,-2.3182 16.9698,-6.4986 45.5,-19.958 22.17936,-10.4634 39.64851,-16.5641 54.29802,-18.9625 16.47383,-2.6971 37.84724,-7.6785 53.70198,-12.516 1.65,-0.5035 5.925,-1.779 9.49996,-2.8346 3.575,-1.0555 9.0954,-2.6877 12.2676,-3.6269 3.1722,-0.9393 6.1914,-2.4996 6.7093,-3.4674 0.5179,-0.9677 1.2026,-6.6608 1.5214,-12.6513 0.3189,-5.9906 1.3111,-16.6455 2.205,-23.6777 1.9475,-15.3215 1.7907,-15.6868 -5.9445,-13.8439 -2.8923,0.6891 -7.1992,1.9481 -9.5707,2.7977 -4.0038,1.4343 -4.404,1.419 -5.5983,-0.2144 -1.3966,-1.9099 -3.58976,-1.2247 -3.58976,1.1216 0,1.537 -3.25058,3.1467 -11.5,5.6951 -7.97804,2.4645 -11.85146,3.1074 -11.06609,1.8366 0.45659,-0.7387 -0.64625,-1.1069 -3.31588,-1.1069 -2.2,0 -4.27811,0.45 -4.61803,1 -0.60926,0.9858 1.08374,1.3575 5,1.0976 1.69152,-0.1122 1.60601,0.091 -0.55434,1.3143 -3.54128,2.006 -22.47888,9.5881 -23.94805,9.5881 -0.66067,0 -6.4429,2.421 -12.84941,5.3799 -21.64478,9.997 -25.36923,11.6201 -26.66468,11.6201 -1.69777,0 -11.92136,3.6338 -27.98352,9.9462 -7.15,2.8099 -18.175,7.0711 -24.5,9.4692 -20.67551,7.839 -43.4464,17.6553 -45.55912,19.6401 -1.13838,1.0695 -2.51534,1.9445 -3.05991,1.9445 -0.54458,0 -2.60576,1.4799 -4.58042,3.2886 -3.3805,3.0964 -3.62928,3.7538 -4.2576,11.25 -0.36703,4.3788 -1.0633,11.0771 -1.54728,14.8853 -1.47523,11.6077 -0.0549,12.3209 16.00433,8.0367 z m -16.98465,-41.4606 c 0.36255,-1.375 0.4636,-4.1411 0.22454,-6.1469 -0.39275,-3.2955 -1.19568,-4.1427 -8.33077,-8.79 -9.95723,-6.4854 -20.19056,-16.5777 -35.72916,-35.2366 -12.17825,-14.6238 -17.60863,-19.907 -26.82331,-26.0963 -7.57513,-5.088 -9.65138,-5.8869 -14.41577,-5.547 -4.0148,0.2864 -4.47137,0.582 -4.75868,3.0811 -0.26888,2.3388 0.94713,3.9549 7.9003,10.5 4.51996,4.2546 10.82957,9.6382 14.02136,11.9634 3.19179,2.3252 6.78356,5.5536 7.98171,7.1742 1.19815,1.6206 6.32428,6.323 11.3914,10.4497 5.06711,4.1268 15.92021,14.3247 24.11798,22.662 19.13227,19.4579 22.86138,21.8991 24.4204,15.9864 z m 20.58571,-6.5909 c 5.84504,-3.0913 8.39894,-5.2393 8.39894,-7.0641 0,-3.3998 -15.98556,1.1044 -17.72906,4.9955 -2.33566,5.2126 1.69544,6.1064 9.33012,2.0686 z m 37.39894,-18.9091 c 0,-0.8333 -0.88889,-1.5 -2,-1.5 -1.11111,0 -2,0.6667 -2,1.5 0,0.8333 0.88889,1.5 2,1.5 1.11111,0 2,-0.6667 2,-1.5 z m -185.92105,-4.0833 c 0.048,-1.165 0.28494,-1.4019 0.60416,-0.6042 0.28887,0.7219 0.25335,1.5844 -0.0789,1.9167 -0.33229,0.3323 -0.56864,-0.2584 -0.52522,-1.3125 z m 313.59684,-55.8192 c -0.56702,-1.4776 3.47536,-4.0404 7.82421,-4.9603 2.84058,-0.6009 2.80072,-0.5271 -0.75,1.388 -2.0625,1.1124 -3.75,2.4137 -3.75,2.8917 0,1.465 -2.80299,2.0389 -3.32421,0.6806 z m 54.51917,-13.0975 c 0.02,-1.65 0.2445,-2.2039 0.498,-1.231 0.2536,0.973 0.2369,2.323 -0.037,3 -0.2739,0.6771 -0.4813,-0.119 -0.461,-1.769 z M 882.27507,1645.392 c 0.97297,-0.2535 2.32297,-0.2369 3,0.037 0.67703,0.2739 -0.11903,0.4813 -1.76903,0.461 -1.65,-0.02 -2.20394,-0.2445 -1.23097,-0.4981 z"
         id="path4657"
         inkscape:connector-curvature="0" />
    </g>
  </g>
</svg>
