<?xml version="1.0" encoding="UTF-8" standalone="no"?>
<!-- Created with Inkscape (http://www.inkscape.org/) -->

<svg
   xmlns:dc="http://purl.org/dc/elements/1.1/"
   xmlns:cc="http://creativecommons.org/ns#"
   xmlns:rdf="http://www.w3.org/1999/02/22-rdf-syntax-ns#"
   xmlns:svg="http://www.w3.org/2000/svg"
   xmlns="http://www.w3.org/2000/svg"
   xmlns:sodipodi="http://sodipodi.sourceforge.net/DTD/sodipodi-0.dtd"
   xmlns:inkscape="http://www.inkscape.org/namespaces/inkscape"
   width="240.36249"
   height="191.67546"
   id="svg2"
   version="1.1"
   inkscape:version="0.48.5 r10040">
  <defs
     id="defs4" />
  <sodipodi:namedview
     id="base"
     pagecolor="#ffffff"
     bordercolor="#666666"
     borderopacity="1.0"
     inkscape:pageopacity="0.0"
     inkscape:pageshadow="2"
     inkscape:zoom="1.7080745"
     inkscape:cx="170.60455"
     inkscape:cy="110.92296"
     inkscape:document-units="px"
     inkscape:current-layer="layer1"
     showgrid="false"
     inkscape:window-width="1366"
     inkscape:window-height="718"
     inkscape:window-x="0"
     inkscape:window-y="0"
     inkscape:window-maximized="1"
     fit-margin-top="0"
     fit-margin-left="0"
     fit-margin-right="0"
     fit-margin-bottom="0" />
  <metadata
     id="metadata7">
    <rdf:RDF>
      <cc:Work
         rdf:about="">
        <dc:format>image/svg+xml</dc:format>
        <dc:type
           rdf:resource="http://purl.org/dc/dcmitype/StillImage" />
        <dc:title></dc:title>
      </cc:Work>
    </rdf:RDF>
  </metadata>
  <g
     inkscape:label="Layer 1"
     inkscape:groupmode="layer"
     id="layer1"
     transform="translate(-709.58191,-1571.9562)">
    <g
       id="g3523"
       transform="translate(-70.84,1.7563636)">
      <path
         style="fill:#eea5a4"
         d="m 846.28442,1759.5618 c -4.10381,-1.9566 -5.99926,-2.2825 -10.57507,-1.8182 -4.40385,0.4469 -6.59781,0.1133 -10.44334,-1.5877 l -4.86826,-2.1535 -5.05667,3.174 c -5.37839,3.3758 -9.468,4.033 -12.00338,1.9288 -2.75919,-2.2899 -1.79438,-5.8721 2.94672,-10.9407 4.09395,-4.3768 4.49537,-5.2527 4.44865,-9.7072 -0.12171,-11.6043 -1.43232,-17.9013 -4.77677,-22.9505 -6.05667,-9.1439 -2.21741,-15.205 5.39665,-8.5198 1.92558,1.6907 4.14475,3.074 4.93147,3.074 0.78672,0 3.03198,1.4062 4.98947,3.1249 3.23224,2.838 4.02864,3.0798 8.67282,2.6335 4.33025,-0.416 5.59055,-1.0428 8.22573,-4.0904 3.83329,-4.4332 7.65953,-5.5221 11.21605,-3.1918 2.32855,1.5258 2.52108,2.1163 1.91047,5.8603 -0.37348,2.2899 -0.89707,8.831 -1.16354,14.5356 l -0.4845,10.3722 3.47489,5.6297 c 4.47179,7.2449 5.55028,12.4832 3.12242,15.166 -2.25187,2.4883 -3.7884,2.4051 -9.96381,-0.5392 z m 24.71973,-17.6152 c -3.04777,-1.1275 -3.62919,-4.3864 -1.54309,-8.6493 2.13483,-4.3624 2.54489,-4.5049 19.27537,-6.6979 29.05543,-3.8085 65.88382,-4.3926 93.54799,-1.4837 4.95,0.5205 14.08154,1.2347 20.29228,1.5872 9.6439,0.5472 11.4925,0.9266 12.6635,2.5984 1.8089,2.5827 0.2361,7.2602 -3.1978,9.5102 -2.3445,1.5362 -3.8307,1.4889 -22.63363,-0.7214 -35.09637,-4.1254 -79.18235,-3.8994 -96.44699,0.4944 -10.5859,2.6941 -19.90576,4.1211 -21.95763,3.3621 z m -24.01034,-45.1356 -3.25215,-3.25 -14.72862,-0.065 c -15.45518,-0.069 -18.01818,-0.6537 -20.67675,-4.7198 -1.86413,-2.8511 -7.77754,-30.5578 -7.10693,-33.2989 0.28043,-1.1462 1.81772,-3.7297 3.41622,-5.7412 1.59849,-2.0114 4.16442,-6.6173 5.70207,-10.2352 l 2.79573,-6.5781 -2.73315,-2.1807 c -2.5742,-2.0539 -2.78157,-2.8356 -3.56579,-13.4412 -0.88349,-11.9484 -1.47951,-13.4092 -6.48719,-15.8995 -8.50229,-4.2283 -18.25854,-10.8348 -19.31904,-13.082 -2.4759,-5.2464 2.91964,-8.8146 8.85295,-5.8546 3.94232,1.9667 5.23412,1.9888 8.78857,0.1507 2.16839,-1.1213 4.19257,-1.2484 9.01776,-0.5664 8.06882,1.1405 17.0959,-0.3226 22.87091,-3.707 4.29644,-2.5179 4.654,-2.5664 8.59943,-1.166 l 4.11659,1.4611 4.1472,-4.3709 c 4.40834,-4.6462 7.64238,-5.3102 9.71979,-1.9958 1.31338,2.0955 -1.16655,7.5636 -8.41922,18.5637 -7.4861,11.3542 -6.8779,16.2813 2.5421,20.5939 7.39441,3.3853 8.68438,6.1543 5.54678,11.9065 -1.26805,2.3247 -3.00605,4.7893 -3.86223,5.4768 -2.08146,1.6714 -8.10718,1.5753 -16.95379,-0.2703 -4.98318,-1.0396 -7.85703,-1.2095 -9.11066,-0.5386 -1.59971,0.8562 -10.10997,18.6433 -10.10997,21.1307 0,1.6987 8.66309,0.9588 18.40302,-1.5718 11.61602,-3.0181 12.62818,-3.0499 15.87152,-0.4987 2.43326,1.914 2.54324,2.4485 2.52074,12.25 -0.0191,8.3094 0.56576,12.4999 3.0906,22.1456 3.68068,14.0613 3.67912,14.0381 1.11412,16.6031 -3.00216,3.0022 -6.99894,2.5392 -10.79061,-1.25 z m -3.92388,-15.7123 c 0.43202,-0.3898 0.0293,-5.564 -0.89493,-11.4982 l -1.68042,-10.7894 -5.60508,0.6868 c -3.0828,0.3778 -8.63698,1.0134 -12.34264,1.4126 -3.70566,0.3991 -7.21959,1.2076 -7.80872,1.7968 -0.76154,0.7615 -0.59105,3.6411 0.58984,9.9624 0.91355,4.8902 1.85243,9.206 2.0864,9.5906 0.5378,0.8841 24.59557,-0.2052 25.65555,-1.1616 z m -21.75844,-66.0815 c 0.93716,-1.5164 -1.60294,-4.2803 -2.81747,-3.0658 -1.12151,1.1215 -0.24899,4.1096 1.2,4.1096 0.5348,0 1.26266,-0.4697 1.61747,-1.0438 z m 9.29577,-17.9104 c 0.45389,-4.6397 -0.75883,-5.4092 -7.24748,-4.5985 -7.85674,0.9817 -7.34838,4.0885 1.16516,7.1209 4.91626,1.7512 5.69589,1.4278 6.08232,-2.5224 z m 61.42716,72.446 c -1.30238,-0.9292 -2.25,-2.6552 -2.25,-4.0982 0,-3.4293 2.5847,-8.127 4.87072,-8.8526 3.88868,-1.2342 64.97291,-0.6627 84.62928,0.7918 16.69079,1.2351 21.40638,1.2668 28.49998,0.1915 9.4231,-1.4283 13,-0.452 13,3.5484 0,3.205 -2.767,7.7152 -5.239,8.5395 -3.5202,1.1738 -29.71835,0.5885 -48.84809,-1.0912 -27.73313,-2.4353 -54.1239,-1.6826 -69.91289,1.9938 -1.52565,0.3553 -3.37691,-0.043 -4.75,-1.023 z m 0.0954,-61.9668 c -3.15766,-1.3495 -5.04506,-4.584 -3.82594,-6.5566 0.65756,-1.0639 7.00907,-5.5153 10.86983,-7.6179 1.51171,-0.8233 6.93478,-0.9409 19.11066,-0.4144 18.13126,0.7841 49.94758,-0.079 75.79979,-2.0566 14.10804,-1.0791 15.96894,-1.0393 17.37964,0.3714 1.8899,1.8899 1.2472,5.3773 -1.5429,8.3722 -1.4787,1.5872 -3.6909,2.2398 -9.2887,2.7404 -15.8563,1.418 -47.53822,2.8177 -71.55655,3.1613 -13.86479,0.1984 -26.01479,0.7742 -27,1.2796 -3.52309,1.8074 -6.84058,2.0477 -9.94583,0.7206 z"
         id="path3537"
         inkscape:connector-curvature="0" />
      <path
         style="fill:#a39e9e"
         d="m 847.46114,1758.8925 c -2.48084,-1.8497 -3.66828,-2.0265 -9.78979,-1.4576 -5.85819,0.5444 -7.76331,0.3047 -11.97488,-1.5071 -4.33101,-1.8631 -5.52678,-1.9992 -8.84158,-1.0061 -2.10827,0.6317 -4.3917,1.8214 -5.07429,2.6439 -1.65205,1.9906 -6.61444,1.9326 -7.38919,-0.086 -1.05353,-2.7454 -0.6502,-3.8187 2.92828,-7.7922 1.91887,-2.1307 3.74624,-4.8994 4.06081,-6.1528 1.06291,-4.235 -1.4354,-23.1532 -3.69135,-27.9525 -1.17533,-2.5004 -2.53472,-4.792 -3.02085,-5.0925 -1.40484,-0.8682 -1.02482,-4.1602 0.55002,-4.7645 0.78865,-0.3026 3.10053,0.7743 5.13751,2.393 2.13548,1.6971 4.90583,2.9433 6.54304,2.9433 1.92526,0 3.36683,0.8049 4.47751,2.5 1.41564,2.1605 2.37816,2.5 7.08879,2.5 5.93666,0 8.63876,-1.0457 12.0215,-4.6521 4.58188,-4.8849 11.5794,-1.8491 9.33638,4.0505 -0.52891,1.3911 -0.78013,7.4833 -0.55828,13.5382 0.3455,9.4294 0.75661,11.6225 2.86548,15.2861 2.7055,4.7001 4.17819,11.5509 3.16755,14.7351 -0.84138,2.651 -4.18415,2.5971 -7.83666,-0.1263 z m -15.37122,-13.9704 c -1.33972,-1.3398 -2.77263,-1.8958 -3.83485,-1.4882 -2.47792,0.9509 0.0116,3.6271 3.37402,3.6271 l 2.59977,0 -2.13894,-2.1389 z m 37.9445,-3.9724 c -1.87551,-1.9336 -1.50695,-6.2923 0.77764,-9.1967 1.4768,-1.8774 3.31057,-2.7422 6.75,-3.1831 2.5973,-0.333 8.77236,-1.2478 13.72236,-2.0331 4.95,-0.7852 18.45,-1.9643 30,-2.6201 18.34123,-1.0413 24.1652,-0.9647 46,0.605 13.75,0.9885 29.725,2.0768 35.49998,2.4183 5.775,0.3416 11.0625,0.9851 11.75,1.43 1.5853,1.026 1.5662,5.6964 -0.032,7.7777 -2.9827,3.8848 -4.8394,4.0305 -23.92779,1.8772 -41.14324,-4.6413 -78.47598,-4.4533 -98.59408,0.4963 -13.61029,3.3485 -20.33243,4.0923 -21.94631,2.4285 z m -21.54775,-43.2366 c -4.32453,-4.6105 -6.42678,-5.1355 -19.70225,-4.9198 -14.40585,0.234 -18.41513,-0.7006 -20.52745,-4.7854 -1.67793,-3.2447 -6.47255,-26.231 -6.47255,-31.0305 0,-2.2535 1.01132,-4.127 3.65249,-6.7664 3.09842,-3.0963 9.34751,-14.5579 9.34751,-17.1444 0,-0.4444 -1.50939,-1.6986 -3.3542,-2.7871 -3.35265,-1.9781 -3.35452,-1.9836 -4.04363,-11.8488 -1.06101,-15.1893 -1.08011,-15.222 -12.96532,-22.2421 -12.05877,-7.1225 -14.50953,-9.3712 -12.65242,-11.6088 1.64704,-1.9846 5.09518,-1.9253 9.47395,0.1627 3.43067,1.636 3.59194,1.6198 5.95126,-0.5966 2.26072,-2.1238 2.98963,-2.2337 10.7577,-1.6215 9.62115,0.7582 18.09393,-0.5775 22.04217,-3.475 3.46457,-2.5425 7.82551,-2.5353 11.07193,0.018 l 2.55117,2.0068 3.58369,-4.1868 c 1.97104,-2.3027 3.5837,-4.5557 3.5837,-5.0067 0,-0.451 1.38032,-0.82 3.06739,-0.82 2.72046,0 2.9887,0.2545 2.37169,2.25 -1.55951,5.0437 -10.24847,19.8961 -12.42746,21.2428 -1.31336,0.8117 -1.28628,6.978 0.0518,11.7964 0.89286,3.2153 1.87642,4.1935 6.49292,6.4576 2.99236,1.4676 5.68963,3.4528 5.99394,4.4116 0.88654,2.7933 -1.41313,9.6321 -3.80147,11.305 -2.79409,1.957 -5.07035,1.9308 -15.30915,-0.1768 -11.81001,-2.431 -12.52122,-2.0347 -18.06384,10.0638 -2.48199,5.4178 -4.24907,10.5375 -3.92684,11.3772 0.76727,1.9995 8.69269,1.1607 21.55375,-2.2811 9.82389,-2.6291 11.67825,-2.5615 14.47391,0.5277 1.39468,1.5411 1.78239,4.0687 1.95181,12.7245 0.16164,8.2584 0.86528,13.1555 2.98882,20.8013 3.28261,11.819 3.41647,13.9213 1.05275,16.5331 -2.39132,2.6424 -6.08236,2.482 -8.76777,-0.381 z m -14.95225,-15.3276 10.25,-0.5867 -0.0874,-2.6189 c -0.0481,-1.4404 -0.62079,-6.4439 -1.27264,-11.1189 l -1.18518,-8.5 -5.47737,0.1029 c -7.62777,0.1432 -19.56128,1.5219 -21.02998,2.4296 -0.96464,0.5962 -0.95283,2.5308 0.0556,9.1122 1.83327,11.9645 2.4201,13.2291 5.76526,12.424 1.50246,-0.3617 7.34425,-0.9215 12.98175,-1.2442 z m -10.80686,-66.2682 c 2.08313,-1.318 -0.20274,-6.0563 -2.9217,-6.0563 -1.55295,0 -2.02144,0.6566 -2.02144,2.8333 0,4.1176 1.73807,5.2508 4.94314,3.223 z m 9.05686,-17.4745 c 0,-5.8019 -0.71392,-6.5818 -6.0252,-6.5818 -6.54671,0 -7.9748,0.7112 -7.9748,3.9713 0,2.246 0.69533,3.0426 3.75,4.2958 2.0625,0.8462 5.2125,1.5823 7,1.6357 3.05176,0.091 3.25,-0.1113 3.25,-3.321 z m 58.90042,69.099 c -0.92228,-2.0242 -0.89758,-3.2735 0.113,-5.7132 2.63157,-6.3532 2.05125,-6.2779 43.75406,-5.6754 20.75289,0.2999 43.58252,1.078 50.73252,1.7293 10.2808,0.9365 15.04908,0.9184 22.79638,-0.087 8.8717,-1.1508 9.9541,-1.113 11.4679,0.4008 1.5141,1.5141 1.5333,2.0663 0.2036,5.8623 -1.2155,3.4702 -2.0696,4.35 -4.9679,5.1175 -4.1421,1.0968 -40.58383,0.1714 -49.99998,-1.2697 -8.87244,-1.3578 -45.77713,-1.4181 -55,-0.09 -17.96458,2.5874 -17.79418,2.5898 -19.09958,-0.2752 z m 0.32209,-61.2375 c -2.92179,-2.0465 -2.90729,-6.0198 0.0275,-7.5331 1.2375,-0.6381 3.29902,-2.1164 4.58115,-3.2852 2.2729,-2.0719 3.14747,-2.1271 35,-2.2086 17.96787,-0.046 40.99385,-0.7037 51.16885,-1.4617 24.72167,-1.8416 28.02957,-1.8257 29.27997,0.1405 1.4325,2.2525 0.095,6.6191 -2.5459,8.3104 -2.9863,1.9126 -60.51313,5.1204 -85.44704,4.7646 -14.84104,-0.2117 -18.76605,0.026 -21.20034,1.285 -3.81695,1.9738 -8.03579,1.9692 -10.86418,-0.012 z"
         id="path3535"
         inkscape:connector-curvature="0" />
      <path
         style="fill:#605c5c"
         d="m 846.78442,1758.4374 c -3.14884,-2.2721 -4.13055,-2.4647 -9.78477,-1.9195 -5.10068,0.4918 -7.1708,0.214 -10.98746,-1.4743 -5.36003,-2.371 -8.15177,-2.026 -12.91105,1.5953 -3.49088,2.6562 -6.26497,3.0739 -8.11672,1.2221 -1.98155,-1.9815 -1.38132,-4.1703 2.14703,-7.8292 5.60647,-5.8138 5.81341,-6.6654 4.64103,-19.0974 -0.95675,-10.1455 -1.3841,-11.7136 -4.62175,-16.959 -1.96213,-3.1789 -3.27069,-6.2601 -2.9079,-6.8471 1.12093,-1.8137 4.08369,-1.1836 6.49286,1.3808 1.26494,1.3465 3.63549,2.7415 5.26788,3.1 1.63239,0.3586 3.90703,1.7319 5.05475,3.0519 1.76174,2.0262 3.00543,2.4 7.98485,2.4 5.5544,0 6.12886,-0.2331 9.85831,-4 2.82473,-2.8531 4.79923,-4 6.8864,-4 4.24279,0 5.24614,2.5529 3.37649,8.5909 -2.50031,8.0747 -1.10466,20.7344 3.1953,28.984 6.29719,12.0813 3.37751,18.2616 -5.57525,11.8015 z m -13.66449,-11.0452 c 0.87267,-0.8727 -2.26667,-4.3312 -3.93148,-4.3312 -2.24534,0 -2.7793,2.2524 -0.86568,3.6517 2.01534,1.4737 3.75637,1.7202 4.79716,0.6795 z m 37.41449,-6.898 c -1.47361,-1.5061 -0.74665,-7.1263 1.143,-8.8364 1.24937,-1.1306 5.58438,-2.2178 12.75,-3.1975 32.20449,-4.403 55.37324,-5.1818 85.357,-2.8693 12.375,0.9545 27.09088,1.941 32.70198,2.1923 7.054,0.316 10.5598,0.8882 11.3616,1.8544 1.6318,1.9661 0.345,6.1095 -2.4701,7.954 -2.1697,1.4216 -4.3927,1.3302 -25.73415,-1.0584 -18.6419,-2.0864 -28.30712,-2.6241 -47.85933,-2.6628 -24.98708,-0.049 -34.21781,0.7638 -48.03209,4.2312 -9.18465,2.3054 -18.20451,3.4283 -19.21791,2.3925 z m -21.34265,-43.5356 c -4.21049,-4.6525 -12.93289,-6.494 -24.04101,-5.0754 -7.48775,0.9562 -12.9581,-0.3923 -15.51373,-3.8244 -1.02295,-1.3738 -2.51864,-5.8728 -3.32377,-9.9978 -0.80513,-4.125 -2.12869,-10.6078 -2.94125,-14.4062 -1.6067,-7.5108 -1.01357,-10.0883 3.19861,-13.9003 1.09503,-0.991 3.47582,-5.2074 5.29065,-9.3698 l 3.29969,-7.5679 -3.08137,-2.6279 c -2.96422,-2.528 -3.11702,-3.0535 -4.01891,-13.8214 -0.51565,-6.1564 -1.48076,-11.848 -2.14469,-12.648 -0.66394,-0.8 -5.83315,-4.1869 -11.48714,-7.5264 -12.22272,-7.2194 -14.52822,-9.3623 -12.58803,-11.7001 1.4822,-1.7859 5.34402,-1.5526 10.6435,0.6429 2.82657,1.1711 3.43138,1.1163 5.18401,-0.4698 1.71322,-1.5505 3.11947,-1.7062 10.3001,-1.1403 9.60399,0.7568 18.08016,-0.5811 22.0255,-3.4764 3.33983,-2.451 8.49189,-2.5686 11.05135,-0.2523 1.84073,1.6658 2.0503,1.5921 5.18001,-1.823 1.79391,-1.9575 3.7047,-4.3508 4.24619,-5.3184 0.63943,-1.1426 1.8889,-1.6428 3.56466,-1.427 2.53866,0.327 2.55878,0.394 1.2515,4.1712 -1.48878,4.3015 -7.57791,14.6167 -11.28379,19.1151 -1.98651,2.4113 -2.3449,3.7405 -1.95096,7.2355 0.671,5.9531 2.93022,8.9102 8.70549,11.3946 6.03966,2.5982 6.84475,4.6427 4.115,10.45 -2.65728,5.6532 -4.89139,6.2268 -15.97793,4.1025 -10.80025,-2.0693 -12.44858,-2.0563 -14.27095,0.1134 -2.43064,2.8938 -9.99135,20.2347 -9.6165,22.056 0.50309,2.4442 9.73723,1.8213 22.07845,-1.4893 9.78751,-2.6256 9.80591,-2.6266 12.42328,-0.6725 2.5293,1.8884 2.62686,2.3412 2.78122,12.9064 0.12622,8.6397 0.75554,13.0588 2.98333,20.9494 1.55286,5.5 2.79989,11.0223 2.77119,12.2717 -0.11803,5.1386 -5.35799,6.9886 -8.8537,3.1259 z m -15.90735,-13.5681 c 5.5,-0.2922 10.39265,-0.901 10.87255,-1.3529 1.10271,-1.0384 -1.29535,-20.9861 -2.74642,-22.8454 -0.78909,-1.0111 -2.51324,-1.2063 -6.59721,-0.7467 -3.0409,0.3422 -8.78582,0.9751 -12.76648,1.4064 -3.98066,0.4313 -7.77598,1.3226 -8.43404,1.9807 -0.92863,0.9286 -0.81145,3.3694 0.52343,10.9032 1.96244,11.0755 2.90578,12.7705 6.58735,11.836 1.40845,-0.3575 7.06082,-0.8891 12.56082,-1.1813 z m -10.9807,-66.72 c 1.63235,-1.1936 1.73323,-1.7598 0.71257,-4 -0.82397,-1.8084 -1.96309,-2.6095 -3.71043,-2.6095 -2.09491,0 -2.52144,0.4737 -2.52144,2.8 0,2.5668 1.52365,5.2 3.00887,5.2 0.33488,0 1.46457,-0.6257 2.51043,-1.3905 z m 10.1053,-17.2499 c 0.36449,-1.4523 0.2446,-3.8148 -0.26643,-5.25 -0.86588,-2.4319 -1.34934,-2.6091 -7.10171,-2.6015 -6.87888,0.01 -8.80426,1.1731 -7.89983,4.7767 0.69138,2.7547 6.17174,5.4615 11.37432,5.618 2.69489,0.081 3.3409,-0.3409 3.89365,-2.5432 z m 59.48047,68.267 c -1.6475,-1.9851 -0.76343,-5.9682 1.92037,-8.652 1.87676,-1.8768 3.43446,-1.9746 31.45086,-1.9746 16.95127,0 38.9408,0.6761 51.75,1.5911 18.24627,1.3033 23.72018,1.3717 30.27368,0.3781 4.4,-0.6671 8.9,-1.0419 10,-0.8329 2.9624,0.563 3.2378,5.8883 0.4351,8.4148 -2.0069,1.8091 -3.6778,1.9421 -23.29849,1.8541 -11.62513,-0.052 -25.21969,-0.6142 -30.21015,-1.249 -11.11388,-1.4137 -45.3679,-1.502 -54.92644,-0.1416 -16.13583,2.2965 -16.00083,2.2918 -17.39493,0.612 z m -0.35507,-61.7067 c -2.43399,-1.4177 -2.26682,-5.6211 0.2554,-6.4216 1.10296,-0.3501 3.25098,-1.6846 4.77337,-2.9656 l 2.76799,-2.3291 30.97662,0.082 c 17.33862,0.046 39.56184,-0.529 50.47662,-1.3063 10.725,-0.7637 21.74998,-1.4091 24.49998,-1.4342 4.6108,-0.042 5.0229,0.1501 5.2937,2.4689 0.3614,3.094 -3.0245,6.9843 -6.0826,6.9887 -1.2161,0 -15.26108,0.7535 -31.21108,1.6706 -15.95,0.917 -37.92059,1.5961 -48.82353,1.5091 -15.82655,-0.1263 -20.40358,0.1417 -22.70034,1.3294 -3.30748,1.7104 -7.6895,1.885 -10.22613,0.4076 z"
         id="path3533"
         inkscape:connector-curvature="0" />
      <path
         style="fill:#f00b0b"
         d="m 847.30699,1758.311 c -2.5403,-2.5402 -3.371,-2.7532 -10.88636,-2.7916 -5.69212,-0.029 -9.09758,-0.5548 -11.33655,-1.75 -4.42204,-2.3606 -5.36726,-2.2007 -10.59587,1.7916 -4.79662,3.6625 -7.48958,4.3142 -9.50379,2.3 -2.08423,-2.0842 -1.32278,-4.3292 2.84038,-8.3742 5.94519,-5.7766 6.00744,-5.9995 4.97074,-17.7992 -0.96181,-10.9473 -1.65142,-13.1349 -5.65969,-17.9533 -2.8691,-3.449 -3.16556,-7.6733 -0.53852,-7.6733 0.9971,0 3.10629,1.35 4.68709,3 1.5808,1.65 3.44933,3 4.15229,3 0.70297,0 2.87664,1.4035 4.83038,3.1189 3.32232,2.9171 3.94915,3.0902 9.68353,2.6755 5.03814,-0.3645 6.45214,-0.876 7.93098,-2.869 3.66833,-4.9437 4.97182,-5.9254 7.86764,-5.9254 4.5932,0 5.58463,2.9036 2.95921,8.6668 -1.89343,4.1563 -2.05711,5.7305 -1.44493,13.8959 0.62714,8.3648 1.04909,9.7917 4.60509,15.5729 3.80211,6.1814 4.56433,9.0108 3.30882,12.2826 -0.9399,2.4494 -4.83013,1.8719 -7.87044,-1.1682 z m -13.98363,-10.313 c 0.8005,-1.2952 -2.3163,-4.937 -4.22531,-4.937 -2.2924,0 -2.82524,3.1527 -0.78498,4.6446 2.22622,1.6279 4.11674,1.7382 5.01029,0.2924 z m 37.46106,-11.1769 c 0,-1.9334 0.64264,-4.0485 1.42808,-4.7004 0.78544,-0.6519 6.29794,-1.8511 12.25,-2.665 32.14746,-4.3958 55.3437,-5.1756 85.32192,-2.8683 12.375,0.9524 27,1.9366 32.49998,2.187 5.5,0.2504 10.3946,0.8344 10.8768,1.2977 1.3675,1.3139 -0.1806,5.8136 -2.4108,7.0071 -1.9284,1.0321 -4.4898,0.8264 -44.80462,-3.5983 -9.58397,-1.0519 -52.45161,-0.6635 -60.66662,0.5497 -4.39711,0.6493 -11.38418,2.0313 -15.52683,3.0711 -4.14265,1.0398 -10.10515,2.193 -13.25,2.5626 l -5.71791,0.6721 0,-3.5153 z m -21.59265,-40.8625 c -4.22057,-4.6636 -13.19648,-6.5626 -23.81407,-5.038 -7.19523,1.0332 -13.17183,-0.2868 -15.18071,-3.3527 -0.79834,-1.2184 -2.3834,-6.8934 -3.52236,-12.6111 -1.13895,-5.7177 -2.44711,-12.1958 -2.90702,-14.3958 -0.67368,-3.2226 -0.46131,-4.583 1.09273,-7 1.06091,-1.65 3.74428,-6.7562 5.96304,-11.3472 4.17718,-8.6433 4.3793,-11.3234 0.9907,-13.1369 -1.52055,-0.8138 -1.95666,-2.7685 -2.54566,-11.4099 -0.72113,-10.58 -1.77985,-14.2843 -4.484,-15.6887 -7.04117,-3.657 -21.05972,-12.3258 -22.4925,-13.909 -1.50568,-1.6638 -1.57596,-2.2209 -0.4511,-3.5763 1.4818,-1.7854 5.34418,-1.5527 10.63853,0.6411 2.63804,1.0931 3.62179,1.0954 5.64382,0.013 1.75036,-0.9368 4.41769,-1.1129 9.35104,-0.6175 8.43258,0.8469 18.23156,-0.7759 23.7731,-3.9369 4.04127,-2.3052 5.08311,-2.3375 9.29073,-0.2879 1.88866,0.9201 2.67198,0.7058 4.83704,-1.3231 1.42089,-1.3315 3.31628,-3.6584 4.21199,-5.1709 2.00056,-3.3782 6.19735,-3.8591 6.19735,-0.7102 0,3.2718 -5.76308,13.6294 -12.36275,22.2188 -2.43757,3.1725 -2.75856,4.2812 -2.16124,7.4652 1.10373,5.8834 2.25412,7.2163 8.60517,9.9707 4.08828,1.773 6.12195,3.2667 6.5003,4.7741 0.73067,2.9113 -3.36071,9.3114 -6.50216,10.1713 -1.33138,0.3644 -6.58461,-0.1217 -11.67386,-1.0802 -5.08926,-0.9585 -10.1879,-1.4461 -11.33032,-1.0835 -1.98761,0.6308 -6.27346,8.6185 -11.13419,20.7512 -1.8783,4.6883 -1.8773,4.7363 0.12063,5.8056 2.513,1.3449 8.55848,0.5639 20.86587,-2.6956 7.31551,-1.9374 9.94775,-2.2597 11.75,-1.4385 1.2774,0.582 2.34878,1.4054 2.38085,1.8297 0.0321,0.4243 0.18644,5.4964 0.34307,11.2714 0.21205,7.8185 1.00408,13.0538 3.10137,20.5 1.54912,5.5 2.78868,11.0713 2.75458,12.3806 -0.11251,4.3194 -4.69967,5.4981 -7.84997,2.017 z m -15.2388,-11.7867 c 5.8677,-0.336 10.97794,-0.9211 11.35607,-1.3003 0.88429,-0.8867 -1.50045,-21.7115 -2.77001,-24.1892 -1.03585,-2.0215 -1.16329,-2.02 -21.12051,0.2435 -10.57156,1.199 -10.60413,1.26 -8.03983,15.0572 1.82774,9.8341 3.55802,12.5359 7.36198,11.4954 1.39906,-0.3827 7.3446,-0.9706 13.2123,-1.3066 z m -10.68054,-68.0731 c 1.00214,-3.1575 -1.15564,-6.0378 -4.52319,-6.0378 -2.46907,0 -2.96482,0.4044 -2.96482,2.4182 0,4.1199 1.05798,5.5818 4.0396,5.5818 1.92923,0 3.02319,-0.6225 3.44841,-1.9622 z m 9.60985,-16.3532 c 0.67267,-1.4764 0.73424,-3.5601 0.16992,-5.75 -0.82997,-3.2208 -1.17169,-3.4534 -5.48908,-3.7358 -2.53221,-0.1657 -6.10582,0.088 -7.94136,0.5635 -2.8291,0.7331 -3.33734,1.312 -3.33734,3.8013 0,2.4863 0.68978,3.275 4.5,5.1452 6.12296,3.0054 10.72167,2.9962 12.09786,-0.024 z m 59.4432,67.3818 c -0.98027,-1.5861 0.0973,-5.562 2.03187,-7.4965 1.35659,-1.3566 5.63486,-1.5699 31.484,-1.5699 17.77291,0 38.74757,0.652 51.67857,1.6065 17.90221,1.3214 23.13528,1.3897 29.48888,0.3851 8.0814,-1.2777 12.791,-0.806 12.7534,1.2775 -0.012,0.677 -0.8895,2.3559 -1.9495,3.7309 l -1.9273,2.5 -21.80048,-0.127 c -11.99028,-0.07 -25.61369,-0.6324 -30.27427,-1.25 -10.32605,-1.3685 -44.90175,-1.4223 -54.52623,-0.085 -15.8057,2.1963 -16.22145,2.2215 -16.95894,1.0282 z m -0.29106,-61.7287 c -2.24534,-0.906 -1.33162,-4.2441 1.57283,-5.7461 1.55256,-0.8028 3.37691,-2.1273 4.05411,-2.9433 1.04376,-1.2577 5.9821,-1.4678 32.42717,-1.3796 17.92981,0.06 39.48828,-0.4912 50.69589,-1.2957 27.27628,-1.9578 28.43398,-1.9344 28.79398,0.5822 0.685,4.7878 -1.2135,5.1685 -35.29398,7.0772 -17.6,0.9857 -40.44394,1.6884 -50.76431,1.5616 -15.15948,-0.1863 -19.32835,0.061 -21.70034,1.2877 -2.866,1.4821 -7.27743,1.868 -9.78535,0.856 z"
         id="path3531"
         inkscape:connector-curvature="0" />
      <path
         style="fill:#a00a0a"
         d="m 804.9219,1757.3179 c -0.63498,-1.1865 -0.65269,-2.3906 -0.0487,-3.3108 0.80027,-1.2192 1.18374,-1.1386 2.4437,0.5135 0.82196,1.0777 1.34779,2.3996 1.1685,2.9375 -0.60477,1.8143 -2.55863,1.7374 -3.5635,-0.1402 z m 39.86252,-0.8958 c -1.77597,-1.025 -4.15361,-1.2731 -8.20977,-0.8569 -4.58703,0.4708 -6.72927,0.1474 -10.89454,-1.6444 -4.92584,-2.1191 -5.32902,-2.1476 -8.07349,-0.5725 -2.74298,1.5742 -2.97395,1.5583 -4.57771,-0.3147 -0.92893,-1.0849 -2.26396,-1.9726 -2.96673,-1.9726 -1.82688,0 -1.60377,-0.9221 1.20316,-4.9725 2.43506,-3.5138 2.46343,-3.7789 1.53523,-14.3437 -0.77594,-8.8317 -1.44559,-11.6538 -3.73091,-15.7227 -1.53188,-2.7275 -3.12274,-4.9595 -3.53524,-4.9601 -0.4125,-5e-4 -0.75,-1.126 -0.75,-2.501 0,-3.1534 2.73754,-3.3686 3.18045,-0.25 0.20602,1.4506 1.03011,2.271 2.31955,2.3091 3.10519,0.092 7.73277,2.3132 10.68507,5.1294 2.41424,2.3029 3.29545,2.5171 8.73631,2.1236 4.43433,-0.3208 6.67331,-1.0221 8.37937,-2.6249 2.39472,-2.2497 4.69925,-2.8799 4.69925,-1.285 0,0.4962 1.34802,1.3721 2.99561,1.9464 2.78651,0.9714 2.9201,1.24 1.9138,3.8478 -0.68664,1.7795 -0.83532,6.1595 -0.40702,11.9904 0.59244,8.0658 1.08162,9.8321 4.00863,14.4743 l 3.33385,5.2875 -3.37287,3.2757 c -1.85508,1.8016 -3.50767,3.2316 -3.67243,3.1776 -0.16477,-0.054 -1.42457,-0.7473 -2.79957,-1.5408 z m -9.81468,-10.1111 c 1.49801,-1.6095 2.82283,-4.501 3.19445,-6.9721 0.56291,-3.7431 0.35488,-4.4057 -1.83342,-5.8395 -1.3576,-0.8895 -2.72804,-2.4355 -3.04542,-3.4355 -1.24031,-3.9078 -7.78503,-3.0161 -9.41973,1.2835 -1.9576,5.1489 3.11837,17.7136 7.15604,17.7136 0.76372,0 2.54035,-1.2375 3.94808,-2.75 z m 35.81468,-9.4899 c 0,-1.9334 0.64264,-4.0485 1.42808,-4.7004 0.78544,-0.6519 6.29794,-1.8511 12.25,-2.665 32.14746,-4.3958 55.3437,-5.1756 85.32192,-2.8683 12.375,0.9524 27,1.9366 32.49998,2.187 5.5,0.2504 10.3946,0.8344 10.8768,1.2977 1.3675,1.3139 -0.1806,5.8136 -2.4108,7.0071 -1.9284,1.0321 -4.4898,0.8264 -44.80462,-3.5983 -9.58397,-1.0519 -52.45161,-0.6635 -60.66662,0.5497 -4.39711,0.6493 -11.38418,2.0313 -15.52683,3.0711 -4.14265,1.0398 -10.10515,2.193 -13.25,2.5626 l -5.71791,0.6721 0,-3.5153 z m -21.59265,-40.8625 c -4.22057,-4.6636 -13.19648,-6.5626 -23.81407,-5.038 -7.19523,1.0332 -13.17183,-0.2868 -15.18071,-3.3527 -0.79834,-1.2184 -2.3834,-6.8934 -3.52236,-12.6111 -1.13895,-5.7177 -2.43857,-12.1861 -2.88803,-14.3743 -0.58144,-2.8307 -0.41698,-4.706 0.57003,-6.5 3.72475,-6.7703 5.61786,-7.4282 9.9148,-3.446 2.49003,2.3077 3.31122,2.5083 7.89602,1.9287 2.81433,-0.3558 9.35932,-1.7756 14.54442,-3.1552 7.31985,-1.9476 9.94668,-2.2717 11.75,-1.4501 1.2774,0.582 2.34878,1.4054 2.38085,1.8297 0.0321,0.4243 0.18644,5.4964 0.34307,11.2714 0.21205,7.8185 1.00408,13.0538 3.10137,20.5 1.54912,5.5 2.78868,11.0713 2.75458,12.3806 -0.11251,4.3194 -4.69967,5.4981 -7.84997,2.017 z m -15.2388,-11.7867 c 5.8677,-0.336 10.97794,-0.9211 11.35607,-1.3003 0.88429,-0.8867 -1.50045,-21.7115 -2.77001,-24.1892 -1.03585,-2.0215 -1.16329,-2.02 -21.12051,0.2435 -10.57156,1.199 -10.60413,1.26 -8.03983,15.0572 1.82774,9.8341 3.55802,12.5359 7.36198,11.4954 1.39906,-0.3827 7.3446,-0.9706 13.2123,-1.3066 z m 58.37251,-17.0445 c -0.98027,-1.5861 0.0973,-5.562 2.03187,-7.4965 1.35659,-1.3566 5.63486,-1.5699 31.484,-1.5699 17.77291,0 38.74757,0.652 51.67857,1.6065 17.90221,1.3214 23.13528,1.3897 29.48888,0.3851 8.0814,-1.2777 12.791,-0.806 12.7534,1.2775 -0.012,0.677 -0.8895,2.3559 -1.9495,3.7309 l -1.9273,2.5 -21.80048,-0.127 c -11.99028,-0.07 -25.61369,-0.6324 -30.27427,-1.25 -10.32605,-1.3685 -44.90175,-1.4223 -54.52623,-0.085 -15.8057,2.1963 -16.22145,2.2215 -16.95894,1.0282 z m -80.17039,-37.7941 c -1.81585,-1.5114 -2.27257,-3.4561 -3.10229,-13.2097 l -0.97296,-11.4375 -3.64776,-3.0625 c -2.00626,-1.6844 -3.64773,-3.7659 -3.6477,-4.6255 2e-5,-0.8596 -1.34996,-2.8563 -2.99996,-4.4371 -1.65,-1.5808 -3,-3.5801 -3,-4.443 0,-2.809 5.41777,-4.3185 12.82851,-3.5742 8.28822,0.8323 18.13453,-0.8136 23.63438,-3.9509 4.02185,-2.2941 5.08598,-2.3325 9.20798,-0.3322 1.81751,0.8821 2.00344,1.421 1.14228,3.311 -0.71468,1.5686 -0.68542,3.8577 0.0959,7.5008 0.82453,3.8446 0.82826,5.6001 0.014,6.5813 -1.7835,2.1489 -0.0592,9.3682 2.94199,12.3177 1.68565,1.6565 2.63499,3.6703 2.63499,5.5895 0,2.5655 0.41874,3.0478 2.89149,3.3301 1.6409,0.1873 3.2448,-0.2416 3.70836,-0.9917 0.54676,-0.8846 1.14886,-0.9897 1.8209,-0.3177 1.59365,1.5937 -2.84985,9.4234 -5.76285,10.1545 -1.33622,0.3354 -6.85226,-0.2017 -12.25786,-1.1935 l -9.82838,-1.8034 -3.81068,2.6408 c -5.11281,3.5432 -9.17781,4.211 -11.89031,1.9532 z m 10.62933,-12.4122 c 0,-0.7794 1.68492,-0.966 5.327,-0.5901 l 5.327,0.5498 -0.46811,-5.1599 c -0.43799,-4.8278 -0.43755,-7.6837 0.002,-15.2111 0.32499,-5.5615 -0.58076,-6.4591 -6.40683,-6.3491 -2.90476,0.055 -6.40638,0.4108 -7.78138,0.791 -3.06588,0.8478 -3.84151,4.522 -1.50065,7.1086 1.28722,1.4223 1.4195,2.2838 0.58898,3.8357 -0.58909,1.1007 -0.79371,3.3881 -0.4547,5.0831 0.39629,1.9815 0.21468,3.0819 -0.50863,3.0819 -1.2065,0 -1.51485,3.8205 -0.51801,6.4182 0.69817,1.8194 6.39301,2.2131 6.39301,0.4419 z m 69.25,-11.5224 c -2.24534,-0.906 -1.33162,-4.2441 1.57283,-5.7461 1.55256,-0.8028 3.37691,-2.1273 4.05411,-2.9433 1.04376,-1.2577 5.9821,-1.4678 32.42717,-1.3796 17.92981,0.06 39.48828,-0.4912 50.69589,-1.2957 27.27628,-1.9578 28.43398,-1.9344 28.79398,0.5822 0.685,4.7878 -1.2135,5.1685 -35.29398,7.0772 -17.6,0.9857 -40.44394,1.6884 -50.76431,1.5616 -15.15948,-0.1863 -19.32835,0.061 -21.70034,1.2877 -2.866,1.4821 -7.27743,1.868 -9.78535,0.856 z m -41.25,-31.0307 c 0,-1.3367 2.20449,-3.307 3.7,-3.307 0.715,0 1.3,0.675 1.3,1.5 0,0.825 -0.4132,1.5 -0.91821,1.5 -0.50502,0 -1.63002,0.2731 -2.5,0.607 -0.86999,0.3338 -1.58179,0.1988 -1.58179,-0.3 z"
         id="path3529"
         inkscape:connector-curvature="0" />
      <path
         style="fill:#581313"
         d="m 825.59207,1753.8635 c -4.06281,-1.819 -5.27862,-1.8724 -8.84954,-0.3888 -1.01674,0.4224 -2.30327,-0.3893 -3.77743,-2.3832 -2.07911,-2.8121 -2.13072,-3.2264 -0.7375,-5.9206 1.2408,-2.3995 1.33848,-4.713 0.56885,-13.473 -0.51106,-5.8168 -1.62283,-11.9174 -2.47061,-13.5568 -2.01044,-3.8878 -1.94539,-4.7935 0.43574,-6.0679 2.40273,-1.2859 7.54266,0.6117 10.42783,3.8498 2.37126,2.6613 10.12218,2.9307 15.18588,0.5279 3.0072,-1.4271 3.80365,-1.4464 7.00248,-0.1706 l 3.60936,1.4396 0.31244,11.2723 c 0.29591,10.6759 0.48127,11.544 3.50294,16.4048 l 3.19049,5.1324 -3.24966,2.5061 c -2.86687,2.2108 -4.28785,2.5199 -12.06325,2.6239 -6.71685,0.09 -9.83048,-0.3374 -13.08802,-1.7959 z m 9.80009,-6.705 c 2.60414,-1.588 3.21639,-2.7141 3.77821,-6.9493 0.65704,-4.953 0.5832,-5.1453 -3.68633,-9.6012 -2.60469,-2.7184 -5.24831,-4.547 -6.57366,-4.547 -2.77562,0 -7.12596,4.2369 -7.12596,6.9402 0,4.7072 2.59467,11.3824 5.31368,13.6703 3.42318,2.8804 4.28594,2.9311 8.29406,0.487 z m 35.39226,-10.3374 c 0,-1.9334 0.64264,-4.0485 1.42808,-4.7004 0.78544,-0.6519 6.29794,-1.8511 12.25,-2.665 32.14746,-4.3958 55.3437,-5.1756 85.32192,-2.8683 12.375,0.9524 27,1.9366 32.49998,2.187 5.5,0.2504 10.3946,0.8344 10.8768,1.2977 1.3675,1.3139 -0.1806,5.8136 -2.4108,7.0071 -1.9284,1.0321 -4.4898,0.8264 -44.80462,-3.5983 -9.58397,-1.0519 -52.45161,-0.6635 -60.66662,0.5497 -4.39711,0.6493 -11.38418,2.0313 -15.52683,3.0711 -4.14265,1.0398 -10.10515,2.193 -13.25,2.5626 l -5.71791,0.6721 0,-3.5153 z m -21.59265,-40.8625 c -4.22057,-4.6636 -13.19648,-6.5626 -23.81407,-5.038 -7.19523,1.0332 -13.17183,-0.2868 -15.18071,-3.3527 -0.79834,-1.2184 -2.3834,-6.8934 -3.52236,-12.6111 -1.13895,-5.7177 -2.44711,-12.1958 -2.90702,-14.3958 -0.64246,-3.0733 -0.44778,-4.6706 0.84031,-6.8944 2.82407,-4.8757 4.65454,-5.4304 9.24216,-2.8008 4.71041,2.7 7.89922,2.4953 22.86179,-1.4674 7.31551,-1.9374 9.94775,-2.2597 11.75,-1.4385 1.2774,0.582 2.34878,1.4054 2.38085,1.8297 0.0321,0.4243 0.18644,5.4964 0.34307,11.2714 0.21205,7.8185 1.00408,13.0538 3.10137,20.5 1.54912,5.5 2.78868,11.0713 2.75458,12.3806 -0.11251,4.3194 -4.69967,5.4981 -7.84997,2.017 z m -15.2388,-11.7867 c 5.8677,-0.336 10.97794,-0.9211 11.35607,-1.3003 0.88429,-0.8867 -1.50045,-21.7115 -2.77001,-24.1892 -1.03585,-2.0215 -1.16329,-2.02 -21.12051,0.2435 -10.57156,1.199 -10.60413,1.26 -8.03983,15.0572 1.82774,9.8341 3.55802,12.5359 7.36198,11.4954 1.39906,-0.3827 7.3446,-0.9706 13.2123,-1.3066 z m 58.37251,-17.0445 c -0.98027,-1.5861 0.0973,-5.562 2.03187,-7.4965 1.35659,-1.3566 5.63486,-1.5699 31.484,-1.5699 17.77291,0 38.74757,0.652 51.67857,1.6065 17.90221,1.3214 23.13528,1.3897 29.48888,0.3851 8.0814,-1.2777 12.791,-0.806 12.7534,1.2775 -0.012,0.677 -0.8895,2.3559 -1.9495,3.7309 l -1.9273,2.5 -21.80048,-0.127 c -11.99028,-0.07 -25.61369,-0.6324 -30.27427,-1.25 -10.32605,-1.3685 -44.90175,-1.4223 -54.52623,-0.085 -15.8057,2.1963 -16.22145,2.2215 -16.95894,1.0282 z m -80.73429,-38.3164 c -1.14351,-0.9073 -1.83223,-4.2885 -2.51185,-12.3317 -0.81792,-9.68 -1.27525,-11.526 -3.61564,-14.5944 -1.4736,-1.932 -2.67928,-4.0314 -2.67928,-4.6654 0,-0.634 -1.575,-2.8961 -3.5,-5.0268 -1.925,-2.1308 -3.5,-4.306 -3.5,-4.8339 0,-2.3431 4.84724,-3.5161 11.68979,-2.829 8.33832,0.8374 18.44559,-0.7938 23.25506,-3.7531 5.54739,-3.4134 12.21633,-1.7539 9.95229,2.4765 -0.64452,1.2043 -0.78204,4.0083 -0.35043,7.145 0.39073,2.8395 0.81359,7.4812 0.93971,10.3148 0.14012,3.1481 1.04633,6.4739 2.32991,8.5508 1.28623,2.0812 1.8771,4.2535 1.52411,5.6034 -0.69536,2.659 1.18247,5.1938 3.84775,5.1938 1.06881,0 2.80015,0.4586 3.84743,1.0191 1.62161,0.8678 1.73479,1.3907 0.76282,3.5239 -1.62831,3.5738 -4.77088,3.9762 -15.68424,2.0086 l -9.6142,-1.7335 -5.77851,2.591 c -6.46658,2.8994 -8.61735,3.1636 -10.91472,1.3409 z m 23.31087,-12.8537 c -0.49261,-1.7989 -1.00373,-7.5753 -1.46038,-16.5041 -0.19993,-3.9094 -0.68117,-7.6219 -1.06941,-8.25 -0.76209,-1.2331 -9.47318,-1.3919 -13.58785,-0.2476 -2.46643,0.6859 -2.50242,0.849 -2.68017,12.1503 -0.0991,6.3003 0.0243,12.1813 0.27417,13.0689 0.38194,1.3567 1.92453,1.5792 9.68017,1.3964 7.34035,-0.1731 9.14769,-0.5029 8.84347,-1.6139 z m 57.13236,-10.5586 c -2.24534,-0.906 -1.33162,-4.2441 1.57283,-5.7461 1.55256,-0.8028 3.37691,-2.1273 4.05411,-2.9433 1.04376,-1.2577 5.9821,-1.4678 32.42717,-1.3796 17.92981,0.06 39.48828,-0.4912 50.69589,-1.2957 27.27628,-1.9578 28.43398,-1.9344 28.79398,0.5822 0.685,4.7878 -1.2135,5.1685 -35.29398,7.0772 -17.6,0.9857 -40.44394,1.6884 -50.76431,1.5616 -15.15948,-0.1863 -19.32835,0.061 -21.70034,1.2877 -2.866,1.4821 -7.27743,1.868 -9.78535,0.856 z"
         id="path3527"
         inkscape:connector-curvature="0" />
      <path
         style="fill:#0b0808"
         d="m 826.56899,1753.8532 c -2.34012,-1.0477 -5.71364,-1.7792 -7.49672,-1.6256 -1.78307,0.1536 -3.74846,-0.2272 -4.36751,-0.8463 -0.67416,-0.6741 -1.27431,-6.278 -1.49647,-13.9729 -0.204,-7.0661 -0.85669,-14.6474 -1.45043,-16.8474 -1.8623,-6.9004 -1.83599,-6.9735 2.62861,-7.3003 3.46808,-0.2538 4.36031,0.094 5.77306,2.25 1.50935,2.3036 2.30391,2.5503 8.21368,2.5503 3.59848,0 7.39703,-0.4572 8.44123,-1.0161 1.32175,-0.7073 3.08878,-0.6446 5.81633,0.2067 l 3.9178,1.2228 0.42551,11.0433 c 0.37589,9.7557 0.73942,11.5782 3.11792,15.6312 1.48083,2.5233 2.69242,4.8413 2.69242,5.1512 0,0.3098 -1.49132,1.4433 -3.31405,2.5187 -5.01135,2.9567 -17.36167,3.5146 -22.90138,1.0344 z m 11.13127,-6.6938 c 1.93527,-1.4878 2.47312,-2.9255 2.70382,-7.2278 0.24328,-4.5367 -0.0851,-5.7588 -2.11483,-7.8706 -1.32156,-1.375 -3.32578,-3.5125 -4.45383,-4.75 -4.02036,-4.4104 -11.44813,-1.9805 -12.5925,4.1195 -0.85259,4.5447 1.18464,11.5697 4.31529,14.8805 3.12798,3.3079 8.45812,3.6804 12.14205,0.8484 z m 33.82783,-7.6881 c -1.34547,-1.3454 -0.77654,-5.0723 1.00633,-6.5921 2.75123,-2.3453 29.58852,-5.8647 51.25,-6.7209 19.78205,-0.782 49.0109,0.098 63.409,1.9082 4.34996,0.5469 11.54996,1.0014 15.99998,1.0098 10.0652,0.019 11.7032,0.8262 9.5582,4.7096 -1.3269,2.4024 -2.233,2.8157 -6.7457,3.0772 -2.867,0.1662 -10.50227,-0.4053 -16.96715,-1.27 -34.89631,-4.6674 -77.84387,-4.2721 -98.53861,0.907 -12.03821,3.0127 -17.99732,3.946 -18.97205,2.9712 z m -22.8764,-44.3869 c -4.76167,-4.3526 -9.54398,-5.3704 -21.507,-4.5769 -7.78534,0.5163 -10.94007,0.3381 -13.58664,-0.7677 -3.77164,-1.5759 -4.12874,-2.4653 -7.29929,-18.1788 -2.9616,-14.678 -2.97389,-15.8077 -0.20697,-19.0244 l 2.48623,-2.8905 4.08294,1.8412 c 4.95029,2.2323 11.50618,1.7214 24.7826,-1.9314 7.98071,-2.1957 9.05051,-2.2861 11.10613,-0.9393 2.09508,1.3728 2.27426,2.2192 2.26883,10.7175 -0.005,7.0244 0.75376,12.2961 3.17663,22.0851 3.25872,13.166 3.19464,15.7318 -0.41064,16.4425 -0.83905,0.1654 -3.04082,-1.0843 -4.89282,-2.7773 z m -14.13145,-10.6567 c 12.03915,-0.7382 12.9905,-1.3701 11.46195,-7.6133 -0.57277,-2.3393 -1.35265,-7.2782 -1.73306,-10.9751 -0.3908,-3.798 -1.30527,-7.231 -2.10236,-7.8925 -0.97171,-0.8065 -3.65931,-0.9564 -8.63653,-0.4819 -12.97029,1.2365 -19.20366,2.1279 -20.47582,2.928 -1.6487,1.0369 -1.57886,5.7734 0.22407,15.1964 1.82628,9.5451 2.78289,10.8328 7.47034,10.0556 1.95557,-0.3242 8.16171,-0.872 13.79141,-1.2172 z m 58.26418,-19.7342 c 0,-6.3147 0.32182,-6.3672 38,-6.1994 18.425,0.082 41.71019,0.7813 51.74487,1.5539 14.94352,1.1505 19.60371,1.1764 25.75451,0.1429 7.4391,-1.25 11.5006,-0.9035 11.5006,0.9811 0,0.537 -1.1141,2.1778 -2.4758,3.6463 -2.3004,2.4809 -3.1791,2.6983 -12.4051,3.0689 -5.46111,0.2193 -18.54423,-0.364 -29.07359,-1.2963 -22.70295,-2.0101 -58.39363,-2.3099 -69.04549,-0.5799 -4.125,0.6699 -8.9625,1.4545 -10.75,1.7434 -3.16019,0.5109 -3.25,0.4263 -3.25,-3.0609 z m -81.74541,-36.8825 c -0.54466,-0.6875 -1.29953,-5.9229 -1.67747,-11.6342 -0.59913,-9.0537 -1.12265,-11.249 -4.08567,-17.1328 -1.86917,-3.7116 -4.65081,-7.6607 -6.18143,-8.7757 -2.73851,-1.9949 -2.75304,-2.0603 -0.91013,-4.0967 1.71033,-1.8899 2.62022,-2.0168 10.48647,-1.4625 9.92873,0.6995 18.73263,-0.774 22.5459,-3.7735 1.52701,-1.2011 3.66227,-1.8813 5.31077,-1.6917 2.37438,0.2731 2.73238,0.7334 2.57979,3.3171 -0.27986,4.7388 1.76809,20.5606 3.29139,25.4281 0.76218,2.4355 1.39268,5.5855 1.4011,7 0.0221,3.7138 1.27894,5.1807 5.10542,5.9588 2.41731,0.4915 3.46771,1.2979 3.68995,2.8325 0.55149,3.8081 -2.80613,4.5899 -12.17367,2.8345 -10.8938,-2.0413 -14.52169,-1.9609 -20.13701,0.4461 -5.38846,2.3098 -7.85142,2.5096 -9.24541,0.75 z m 25.28579,-9.9569 c 0.38868,-0.3888 0.37815,-1.5138 -0.0234,-2.5 -0.40156,-0.9862 -0.86608,-3.3681 -1.03227,-5.2931 -1.71574,-19.8738 -2.44188,-21.2345 -10.84373,-20.3209 -9.14989,0.9949 -9.4491,1.4662 -9.28398,14.6208 0.0911,7.2607 0.58298,11.9239 1.35584,12.8547 0.90566,1.0908 3.4805,1.4461 10.16684,1.4031 4.92472,-0.032 9.27204,-0.3758 9.66072,-0.7646 z m 56.20962,-12.8732 c -1.82657,-1.0639 -2.42892,-3.9199 -0.82673,-3.9199 0.50781,0 2.38225,-1.2276 4.16544,-2.7281 l 3.24217,-2.7281 37.58456,-0.1281 c 32.61387,-0.1112 54.20835,-1.0536 67.08454,-2.9275 4.8899,-0.7117 6.7192,0.638 5.2461,3.871 -0.8783,1.9278 -2.1281,2.6365 -5.4431,3.0867 -8.43072,1.1449 -63.21274,3.5547 -81.60044,3.5895 -14.3277,0.027 -19.28733,0.3698 -21.20254,1.4646 -2.94896,1.6858 -5.82527,1.8322 -8.25,0.4199 z"
         id="path3525"
         inkscape:connector-curvature="0" />
    </g>
  </g>
</svg>
