<?xml version="1.0" encoding="UTF-8" standalone="no"?>
<!-- Created with Inkscape (http://www.inkscape.org/) -->

<svg
   xmlns:dc="http://purl.org/dc/elements/1.1/"
   xmlns:cc="http://creativecommons.org/ns#"
   xmlns:rdf="http://www.w3.org/1999/02/22-rdf-syntax-ns#"
   xmlns:svg="http://www.w3.org/2000/svg"
   xmlns="http://www.w3.org/2000/svg"
   xmlns:sodipodi="http://sodipodi.sourceforge.net/DTD/sodipodi-0.dtd"
   xmlns:inkscape="http://www.inkscape.org/namespaces/inkscape"
   width="448.76578"
   height="184.16624"
   id="svg2"
   version="1.1"
   inkscape:version="0.48.5 r10040">
  <defs
     id="defs4">
    <clipPath
       clipPathUnits="userSpaceOnUse"
       id="clipPath4470">
      <rect
         style="fill:#000000;fill-opacity:1;stroke:#000000;stroke-width:1.50743604;stroke-miterlimit:4;stroke-opacity:1;stroke-dasharray:none"
         id="rect4472"
         width="513.16364"
         height="322.06415"
         x="482.71091"
         y="1466.4425" />
    </clipPath>
  </defs>
  <sodipodi:namedview
     id="base"
     pagecolor="#ffffff"
     bordercolor="#666666"
     borderopacity="1.0"
     inkscape:pageopacity="0.0"
     inkscape:pageshadow="2"
     inkscape:zoom="1.2276786"
     inkscape:cx="113.30047"
     inkscape:cy="113.79421"
     inkscape:document-units="px"
     inkscape:current-layer="layer1"
     showgrid="false"
     inkscape:window-width="1366"
     inkscape:window-height="718"
     inkscape:window-x="0"
     inkscape:window-y="0"
     inkscape:window-maximized="1"
     fit-margin-top="0"
     fit-margin-left="0"
     fit-margin-right="0"
     fit-margin-bottom="0" />
  <metadata
     id="metadata7">
    <rdf:RDF>
      <cc:Work
         rdf:about="">
        <dc:format>image/svg+xml</dc:format>
        <dc:type
           rdf:resource="http://purl.org/dc/dcmitype/StillImage" />
        <dc:title></dc:title>
      </cc:Work>
    </rdf:RDF>
  </metadata>
  <g
     inkscape:label="Layer 1"
     inkscape:groupmode="layer"
     id="layer1"
     transform="translate(-632.72132,-1627.4274)">
    <g
       id="g4517"
       transform="translate(26,-2)">
      <path
         style="fill:#f8a2a2"
         d="m 796.94613,1811.4303 c -2.46466,-1.8397 -5.02837,-2.5728 -10.6632,-3.0491 -11.29403,-0.9547 -17.45224,-3.369 -21.06719,-8.2592 -3.63662,-4.9195 -9.25801,-8.9056 -12.07836,-8.5647 -1.12945,0.1365 -2.8763,-0.6609 -3.88189,-1.7721 -3.48853,-3.8547 0.32103,-15.7373 7.56491,-23.5959 12.3784,-13.429 46.54938,-29.4201 69.37052,-32.4635 6.91852,-0.9226 21.07581,-0.9497 61.21385,-0.1171 34.51999,0.7161 53.09534,0.7481 54.8151,0.094 4.60042,-1.749 9.10538,-1.1675 12.39432,1.5999 3.64945,3.0709 3.73505,4.0101 0.95459,10.4734 -2.02408,4.7051 -2.0883,5.8803 -1.39005,25.4335 l 0.73207,20.5005 2.60373,1.2519 c 5.693,2.7372 6.51466,8.9219 1.8983,14.2888 l -2.26381,2.6318 -17.97905,0.069 c -10.12408,0.039 -20.38198,-0.4384 -23.47905,-1.0926 -6.06647,-1.2814 -5.69405,-1.2747 -49,-0.8818 -35.80059,0.3248 -54.84233,1.434 -57.02612,3.3219 -0.83937,0.7256 -3.31437,1.5969 -5.5,1.9361 -3.24224,0.5033 -4.57129,0.1709 -7.21867,-1.8052 z m 142.4191,-15.8646 4.55995,-1.1482 -0.70849,-21.6018 c -0.50756,-15.4755 -1.075,-21.9841 -2.00084,-22.9498 -2.03061,-2.118 -15.85718,-3.241 -44.02493,-3.5757 -14.3,-0.1699 -33.65,-0.6551 -43,-1.0783 -20.91108,-0.9463 -29.90639,0.128 -45.5,5.4338 -12.64186,4.3014 -19.40955,7.0019 -18.85809,7.525 0.19695,0.1868 3.46477,2.4169 7.26181,4.9557 6.52123,4.3603 7.03177,4.5322 9.21482,3.1018 3.25339,-2.1317 5.54425,-1.9032 11.83136,1.1803 3.02182,1.4821 5.77141,2.4174 6.11021,2.0786 0.3388,-0.3388 -0.2971,-1.8888 -1.41312,-3.4446 -3.33397,-4.6476 -3.19245,-7.9327 0.53244,-12.3595 2.37079,-2.8175 3.12432,-3.1246 6.54151,-2.6663 4.35555,0.5842 9.7001,4.4192 24.98869,17.9308 5.45567,4.8215 10.27376,8.7664 10.70686,8.7664 0.43311,0 1.04801,-4.0215 1.36645,-8.9368 0.6149,-9.491 1.44092,-11.9328 5.51441,-16.3007 5.05583,-5.4214 11.71826,-4.4716 20.13593,2.8706 6.13374,5.3501 23.29525,17.3566 24.81672,17.3623 0.6875,0 1.25,-0.7154 1.25,-1.5954 0,-0.88 1.53,-3.13 3.4,-5 2.72294,-2.7229 4.1893,-3.4 7.36364,-3.4 7.35125,0 11.58295,7.2048 7.58456,12.9133 -1.4105,2.0137 -1.46961,2.8621 -0.40461,5.8073 2.41721,6.6846 -1.50873,14.2794 -7.38143,14.2794 -2.75822,0 -31.08991,-17.9763 -45.15655,-28.6516 -1.70192,-1.2916 -3.83942,-2.3484 -4.75,-2.3484 -2.83558,0 -2.05394,9.1413 1.75288,20.5 3.26513,9.7424 3.42541,9.993 6.22149,9.7283 7.28563,-0.6898 29.23087,-0.2918 32.37002,0.5871 4.91572,1.3762 14.2845,1.3936 19.67431,0.036 z M 812.11501,1793.63 c -2.22427,-2.4578 -20.87677,-17.9857 -23.27182,-19.3734 -0.90875,-0.5266 -3.90227,-1.688 -6.65227,-2.581 -3.13964,-1.0195 -5.36728,-2.4306 -5.98713,-3.7926 -1.24804,-2.7424 -1.76685,-2.7171 -5.20711,0.2541 l -2.80576,2.4233 2.75509,1.0539 c 1.51529,0.5797 7.73751,5.6767 13.82715,11.3268 6.08965,5.65 12.04986,10.8287 13.24492,11.5081 1.19506,0.6794 5.28008,1.2419 9.07783,1.25 l 6.90499,0.015 -1.88589,-2.0839 z m 39.57591,1.0467 11.5,-0.051 -6.38654,-5.9557 c -3.5126,-3.2756 -6.76906,-5.9557 -7.23658,-5.9557 -0.46752,0 -1.46897,1.4625 -2.22544,3.25 -0.75648,1.7875 -2.35733,4.1252 -3.55746,5.1948 -1.9661,1.7524 -2.5983,1.8208 -6.38801,0.6908 -8.25582,-2.4617 -8.23606,-2.4624 -9.50946,0.3324 -0.65808,1.4444 -1.19651,2.895 -1.19651,3.2237 0,0.3286 3.0375,0.3106 6.75,-0.04 3.7125,-0.3507 11.925,-0.6607 18.25,-0.6889 z m 172.49998,9.3504 c -17.618,-4.0064 -35.58729,-8.8141 -39.07977,-10.4557 -3.24876,-1.5271 -4.42021,-2.6581 -4.42021,-4.2676 0,-5.5728 5.59377,-5.9009 26.12818,-1.5325 8.8497,1.8826 18.9016,3.2808 26.161,3.6388 10.3331,0.5097 11.9183,0.8229 12.835,2.5358 1.323,2.4721 0.4013,6.2425 -2.1496,8.7934 -1.6511,1.6511 -3.2443,1.9556 -9.7246,1.8586 -4.2625,-0.064 -8.65,-0.3207 -9.75,-0.5708 z m 14.5,-21.2593 c -1.925,-0.449 -10.475,-1.5636 -19,-2.477 -25.77621,-2.7617 -32.18234,-3.877 -33.38961,-5.813 -0.85735,-1.3749 -0.61204,-2.2071 1.179,-4 2.01394,-2.016 3.43602,-2.3023 12.98611,-2.6147 12.1375,-0.3969 48.0709,2.5381 49.9745,4.0819 1.808,1.4663 1.5343,6.205 -0.5,8.6551 -2.0584,2.4793 -6.3601,3.3082 -11.25,2.1677 z m -3,-22.1866 c -3.575,-0.4835 -16.85,-1.2453 -29.5,-1.6928 -23.04203,-0.8152 -27.49998,-1.5749 -27.49998,-4.6866 0,-4.9254 14.792,-6.9751 43.99998,-6.097 27.6713,0.8318 30.8825,1.257 32.2557,4.2708 0.8495,1.8646 0.7247,3.1563 -0.5669,5.8648 -1.5956,3.3461 -1.8496,3.4688 -6.9226,3.3467 -2.8964,-0.07 -8.1912,-0.5224 -11.7662,-1.0059 z m -316.10191,-49.8136 c -6.94027,-0.3312 -12.19652,-1.049 -13.08173,-1.7865 -2.80802,-2.3393 -6.10211,-16.074 -9.41777,-39.2672 -1.8778,-13.1353 -1.3485,-27.5854 1.24814,-34.0751 2.51058,-6.2745 4.58414,-6.8623 20.35329,-5.7695 7.425,0.5145 44.775,1.0612 83,1.2149 l 69.5,0.2793 11,2.7614 c 19.32668,4.8518 30.65008,12.9828 37.49985,26.9276 5.71958,11.6439 5.99648,13.9283 2.12654,17.5433 -2.56479,2.3959 -3.01243,3.4379 -2.52467,5.8767 0.75789,3.7895 -1.21145,7.5508 -6.77151,12.9333 -5.18676,5.0211 -8.26474,6.305 -15.14531,6.3175 -5.34056,0.01 -20.30104,2.7396 -31.07171,5.6699 -8.03662,2.1864 -32.6681,2.3676 -45.11319,0.3319 -11.1396,-1.8222 -52.65234,-1.9878 -66.5,-0.2653 -13.16964,1.6382 -21.59839,1.9522 -35.10193,1.3078 z m 136.10193,-11.1152 c 5.63882,-0.9078 22.04585,-4.6333 35.75,-8.1178 4.18882,-1.0651 5.21054,-2.109 3.25,-3.3207 -1.7066,-1.0547 -1.10093,-5.3991 1.05302,-7.553 l 2.05301,-2.053 -4.96387,-5.697 c -11.98331,-13.7531 -14.53026,-14.8118 -15.65073,-6.5052 -1.66669,12.356 -6.29375,21.3082 -11.01338,21.3082 -3.58496,0 -9.10825,-3.6977 -17.6142,-11.7922 -4.87512,-4.6393 -8.86385,-7.9245 -8.86385,-7.3004 0,0.6241 0.96783,4.4244 2.15073,8.4451 1.24002,4.2148 1.88438,8.3715 1.52173,9.8164 -1.0157,4.0469 -4.55095,7.8311 -7.31585,7.8311 -3.42873,0 -12.31108,-6.6236 -28.77619,-21.4586 -17.72919,-15.9738 -19.41343,-16.3376 -8.39721,-1.8135 5.5388,7.3025 6.27185,10.4025 3.47081,14.6774 -2.62751,4.0101 -6.21519,4.3893 -9.72381,1.0278 l -2.93963,-2.8163 -3.47027,3.3635 c -4.51682,4.3779 -3.22608,5.0452 -29.94493,-15.4803 -6.44362,-4.95 -14.72161,-11.1607 -18.39553,-13.8015 -12.53366,-9.0092 -14.03053,-10.4622 -14.36619,-13.9445 l -0.31366,-3.254 -6.59261,-0.2921 c -8.80465,-0.3901 -9.43512,0.4584 -9.06291,12.1971 0.14855,4.685 0.23752,4.8308 1.98426,3.25 3.62058,-3.2766 6.58086,-1.9928 21.54929,9.345 4.71978,3.575 10.36585,7.7156 12.54681,9.2014 2.18097,1.4858 4.72274,3.8573 5.64837,5.27 1.50069,2.2903 1.52966,2.9714 0.26748,6.2876 -0.91093,2.3934 -2.33925,4.044 -4.00694,4.6305 -2.29797,0.8082 -3.41886,0.2149 -9.89815,-5.2391 -10.55351,-8.8834 -11.26002,-8.424 -4.45227,2.8952 2.46583,4.0999 4.49083,8.0846 4.5,8.8549 0.014,1.1806 2.64721,1.2591 16.76667,0.5 24.82981,-1.3349 65.95495,-0.8583 76.75,0.8895 11.23143,1.8184 18.1769,1.9884 26.5,0.6485 z m -136,-2.7423 c 0,-1.2069 -6.54815,-7.3147 -7.17258,-6.6903 -1.36919,1.3692 0.58245,5.4705 3.03008,6.3677 3.40614,1.2484 4.1425,1.3057 4.1425,0.3226 z m 187.45594,-21.8766 c 5.25208,-2.5045 5.40685,-4.6632 0.80297,-11.1996 -3.77561,-5.3605 -13.26238,-14.12 -15.29231,-14.12 -0.52717,0 1.28425,2.7832 4.02536,6.1849 2.74112,3.4017 5.71321,8.0947 6.60465,10.4289 1.46418,3.8339 1.47276,4.5408 0.0887,7.3151 -1.75405,3.5161 -1.152,3.7381 3.77059,1.3907 z m -195.45594,-3.6285 c 0,-0.7198 -0.66069,-2.1823 -1.4682,-3.25 -1.38877,-1.8361 -1.46991,-1.7653 -1.5,1.3089 -0.0219,2.2364 0.43604,3.25 1.4682,3.25 0.825,0 1.5,-0.589 1.5,-1.3089 z m 114.37576,-8.8813 c -1.80328,-10.1773 -1.45511,-13.7305 1.64968,-16.8352 4.02883,-4.0289 6.21886,-2.8294 21.13638,11.5764 7.71781,7.453 14.54476,13.3801 15.17101,13.1714 0.62626,-0.2088 1.45103,-2.2094 1.83283,-4.4459 1.36865,-8.0173 9.02669,-19.2765 13.11107,-19.2765 0.73755,0 0.78498,-0.3383 0.13813,-0.9851 -2.29578,-2.2958 -14.10296,-3.1157 -50.41486,-3.5008 -36.43737,-0.3864 -38.3688,-0.3174 -36.05101,1.2888 5.10129,3.5351 14.14006,11.017 24.09022,19.9408 5.66875,5.084 10.46604,9.0844 10.66065,8.8898 0.1946,-0.1946 -0.40124,-4.6153 -1.3241,-9.8237 z m -68.10332,-7.1906 c -1.03,-1.3094 -3.9439,-4.6844 -6.47534,-7.5 -4.20297,-4.6747 -4.9801,-5.1182 -8.94986,-5.1081 l -4.34724,0.011 3.46523,2.7389 c 6.0672,4.7955 16.50518,12.1205 17.35735,12.1807 0.45242,0.032 -0.0201,-1.0132 -1.05014,-2.3226 z m 20.6,-11.978 c 1.16326,-1.391 1.16326,-1.6601 0,-1.7653 -2.18604,-0.1976 -12.34121,0.2949 -12.67986,0.615 -0.16908,0.1598 1.85592,2.3457 4.5,4.8574 l 4.80742,4.5668 1,-3.3163 c 0.55,-1.824 1.6176,-4.0549 2.37244,-4.9576 z m -133.87244,60.8008 c -6.875,-0.7113 -15.875,-1.3293 -20,-1.3732 -10.37361,-0.1106 -14.81089,-1.4671 -15.64296,-4.7824 -0.51196,-2.0398 -0.12414,-3.0617 1.74221,-4.591 2.2837,-1.8712 3.32708,-1.9271 21.40075,-1.1477 10.45,0.4507 27.19803,0.8947 37.21784,0.9867 19.33983,0.1776 21.28216,0.6297 21.28216,4.9532 0,1.2335 -0.93266,3.4284 -2.07258,4.8775 l -2.07258,2.6349 -14.67742,-0.1323 c -8.07258,-0.073 -20.30242,-0.7144 -27.17742,-1.4257 z m -16.16378,-22.3813 c -13.55176,-0.5145 -15.951,-0.8546 -17.79402,-2.5225 -1.17163,-1.0603 -1.99793,-2.8527 -1.83622,-3.983 0.54607,-3.817 5.44044,-4.4386 35.42158,-4.4988 23.85569,-0.048 28.31701,0.1719 29.375,1.4467 1.79149,2.1586 1.53645,6.2438 -0.53255,8.53 -1.62,1.7901 -3.00191,1.9514 -15.375,1.7946 -7.47725,-0.095 -20.64371,-0.4399 -29.25879,-0.767 z m 0.0638,-22.0173 c -19.16937,-0.56 -21.94118,-1.1831 -21.86824,-4.9158 0.0175,-0.8952 0.71307,-2.5276 1.54572,-3.6276 1.45362,-1.9203 2.81661,-2.0085 34.2182,-2.2133 17.98736,-0.1174 34.48585,-0.3424 36.66332,-0.5 3.31706,-0.2402 4.15288,0.098 5.15446,2.0881 1.46038,2.9013 0.072,7.688 -2.65294,9.1463 -1.86643,0.9989 -19.37723,1.0062 -53.06051,0.022 z"
         id="path4531"
         inkscape:connector-curvature="0" />
      <path
         style="fill:#a4a1a1"
         d="m 797.56376,1811.3756 c -2.08162,-1.8655 -4.16258,-2.4706 -10.02134,-2.9137 -4.0668,-0.3075 -10.01205,-1.3202 -13.21166,-2.2504 -4.90551,-1.426 -6.30684,-2.3854 -8.93903,-6.1197 -3.38259,-4.7989 -8.80602,-8.6077 -12.55903,-8.82 -5.75055,-0.3253 -6.25613,-7.2385 -1.27912,-17.4905 3.16594,-6.5215 13.08447,-15.4055 24.45082,-21.9006 9.93531,-5.6774 30.00358,-13.7813 40.68652,-16.43 9.56723,-2.372 16.60349,-2.5244 86.5,-1.8738 21.45,0.1997 40.89191,0.042 43.20425,-0.3507 3.42773,-0.5818 4.75587,-0.3209 7.19086,1.413 4.13805,2.9466 4.57735,5.2303 2.07704,10.7976 -2.05553,4.577 -2.11646,5.6599 -1.45422,25.8473 l 0.6912,21.0703 2.87353,1.0846 c 5.4743,2.0663 6.25392,8.5117 1.6602,13.7257 -2.23647,2.5384 -2.29418,2.5461 -20.24286,2.6951 -10.87473,0.09 -20.26153,-0.3299 -23.71313,-1.0615 -3.14221,-0.666 -8.54221,-1.1911 -12,-1.167 -71.34116,0.4984 -92.05045,1.2917 -94.78687,3.631 -0.825,0.7053 -3.075,1.5491 -5,1.8751 -2.7879,0.4721 -4.03452,0.1136 -6.12716,-1.7618 z m 137.72794,-14.579 c 1.59457,-0.5045 4.19325,-1.2023 5.77484,-1.5506 l 2.87563,-0.6333 -0.71772,-22.1994 c -0.39474,-12.2097 -1.03781,-22.5384 -1.42903,-22.9528 -1.50734,-1.5965 -18.49685,-2.8699 -42.54394,-3.1886 -13.78331,-0.1827 -33.38556,-0.6702 -43.56056,-1.0835 -22.06619,-0.8961 -31.50597,0.1258 -45.60799,4.9372 -13.52319,4.6139 -21.4047,7.7467 -21.3269,8.4771 0.0895,0.84 14.49508,10.1112 15.71086,10.1112 0.53853,0 1.53934,-0.675 2.22403,-1.5 1.87872,-2.2637 5.42135,-1.8209 12,1.5 8.72049,4.4021 10.27439,3.6707 5.5,-2.5889 -3.19068,-4.1832 -3.20762,-8.3555 -0.0478,-11.7651 4.99775,-5.3926 7.81249,-3.9255 30.94833,16.1314 5.88589,5.1026 11.06549,9.0526 11.51023,8.7777 0.44474,-0.2748 1.03429,-4.4577 1.31012,-9.2952 0.61609,-10.8053 2.99913,-16.1874 8.27606,-18.6914 4.74662,-2.2525 8.29165,-1.3844 13.68569,3.3511 4.74918,4.1693 25.19292,18.9036 27.40818,19.7536 0.79706,0.3059 1.64841,-0.2582 1.99139,-1.3194 2.85777,-8.8425 11.78741,-12.5132 16.34517,-6.7189 2.51297,3.1947 2.61385,5.6402 0.38807,9.4082 -1.38441,2.3436 -1.47348,3.3147 -0.5,5.4513 0.65153,1.4298 1.18456,3.4574 1.18456,4.5056 0,5.296 -4.9917,9.7674 -9.36491,8.3888 -1.99504,-0.629 -23.74466,-14.7448 -40.52856,-26.3037 -8.7052,-5.9952 -10.10653,-5.6794 -10.10653,2.2778 0,3.9652 4.99395,23.1265 6.64743,25.5055 0.14083,0.2026 4.77947,-0.1857 10.30808,-0.8629 8.6281,-1.057 11.85762,-0.9927 22.79826,0.4538 11.88952,1.572 15.59932,2.1396 15.84701,2.4247 0.0554,0.064 1.40542,-0.2968 3,-0.8013 z m -119.60078,-0.9918 c 0,-0.9445 -19.99492,-18.005 -25.82772,-22.0373 -1.83025,-1.2653 -5.43025,-2.8348 -8,-3.4879 -3.58306,-0.9106 -4.74677,-1.6978 -4.99183,-3.3766 -0.40441,-2.7704 -0.56284,-2.7535 -5.24932,0.5609 -4.60122,3.2541 -4.78373,3.9753 -1.33755,5.2856 1.42647,0.5423 8.01424,5.7943 14.63949,11.6711 l 12.0459,10.6851 7.11051,0.6575 c 10.9455,1.012 11.61052,1.0144 11.61052,0.042 z m 31.1047,-0.9528 18.07902,-0.6381 -7.65287,-6.75 c -4.20908,-3.7125 -8.05807,-6.75 -8.55332,-6.75 -0.49524,0 -1.38546,1.8012 -1.97825,4.0027 -0.64065,2.3792 -2.10886,4.6782 -3.61987,5.6683 -2.37253,1.5545 -2.85344,1.554 -7.21074,-0.01 -6.54207,-2.3447 -7.80779,-2.1374 -9.07084,1.4858 -1.45759,4.1813 -1.3868,4.8989 0.41501,4.2075 0.83206,-0.3193 9.6484,-0.8676 19.59186,-1.2186 z m 179.39528,9.3955 c -0.55,-0.1697 -3.7,-0.8789 -7,-1.5761 -24.67355,-5.2129 -37.67663,-9.7094 -38.33256,-13.2555 -0.94973,-5.1347 5.37474,-5.9414 20.83256,-2.6575 16.5446,3.5148 26.2712,4.9201 34.1786,4.938 7.8794,0.018 10.8214,1.279 10.8214,4.6386 0,2.3461 -2.7717,7.0773 -4.5448,7.7577 -1.6144,0.6196 -14.0574,0.7403 -15.9552,0.1548 z m 16.3875,-20.9794 c -0.2452,-0.2452 -8.7577,-1.3835 -18.9166,-2.5295 -32.81956,-3.7024 -35.43436,-4.0986 -36.95393,-5.5984 -1.12051,-1.106 -1.21874,-1.887 -0.40184,-3.1951 2.0111,-3.2202 5.66742,-4.2014 15.71177,-4.2165 12.0629,-0.018 44.3431,2.7025 47.4231,3.9969 2.265,0.9518 2.9387,4.0303 1.6288,7.4436 -0.9243,2.4087 -7.1677,5.4226 -8.4913,4.099 z m -11.3875,-23.1086 c -6.05,-0.6918 -18.425,-1.3346 -27.5,-1.4286 -17.46507,-0.1807 -24.25003,-1.3613 -24.81957,-4.3187 -0.24185,-1.2559 1.01205,-2.3443 4.49204,-3.8994 4.47368,-1.9991 6.51352,-2.1625 27.82753,-2.2281 12.65,-0.039 27.3317,0.3045 32.626,0.7632 8.5777,0.7432 9.7599,1.0842 10.8552,3.1309 1.3512,2.5247 0.7113,5.6997 -1.6181,8.0292 -1.7651,1.7651 -6.0868,1.7555 -21.8631,-0.049 z m -308.99998,-49.1922 c -6.05,-0.1356 -12.04042,-0.4887 -13.31205,-0.7846 -2.68314,-0.6244 -7.16254,-9.2513 -7.17818,-13.8245 -0.005,-1.5706 -0.64995,-5.3956 -1.43239,-8.5 -4.60395,-18.2665 -5.44427,-40.6934 -1.92938,-51.4925 2.22828,-6.8462 4.64786,-7.6764 18.852,-6.4685 6.05,0.5145 43.175,1.0496 82.5,1.189 l 71.5,0.2535 10.5,2.7155 c 13.82485,3.5754 21.9156,7.7584 29.31947,15.1587 6.0214,6.0185 11.74356,16.1059 13.18105,23.2365 0.55787,2.7673 0.2045,3.6457 -2.43731,6.0586 -2.60688,2.381 -2.99168,3.3125 -2.46211,5.9604 0.74162,3.7081 -1.49144,7.8245 -7.28813,13.435 -4.6828,4.5323 -7.90879,5.8095 -14.67401,5.8095 -2.87697,0 -11.73517,1.3913 -19.6849,3.0919 -7.94973,1.7005 -18.68239,3.5781 -23.85034,4.1723 -9.45229,1.0868 -10.00247,1.0569 -44.10372,-2.4001 -11.63088,-1.1791 -44.00452,-0.5915 -56.5,1.0255 -10.43853,1.3508 -17.57533,1.6648 -31,1.3638 z m 149.5,-14.6101 c 7.975,-1.9392 16.10419,-3.8116 18.06486,-4.1611 5.55886,-0.9907 6.09793,-1.5907 4.7168,-5.2497 -1.07425,-2.846 -0.95351,-3.4207 1.20035,-5.7134 1.31711,-1.4019 5.05448,-3.5188 8.30529,-4.7041 8.1536,-2.973 9.01525,-5.1101 4.744,-11.7662 -4.60646,-7.1786 -11.97168,-13.4119 -19.32599,-16.3561 -12.20144,-4.8845 -19.96709,-5.8447 -50.36475,-6.2269 -15.48769,-0.1948 -33.71269,-0.6188 -40.5,-0.9423 l -12.34056,-0.5881 5.64062,3.7859 c 3.10234,2.0822 12.23333,9.5217 20.29108,16.5323 14.51681,12.6301 18.48732,15.0623 17.13532,10.4964 -1.72999,-5.8425 -3.55006,-18.5367 -3.01075,-20.9988 0.67049,-3.061 3.86584,-5.7512 6.83105,-5.7512 1.14371,0 6.48318,4.5673 12.98637,11.1084 12.87755,12.9526 17.03624,16.332 19.1161,15.5339 0.90304,-0.3465 1.51021,-1.8413 1.51021,-3.7179 0,-4.1758 5.391,-15.3002 8.66118,-17.8725 3.04747,-2.3972 8.2515,-2.6655 12.19035,-0.6287 1.51371,0.7828 4.54018,3.3703 6.72548,5.75 8.55153,9.3124 10.72251,15.9717 6.56292,20.1313 l -2.1683,2.1683 -8.23582,-8.7413 c -10.83931,-11.5046 -12.897,-11.448 -14.83819,0.4076 -0.57283,3.4985 -1.53089,7.7109 -2.12904,9.3609 -1.38474,3.8198 -5.65739,8.5 -7.75989,8.5 -2.6754,0 -10.0196,-5.2693 -18.80017,-13.4888 -4.56032,-4.2688 -8.56402,-7.489 -8.89712,-7.1559 -0.33309,0.3331 0.35315,3.5262 1.52499,7.0959 3.65457,11.1326 3.75372,13.694 0.67181,17.3567 -1.4773,1.7557 -3.46678,3.1921 -4.42107,3.1921 -2.63297,0 -9.51068,-5.2624 -26.21107,-20.0549 -16.8231,-14.9013 -18.73585,-16.4186 -19.60317,-15.5513 -0.94419,0.9442 1.07669,4.521 7.12071,12.6033 6.44846,8.6231 7.14681,12.2071 3.11629,15.9936 -2.15068,2.0205 -2.83606,2.1817 -5.02806,1.183 -1.39588,-0.636 -2.79848,-1.8353 -3.11688,-2.665 -0.88939,-2.3178 -3.94908,-1.7923 -5.77299,0.9913 -0.96677,1.4755 -2.58715,2.5 -3.95398,2.5 -2.21261,0 -3.71168,-0.9407 -14.43634,-9.059 -16.00154,-12.1129 -32.32767,-24.3379 -36.20164,-27.1078 -5.88677,-4.2091 -7,-5.6442 -7,-9.0243 l 0,-2.8089 -7.25,0.015 c -7.94443,0.017 -9.16626,0.4567 -9.95469,3.584 -0.76169,3.0213 0.91918,28.5152 1.94788,29.5439 0.48574,0.4857 1.68374,0.2651 2.73514,-0.5037 1.80569,-1.3203 1.7777,-1.5269 -0.80375,-5.9318 -3.16297,-5.3972 -3.2791,-6.7396 -0.8433,-9.7477 2.62594,-3.2429 5.14643,-2.265 16.20745,6.2881 5.2037,4.0238 11.03627,8.2935 12.96127,9.4881 8.66387,5.3766 11.34633,11.0136 7.34501,15.4351 -2.3893,2.6401 -3.87147,2.2972 -8.61735,-1.9936 -4.94811,-4.4736 -11.13571,-9.1777 -12.07205,-9.1777 -1.5637,0 -0.37811,3.9356 2.86184,9.5 1.92149,3.3 4.00813,7.3034 4.63699,8.8966 l 1.14339,2.8965 18.10108,-0.8965 c 27.19876,-1.3472 64.35083,-0.8764 75.10109,0.9516 13.53492,2.3015 26.13151,1.5183 43.5,-2.7049 z m -150,1.5691 c 0,-0.4332 -2.25,-3.0038 -5,-5.7124 -5.09354,-5.0169 -5.98552,-4.7765 -4.38736,1.1825 0.69864,2.605 9.38736,6.7978 9.38736,4.5299 z m 40.37168,-39.1603 c -0.95777,-1.6214 -4.69571,-6.0779 -8.30654,-9.9033 l -6.56514,-6.9554 -5.43034,0.6533 -5.43034,0.6533 9.43034,6.7181 c 5.18669,3.695 10.78034,7.8413 12.43034,9.2141 4.2644,3.5478 6.08631,3.3689 3.87168,-0.3801 z m 15.69077,-9.8475 c 0.30934,-2.273 1.42795,-5.089 2.48579,-6.2579 l 1.92335,-2.1253 -8.48579,0.7176 c -4.66719,0.3947 -8.68443,0.896 -8.92721,1.114 -0.75509,0.6782 10.33072,11.3838 11.41571,11.0242 0.56414,-0.187 1.2788,-2.1997 1.58815,-4.4726 z m -127.56245,55.6825 c -4.4,-0.4658 -14.66783,-1.2637 -22.81739,-1.773 -11.8029,-0.7377 -15.21057,-1.2819 -16.75,-2.6751 -2.65598,-2.4036 -2.42065,-5.0731 0.62303,-7.0674 2.25996,-1.4808 4.48718,-1.5855 19.25,-0.9046 9.1819,0.4235 25.85054,0.9229 37.04143,1.1096 13.54152,0.226 20.81631,0.7291 21.75,1.504 2.01621,1.6733 1.72822,5.2361 -0.66965,8.2845 l -2.07258,2.6349 -14.17742,-0.133 c -7.79758,-0.073 -17.77742,-0.5141 -22.17742,-0.9799 z m -20.26444,-22.8494 c -15.71805,-0.5664 -17.45167,-0.8094 -19.35469,-2.7124 -2.95932,-2.9593 -1.74156,-5.9921 2.92664,-7.2886 5.47025,-1.5193 58.45411,-1.3751 59.99249,0.1633 1.82153,1.8215 1.44719,7.2663 -0.62874,9.145 -2.00748,1.8168 -8.7321,1.9252 -42.9357,0.6927 z m -0.9527,-21.9953 c -16.204,-0.4574 -19.48078,-0.8065 -20.89855,-2.2267 -1.44074,-1.4431 -1.50237,-2.1165 -0.43056,-4.704 1.7202,-4.153 5.13681,-4.5267 33.39616,-3.6531 15.58006,0.4817 25.84174,0.3454 31.3815,-0.4166 9.95841,-1.3698 12.27619,-0.5672 12.25328,4.2432 -0.0392,8.2304 -0.69442,8.3099 -55.70183,6.7572 z"
         id="path4529"
         inkscape:connector-curvature="0" />
      <path
         style="fill:#f85e5e"
         d="m 797.69092,1810.8839 c -2.23841,-2.5534 -3.35511,-2.9225 -10.6722,-3.5278 -12.08625,-0.9998 -15.62552,-2.6082 -23.62623,-10.7368 -5.5744,-5.6636 -7.39125,-6.9491 -9.18492,-6.4989 -1.48035,0.3715 -2.83306,-0.099 -4.00291,-1.3913 -1.54996,-1.7127 -1.62268,-2.5255 -0.59211,-6.6182 1.77364,-7.0438 4.37274,-11.368 10.24901,-17.0516 9.5211,-9.209 22.0445,-16.2724 42.49643,-23.9687 18.18396,-6.8429 18.76869,-6.8973 68.33293,-6.3595 55.20301,0.5989 70.59838,0.5001 74.76394,-0.4802 3.82114,-0.8992 8.82745,0.831 10.28506,3.5546 0.68034,1.2712 0.49009,3.1079 -0.6332,6.1128 -2.56679,6.8664 -2.69562,8.8353 -1.92422,29.4085 0.70068,18.687 0.82338,19.5566 2.87019,20.3396 1.17603,0.4499 2.99659,1.7709 4.0457,2.9355 1.68709,1.8728 1.76966,2.5774 0.71474,6.0984 -0.65599,2.1895 -2.03991,4.4344 -3.07537,4.9885 -2.64961,1.4181 -35.38436,1.4067 -41.8929,-0.014 -2.94033,-0.642 -8.56533,-1.14 -12.5,-1.1066 -80.25816,0.6809 -91.81992,1.1983 -95.20201,4.2609 -1.12645,1.02 -3.37645,2.0913 -5,2.3808 -2.36347,0.4213 -3.4503,-0.042 -5.45193,-2.3255 z m 141.5,-14.0002 5,-1.6698 -0.3114,-22.5 c -0.23475,-16.9622 -0.63666,-22.8316 -1.63293,-23.8472 -1.97242,-2.0108 -14.38981,-3.1175 -40.05567,-3.57 -12.65,-0.223 -32.9,-0.7303 -45,-1.1271 -15.26901,-0.5009 -24.29466,-0.3626 -29.5,0.4521 -11.71748,1.8338 -41.50986,11.978 -39.84293,13.5665 1.52722,1.4552 15.84274,10.5257 16.61233,10.5257 0.54214,0 1.54591,-0.675 2.2306,-1.5 1.87872,-2.2637 5.42135,-1.8209 12,1.5 8.72049,4.4021 10.27439,3.6707 5.5,-2.5889 -3.19068,-4.1832 -3.20762,-8.3555 -0.0478,-11.7651 4.99775,-5.3926 7.81249,-3.9255 30.94833,16.1314 5.88589,5.1026 11.06549,9.0526 11.51023,8.7777 0.44474,-0.2748 1.03429,-4.4577 1.31012,-9.2952 0.61609,-10.8053 2.99913,-16.1874 8.27606,-18.6914 4.74662,-2.2525 8.29165,-1.3844 13.68569,3.3511 4.74918,4.1693 25.19292,18.9036 27.40818,19.7536 0.79706,0.3059 1.64841,-0.2582 1.99139,-1.3194 2.85777,-8.8425 11.78741,-12.5132 16.34517,-6.7189 2.51297,3.1947 2.61385,5.6402 0.38807,9.4082 -1.38441,2.3436 -1.47348,3.3147 -0.5,5.4513 0.65153,1.4298 1.18456,3.4574 1.18456,4.5056 0,5.296 -4.9917,9.7674 -9.36491,8.3888 -1.99504,-0.629 -23.74466,-14.7448 -40.52856,-26.3037 -5.74285,-3.9551 -7.69632,-4.8405 -8.75,-3.966 -2.31496,1.9212 -1.60598,10.8175 1.63141,20.4711 1.64337,4.9004 2.99337,9.7357 3,10.7451 0.0111,1.6939 0.60923,1.771 7.76206,1 10.10401,-1.089 20.59855,-0.7474 31.75,1.0336 11.28169,1.8018 10.99884,1.8051 17,-0.1991 z m -123.5,-0.6014 c 0,-1.4997 -20.95496,-19.5476 -27,-23.2543 -1.925,-1.1804 -5.15908,-2.4537 -7.18684,-2.8296 -2.90007,-0.5375 -3.90657,-1.3137 -4.7165,-3.6371 -0.88341,-2.5341 -1.30777,-2.8048 -2.98782,-1.9056 -3.57456,1.913 -12.62209,10.8519 -11.81459,11.6727 0.43684,0.444 1.79096,-0.4426 3.00915,-1.9704 1.99727,-2.5048 2.4995,-2.6695 5.11151,-1.6764 3.11606,1.1847 16.7702,12.788 22.73555,19.3207 3.29317,3.6064 4.27191,4.0682 10,4.7178 10.65719,1.2087 12.84954,1.134 12.84954,-0.4378 z m 38.65362,-0.5684 c 5.69051,0 10.34638,-0.372 10.34638,-0.8266 0,-1.0591 -14.82524,-14.1734 -16.02247,-14.1734 -0.49524,0 -1.38546,1.8012 -1.97825,4.0027 -0.64065,2.3792 -2.10886,4.6782 -3.61987,5.6683 -2.37253,1.5545 -2.85344,1.554 -7.21074,-0.01 -6.54207,-2.3447 -7.80779,-2.1374 -9.07084,1.4858 -1.8048,5.1773 -1.76797,5.1979 8.05579,4.5006 5.0345,-0.3574 13.8095,-0.6498 19.5,-0.6498 z m 169.34636,6.9355 c -9.8336,-1.8121 -32.76926,-7.8432 -37.24998,-9.7952 -4.78179,-2.0831 -5.76387,-3.7264 -3.55,-5.9403 1.73445,-1.7344 7.22025,-1.4823 18.43988,0.8475 18.5417,3.8502 25.8639,4.9157 33.9101,4.9341 10.5976,0.024 13.0346,2.463 8.3774,8.3835 -1.8906,2.4037 -2.6586,2.6246 -8.75,2.5173 -3.6725,-0.065 -8.7024,-0.4908 -11.1774,-0.9469 z m 18.9027,-20.3661 c -0.2489,-0.249 -8.5414,-1.3877 -18.4277,-2.5305 -37.88541,-4.3794 -38.0371,-4.4105 -36.83536,-7.5421 0.84196,-2.1942 6.12241,-3.4956 14.25956,-3.5144 11.1214,-0.026 46.3925,3.1267 47.8508,4.2767 1.7638,1.391 1.5514,4.1707 -0.5,6.5432 -1.7349,2.0064 -5.4767,3.6376 -6.3473,2.7671 z m -5.4027,-22.7007 c -3.3,-0.4779 -16.575,-1.2335 -29.5,-1.6791 -16.26923,-0.5608 -24.25076,-1.2183 -25.94003,-2.1367 l -2.44005,-1.3267 2.21597,-1.7944 c 1.21878,-0.9869 4.79181,-2.1628 7.94005,-2.6131 7.42473,-1.0619 40.93866,-1.0401 53.49776,0.035 10.6122,0.9084 13.3067,2.2424 12.1148,5.9979 -1.471,4.6347 -5.1622,5.3605 -17.8885,3.5172 z M 830.19092,1709.756 c -19.43261,-2.6664 -31.1139,-3.2767 -51,-2.6646 -11.55,0.3556 -23.475,1.0583 -26.5,1.5615 -7.9266,1.3187 -41.67783,1.3038 -44.1504,-0.02 -2.36417,-1.2653 -4.69925,-6.4125 -5.82939,-12.8498 -0.44124,-2.5134 -1.82783,-10.1947 -3.0813,-17.0697 -4.0578,-22.256 -2.97094,-40.8872 2.75422,-47.2134 1.91481,-2.1159 11.76222,-2.4135 22.30687,-0.6743 4.07465,0.6721 32.43256,1.1614 76,1.3114 l 69.5,0.2393 11,2.7807 c 13.64057,3.4481 21.25002,7.2224 28.49609,14.134 7.70297,7.3474 15.5449,23.4433 13.18833,27.0697 -0.37643,0.5793 -1.74202,1.6105 -3.03464,2.2917 -2.08475,1.0986 -2.27851,1.7168 -1.71531,5.4725 0.58626,3.9094 0.31208,4.6307 -3.57809,9.413 -6.0478,7.4346 -7.79305,8.295 -18.75212,9.2451 -8.68481,0.753 -22.82251,3.3703 -32.0823,5.9394 -4.918,1.3645 -26.30329,2.0235 -33.52196,1.033 z m 34.5,-10.5509 c 3.575,-0.909 10.325,-2.5379 15,-3.6199 18.94695,-4.385 20.2661,-5.0093 16.73003,-7.9165 -2.08348,-1.713 -2.13145,-2.0136 -0.73003,-4.573 1.02832,-1.878 3.51199,-3.5576 7.89835,-5.3412 11.3322,-4.6081 11.46714,-8.3007 0.72309,-19.7861 -12.20561,-13.0479 -27.43907,-17.0937 -64.1323,-17.0331 -9.35597,0.015 -25.21847,-0.3048 -35.25,-0.7117 -10.16886,-0.4125 -18.22993,-0.3571 -18.21833,0.1252 0.0114,0.4758 2.82394,2.7371 6.25,5.025 3.42605,2.2879 12.43345,9.6004 20.01644,16.25 13.69017,12.005 17.62506,14.3834 16.27977,9.8401 -1.72999,-5.8425 -3.55006,-18.5367 -3.01075,-20.9988 0.67049,-3.061 3.86584,-5.7512 6.83105,-5.7512 1.14371,0 6.48318,4.5673 12.98637,11.1084 12.87755,12.9526 17.03624,16.332 19.1161,15.5339 0.90304,-0.3465 1.51021,-1.8413 1.51021,-3.7179 0,-4.1758 5.391,-15.3002 8.66118,-17.8725 3.04747,-2.3972 8.2515,-2.6655 12.19035,-0.6287 1.51371,0.7828 4.54018,3.3703 6.72548,5.75 8.55153,9.3124 10.72251,15.9717 6.56292,20.1313 l -2.1683,2.1683 -8.23582,-8.7413 c -10.83931,-11.5046 -12.897,-11.448 -14.83819,0.4076 -0.57283,3.4985 -1.53089,7.7109 -2.12904,9.3609 -1.38474,3.8198 -5.65739,8.5 -7.75989,8.5 -2.6754,0 -10.0196,-5.2693 -18.80017,-13.4888 -4.56032,-4.2688 -8.56402,-7.489 -8.89712,-7.1559 -0.33309,0.3331 0.35315,3.5262 1.52499,7.0959 3.65457,11.1326 3.75372,13.694 0.67181,17.3567 -1.4773,1.7557 -3.46678,3.1921 -4.42107,3.1921 -2.63297,0 -9.51068,-5.2624 -26.21107,-20.0549 -16.8231,-14.9013 -18.73585,-16.4186 -19.60317,-15.5513 -0.94419,0.9442 1.07669,4.521 7.12071,12.6033 6.44846,8.6231 7.14681,12.2071 3.11629,15.9936 -2.15068,2.0205 -2.83606,2.1817 -5.02806,1.183 -1.39588,-0.636 -2.79848,-1.8353 -3.11688,-2.665 -0.88939,-2.3178 -3.94908,-1.7923 -5.77299,0.9913 -0.96677,1.4755 -2.58715,2.5 -3.95398,2.5 -2.21261,0 -3.71168,-0.9407 -14.43634,-9.059 -16.00154,-12.1129 -32.32767,-24.3379 -36.20164,-27.1078 -6.02842,-4.3103 -7,-5.6323 -7,-9.5243 l 0,-3.3089 -7.87756,0 c -10.28403,0 -10.68882,0.4827 -10.41066,12.4151 0.46617,19.9972 1.64268,24.2399 5.8656,21.152 1.6709,-1.2218 1.61949,-1.5555 -0.9028,-5.8594 -3.16297,-5.3972 -3.2791,-6.7396 -0.8433,-9.7477 2.62594,-3.2429 5.14643,-2.265 16.20745,6.2881 5.2037,4.0238 11.03627,8.2935 12.96127,9.4881 8.66387,5.3766 11.34633,11.0137 7.34501,15.4351 -2.3893,2.6401 -3.87147,2.2972 -8.61735,-1.9936 -6.19134,-5.5976 -11.69733,-9.5414 -12.37497,-8.8637 -1.02734,1.0273 0.44455,4.9826 4.12671,11.0895 1.95775,3.2469 3.81432,6.9186 4.12571,8.1593 0.47803,1.9046 1.36999,2.3171 5.73052,2.6503 2.84041,0.217 8.92919,0.034 13.53064,-0.4069 16.05775,-1.5383 62.75973,-1.2319 73.13373,0.4798 11.55166,1.9059 28.79642,1.5453 38,-0.7948 z m -147.50616,-6.4975 c -5.49608,-5.5799 -6.50047,-6.0053 -6.4791,-2.7437 0.0251,3.8321 2.33213,7.0294 5.98526,8.2951 5.73594,1.9872 5.91678,-0.046 0.49384,-5.5514 z m 44.9487,-33.7437 c -0.98312,-1.5125 -4.74737,-6.2547 -8.36501,-10.5382 -5.11912,-6.0613 -7.02098,-7.6719 -8.57753,-7.2636 -1.1,0.2885 -3.4625,0.5306 -5.25,0.5381 -1.7875,0.01 -3.25,0.4052 -3.25,0.8837 0,0.4785 4.1625,3.8392 9.25,7.4682 5.0875,3.6289 10.6,7.7212 12.25,9.094 4.20662,3.4997 6.27369,3.4042 3.94254,-0.1822 z m 15.61991,-10.0454 c 0.30934,-2.273 1.39408,-5.0516 2.41053,-6.1747 1.01645,-1.1232 1.58597,-2.3043 1.2656,-2.6247 -0.32038,-0.3203 -4.55512,-0.2044 -9.41054,0.2576 l -8.82804,0.8401 5.92581,6.2733 c 3.25919,3.4503 6.40919,6.113 7,5.9171 0.5908,-0.1958 1.32729,-2.2158 1.63664,-4.4887 z m -126.56245,54.6825 c -4.4,-0.4658 -14.57757,-1.258 -22.61681,-1.7605 -8.03925,-0.5025 -15.57675,-1.4274 -16.75,-2.0553 -2.84962,-1.5251 -2.69239,-3.6588 0.41988,-5.698 2.24754,-1.4727 4.3717,-1.5789 17.75,-0.8873 8.35831,0.4321 24.83144,0.927 36.60696,1.0997 22.23775,0.3263 23.03811,0.4881 23.07466,4.6643 0.008,0.9625 -0.88469,2.65 -1.98469,3.75 -1.81399,1.814 -3.23229,1.9876 -15.25,1.867 -7.2875,-0.073 -16.85,-0.5141 -21.25,-0.9799 z m -20,-22.9124 c -17.6541,-0.7116 -19.95499,-1.112 -20.92593,-3.6423 -0.84939,-2.2134 0.056,-3.1355 4.21206,-4.2898 3.94584,-1.0959 54.90767,-1.4811 57.63208,-0.4356 2.05589,0.7889 2.06249,5.7694 0.0104,7.8216 -1.73711,1.7371 -8.98,1.8337 -40.92857,0.5461 z m -1.71627,-21.9161 c -16.07094,-0.4553 -20.00663,-0.8493 -21.28674,-2.1311 -0.88896,-0.89 -1.29293,-2.2957 -0.93091,-3.2391 1.26077,-3.2855 7.55106,-3.8437 34.97084,-3.1034 19.93067,0.5382 27.82562,0.3991 32.39456,-0.5705 4.85115,-1.0294 6.33945,-1.0345 7.5549,-0.026 2.29053,1.901 1.89389,6.6315 -0.70889,8.4546 -2.39935,1.6806 -10.85944,1.7807 -51.99376,0.6153 z"
         id="path4527"
         inkscape:connector-curvature="0" />
      <path
         style="fill:#5f5d5c"
         d="m 798.101,1810.8417 c -2.65802,-2.4203 -4.21965,-2.9078 -11.17221,-3.4876 -11.99738,-1.0005 -15.55002,-2.6209 -23.5363,-10.7348 -5.5744,-5.6636 -7.39125,-6.9491 -9.18492,-6.4989 -1.48035,0.3715 -2.83306,-0.099 -4.00291,-1.3913 -1.54996,-1.7127 -1.62268,-2.5255 -0.59211,-6.6182 1.77364,-7.0438 4.37274,-11.368 10.24901,-17.0516 9.5211,-9.209 22.0445,-16.2724 42.49643,-23.9687 18.18396,-6.8429 18.76869,-6.8973 68.33293,-6.3595 55.20301,0.5989 70.59838,0.5001 74.76394,-0.4802 3.82114,-0.8992 8.82745,0.831 10.28506,3.5546 0.68034,1.2712 0.49009,3.1079 -0.6332,6.1128 -2.56679,6.8664 -2.69562,8.8353 -1.92422,29.4085 0.70068,18.687 0.82338,19.5566 2.87019,20.3396 1.17603,0.4499 2.99659,1.7709 4.0457,2.9355 1.68709,1.8728 1.76966,2.5774 0.71474,6.0984 -0.65599,2.1895 -2.03991,4.4344 -3.07537,4.9885 -2.64961,1.4181 -35.38436,1.4067 -41.8929,-0.014 -2.94033,-0.642 -8.56533,-1.14 -12.5,-1.1066 -75.733,0.6425 -92.72642,1.3237 -94.78111,3.7994 -0.61474,0.7407 -1.93606,1.3468 -2.93626,1.3468 -1.00019,0 -2.09665,0.45 -2.43657,1 -0.92577,1.4979 -1.70256,1.2122 -5.08992,-1.8722 z m 141.08992,-13.958 5,-1.6698 -0.3114,-22.5 c -0.23475,-16.9622 -0.63666,-22.8316 -1.63293,-23.8472 -1.97242,-2.0108 -14.38981,-3.1175 -40.05567,-3.57 -12.65,-0.223 -32.9,-0.7303 -45,-1.1271 -15.26901,-0.5009 -24.29466,-0.3626 -29.5,0.4521 -10.52507,1.6472 -33.32914,9.1122 -38.81373,12.7058 -2.46542,1.6154 -2.50792,1.7755 -0.74314,2.7999 1.02951,0.5976 4.78556,2.999 8.34677,5.3365 7.16192,4.7009 7.95933,4.9069 10.76897,2.7818 2.80334,-2.1203 4.47026,-1.8908 10.53136,1.4501 5.6093,3.0919 10.93065,3.9565 10.88195,1.7681 -0.0153,-0.6875 -1.3653,-3.0177 -3,-5.1781 -3.52765,-4.6623 -3.72788,-7.3415 -0.82451,-11.0325 3.94853,-5.0197 8.16093,-2.7206 29.60077,16.1564 5.85605,5.1561 11.34581,9.2411 12.19946,9.0779 1.21613,-0.2325 1.70163,-2.3906 2.24289,-9.9704 0.69575,-9.7431 2.04737,-13.9384 5.45683,-16.9374 4.61801,-4.062 9.62513,-2.9604 17.35238,3.8176 4.5989,4.034 20.01583,15.1842 23.77964,17.1986 3.22822,1.7277 3.976,1.3883 5.2152,-2.3665 2.26919,-6.8757 9.18527,-9.5739 13.69071,-5.3413 2.72437,2.5594 2.90737,4.5342 0.71079,7.6702 -1.11821,1.5965 -1.39393,3.2531 -0.91084,5.4725 1.92941,8.8642 0.41185,12.683 -5.04014,12.683 -2.57238,0 -7.39066,-2.7362 -21.62755,-12.282 -10.0748,-6.7551 -20.47296,-13.8292 -23.10703,-15.7202 -6.48308,-4.6541 -8.12403,-3.6618 -8.4446,5.1066 -0.18213,4.9816 0.49399,8.6065 3.05808,16.3956 l 3.2919,10 4.44192,-0.1963 c 14.55336,-0.643 28.52157,-0.2404 35.94192,1.0362 10.66382,1.8345 10.4925,1.8362 16.5,-0.1701 z m -122.58848,-0.094 c 1.69419,-1.0724 -0.33043,-3.0938 -16.09263,-16.0668 -9.38402,-7.7234 -14.00107,-10.418 -21.56889,-12.5878 -0.6875,-0.1971 -1.25,-1.2725 -1.25,-2.3898 0,-1.1173 -0.63459,-2.0314 -1.4102,-2.0314 -1.51684,0 -9.86898,6.3353 -13.00034,9.8611 -2.33439,2.6284 -1.31942,4.1095 1.23315,1.7994 3.8608,-3.4939 6.49689,-2.2156 19.17985,9.3011 12.21263,11.0897 12.86324,11.4555 21.99754,12.3685 6.88099,0.6878 9.52056,0.6263 10.91152,-0.2543 z m 38.74404,-1.0758 c 7.64475,0 10.32689,-0.3262 10.27719,-1.25 -0.0942,-1.7519 -14.4941,-14.1825 -16.86925,-14.5623 -1.52395,-0.2437 -2.18372,0.545 -3.00396,3.5912 -0.57811,2.1469 -1.94734,4.7146 -3.04274,5.7059 -1.92189,1.7393 -2.18479,1.7285 -7.5077,-0.3085 -3.03383,-1.161 -6.09714,-1.8879 -6.80734,-1.6153 -0.71021,0.2725 -2.06253,2.5764 -3.00516,5.1197 l -1.71387,4.6243 10.6642,-0.6525 c 5.86531,-0.3589 15.31919,-0.6525 21.00863,-0.6525 z m 168.34442,6.9355 c -9.8336,-1.8121 -32.76926,-7.8432 -37.24998,-9.7952 -4.78179,-2.0831 -5.76387,-3.7264 -3.55,-5.9403 1.73445,-1.7344 7.22025,-1.4823 18.43988,0.8475 18.5417,3.8502 25.8639,4.9157 33.9101,4.9341 10.5976,0.024 13.0346,2.463 8.3774,8.3835 -1.8906,2.4037 -2.6586,2.6246 -8.75,2.5173 -3.6725,-0.065 -8.7024,-0.4908 -11.1774,-0.9469 z m 18.9027,-20.3661 c -0.2489,-0.249 -8.5414,-1.3877 -18.4277,-2.5305 -37.88541,-4.3794 -38.0371,-4.4105 -36.83536,-7.5421 0.84196,-2.1942 6.12241,-3.4956 14.25956,-3.5144 11.1214,-0.026 46.3925,3.1267 47.8508,4.2767 1.7638,1.391 1.5514,4.1707 -0.5,6.5432 -1.7349,2.0064 -5.4767,3.6376 -6.3473,2.7671 z m -5.4027,-22.7007 c -3.3,-0.4779 -16.575,-1.2335 -29.5,-1.6791 -16.26923,-0.5608 -24.25076,-1.2183 -25.94003,-2.1367 l -2.44005,-1.3267 2.21597,-1.7944 c 1.21878,-0.9869 4.79181,-2.1628 7.94005,-2.6131 7.42473,-1.0619 40.93866,-1.0401 53.49776,0.035 10.6122,0.9084 13.3067,2.2424 12.1148,5.9979 -1.471,4.6347 -5.1622,5.3605 -17.8885,3.5172 z M 830.19092,1709.756 c -19.43261,-2.6664 -31.1139,-3.2767 -51,-2.6646 -11.55,0.3556 -23.475,1.0583 -26.5,1.5615 -7.9266,1.3187 -41.67783,1.3038 -44.1504,-0.02 -2.36417,-1.2653 -4.69925,-6.4125 -5.82939,-12.8498 -0.44124,-2.5134 -1.82783,-10.1947 -3.0813,-17.0697 -4.0578,-22.256 -2.97094,-40.8872 2.75422,-47.2134 1.91481,-2.1159 11.76222,-2.4135 22.30687,-0.6743 4.07465,0.6721 32.43256,1.1614 76,1.3114 l 69.5,0.2393 11,2.7807 c 13.64057,3.4481 21.25002,7.2224 28.49609,14.134 7.70297,7.3474 15.5449,23.4433 13.18833,27.0697 -0.37643,0.5793 -1.74202,1.6105 -3.03464,2.2917 -2.08475,1.0986 -2.27851,1.7168 -1.71531,5.4725 0.58626,3.9094 0.31208,4.6307 -3.57809,9.413 -6.0478,7.4346 -7.79305,8.295 -18.75212,9.2451 -8.68481,0.753 -22.82251,3.3703 -32.0823,5.9394 -4.918,1.3645 -26.30329,2.0235 -33.52196,1.033 z m 34.5,-10.5509 c 3.575,-0.909 10.325,-2.5379 15,-3.6199 18.94695,-4.385 20.2661,-5.0093 16.73003,-7.9165 -2.08348,-1.713 -2.13145,-2.0136 -0.73003,-4.573 1.02832,-1.878 3.51199,-3.5576 7.89835,-5.3412 7.9331,-3.2259 9.89289,-5.7162 8.03269,-10.2071 -1.94677,-4.6999 -12.64547,-15.6556 -17.86907,-18.2984 -6.94813,-3.5152 -17.58226,-6.3645 -27.56197,-7.385 -17.91995,-1.8324 -100.92842,-2.1217 -102.69225,-0.3578 -1.25125,1.2512 10.88296,13.154 13.44225,13.1859 1.40644,0.017 1.75,-0.8474 1.75,-4.4056 0,-3.5766 0.4995,-4.8203 2.59922,-6.472 2.41111,-1.8966 2.85325,-1.9384 6.10937,-0.5779 4.35157,1.8182 14.07845,9.373 25.48265,19.7921 11.65391,10.6472 15.53292,13.361 17.0002,11.8938 0.8423,-0.8423 0.85853,-2.1427 0.0615,-4.9265 -2.44453,-8.5381 -3.45656,-18.0317 -2.18039,-20.4537 3.17477,-6.0253 4.47567,-5.4374 18.77795,8.4862 14.90972,14.5149 17.51239,16.459 19.65449,14.6812 0.82224,-0.6824 1.49535,-2.6481 1.49578,-4.3682 10e-4,-4.3287 5.15626,-14.8184 8.62694,-17.5541 5.87971,-4.6344 14.09819,-0.7287 21.36517,10.1537 4.53152,6.786 5.33279,11.9929 2.11088,13.7173 -1.58847,0.8501 -2.45912,0.3283 -5.36462,-3.2149 -9.42929,-11.4988 -14.70187,-14.8893 -17.64309,-11.3454 -0.63186,0.7614 -1.78605,5.0086 -2.56487,9.4384 -2.355,13.3945 -5.56895,17.4419 -11.78713,14.8438 -1.81588,-0.7587 -7.88623,-5.719 -13.48968,-11.0229 -13.23245,-12.5251 -14.84181,-12.6755 -10.88855,-1.0173 3.66886,10.8195 3.9162,13.3955 1.64416,17.1238 -1.09541,1.7975 -2.81435,3.25 -3.84615,3.25 -2.3092,0 -11.94302,-7.292 -23.16383,-17.5332 -13.33502,-12.1708 -21.96489,-19.4668 -23.02568,-19.4668 -3.29426,0 2.96124,12.6807 10.14463,20.5645 2.4501,2.6889 2.39676,6.9198 -0.11895,9.4355 -2.51477,2.5148 -3.23498,2.5028 -5.58382,-0.093 -3.653,-4.0365 -5.13363,-4.2072 -8.05503,-0.9284 -1.48046,1.6615 -3.28943,3.021 -4.01993,3.021 -1.46675,0 -7.61109,-4.3962 -36.63545,-26.2123 -17.81606,-13.3915 -19.60182,-15.0076 -19.8896,-18 l -0.31617,-3.2877 -8.48653,0 c -8.1953,0 -8.53013,0.091 -9.75729,2.6514 -0.98565,2.0565 -1.05616,5.6544 -0.31424,16.0359 1.12633,15.7606 1.49524,17.1132 4.42648,16.2301 4.06195,-1.2238 4.22169,-2.2887 1.18529,-7.9019 -2.52225,-4.6627 -2.7644,-5.7577 -1.76054,-7.9609 0.64017,-1.405 1.7361,-2.5472 2.43539,-2.5381 1.80334,0.023 7.21454,3.4765 17.21121,10.9835 4.76065,3.575 10.54468,7.8713 12.85341,9.5474 4.37701,3.1776 5.27727,5.0436 4.30401,8.9214 -1.07017,4.2639 -3.41587,3.8103 -10.24171,-1.9805 -6.58879,-5.5897 -12.13131,-9.0458 -13.04357,-8.1335 -1.08472,1.0847 0.99533,6.7809 4.7485,13.0037 2.16678,3.5926 3.93959,7.2013 3.93959,8.0193 0,3.0945 4.83149,3.2855 43,1.6995 25.07287,-1.0418 30.36388,-0.9859 44,0.4649 8.525,0.907 15.725,1.882 16,2.1668 1.00832,1.0442 22.69298,-0.6142 29,-2.2178 z m -142,-1.8138 c 0,-1.5577 -9.14965,-10.6774 -10.71241,-10.6774 -1.64156,0 -1.6552,4.7233 -0.0228,7.9162 1.94004,3.7949 10.73521,6.0571 10.73521,2.7612 z m 42.29345,-34.3042 c 1.19992,-1.1999 -2.13736,-5.9254 -9.9404,-14.0754 l -7.85305,-8.2022 -6.5,0.7022 c -6.36904,0.6881 -6.4597,0.7389 -4.5,2.5243 2.21203,2.0152 22.81778,17.1734 25.38165,18.6715 1.94295,1.1352 2.58475,1.2067 3.4118,0.3796 z m -113.79345,40.5139 c -4.4,-0.4658 -14.57757,-1.258 -22.61681,-1.7605 -8.03925,-0.5025 -15.57675,-1.4274 -16.75,-2.0553 -2.84962,-1.5251 -2.69239,-3.6588 0.41988,-5.698 2.24754,-1.4727 4.3717,-1.5789 17.75,-0.8873 8.35831,0.4321 24.83144,0.927 36.60696,1.0997 22.23775,0.3263 23.03811,0.4881 23.07466,4.6643 0.008,0.9625 -0.88469,2.65 -1.98469,3.75 -1.81399,1.814 -3.23229,1.9876 -15.25,1.867 -7.2875,-0.073 -16.85,-0.5141 -21.25,-0.9799 z m -20,-22.9124 c -17.6541,-0.7116 -19.95499,-1.112 -20.92593,-3.6423 -0.84939,-2.2134 0.056,-3.1355 4.21206,-4.2898 3.94584,-1.0959 54.90767,-1.4811 57.63208,-0.4356 2.05589,0.7889 2.06249,5.7694 0.0104,7.8216 -1.73711,1.7371 -8.98,1.8337 -40.92857,0.5461 z m -1.71627,-21.9161 c -16.07094,-0.4553 -20.00663,-0.8493 -21.28674,-2.1311 -0.88896,-0.89 -1.29293,-2.2957 -0.93091,-3.2391 1.26077,-3.2855 7.55106,-3.8437 34.97084,-3.1034 19.93067,0.5382 27.82562,0.3991 32.39456,-0.5705 4.85115,-1.0294 6.33945,-1.0345 7.5549,-0.026 2.29053,1.901 1.89389,6.6315 -0.70889,8.4546 -2.39935,1.6806 -10.85944,1.7807 -51.99376,0.6153 z"
         id="path4525"
         inkscape:connector-curvature="0" />
      <path
         style="fill:#fb0707"
         d="m 797.19092,1809.1829 c -2.18501,-1.791 -4.22249,-2.4651 -7.5,-2.4814 -2.475,-0.012 -7.5879,-0.6766 -11.362,-1.4762 -6.54953,-1.3876 -7.19984,-1.7972 -14.2808,-8.9939 -6.0666,-6.1658 -7.83681,-7.4352 -9.7122,-6.9645 -8.24205,2.0686 -4.4956,-13.4151 5.62118,-23.2319 9.83232,-9.5407 26.23391,-18.6636 45.23382,-25.1599 18.24121,-6.237 21.80618,-6.4683 81.19841,-5.2685 35.03133,0.7077 54.14,0.739 55.84297,0.092 5.22262,-1.9856 11.87769,-0.39 12.98998,3.1145 0.31339,0.9875 -0.41202,4.0776 -1.61201,6.8671 -2.11818,4.9238 -2.15611,5.6887 -1.30058,26.2262 l 0.88123,21.1545 2.91135,1.6089 c 3.78159,2.09 5.02599,4.1661 4.27933,7.1398 -1.5085,6.0077 -1.71615,6.0677 -21.23907,6.1428 -10.10271,0.039 -20.35635,-0.4389 -23.45161,-1.0927 -6.05029,-1.278 -5.52403,-1.2683 -49,-0.9005 -39.71267,0.336 -54.60234,1.3217 -58.20951,3.8535 -3.65186,2.563 -7.66901,2.3391 -11.29049,-0.6294 z m 19.36633,-11.3652 c 1.77132,-1.1222 0.80558,-2.6602 -4.86633,-7.7502 -15.4295,-13.8465 -23.57567,-19.3019 -32.75,-21.9324 -0.6875,-0.1971 -1.25,-1.5279 -1.25,-2.9572 0,-2.2315 -0.31797,-2.5019 -2.25,-1.9131 -3.7588,1.1455 -14.75,10.9498 -14.75,13.1573 0,1.9404 2.45237,1.5544 4.5,-0.7082 3.4939,-3.8607 5.91745,-2.6393 19.13177,9.6421 l 12.52648,11.6422 8.17088,0.7142 c 4.49398,0.3927 8.62087,0.7719 9.17087,0.8425 0.55,0.071 1.61485,-0.2611 2.36633,-0.7372 z m 126.72962,-1.5747 2.63118,-1.724 -0.70623,-22.1526 c -0.60255,-18.9001 -0.9569,-22.4127 -2.41354,-23.9247 -2.52457,-2.6205 -15.4617,-3.7989 -45.60736,-4.1541 -14.3,-0.1685 -33.65,-0.6525 -43,-1.0757 -11.44018,-0.5177 -19.81523,-0.3919 -25.60799,0.3847 -12.67481,1.6992 -41.89201,11.9501 -41.89201,14.698 0,0.7524 1.4625,2.1101 3.25,3.0171 1.7875,0.907 5.38854,3.1686 8.00231,5.0257 5.31448,3.7759 6.51255,4.0216 9.30656,1.9083 2.80334,-2.1203 4.47026,-1.8908 10.53136,1.4501 5.6093,3.0919 10.93065,3.9565 10.88195,1.7681 -0.0153,-0.6875 -1.3653,-3.0177 -3,-5.1781 -3.52765,-4.6623 -3.72788,-7.3415 -0.82451,-11.0325 3.94853,-5.0197 8.16093,-2.7206 29.60077,16.1564 5.85605,5.1561 11.34581,9.2411 12.19946,9.0779 1.21613,-0.2325 1.70163,-2.3906 2.24289,-9.9704 0.69575,-9.7431 2.04737,-13.9384 5.45683,-16.9374 4.61801,-4.062 9.62513,-2.9604 17.35238,3.8176 4.5989,4.034 20.01583,15.1842 23.77964,17.1986 3.22822,1.7277 3.976,1.3883 5.2152,-2.3665 2.26919,-6.8757 9.18527,-9.5739 13.69071,-5.3413 2.72437,2.5594 2.90737,4.5342 0.71079,7.6702 -1.11821,1.5965 -1.39393,3.2531 -0.91084,5.4725 1.92941,8.8642 0.41185,12.683 -5.04014,12.683 -2.57238,0 -7.39066,-2.7362 -21.62755,-12.282 -10.0748,-6.7551 -20.47296,-13.8292 -23.10703,-15.7202 -6.32492,-4.5406 -8.08907,-3.6079 -8.51504,4.5018 -0.3486,6.6366 5.2708,27.0608 7.70611,28.0086 0.77102,0.3001 5.04602,0.041 9.5,-0.576 8.061,-1.1164 19.90711,-0.6312 26.59815,1.0895 5.65851,1.4551 20.53315,0.5142 23.59595,-1.4926 z m -89.44233,0.4709 c 14.64211,0 14.93347,-0.6796 4.28731,-10 -9.19518,-8.0501 -10.95761,-8.5086 -12.38139,-3.2211 -0.57811,2.1469 -1.94734,4.7146 -3.04274,5.7059 -1.92189,1.7393 -2.18479,1.7285 -7.5077,-0.3085 -3.03383,-1.161 -6.10474,-1.885 -6.82425,-1.6089 -0.7195,0.2761 -1.90653,2.1739 -2.63784,4.2173 -0.73131,2.0434 -1.56714,4.3506 -1.85739,5.127 -0.44153,1.1812 0.99498,1.3037 8.79495,0.75 5.12747,-0.3639 14.65355,-0.6617 21.16905,-0.6617 z m 170.34636,5.3147 c -30.41399,-6.8927 -41.79424,-10.531 -41.28862,-13.2 0.5182,-2.7354 7.84273,-2.4507 24.08472,0.9362 8.3622,1.7437 20.1491,3.4581 26.1931,3.8097 9.4921,0.5523 11.036,0.8845 11.3328,2.4386 0.189,0.9895 -0.379,2.902 -1.2622,4.25 -1.488,2.2709 -2.1731,2.4423 -9.3328,2.3348 -4.2498,-0.064 -8.627,-0.32 -9.727,-0.5693 z m 14,-21.3928 c -6.4343,-1.3479 -28.584,-3.9272 -33.7008,-3.9245 -5.25726,0 -14.84118,-1.7833 -16.15608,-3.0111 -0.4713,-0.44 0.34364,-1.5867 1.81098,-2.5482 2.40212,-1.5739 4.4798,-1.6767 20.8569,-1.0322 10.004,0.3937 22.689,1.251 28.189,1.905 9.7285,1.1568 10.0084,1.2611 10.3071,3.8424 0.2146,1.8544 -0.3792,3.1341 -1.9725,4.25 -2.4747,1.7333 -3.3133,1.7799 -9.3346,0.5186 z m -2.5,-22.0581 c -3.575,-0.4855 -16.625,-1.2353 -29,-1.6663 -13.62295,-0.4744 -23.28905,-1.2356 -24.49998,-1.9291 -1.85663,-1.0635 -1.71348,-1.2659 1.99697,-2.8236 5.5479,-2.3291 36.27681,-3.1574 54.50301,-1.469 7.425,0.6878 14.0625,1.2746 14.75,1.304 1.877,0.08 1.5035,4.8073 -0.5,6.3282 -1.9585,1.4867 -7.5721,1.5699 -17.25,0.2558 z m -315.44727,-49.8149 -11.9473,-0.5489 -1.7953,-3.0797 c -1.8603,-3.1912 -3.45141,-10.726 -6.95172,-32.9203 -3.04866,-19.3306 -1.78442,-34.0476 3.50261,-40.7738 1.18887,-1.5125 2.5539,-1.7023 9.26663,-1.2885 4.3298,0.2669 11.69737,0.9946 16.37237,1.617 5.40323,0.7195 33.092,1.2353 76,1.416 l 67.5,0.2843 9.72553,2.5551 c 18.53585,4.8698 30.61436,13.7094 36.79906,26.9314 4.62281,9.8828 4.77421,12.0535 1.02677,14.7219 -2.90588,2.0692 -3.0961,2.5554 -2.51521,6.4291 0.57691,3.8471 0.29358,4.597 -3.45704,9.149 -5.29913,6.4315 -9.13977,8.4561 -16.06351,8.4679 -5.62595,0.01 -20.40594,2.6782 -31.40241,5.6699 -8.03662,2.1864 -32.6681,2.3676 -45.11319,0.3319 -11.1445,-1.823 -52.66046,-1.9876 -66.5,-0.2636 -13.28539,1.6549 -20.67517,1.9341 -34.44729,1.3013 z m 135.44729,-7.1104 c 14.57738,-2.3468 40.46921,-9.0954 43.53688,-11.3477 1.90261,-1.397 1.87622,-1.4746 -0.85622,-2.5177 -2.12087,-0.8097 -2.74023,-1.6333 -2.5,-3.3247 0.31397,-2.2106 2.25807,-3.5016 11.28516,-7.4943 2.18121,-0.9648 4.63512,-2.9499 5.45315,-4.4114 1.40922,-2.5177 1.30052,-2.9378 -2.06986,-8 -7.64612,-11.4841 -15.38636,-16.9498 -29.34911,-20.7245 -11.44101,-3.093 -13.28702,-3.2328 -48.86468,-3.7016 -18.77443,-0.2474 -38.63532,-0.6053 -44.13532,-0.7955 -12.83816,-0.4438 -24.72506,0.5269 -25.23108,2.0603 -0.52282,1.5843 11.76338,13.2692 13.98108,13.2968 1.40644,0.017 1.75,-0.8474 1.75,-4.4056 0,-3.5766 0.4995,-4.8203 2.59922,-6.472 2.41111,-1.8966 2.85325,-1.9384 6.10937,-0.5779 4.35157,1.8182 14.07845,9.373 25.48265,19.7921 11.65391,10.6472 15.53292,13.361 17.0002,11.8938 0.8423,-0.8423 0.85853,-2.1427 0.0615,-4.9265 -2.44453,-8.5381 -3.45656,-18.0317 -2.18039,-20.4537 3.17477,-6.0253 4.47567,-5.4374 18.77795,8.4862 14.90972,14.5149 17.51239,16.459 19.65449,14.6812 0.82224,-0.6824 1.49535,-2.6481 1.49578,-4.3682 10e-4,-4.3287 5.15626,-14.8184 8.62694,-17.5541 5.87971,-4.6344 14.09819,-0.7287 21.36517,10.1537 4.53152,6.786 5.33279,11.9929 2.11088,13.7173 -1.58847,0.8501 -2.45912,0.3283 -5.36462,-3.2149 -9.42929,-11.4988 -14.70187,-14.8893 -17.64309,-11.3454 -0.63186,0.7614 -1.78605,5.0086 -2.56487,9.4384 -2.355,13.3945 -5.56895,17.4419 -11.78713,14.8438 -1.81588,-0.7587 -7.88623,-5.719 -13.48968,-11.0229 -13.23245,-12.5251 -14.84181,-12.6755 -10.88855,-1.0173 3.66886,10.8195 3.9162,13.3955 1.64416,17.1238 -1.09541,1.7975 -2.81435,3.25 -3.84615,3.25 -2.3092,0 -11.94302,-7.292 -23.16383,-17.5332 -13.33502,-12.1708 -21.96489,-19.4668 -23.02568,-19.4668 -3.29426,0 2.96124,12.6807 10.14463,20.5645 2.4501,2.6889 2.39676,6.9198 -0.11895,9.4355 -2.51477,2.5148 -3.23498,2.5028 -5.58382,-0.093 -3.653,-4.0365 -5.13363,-4.2072 -8.05503,-0.9284 -1.48046,1.6615 -3.28943,3.021 -4.01993,3.021 -1.4679,0 -7.59267,-4.3829 -36.7704,-26.3128 -18.56068,-13.9501 -19.6902,-14.9861 -19.39604,-17.7904 0.19238,-1.8341 -0.26128,-3.3404 -1.18122,-3.9219 -2.57927,-1.6307 -14.27683,-1.1652 -16.90044,0.6724 -2.334,1.6348 -2.34803,1.7623 -1.84357,16.75 0.59207,17.5906 0.9566,19.0143 4.63599,18.1063 4.56791,-1.1272 4.79397,-2.2096 1.66817,-7.9881 -2.52225,-4.6627 -2.7644,-5.7577 -1.76054,-7.9609 0.64017,-1.405 1.7361,-2.5472 2.43539,-2.5381 1.80334,0.023 7.21454,3.4765 17.21121,10.9835 4.76065,3.575 10.54468,7.8713 12.85341,9.5474 4.37701,3.1776 5.27727,5.0436 4.30401,8.9214 -1.07017,4.2639 -3.41587,3.8103 -10.24171,-1.9805 -6.58879,-5.5897 -12.13131,-9.0458 -13.04357,-8.1335 -1.05757,1.0575 0.94956,6.6933 4.38124,12.302 1.96635,3.2137 3.87161,7.1932 4.2339,8.8432 l 0.65872,3 11.95712,-0.1846 c 52.27945,-0.807 75.36666,-0.5591 83.95711,0.9015 11.10518,1.8882 18.07465,2.0779 26.5,0.7216 z m -133,-3.6542 c 0,-1.9642 -8.79893,-11.2843 -10.65339,-11.2843 -1.95698,0 -2.49426,1.6961 -1.76638,5.576 0.48167,2.5675 1.57857,4.1596 3.79851,5.5132 4.01485,2.4482 8.62126,2.5525 8.62126,0.1951 z m 42.35325,-35.0468 c 0.79079,-1.2796 -1.51759,-4.6435 -9.35325,-13.63 l -7.5,-8.6016 -6.75,0 c -9.95686,0 -9.70874,0.4213 7.63165,13.0931 14.1678,10.3533 14.94697,10.7993 15.9716,9.1414 z m -115.85325,39.6467 c -4.4,-0.4674 -14.44064,-1.2457 -22.31253,-1.7295 -14.87294,-0.9142 -17.55556,-1.7649 -15.55405,-4.9322 0.94667,-1.4981 2.83262,-1.7105 14.47752,-1.6301 23.39526,0.1616 60.97189,1.3408 61.94796,1.944 1.45893,0.9017 1.11139,4.1505 -0.63033,5.8922 -1.29456,1.2945 -4.06952,1.548 -15.75,1.4384 -7.79821,-0.073 -17.77857,-0.5154 -22.17857,-0.9828 z m -20.5,-22.8864 c -7.975,-0.3564 -15.30959,-1.0083 -16.29909,-1.4487 -2.47822,-1.103 -1.71857,-3.8144 1.30434,-4.6556 1.37211,-0.3818 14.96642,-0.739 30.20957,-0.7938 25.43873,-0.091 27.79012,0.044 28.63183,1.6503 0.52226,0.9967 0.55128,2.7186 0.0674,4 -0.83098,2.2007 -1.16278,2.2461 -15.13183,2.0728 -7.85523,-0.097 -20.80723,-0.4687 -28.78223,-0.825 z m 27,-21.1297 c -7.425,-0.3475 -20.25,-0.6911 -28.5,-0.7636 -16.84167,-0.148 -19.5,-0.5706 -19.5,-3.0998 0,-3.5771 4.39556,-4.0534 36.51182,-3.9567 17.0435,0.051 32.56318,-0.051 34.48818,-0.2273 3.28193,-0.3007 3.51922,-0.1223 3.8084,2.8629 0.52315,5.4003 -3.90439,6.2566 -26.8084,5.1845 z"
         id="path4523"
         inkscape:connector-curvature="0" />
      <path
         style="fill:#2e2e2e"
         d="m 797.19092,1809.1829 c -2.18501,-1.791 -4.22249,-2.4651 -7.5,-2.4814 -2.475,-0.012 -7.5879,-0.6766 -11.362,-1.4762 -6.54953,-1.3876 -7.19984,-1.7972 -14.2808,-8.9939 -6.0666,-6.1658 -7.83681,-7.4352 -9.7122,-6.9645 -8.24205,2.0686 -4.4956,-13.4151 5.62118,-23.2319 9.83232,-9.5407 26.23391,-18.6636 45.23382,-25.1599 18.24121,-6.237 21.80618,-6.4683 81.19841,-5.2685 35.03133,0.7077 54.14,0.739 55.84297,0.092 5.22262,-1.9856 11.87769,-0.39 12.98998,3.1145 0.31339,0.9875 -0.41202,4.0776 -1.61201,6.8671 -2.11818,4.9238 -2.15611,5.6887 -1.30058,26.2262 l 0.88123,21.1545 2.91135,1.6089 c 3.78159,2.09 5.02599,4.1661 4.27933,7.1398 -1.5085,6.0077 -1.71615,6.0677 -21.23907,6.1428 -10.10271,0.039 -20.35635,-0.4389 -23.45161,-1.0927 -6.05029,-1.278 -5.52403,-1.2683 -49,-0.9005 -39.71267,0.336 -54.60234,1.3217 -58.20951,3.8535 -3.65186,2.563 -7.66901,2.3391 -11.29049,-0.6294 z m 37,-11.981 c 9.35,-0.2119 23.63508,-0.6505 31.74461,-0.9747 9.62523,-0.3848 15.43471,-0.2201 16.7322,0.4743 1.41475,0.7571 4.62046,0.7261 11.12275,-0.1078 7.36821,-0.945 10.99834,-0.9016 18.7678,0.2243 13.9225,2.0176 27.09095,1.8085 30.59231,-0.4857 l 2.76746,-1.8133 -0.70623,-22.1526 c -0.60255,-18.9001 -0.9569,-22.4127 -2.41354,-23.9247 -2.52457,-2.6205 -15.4617,-3.7989 -45.60736,-4.1541 -14.3,-0.1685 -33.65,-0.6525 -43,-1.0757 -20.42565,-0.9243 -30.13601,0.1537 -44.10799,4.8967 -13.43784,4.5616 -23.39201,8.6523 -23.39201,9.6129 0,1.2982 -6.34137,4.6463 -10.15544,5.3618 -3.86156,0.7244 -15.84456,10.7184 -15.84456,13.2145 0,1.8767 2.42973,1.8081 4.02456,-0.1135 1.09315,-1.3171 1.52436,-0.9602 3.10485,2.5699 2.42952,5.4265 5.24726,8.9002 9.15985,11.2921 9.86205,6.0291 12.21869,6.7597 14.48711,4.4912 0.90183,-0.9018 1.64352,-0.7536 3.17803,0.6351 2.03145,1.8385 16.20856,3.808 20.5456,2.8543 1.1,-0.2419 9.65,-0.6132 19,-0.825 z m 189.99998,4.8267 c -30.41399,-6.8927 -41.79424,-10.531 -41.28862,-13.2 0.5182,-2.7354 7.84273,-2.4507 24.08472,0.9362 8.3622,1.7437 20.1491,3.4581 26.1931,3.8097 9.4921,0.5523 11.036,0.8845 11.3328,2.4386 0.189,0.9895 -0.379,2.902 -1.2622,4.25 -1.488,2.2709 -2.1731,2.4423 -9.3328,2.3348 -4.2498,-0.064 -8.627,-0.32 -9.727,-0.5693 z m 14,-21.3928 c -6.4343,-1.3479 -28.584,-3.9272 -33.7008,-3.9245 -5.25726,0 -14.84118,-1.7833 -16.15608,-3.0111 -0.4713,-0.44 0.34364,-1.5867 1.81098,-2.5482 2.40212,-1.5739 4.4798,-1.6767 20.8569,-1.0322 10.004,0.3937 22.689,1.251 28.189,1.905 9.7285,1.1568 10.0084,1.2611 10.3071,3.8424 0.2146,1.8544 -0.3792,3.1341 -1.9725,4.25 -2.4747,1.7333 -3.3133,1.7799 -9.3346,0.5186 z m -2.5,-22.0581 c -3.575,-0.4855 -16.625,-1.2353 -29,-1.6663 -13.62295,-0.4744 -23.28905,-1.2356 -24.49998,-1.9291 -1.85663,-1.0635 -1.71348,-1.2659 1.99697,-2.8236 5.5479,-2.3291 36.27681,-3.1574 54.50301,-1.469 7.425,0.6878 14.0625,1.2746 14.75,1.304 1.877,0.08 1.5035,4.8073 -0.5,6.3282 -1.9585,1.4867 -7.5721,1.5699 -17.25,0.2558 z m -315.44727,-49.8149 -11.9473,-0.5489 -1.7953,-3.0797 c -1.8603,-3.1912 -3.45141,-10.726 -6.95172,-32.9203 -3.04866,-19.3306 -1.78442,-34.0476 3.50261,-40.7738 1.18887,-1.5125 2.5539,-1.7023 9.26663,-1.2885 4.3298,0.2669 11.69737,0.9946 16.37237,1.617 5.40323,0.7195 33.092,1.2353 76,1.416 l 67.5,0.2843 9.72553,2.5551 c 18.53585,4.8698 30.61436,13.7094 36.79906,26.9314 4.62281,9.8828 4.77421,12.0535 1.02677,14.7219 -2.90588,2.0692 -3.0961,2.5554 -2.51521,6.4291 0.57691,3.8471 0.29358,4.597 -3.45704,9.149 -5.29913,6.4315 -9.13977,8.4561 -16.06351,8.4679 -5.62595,0.01 -20.40594,2.6782 -31.40241,5.6699 -8.03662,2.1864 -32.6681,2.3676 -45.11319,0.3319 -11.1445,-1.823 -52.66046,-1.9876 -66.5,-0.2636 -13.28539,1.6549 -20.67517,1.9341 -34.44729,1.3013 z m 135.44729,-7.1104 c 14.57738,-2.3468 40.46921,-9.0954 43.53688,-11.3477 1.90261,-1.397 1.87622,-1.4746 -0.85622,-2.5177 -2.12087,-0.8097 -2.74023,-1.6333 -2.5,-3.3247 0.31397,-2.2106 2.25807,-3.5016 11.28516,-7.4943 2.18121,-0.9648 4.63512,-2.9499 5.45315,-4.4114 1.40922,-2.5177 1.30052,-2.9378 -2.06986,-8 -7.64612,-11.4841 -15.38636,-16.9498 -29.34911,-20.7245 -11.42873,-3.0897 -13.13687,-3.218 -51.34353,-3.8568 -46.35784,-0.775 -65.24859,-0.5693 -66.54264,0.7248 -0.55761,0.5576 -2.52841,1.0138 -4.37957,1.0138 -1.85116,0 -4.27359,0.4859 -5.38319,1.0797 -1.57773,0.8444 -2.42816,0.708 -3.90185,-0.6257 -1.60393,-1.4515 -3.42467,-1.6314 -12.23265,-1.2084 -7.82221,0.3756 -10.80599,0.1622 -12.22353,-0.8743 -2.7347,-1.9997 -14.41545,-1.8144 -17.39992,0.276 -2.33061,1.6325 -2.34768,1.784 -1.88607,16.75 0.35063,11.3679 0.87325,15.8865 2.11339,18.2721 0.97317,1.8721 1.81699,6.4485 2.06146,11.1803 0.22764,4.406 0.71337,8.4954 1.07941,9.0877 2.20741,3.5717 9.13729,4.4602 33.53869,4.3002 6.325,-0.041 25.9,-0.1824 43.5,-0.3132 25.01284,-0.1858 33.96514,0.096 41,1.2925 11.10518,1.8882 18.07465,2.0779 26.5,0.7216 z m -206.5,0.9457 c -4.4,-0.4674 -14.44064,-1.2457 -22.31253,-1.7295 -14.87294,-0.9142 -17.55556,-1.7649 -15.55405,-4.9322 0.94667,-1.4981 2.83262,-1.7105 14.47752,-1.6301 23.39526,0.1616 60.97189,1.3408 61.94796,1.944 1.45893,0.9017 1.11139,4.1505 -0.63033,5.8922 -1.29456,1.2945 -4.06952,1.548 -15.75,1.4384 -7.79821,-0.073 -17.77857,-0.5154 -22.17857,-0.9828 z m -20.5,-22.8864 c -7.975,-0.3564 -15.30959,-1.0083 -16.29909,-1.4487 -2.47822,-1.103 -1.71857,-3.8144 1.30434,-4.6556 1.37211,-0.3818 14.96642,-0.739 30.20957,-0.7938 25.43873,-0.091 27.79012,0.044 28.63183,1.6503 0.52226,0.9967 0.55128,2.7186 0.0674,4 -0.83098,2.2007 -1.16278,2.2461 -15.13183,2.0728 -7.85523,-0.097 -20.80723,-0.4687 -28.78223,-0.825 z m 27,-21.1297 c -7.425,-0.3475 -20.25,-0.6911 -28.5,-0.7636 -16.84167,-0.148 -19.5,-0.5706 -19.5,-3.0998 0,-3.5771 4.39556,-4.0534 36.51182,-3.9567 17.0435,0.051 32.56318,-0.051 34.48818,-0.2273 3.28193,-0.3007 3.51922,-0.1223 3.8084,2.8629 0.52315,5.4003 -3.90439,6.2566 -26.8084,5.1845 z"
         id="path4521"
         inkscape:connector-curvature="0" />
      <path
         style="fill:#040404"
         d="m 797.3949,1808.1587 c -2.7065,-1.8391 -4.92159,-2.4448 -8.94083,-2.4448 -2.93862,0 -7.97526,-0.6856 -11.19253,-1.5236 -5.07754,-1.3226 -6.73936,-2.4349 -12.59132,-8.4278 -5.29367,-5.4212 -7.46533,-6.9734 -10.11052,-7.2264 -4.16032,-0.3979 -4.72788,-2.7196 -2.38742,-9.7661 3.97176,-11.9578 20.09912,-23.9919 46.01864,-34.3386 22.43929,-8.9575 26.16873,-9.2746 92.19779,-7.839 42.6524,0.9273 49.75272,0.8738 53.36888,-0.402 3.40471,-1.2013 4.63759,-1.2424 6.70997,-0.2241 4.26192,2.0943 4.8462,4.0406 2.66401,8.8741 -2.03046,4.4974 -2.28046,10.0883 -1.57752,35.2786 0.34679,12.4277 1.11926,15.3067 4.23086,15.7683 4.00889,0.5947 4.95681,5.1992 2.00507,9.7396 -1.3397,2.0608 -27.48567,2.334 -40.99362,0.4284 -12.56162,-1.7721 -21.28812,-1.8605 -28.84318,-0.292 -4.37943,0.9091 -8.92399,0.8909 -20.12498,-0.081 -8.70206,-0.755 -18.68648,-0.9785 -25.05271,-0.5609 -5.82151,0.3819 -15.60361,1.0303 -21.73799,1.4408 -6.13439,0.4105 -11.75939,1.2242 -12.5,1.8082 -3.02825,2.388 -7.43998,2.3041 -11.1426,-0.2118 z m 143.10444,-9.9805 c 4.11348,-1.2216 5.30333,-2.0614 5.81624,-4.105 0.35465,-1.413 0.26454,-9.3844 -0.20025,-17.7142 -0.46479,-8.3298 -0.74584,-17.4521 -0.62455,-20.2717 0.2709,-6.2976 -1.65614,-9.0617 -7.29986,-10.4707 -2.2,-0.5492 -20.2,-1.4324 -40,-1.9626 -19.8,-0.5302 -40.5,-1.2296 -46,-1.5541 -5.5,-0.3245 -14.5,-0.125 -20,0.4434 -15.45613,1.5972 -41.09809,10.2209 -48.47723,16.3034 -1.91315,1.5769 -4.41283,2.8672 -5.55483,2.8672 -4.63063,0 -18.46794,11.4173 -18.46794,15.2381 0,1.0476 -0.675,2.5798 -1.5,3.4048 -2.11835,2.1183 -1.86144,4.3571 0.5,4.3571 1.4712,0 2,-0.6667 2,-2.5214 0,-1.7203 0.79572,-2.884 2.50423,-3.6625 1.37732,-0.6275 2.64724,-0.9554 2.82203,-0.7285 0.1748,0.2268 1.54775,2.5599 3.05101,5.1847 2.57311,4.4928 5.40246,6.8298 14.35928,11.8606 2.61351,1.4679 4.54322,1.8496 7.01059,1.3867 2.19198,-0.4112 3.96627,-0.1723 4.98193,0.6709 1.18598,0.9845 6.0687,1.2769 19.6742,1.178 81.98288,-0.5958 102.42962,-0.5171 105.59673,0.4063 5.29396,1.5435 14.02598,1.4067 19.80842,-0.3105 z m 82.69156,2.8402 c -28.47697,-6.5998 -39.49998,-10.0349 -39.49998,-12.3096 0,-1.8265 9.35583,-1.0252 23.99998,2.0556 7.975,1.6777 19.3375,3.3164 25.25,3.6416 11.3222,0.6226 12.0439,1.0218 9.7148,5.3736 -0.9031,1.6876 -2.0831,1.9195 -9.25,1.8183 -4.5181,-0.064 -9.1148,-0.3246 -10.2148,-0.5795 z m 14,-21.3299 c -5.7874,-1.1736 -30.3532,-3.9935 -34.7008,-3.9833 -2.0354,0 -6.0588,-0.497 -8.94088,-1.1151 -4.79259,-1.0278 -5.0794,-1.2414 -3.35809,-2.5 2.52566,-1.8468 23.27297,-1.7864 42.49977,0.1238 7.975,0.7923 14.8375,1.4539 15.25,1.4703 1.2067,0.048 0.8616,4.5181 -0.45,5.8297 -1.3358,1.3359 -4.324,1.3865 -10.3,0.1746 z m 9.4007,-20.4072 c -0.9703,-0.9703 -22.6668,-2.7124 -42.0777,-3.3785 -19.01858,-0.6527 -23.16031,-1.1849 -21.57317,-2.772 2.96306,-2.9631 52.10557,-3.1577 70.50017,-0.2792 0.6875,0.1076 1.25,1.3206 1.25,2.6956 0,1.375 -0.2841,2.2159 -0.6313,1.8687 -0.3473,-0.3473 -1.5724,0.028 -2.7225,0.8333 -2.0805,1.4572 -3.9202,1.8573 -4.7455,1.0321 z m -328.89124,-51.4461 c -11.26083,-0.7372 -10.88844,-0.3133 -14.02621,-15.9654 -6.13668,-30.6116 -6.55754,-50.1657 -1.25043,-58.0973 0.94158,-1.4072 1.61189,-2.8961 1.48958,-3.3086 -0.12231,-0.4125 1.37918,-0.75 3.33664,-0.75 1.95746,0 3.32043,0.386 3.02883,0.8579 -1.3014,2.1057 33.17311,3.0419 118.91215,3.2292 37.79377,0.082 44.49572,0.5997 58.3191,4.5002 7.73412,2.1823 17.91486,8.3155 23.0494,13.8859 4.32483,4.6919 11.1315,17.4396 11.1315,20.8474 0,1.0323 -1.31725,3.1075 -2.92721,4.6114 -2.56811,2.399 -2.86006,3.2351 -2.37982,6.8156 0.51081,3.8084 0.22471,4.4261 -4.2809,9.243 -2.65556,2.839 -5.60606,5.578 -6.55665,6.0868 -0.9506,0.5087 -5.24445,1.111 -9.54189,1.3385 -4.29744,0.2274 -13.21353,1.6332 -19.81353,3.1241 -22.24292,5.0244 -31.3561,5.5181 -53.00613,2.8716 -15.03924,-1.8384 -52.31911,-2.1371 -65.49387,-0.5247 -11.83288,1.4481 -28.75032,1.9703 -39.99056,1.2344 z m 151.49056,-8.2948 c 7.15,-1.6545 15.78897,-3.6139 19.19771,-4.3542 6.50107,-1.4118 9.65609,-2.73 12.52871,-5.2344 2.17188,-1.8936 1.4017,-3.2379 -1.85499,-3.2379 -2.02358,0 -2.44855,-0.4311 -2.19098,-2.2228 0.23993,-1.6689 1.86731,-2.8675 6.53132,-4.8104 12.22837,-5.094 13.16436,-8.6119 5.13542,-19.3017 -5.75564,-7.663 -12.49341,-12.6274 -21.19466,-15.616 -13.39324,-4.6002 -17.46275,-4.8944 -72.15253,-5.2169 -49.68596,-0.2929 -56.52663,-0.01 -62.62096,2.591 -1.04629,0.4465 -1.84563,0.1062 -2.2547,-0.9598 -0.54319,-1.4155 -2.16903,-1.6166 -11.37904,-1.4076 -5.90991,0.1341 -11.6453,-0.161 -12.7453,-0.656 -1.1,-0.4949 -5.52726,-0.8998 -9.83835,-0.8998 -7.1514,0 -8.01677,0.2191 -9.87404,2.5 -1.8875,2.318 -1.99835,3.4827 -1.52279,16 0.31823,8.3763 1.10556,15.2079 2.07449,18 0.85888,2.475 1.83665,7.65 2.17282,11.5 0.92853,10.634 1.08828,11.0254 5.21637,12.7792 3.93611,1.6723 11.22712,2.1402 29.7715,1.9106 54.90266,-0.6797 78.45919,-0.3854 87,1.0871 11.63102,2.0052 21.49368,1.3692 38,-2.4504 z m -202.5,3.66 c -1.375,-0.1894 -12.85,-1.0816 -25.5,-1.9826 -28.86043,-2.0558 -29.70926,-2.1788 -29.31082,-4.2477 0.57511,-2.9863 6.45875,-3.5804 22.31082,-2.2527 8.25,0.6909 23.55,1.3804 34,1.5321 17.59074,0.2554 19.01897,0.4127 19.25573,2.1201 0.49797,3.5913 -1.17482,4.4069 -9.83749,4.7965 -4.63003,0.2082 -9.54324,0.2236 -10.91824,0.034 z m -18,-23.4744 c -5.775,-0.4219 -15.70149,-0.8222 -22.05887,-0.8896 -8.2384,-0.087 -12.11604,-0.5299 -13.49843,-1.5407 -1.06675,-0.7801 -1.62826,-1.7296 -1.24778,-2.1101 1.62776,-1.6277 18.82849,-2.383 38.79324,-1.7033 17.92956,0.6104 21.53132,0.98 21.74875,2.2316 0.7656,4.407 -4.99672,5.3809 -23.73691,4.0121 z m -1,-22.0104 c -5.225,-0.4473 -16.3625,-0.897 -24.75,-0.9993 -13.75738,-0.1679 -15.25,-0.3566 -15.25,-1.9276 0,-0.9578 0.7875,-1.8855 1.75,-2.0614 0.9625,-0.176 16.15,-0.4935 33.75,-0.7055 17.6,-0.212 33.56375,-0.4805 35.47499,-0.5967 3.94057,-0.2395 4.98182,1.598 2.68526,4.7388 -1.21506,1.6616 -2.88385,1.9409 -12.77891,2.138 -6.25974,0.1248 -15.65634,-0.1391 -20.88134,-0.5863 z"
         id="path4519"
         inkscape:connector-curvature="0" />
    </g>
  </g>
</svg>
